  0
SECTION
  2
HEADER
  9
$EXTMIN
 10
0.0
 20
0.0
 30
0.0
  9
$INSBASE
 10
0.0
 20
0.0
 30
0.0
  9
$EXTMAX
 10
100.0
 20
100.0
 30
0.0
  9
$ACADVER
  1
AC1009
  0
ENDSEC
  0
SECTION
  2
TABLES
  0
TABLE
  2
LTYPE
 70
19
  0
LTYPE
  2
DASHEDX2
 70
0
  3
Dashed (2x) ____  ____  ____  ____  ____  ____
 72
65
 73
2
 40
1.2
 49
1.0
 49
-0.2
  0
LTYPE
  2
DIVIDEX2
 70
0
  3
Divide (2x) ____  . .  ____  . .  ____  . .  ____
 72
65
 73
6
 40
2.6
 49
2.0
 49
-0.2
 49
0.0
 49
-0.2
 49
0.0
 49
-0.2
  0
LTYPE
  2
PHANTOM
 70
0
  3
Phantom ______  __  __  ______  __  __  ______
 72
65
 73
6
 40
2.5
 49
1.25
 49
-0.25
 49
0.25
 49
-0.25
 49
0.25
 49
-0.25
  0
LTYPE
  2
DOT
 70
0
  3
Dot .  .  .  .  .  .  .  .  .  .  .  .  .  .  .  .
 72
65
 73
2
 40
0.2
 49
0.0
 49
-0.2
  0
LTYPE
  2
CONTINUOUS
 70
0
  3
Solid
 72
65
 73
0
 40
0.0
  0
LTYPE
  2
PHANTOM2
 70
0
  3
Phantom (.5x) ___ _ _ ___ _ _ ___ _ _ ___ _ _ ___
 72
65
 73
6
 40
1.25
 49
0.625
 49
-0.125
 49
0.125
 49
-0.125
 49
0.125
 49
-0.125
  0
LTYPE
  2
DOTX2
 70
0
  3
Dot (2x) .    .    .    .    .    .    .    . 
 72
65
 73
2
 40
0.4
 49
0.0
 49
-0.4
  0
LTYPE
  2
DASHED
 70
0
  3
Dashed __ __ __ __ __ __ __ __ __ __ __ __ __ _
 72
65
 73
2
 40
0.6
 49
0.5
 49
-0.1
  0
LTYPE
  2
PHANTOMX2
 70
0
  3
Phantom (2x)____________    ____    ____    ____________
 72
65
 73
6
 40
4.25
 49
2.5
 49
-0.25
 49
0.5
 49
-0.25
 49
0.5
 49
-0.25
  0
LTYPE
  2
CENTER
 70
0
  3
Center ____ _ ____ _ ____ _ ____ _ ____ _ ____
 72
65
 73
4
 40
2.0
 49
1.25
 49
-0.25
 49
0.25
 49
-0.25
  0
LTYPE
  2
DASHDOT
 70
0
  3
Dash dot __ . __ . __ . __ . __ . __ . __ . __
 72
65
 73
4
 40
1.4
 49
1.0
 49
-0.2
 49
0.0
 49
-0.2
  0
LTYPE
  2
DASHDOTX2
 70
0
  3
Dash dot (2x) ____  .  ____  .  ____  .  ____
 72
65
 73
4
 40
2.4
 49
2.0
 49
-0.2
 49
0.0
 49
-0.2
  0
LTYPE
  2
CENTER2
 70
0
  3
Center (.5x) ____ _ ____ _ ____ _ ____ _ ____
 72
65
 73
4
 40
1.0
 49
0.625
 49
-0.125
 49
0.125
 49
-0.125
  0
LTYPE
  2
DIVIDE
 70
0
  3
Divide __ . . __ . . __ . . __ . . __ . . __
 72
65
 73
6
 40
1.6
 49
1.0
 49
-0.2
 49
0.0
 49
-0.2
 49
0.0
 49
-0.2
  0
LTYPE
  2
DASHDOT2
 70
0
  3
Dash dot (.5x) _ . _ . _ . _ . _ . _ . _ . _
 72
65
 73
4
 40
0.7
 49
0.5
 49
-0.1
 49
0.0
 49
-0.1
  0
LTYPE
  2
DASHED2
 70
0
  3
Dashed (.5x) _ _ _ _ _ _ _ _ _ _ _ _ _ _
 72
65
 73
2
 40
0.3
 49
0.25
 49
-0.05
  0
LTYPE
  2
CENTERX2
 70
0
  3
Center (2x) ________  __  ________  __  ________
 72
65
 73
4
 40
3.5
 49
2.5
 49
-0.25
 49
0.5
 49
-0.25
  0
LTYPE
  2
DOT2
 70
0
  3
Dot (.5) . . . . . . . . . . . . . . . . . . . 
 72
65
 73
2
 40
0.1
 49
0.0
 49
-0.1
  0
LTYPE
  2
DIVIDE2
 70
0
  3
Divide(.5x) _ . _ . _ . _ . _ . _ . _ . _
 72
65
 73
6
 40
0.8
 49
0.5
 49
-0.1
 49
0.0
 49
-0.1
 49
0.0
 49
-0.1
  0
ENDTAB
  0
TABLE
  2
LAYER
 70
5
  0
LAYER
  2
VIEWPORTS
 70
0
 62
7
  6
CONTINUOUS
  0
LAYER
  2
TABLEBACKGROUND
 70
0
 62
1
  6
CONTINUOUS
  0
LAYER
  2
TABLECONTENT
 70
0
 62
1
  6
CONTINUOUS
  0
LAYER
  2
TABLEGRID
 70
0
 62
1
  6
CONTINUOUS
  0
LAYER
  2
DIMENSIONS
 70
0
 62
1
  6
CONTINUOUS
  0
ENDTAB
  0
TABLE
  2
STYLE
 70
12
  0
STYLE
  2
ARIAL_BOLD_ITALIC
 70
0
 40
0.0
 41
1.0
 42
1.0
 50
0.0
 71
0
  3
arialbi.ttf
  4

  0
STYLE
  2
ARIAL_ITALIC
 70
0
 40
0.0
 41
1.0
 42
1.0
 50
0.0
 71
0
  3
ariali.ttf
  4

  0
STYLE
  2
ARIAL_BLACK
 70
0
 40
0.0
 41
1.0
 42
1.0
 50
0.0
 71
0
  3
ariblk.ttf
  4

  0
STYLE
  2
TIMES_ITALIC
 70
0
 40
0.0
 41
1.0
 42
1.0
 50
0.0
 71
0
  3
timesi.ttf
  4

  0
STYLE
  2
TIMES
 70
0
 40
0.0
 41
1.0
 42
1.0
 50
0.0
 71
0
  3
times.ttf
  4

  0
STYLE
  2
ISOCPEUR_ITALIC
 70
0
 40
0.0
 41
1.0
 42
1.0
 50
0.0
 71
0
  3
isocpeui.ttf
  4

  0
STYLE
  2
ARIAL_BOLD
 70
0
 40
0.0
 41
1.0
 42
1.0
 50
0.0
 71
0
  3
arialbd.ttf
  4

  0
STYLE
  2
TIMES_BOLD
 70
0
 40
0.0
 41
1.0
 42
1.0
 50
0.0
 71
0
  3
timesbd.ttf
  4

  0
STYLE
  2
ARIAL
 70
0
 40
0.0
 41
1.0
 42
1.0
 50
0.0
 71
0
  3
arial.ttf
  4

  0
STYLE
  2
TIMES_BOLD_ITALIC
 70
0
 40
0.0
 41
1.0
 42
1.0
 50
0.0
 71
0
  3
timesbi.ttf
  4

  0
STYLE
  2
ISOCPEUR
 70
0
 40
0.0
 41
1.0
 42
1.0
 50
0.0
 71
0
  3
isocpeur.ttf
  4

  0
STYLE
  2
STANDARD
 70
0
 40
0.0
 41
1.0
 42
1.0
 50
0.0
 71
0
  3
arial.ttf
  4

  0
ENDTAB
  0
TABLE
  2
VIEW
 70
0
  0
ENDTAB
  0
TABLE
  2
APPID
 70
1
  0
APPID
  2
DXFWRITE
 70
0
  0
ENDTAB
  0
TABLE
  2
VPORT
 70
0
  0
ENDTAB
  0
TABLE
  2
UCS
 70
0
  0
ENDTAB
  0
ENDSEC
  0
SECTION
  2
BLOCKS
  0
ENDSEC
  0
SECTION
  2
ENTITIES
  0
VIEWPORT
  8
VIEWPORTS
 67
1
 10
0.0
 20
0.0
 30
0.0
 40
1.0
 41
1.0
 68
1
 69
1
1001
ACAD
1000
MVIEW
1002
{
1070
16
1010
0.0
1020
0.0
1030
0.0
1010
0.0
1020
0.0
1030
0.0
1040
0.0
1040
1.0
1040
0.0
1040
0.0
1040
50.0
1040
0.0
1040
0.0
1070
0
1070
100
1070
1
1070
3
1070
0
1070
0
1070
0
1070
0
1040
0.0
1040
0.0
1040
0.0
1040
0.1
1040
0.1
1040
0.1
1040
0.1
1070
0
1002
{
1002
}
1002
}
  0
POLYLINE
 62
256
  8
0
 66
1
 10
0.0
 20
0.0
 30
0.0
 70
9
  0
VERTEX
  8
0
 10
0.0
 20
0.0
 30
0.0
  0
VERTEX
  8
0
 10
0.34109934331751335
 20
0.0
 30
0.0
  0
VERTEX
  8
0
 10
0.34109934331751335
 20
0.15917969354817288
 30
0.0
  0
VERTEX
  8
0
 10
0.0
 20
0.15917969354817288
 30
0.0
  0
SEQEND
  0
SOLID
 62
150
  8
0
 10
0.0
 20
0.0
 30
0.0
 11
0.34109934331751335
 21
0.0
 31
0.0
 13
0.34109934331751335
 23
0.15917969354817288
 33
0.0
 12
0.0
 22
0.15917969354817288
 32
0.0
  0
POLYLINE
 62
187
  8
0
 66
1
 10
0.0
 20
0.0
 30
0.0
 70
9
  0
VERTEX
  8
0
 10
40.0
 20
0.0
 30
0.0
  0
VERTEX
  8
0
 10
40.18731882714706
 20
0.2850621318377608
 30
0.0
  0
VERTEX
  8
0
 10
40.054289832289435
 20
0.3724775845063885
 30
0.0
  0
VERTEX
  8
0
 10
39.866971005142375
 20
0.08741545266862771
 30
0.0
  0
SEQEND
  0
POLYLINE
 62
256
  8
0
 66
1
 10
0.0
 20
0.0
 30
0.0
 70
9
  0
VERTEX
  8
0
 10
0.0
 20
3.0
 30
0.0
  0
VERTEX
  8
0
 10
1.0983526160369486
 20
3.0
 30
0.0
  0
VERTEX
  8
0
 10
1.0983526160369486
 20
3.512564554150576
 30
0.0
  0
VERTEX
  8
0
 10
0.0
 20
3.512564554150576
 30
0.0
  0
SEQEND
  0
SOLID
 62
86
  8
0
 10
0.0
 20
3.0
 30
0.0
 11
1.0983526160369486
 21
3.0
 31
0.0
 13
1.0983526160369486
 23
3.512564554150576
 33
0.0
 12
0.0
 22
3.512564554150576
 32
0.0
  0
POLYLINE
 62
4
  8
0
 66
1
 10
0.0
 20
0.0
 30
0.0
 70
9
  0
VERTEX
  8
0
 10
40.0
 20
3.0
 30
0.0
  0
VERTEX
  8
0
 10
41.08934205468901
 20
3.140400701711651
 30
0.0
  0
VERTEX
  8
0
 10
41.02382172722358
 20
3.648760327233191
 30
0.0
  0
VERTEX
  8
0
 10
39.934479672534565
 20
3.50835962552154
 30
0.0
  0
SEQEND
  0
POLYLINE
 62
256
  8
0
 66
1
 10
0.0
 20
0.0
 30
0.0
 70
9
  0
VERTEX
  8
0
 10
0.0
 20
6.0
 30
0.0
  0
VERTEX
  8
0
 10
1.3481777589278467
 20
6.0
 30
0.0
  0
VERTEX
  8
0
 10
1.3481777589278467
 20
6.629149620832995
 30
0.0
  0
VERTEX
  8
0
 10
0.0
 20
6.629149620832995
 30
0.0
  0
SEQEND
  0
SOLID
 62
221
  8
0
 10
0.0
 20
6.0
 30
0.0
 11
1.3481777589278467
 21
6.0
 31
0.0
 13
1.3481777589278467
 23
6.629149620832995
 33
0.0
 12
0.0
 22
6.629149620832995
 32
0.0
  0
POLYLINE
 62
96
  8
0
 66
1
 10
0.0
 20
0.0
 30
0.0
 70
9
  0
VERTEX
  8
0
 10
40.0
 20
6.0
 30
0.0
  0
VERTEX
  8
0
 10
40.81622712190592
 20
7.073012840152854
 30
0.0
  0
VERTEX
  8
0
 10
40.31548779650125
 20
7.453918830375615
 30
0.0
  0
VERTEX
  8
0
 10
39.499260674595334
 20
6.380905990222761
 30
0.0
  0
SEQEND
  0
POLYLINE
 62
256
  8
0
 66
1
 10
0.0
 20
0.0
 30
0.0
 70
9
  0
VERTEX
  8
0
 10
0.0
 20
9.0
 30
0.0
  0
VERTEX
  8
0
 10
1.2392019369108724
 20
9.0
 30
0.0
  0
VERTEX
  8
0
 10
1.2392019369108724
 20
9.578294237225073
 30
0.0
  0
VERTEX
  8
0
 10
0.0
 20
9.578294237225073
 30
0.0
  0
SEQEND
  0
SOLID
 62
170
  8
0
 10
0.0
 20
9.0
 30
0.0
 11
1.2392019369108724
 21
9.0
 31
0.0
 13
1.2392019369108724
 23
9.578294237225073
 33
0.0
 12
0.0
 22
9.578294237225073
 32
0.0
  0
POLYLINE
 62
24
  8
0
 66
1
 10
0.0
 20
0.0
 30
0.0
 70
9
  0
VERTEX
  8
0
 10
40.0
 20
9.0
 30
0.0
  0
VERTEX
  8
0
 10
40.94348543722985
 20
9.803403180339018
 30
0.0
  0
VERTEX
  8
0
 10
40.568563953071646
 20
10.243696384379618
 30
0.0
  0
VERTEX
  8
0
 10
39.62507851584179
 20
9.440293204040598
 30
0.0
  0
SEQEND
  0
POLYLINE
 62
256
  8
0
 66
1
 10
0.0
 20
0.0
 30
0.0
 70
9
  0
VERTEX
  8
0
 10
0.0
 20
12.0
 30
0.0
  0
VERTEX
  8
0
 10
0.4007522495187431
 20
12.0
 30
0.0
  0
VERTEX
  8
0
 10
0.4007522495187431
 20
12.18701771644208
 30
0.0
  0
VERTEX
  8
0
 10
0.0
 20
12.18701771644208
 30
0.0
  0
SEQEND
  0
SOLID
 62
197
  8
0
 10
0.0
 20
12.0
 30
0.0
 11
0.4007522495187431
 21
12.0
 31
0.0
 13
0.4007522495187431
 23
12.18701771644208
 33
0.0
 12
0.0
 22
12.18701771644208
 32
0.0
  0
POLYLINE
 62
182
  8
0
 66
1
 10
0.0
 20
0.0
 30
0.0
 70
9
  0
VERTEX
  8
0
 10
40.0
 20
12.0
 30
0.0
  0
VERTEX
  8
0
 10
40.277687541545475
 20
12.28894981357454
 30
0.0
  0
VERTEX
  8
0
 10
40.14284429521069
 20
12.41853733296243
 30
0.0
  0
VERTEX
  8
0
 10
39.86515675366522
 20
12.12958751938789
 30
0.0
  0
SEQEND
  0
POLYLINE
 62
256
  8
0
 66
1
 10
0.0
 20
0.0
 30
0.0
 70
9
  0
VERTEX
  8
0
 10
0.0
 20
15.0
 30
0.0
  0
VERTEX
  8
0
 10
0.8735178108802124
 20
15.0
 30
0.0
  0
VERTEX
  8
0
 10
0.8735178108802124
 20
15.407641645077433
 30
0.0
  0
VERTEX
  8
0
 10
0.0
 20
15.407641645077433
 30
0.0
  0
SEQEND
  0
SOLID
 62
207
  8
0
 10
0.0
 20
15.0
 30
0.0
 11
0.8735178108802124
 21
15.0
 31
0.0
 13
0.8735178108802124
 23
15.407641645077433
 33
0.0
 12
0.0
 22
15.407641645077433
 32
0.0
  0
POLYLINE
 62
216
  8
0
 66
1
 10
0.0
 20
0.0
 30
0.0
 70
9
  0
VERTEX
  8
0
 10
40.0
 20
15.0
 30
0.0
  0
VERTEX
  8
0
 10
40.86006168462702
 20
15.15273265715455
 30
0.0
  0
VERTEX
  8
0
 10
40.788786444621564
 20
15.55409477664716
 30
0.0
  0
VERTEX
  8
0
 10
39.928724759994545
 20
15.40136211949261
 30
0.0
  0
SEQEND
  0
POLYLINE
 62
256
  8
0
 66
1
 10
0.0
 20
0.0
 30
0.0
 70
9
  0
VERTEX
  8
0
 10
0.0
 20
18.0
 30
0.0
  0
VERTEX
  8
0
 10
0.48185610054224093
 20
18.0
 30
0.0
  0
VERTEX
  8
0
 10
0.48185610054224093
 20
18.224866180253045
 30
0.0
  0
VERTEX
  8
0
 10
0.0
 20
18.224866180253045
 30
0.0
  0
SEQEND
  0
SOLID
 62
85
  8
0
 10
0.0
 20
18.0
 30
0.0
 11
0.48185610054224093
 21
18.0
 31
0.0
 13
0.48185610054224093
 23
18.224866180253045
 33
0.0
 12
0.0
 22
18.224866180253045
 32
0.0
  0
POLYLINE
 62
2
  8
0
 66
1
 10
0.0
 20
0.0
 30
0.0
 70
9
  0
VERTEX
  8
0
 10
40.0
 20
18.0
 30
0.0
  0
VERTEX
  8
0
 10
40.08841832270909
 20
18.47367446821534
 30
0.0
  0
VERTEX
  8
0
 10
39.86737023754193
 20
18.514936352146247
 30
0.0
  0
VERTEX
  8
0
 10
39.77895191483284
 20
18.041261883930908
 30
0.0
  0
SEQEND
  0
POLYLINE
 62
256
  8
0
 66
1
 10
0.0
 20
0.0
 30
0.0
 70
9
  0
VERTEX
  8
0
 10
0.0
 20
21.0
 30
0.0
  0
VERTEX
  8
0
 10
0.43588283121249094
 20
21.0
 30
0.0
  0
VERTEX
  8
0
 10
0.43588283121249094
 20
21.203411987899162
 30
0.0
  0
VERTEX
  8
0
 10
0.0
 20
21.203411987899162
 30
0.0
  0
SEQEND
  0
SOLID
 62
150
  8
0
 10
0.0
 20
21.0
 30
0.0
 11
0.43588283121249094
 21
21.0
 31
0.0
 13
0.43588283121249094
 23
21.203411987899162
 33
0.0
 12
0.0
 22
21.203411987899162
 32
0.0
  0
POLYLINE
 62
140
  8
0
 66
1
 10
0.0
 20
0.0
 30
0.0
 70
9
  0
VERTEX
  8
0
 10
40.0
 20
21.0
 30
0.0
  0
VERTEX
  8
0
 10
40.41789350498977
 20
21.123930871993963
 30
0.0
  0
VERTEX
  8
0
 10
40.36005909805925
 20
21.31894784098919
 30
0.0
  0
VERTEX
  8
0
 10
39.94216559306948
 20
21.195016968995226
 30
0.0
  0
SEQEND
  0
POLYLINE
 62
256
  8
0
 66
1
 10
0.0
 20
0.0
 30
0.0
 70
9
  0
VERTEX
  8
0
 10
0.0
 20
24.0
 30
0.0
  0
VERTEX
  8
0
 10
0.5541994686404497
 20
24.0
 30
0.0
  0
VERTEX
  8
0
 10
0.5541994686404497
 20
24.258626418698878
 30
0.0
  0
VERTEX
  8
0
 10
0.0
 20
24.258626418698878
 30
0.0
  0
SEQEND
  0
SOLID
 62
168
  8
0
 10
0.0
 20
24.0
 30
0.0
 11
0.5541994686404497
 21
24.0
 31
0.0
 13
0.5541994686404497
 23
24.258626418698878
 33
0.0
 12
0.0
 22
24.258626418698878
 32
0.0
  0
POLYLINE
 62
200
  8
0
 66
1
 10
0.0
 20
0.0
 30
0.0
 70
9
  0
VERTEX
  8
0
 10
40.0
 20
24.0
 30
0.0
  0
VERTEX
  8
0
 10
40.52038960872099
 20
24.190608777805675
 30
0.0
  0
VERTEX
  8
0
 10
40.43143884574501
 20
24.43345726187547
 30
0.0
  0
VERTEX
  8
0
 10
39.91104923702402
 20
24.242848484069796
 30
0.0
  0
SEQEND
  0
POLYLINE
 62
256
  8
0
 66
1
 10
0.0
 20
0.0
 30
0.0
 70
9
  0
VERTEX
  8
0
 10
0.0
 20
27.0
 30
0.0
  0
VERTEX
  8
0
 10
0.9635382326745665
 20
27.0
 30
0.0
  0
VERTEX
  8
0
 10
0.9635382326745665
 20
27.449651175248132
 30
0.0
  0
VERTEX
  8
0
 10
0.0
 20
27.449651175248132
 30
0.0
  0
SEQEND
  0
SOLID
 62
129
  8
0
 10
0.0
 20
27.0
 30
0.0
 11
0.9635382326745665
 21
27.0
 31
0.0
 13
0.9635382326745665
 23
27.449651175248132
 33
0.0
 12
0.0
 22
27.449651175248132
 32
0.0
  0
POLYLINE
 62
65
  8
0
 66
1
 10
0.0
 20
0.0
 30
0.0
 70
9
  0
VERTEX
  8
0
 10
40.0
 20
27.0
 30
0.0
  0
VERTEX
  8
0
 10
40.09965584614338
 20
27.95837082497073
 30
0.0
  0
VERTEX
  8
0
 10
39.6524161278237
 20
28.004876886504302
 30
0.0
  0
VERTEX
  8
0
 10
39.55276028168033
 20
27.046506061533574
 30
0.0
  0
SEQEND
  0
POLYLINE
 62
256
  8
0
 66
1
 10
0.0
 20
0.0
 30
0.0
 70
9
  0
VERTEX
  8
0
 10
3.0
 20
0.0
 30
0.0
  0
VERTEX
  8
0
 10
3.7830379480864997
 20
0.0
 30
0.0
  0
VERTEX
  8
0
 10
3.7830379480864997
 20
0.36541770910703314
 30
0.0
  0
VERTEX
  8
0
 10
3.0
 20
0.36541770910703314
 30
0.0
  0
SEQEND
  0
SOLID
 62
46
  8
0
 10
3.0
 20
0.0
 30
0.0
 11
3.7830379480864997
 21
0.0
 31
0.0
 13
3.7830379480864997
 23
0.36541770910703314
 33
0.0
 12
3.0
 22
0.36541770910703314
 32
0.0
  0
POLYLINE
 62
236
  8
0
 66
1
 10
0.0
 20
0.0
 30
0.0
 70
9
  0
VERTEX
  8
0
 10
43.0
 20
0.0
 30
0.0
  0
VERTEX
  8
0
 10
43.21808842063083
 20
0.7520544321591802
 30
0.0
  0
VERTEX
  8
0
 10
42.86712968562321
 20
0.8538290284535663
 30
0.0
  0
VERTEX
  8
0
 10
42.649041264992384
 20
0.10177459629438616
 30
0.0
  0
SEQEND
  0
POLYLINE
 62
256
  8
0
 66
1
 10
0.0
 20
0.0
 30
0.0
 70
9
  0
VERTEX
  8
0
 10
3.0
 20
3.0
 30
0.0
  0
VERTEX
  8
0
 10
3.0511981021238808
 20
3.0
 30
0.0
  0
VERTEX
  8
0
 10
3.0511981021238808
 20
3.023892447657811
 30
0.0
  0
VERTEX
  8
0
 10
3.0
 20
3.023892447657811
 30
0.0
  0
SEQEND
  0
SOLID
 62
186
  8
0
 10
3.0
 20
3.0
 30
0.0
 11
3.0511981021238808
 21
3.0
 31
0.0
 13
3.0511981021238808
 23
3.023892447657811
 33
0.0
 12
3.0
 22
3.023892447657811
 32
0.0
  0
POLYLINE
 62
78
  8
0
 66
1
 10
0.0
 20
0.0
 30
0.0
 70
9
  0
VERTEX
  8
0
 10
43.0
 20
3.0
 30
0.0
  0
VERTEX
  8
0
 10
43.016527924871085
 20
3.048456922730845
 30
0.0
  0
VERTEX
  8
0
 10
42.99391469426336
 20
3.0561699543373515
 30
0.0
  0
VERTEX
  8
0
 10
42.977386769392275
 20
3.0077130316065066
 30
0.0
  0
SEQEND
  0
POLYLINE
 62
256
  8
0
 66
1
 10
0.0
 20
0.0
 30
0.0
 70
9
  0
VERTEX
  8
0
 10
3.0
 20
6.0
 30
0.0
  0
VERTEX
  8
0
 10
3.8035991605064536
 20
6.0
 30
0.0
  0
VERTEX
  8
0
 10
3.8035991605064536
 20
6.375012941569678
 30
0.0
  0
VERTEX
  8
0
 10
3.0
 20
6.375012941569678
 30
0.0
  0
SEQEND
  0
SOLID
 62
76
  8
0
 10
3.0
 20
6.0
 30
0.0
 11
3.8035991605064536
 21
6.0
 31
0.0
 13
3.8035991605064536
 23
6.375012941569678
 33
0.0
 12
3.0
 22
6.375012941569678
 32
0.0
  0
POLYLINE
 62
240
  8
0
 66
1
 10
0.0
 20
0.0
 30
0.0
 70
9
  0
VERTEX
  8
0
 10
43.0
 20
6.0
 30
0.0
  0
VERTEX
  8
0
 10
43.106799522848256
 20
6.796470635168719
 30
0.0
  0
VERTEX
  8
0
 10
42.735113226436184
 20
6.846310412497904
 30
0.0
  0
VERTEX
  8
0
 10
42.628313703587935
 20
6.049839777329185
 30
0.0
  0
SEQEND
  0
POLYLINE
 62
256
  8
0
 66
1
 10
0.0
 20
0.0
 30
0.0
 70
9
  0
VERTEX
  8
0
 10
3.0
 20
9.0
 30
0.0
  0
VERTEX
  8
0
 10
4.349964075453323
 20
9.0
 30
0.0
  0
VERTEX
  8
0
 10
4.349964075453323
 20
9.62998323521155
 30
0.0
  0
VERTEX
  8
0
 10
3.0
 20
9.62998323521155
 30
0.0
  0
SEQEND
  0
SOLID
 62
120
  8
0
 10
3.0
 20
9.0
 30
0.0
 11
4.349964075453323
 21
9.0
 31
0.0
 13
4.349964075453323
 23
9.62998323521155
 33
0.0
 12
3.0
 22
9.62998323521155
 32
0.0
  0
POLYLINE
 62
217
  8
0
 66
1
 10
0.0
 20
0.0
 30
0.0
 70
9
  0
VERTEX
  8
0
 10
43.0
 20
9.0
 30
0.0
  0
VERTEX
  8
0
 10
43.417520772432326
 20
10.283775451394074
 30
0.0
  0
VERTEX
  8
0
 10
42.81842556178175
 20
10.478618478529159
 30
0.0
  0
VERTEX
  8
0
 10
42.40090478934943
 20
9.194843027135084
 30
0.0
  0
SEQEND
  0
POLYLINE
 62
256
  8
0
 66
1
 10
0.0
 20
0.0
 30
0.0
 70
9
  0
VERTEX
  8
0
 10
3.0
 20
12.0
 30
0.0
  0
VERTEX
  8
0
 10
4.418080579903843
 20
12.0
 30
0.0
  0
VERTEX
  8
0
 10
4.418080579903843
 20
12.66177093728846
 30
0.0
  0
VERTEX
  8
0
 10
3.0
 20
12.66177093728846
 30
0.0
  0
SEQEND
  0
SOLID
 62
96
  8
0
 10
3.0
 20
12.0
 30
0.0
 11
4.418080579903843
 21
12.0
 31
0.0
 13
4.418080579903843
 23
12.66177093728846
 33
0.0
 12
3.0
 22
12.66177093728846
 32
0.0
  0
POLYLINE
 62
7
  8
0
 66
1
 10
0.0
 20
0.0
 30
0.0
 70
9
  0
VERTEX
  8
0
 10
43.0
 20
12.0
 30
0.0
  0
VERTEX
  8
0
 10
43.23329712518783
 20
13.398758371728125
 30
0.0
  0
VERTEX
  8
0
 10
42.58054321838137
 20
13.507630363482445
 30
0.0
  0
VERTEX
  8
0
 10
42.34724609319354
 20
12.10887199175432
 30
0.0
  0
SEQEND
  0
POLYLINE
 62
256
  8
0
 66
1
 10
0.0
 20
0.0
 30
0.0
 70
9
  0
VERTEX
  8
0
 10
3.0
 20
15.0
 30
0.0
  0
VERTEX
  8
0
 10
3.705512557335113
 20
15.0
 30
0.0
  0
VERTEX
  8
0
 10
3.705512557335113
 20
15.329239193423053
 30
0.0
  0
VERTEX
  8
0
 10
3.0
 20
15.329239193423053
 30
0.0
  0
SEQEND
  0
SOLID
 62
119
  8
0
 10
3.0
 20
15.0
 30
0.0
 11
3.705512557335113
 21
15.0
 31
0.0
 13
3.705512557335113
 23
15.329239193423053
 33
0.0
 12
3.0
 22
15.329239193423053
 32
0.0
  0
POLYLINE
 62
228
  8
0
 66
1
 10
0.0
 20
0.0
 30
0.0
 70
9
  0
VERTEX
  8
0
 10
43.0
 20
15.0
 30
0.0
  0
VERTEX
  8
0
 10
43.0531471662333
 20
15.703507887147614
 30
0.0
  0
VERTEX
  8
0
 10
42.72484348556441
 20
15.728309898056487
 30
0.0
  0
VERTEX
  8
0
 10
42.67169631933111
 20
15.024802010908873
 30
0.0
  0
SEQEND
  0
POLYLINE
 62
256
  8
0
 66
1
 10
0.0
 20
0.0
 30
0.0
 70
9
  0
VERTEX
  8
0
 10
3.0
 20
18.0
 30
0.0
  0
VERTEX
  8
0
 10
4.481972263704865
 20
18.0
 30
0.0
  0
VERTEX
  8
0
 10
4.481972263704865
 20
18.691587056395605
 30
0.0
  0
VERTEX
  8
0
 10
3.0
 20
18.691587056395605
 30
0.0
  0
SEQEND
  0
SOLID
 62
138
  8
0
 10
3.0
 20
18.0
 30
0.0
 11
4.481972263704865
 21
18.0
 31
0.0
 13
4.481972263704865
 23
18.691587056395605
 33
0.0
 12
3.0
 22
18.691587056395605
 32
0.0
  0
POLYLINE
 62
192
  8
0
 66
1
 10
0.0
 20
0.0
 30
0.0
 70
9
  0
VERTEX
  8
0
 10
43.0
 20
18.0
 30
0.0
  0
VERTEX
  8
0
 10
43.68009068086193
 20
19.31670742999167
 30
0.0
  0
VERTEX
  8
0
 10
43.06562721353249
 20
19.634083081060574
 30
0.0
  0
VERTEX
  8
0
 10
42.38553653267056
 20
18.317375651068904
 30
0.0
  0
SEQEND
  0
POLYLINE
 62
256
  8
0
 66
1
 10
0.0
 20
0.0
 30
0.0
 70
9
  0
VERTEX
  8
0
 10
3.0
 20
21.0
 30
0.0
  0
VERTEX
  8
0
 10
3.1944997242048228
 20
21.0
 30
0.0
  0
VERTEX
  8
0
 10
3.1944997242048228
 20
21.09076653796225
 30
0.0
  0
VERTEX
  8
0
 10
3.0
 20
21.09076653796225
 30
0.0
  0
SEQEND
  0
SOLID
 62
129
  8
0
 10
3.0
 20
21.0
 30
0.0
 11
3.1944997242048228
 21
21.0
 31
0.0
 13
3.1944997242048228
 23
21.09076653796225
 33
0.0
 12
3.0
 22
21.09076653796225
 32
0.0
  0
POLYLINE
 62
100
  8
0
 66
1
 10
0.0
 20
0.0
 30
0.0
 70
9
  0
VERTEX
  8
0
 10
43.0
 20
21.0
 30
0.0
  0
VERTEX
  8
0
 10
43.15287467685818
 20
21.120247560853677
 30
0.0
  0
VERTEX
  8
0
 10
43.096759148459796
 20
21.19158907672083
 30
0.0
  0
VERTEX
  8
0
 10
42.94388447160161
 20
21.07134151586715
 30
0.0
  0
SEQEND
  0
POLYLINE
 62
256
  8
0
 66
1
 10
0.0
 20
0.0
 30
0.0
 70
9
  0
VERTEX
  8
0
 10
3.0
 20
24.0
 30
0.0
  0
VERTEX
  8
0
 10
4.127951004575124
 20
24.0
 30
0.0
  0
VERTEX
  8
0
 10
4.127951004575124
 20
24.52637713546839
 30
0.0
  0
VERTEX
  8
0
 10
3.0
 20
24.52637713546839
 30
0.0
  0
SEQEND
  0
SOLID
 62
46
  8
0
 10
3.0
 20
24.0
 30
0.0
 11
4.127951004575124
 21
24.0
 31
0.0
 13
4.127951004575124
 23
24.52637713546839
 33
0.0
 12
3.0
 22
24.52637713546839
 32
0.0
  0
POLYLINE
 62
146
  8
0
 66
1
 10
0.0
 20
0.0
 30
0.0
 70
9
  0
VERTEX
  8
0
 10
43.0
 20
24.0
 30
0.0
  0
VERTEX
  8
0
 10
43.72655928480952
 20
24.86277753469774
 30
0.0
  0
VERTEX
  8
0
 10
43.32392976861723
 20
25.201838534275517
 30
0.0
  0
VERTEX
  8
0
 10
42.59737048380772
 20
24.339060999577775
 30
0.0
  0
SEQEND
  0
POLYLINE
 62
256
  8
0
 66
1
 10
0.0
 20
0.0
 30
0.0
 70
9
  0
VERTEX
  8
0
 10
3.0
 20
27.0
 30
0.0
  0
VERTEX
  8
0
 10
3.983503209683807
 20
27.0
 30
0.0
  0
VERTEX
  8
0
 10
3.983503209683807
 20
27.45896816451911
 30
0.0
  0
VERTEX
  8
0
 10
3.0
 20
27.45896816451911
 30
0.0
  0
SEQEND
  0
SOLID
 62
212
  8
0
 10
3.0
 20
27.0
 30
0.0
 11
3.983503209683807
 21
27.0
 31
0.0
 13
3.983503209683807
 23
27.45896816451911
 33
0.0
 12
3.0
 22
27.45896816451911
 32
0.0
  0
POLYLINE
 62
88
  8
0
 66
1
 10
0.0
 20
0.0
 30
0.0
 70
9
  0
VERTEX
  8
0
 10
43.0
 20
27.0
 30
0.0
  0
VERTEX
  8
0
 10
43.36249265651194
 20
27.91426343984284
 30
0.0
  0
VERTEX
  8
0
 10
42.935836384585286
 20
28.083426679548417
 30
0.0
  0
VERTEX
  8
0
 10
42.57334372807334
 20
27.169163239705572
 30
0.0
  0
SEQEND
  0
POLYLINE
 62
256
  8
0
 66
1
 10
0.0
 20
0.0
 30
0.0
 70
9
  0
VERTEX
  8
0
 10
6.0
 20
0.0
 30
0.0
  0
VERTEX
  8
0
 10
6.227043642768241
 20
0.0
 30
0.0
  0
VERTEX
  8
0
 10
6.227043642768241
 20
0.10595369995851252
 30
0.0
  0
VERTEX
  8
0
 10
6.0
 20
0.10595369995851252
 30
0.0
  0
SEQEND
  0
SOLID
 62
151
  8
0
 10
6.0
 20
0.0
 30
0.0
 11
6.227043642768241
 21
0.0
 31
0.0
 13
6.227043642768241
 23
0.10595369995851252
 33
0.0
 12
6.0
 22
0.10595369995851252
 32
0.0
  0
POLYLINE
 62
29
  8
0
 66
1
 10
0.0
 20
0.0
 30
0.0
 70
9
  0
VERTEX
  8
0
 10
46.0
 20
0.0
 30
0.0
  0
VERTEX
  8
0
 10
46.2249523506991
 20
0.030745009943472117
 30
0.0
  0
VERTEX
  8
0
 10
46.21060467939214
 20
0.13572277360304963
 30
0.0
  0
VERTEX
  8
0
 10
45.98565232869305
 20
0.10497776365957752
 30
0.0
  0
SEQEND
  0
POLYLINE
 62
256
  8
0
 66
1
 10
0.0
 20
0.0
 30
0.0
 70
9
  0
VERTEX
  8
0
 10
6.0
 20
3.0
 30
0.0
  0
VERTEX
  8
0
 10
6.894146635973904
 20
3.0
 30
0.0
  0
VERTEX
  8
0
 10
6.894146635973904
 20
3.417268430121155
 30
0.0
  0
VERTEX
  8
0
 10
6.0
 20
3.417268430121155
 30
0.0
  0
SEQEND
  0
SOLID
 62
228
  8
0
 10
6.0
 20
3.0
 30
0.0
 11
6.894146635973904
 21
3.0
 31
0.0
 13
6.894146635973904
 23
3.417268430121155
 33
0.0
 12
6.0
 22
3.417268430121155
 32
0.0
  0
POLYLINE
 62
73
  8
0
 66
1
 10
0.0
 20
0.0
 30
0.0
 70
9
  0
VERTEX
  8
0
 10
46.0
 20
3.0
 30
0.0
  0
VERTEX
  8
0
 10
46.78391244726988
 20
3.430092410580338
 30
0.0
  0
VERTEX
  8
0
 10
46.583202655665715
 20
3.795918219306279
 30
0.0
  0
VERTEX
  8
0
 10
45.799290208395846
 20
3.365825808725941
 30
0.0
  0
SEQEND
  0
POLYLINE
 62
256
  8
0
 66
1
 10
0.0
 20
0.0
 30
0.0
 70
9
  0
VERTEX
  8
0
 10
6.0
 20
6.0
 30
0.0
  0
VERTEX
  8
0
 10
7.2963032008011615
 20
6.0
 30
0.0
  0
VERTEX
  8
0
 10
7.2963032008011615
 20
6.604941493707209
 30
0.0
  0
VERTEX
  8
0
 10
6.0
 20
6.604941493707209
 30
0.0
  0
SEQEND
  0
SOLID
 62
140
  8
0
 10
6.0
 20
6.0
 30
0.0
 11
7.2963032008011615
 21
6.0
 31
0.0
 13
7.2963032008011615
 23
6.604941493707209
 33
0.0
 12
6.0
 22
6.604941493707209
 32
0.0
  0
POLYLINE
 62
43
  8
0
 66
1
 10
0.0
 20
0.0
 30
0.0
 70
9
  0
VERTEX
  8
0
 10
46.0
 20
6.0
 30
0.0
  0
VERTEX
  8
0
 10
47.29414786750395
 20
6.074721385441586
 30
0.0
  0
VERTEX
  8
0
 10
47.259277887631214
 20
6.67865705694343
 30
0.0
  0
VERTEX
  8
0
 10
45.96513002012726
 20
6.603935671501844
 30
0.0
  0
SEQEND
  0
POLYLINE
 62
256
  8
0
 66
1
 10
0.0
 20
0.0
 30
0.0
 70
9
  0
VERTEX
  8
0
 10
6.0
 20
9.0
 30
0.0
  0
VERTEX
  8
0
 10
7.38190477975359
 20
9.0
 30
0.0
  0
VERTEX
  8
0
 10
7.38190477975359
 20
9.644888897218342
 30
0.0
  0
VERTEX
  8
0
 10
6.0
 20
9.644888897218342
 30
0.0
  0
SEQEND
  0
SOLID
 62
164
  8
0
 10
6.0
 20
9.0
 30
0.0
 11
7.38190477975359
 21
9.0
 31
0.0
 13
7.38190477975359
 23
9.644888897218342
 33
0.0
 12
6.0
 22
9.644888897218342
 32
0.0
  0
POLYLINE
 62
52
  8
0
 66
1
 10
0.0
 20
0.0
 30
0.0
 70
9
  0
VERTEX
  8
0
 10
46.0
 20
9.0
 30
0.0
  0
VERTEX
  8
0
 10
47.16263692402571
 20
9.746951272304866
 30
0.0
  0
VERTEX
  8
0
 10
46.814059663616774
 20
10.28951517018353
 30
0.0
  0
VERTEX
  8
0
 10
45.65142273959106
 20
9.542563897878663
 30
0.0
  0
SEQEND
  0
POLYLINE
 62
256
  8
0
 66
1
 10
0.0
 20
0.0
 30
0.0
 70
9
  0
VERTEX
  8
0
 10
6.0
 20
12.0
 30
0.0
  0
VERTEX
  8
0
 10
6.544131026257815
 20
12.0
 30
0.0
  0
VERTEX
  8
0
 10
6.544131026257815
 20
12.253927812253647
 30
0.0
  0
VERTEX
  8
0
 10
6.0
 20
12.253927812253647
 30
0.0
  0
SEQEND
  0
SOLID
 62
230
  8
0
 10
6.0
 20
12.0
 30
0.0
 11
6.544131026257815
 21
12.0
 31
0.0
 13
6.544131026257815
 23
12.253927812253647
 33
0.0
 12
6.0
 22
12.253927812253647
 32
0.0
  0
POLYLINE
 62
85
  8
0
 66
1
 10
0.0
 20
0.0
 30
0.0
 70
9
  0
VERTEX
  8
0
 10
46.0
 20
12.0
 30
0.0
  0
VERTEX
  8
0
 10
46.350435096674
 20
12.416261716658486
 30
0.0
  0
VERTEX
  8
0
 10
46.156179628900034
 20
12.579798095106351
 30
0.0
  0
VERTEX
  8
0
 10
45.80574453222604
 20
12.163536378447866
 30
0.0
  0
SEQEND
  0
POLYLINE
 62
256
  8
0
 66
1
 10
0.0
 20
0.0
 30
0.0
 70
9
  0
VERTEX
  8
0
 10
6.0
 20
15.0
 30
0.0
  0
VERTEX
  8
0
 10
6.952885396030955
 20
15.0
 30
0.0
  0
VERTEX
  8
0
 10
6.952885396030955
 20
15.444679851481112
 30
0.0
  0
VERTEX
  8
0
 10
6.0
 20
15.444679851481112
 30
0.0
  0
SEQEND
  0
SOLID
 62
66
  8
0
 10
6.0
 20
15.0
 30
0.0
 11
6.952885396030955
 21
15.0
 31
0.0
 13
6.952885396030955
 23
15.444679851481112
 33
0.0
 12
6.0
 22
15.444679851481112
 32
0.0
  0
POLYLINE
 62
219
  8
0
 66
1
 10
0.0
 20
0.0
 30
0.0
 70
9
  0
VERTEX
  8
0
 10
46.0
 20
15.0
 30
0.0
  0
VERTEX
  8
0
 10
46.813468328234805
 20
15.496245762629716
 30
0.0
  0
VERTEX
  8
0
 10
46.58188697234093
 20
15.875864315805956
 30
0.0
  0
VERTEX
  8
0
 10
45.768418644106134
 20
15.379618553176241
 30
0.0
  0
SEQEND
  0
POLYLINE
 62
256
  8
0
 66
1
 10
0.0
 20
0.0
 30
0.0
 70
9
  0
VERTEX
  8
0
 10
6.0
 20
18.0
 30
0.0
  0
VERTEX
  8
0
 10
6.2731143329240755
 20
18.0
 30
0.0
  0
VERTEX
  8
0
 10
6.2731143329240755
 20
18.12745335536457
 30
0.0
  0
VERTEX
  8
0
 10
6.0
 20
18.12745335536457
 30
0.0
  0
SEQEND
  0
SOLID
 62
239
  8
0
 10
6.0
 20
18.0
 30
0.0
 11
6.2731143329240755
 21
18.0
 31
0.0
 13
6.2731143329240755
 23
18.12745335536457
 33
0.0
 12
6.0
 22
18.12745335536457
 32
0.0
  0
POLYLINE
 62
236
  8
0
 66
1
 10
0.0
 20
0.0
 30
0.0
 70
9
  0
VERTEX
  8
0
 10
46.0
 20
18.0
 30
0.0
  0
VERTEX
  8
0
 10
46.1857272740564
 20
18.200241900011317
 30
0.0
  0
VERTEX
  8
0
 10
46.09228105405112
 20
18.286914627904302
 30
0.0
  0
VERTEX
  8
0
 10
45.90655377999472
 20
18.086672727892985
 30
0.0
  0
SEQEND
  0
POLYLINE
 62
256
  8
0
 66
1
 10
0.0
 20
0.0
 30
0.0
 70
9
  0
VERTEX
  8
0
 10
6.0
 20
21.0
 30
0.0
  0
VERTEX
  8
0
 10
6.7596757574659705
 20
21.0
 30
0.0
  0
VERTEX
  8
0
 10
6.7596757574659705
 20
21.354515353484118
 30
0.0
  0
VERTEX
  8
0
 10
6.0
 20
21.354515353484118
 30
0.0
  0
SEQEND
  0
SOLID
 62
159
  8
0
 10
6.0
 20
21.0
 30
0.0
 11
6.7596757574659705
 21
21.0
 31
0.0
 13
6.7596757574659705
 23
21.354515353484118
 33
0.0
 12
6.0
 22
21.354515353484118
 32
0.0
  0
POLYLINE
 62
18
  8
0
 66
1
 10
0.0
 20
0.0
 30
0.0
 70
9
  0
VERTEX
  8
0
 10
46.0
 20
21.0
 30
0.0
  0
VERTEX
  8
0
 10
46.13732740554773
 20
21.747160250660475
 30
0.0
  0
VERTEX
  8
0
 10
45.788652621906174
 20
21.811246373249414
 30
0.0
  0
VERTEX
  8
0
 10
45.651325216358444
 20
21.06408612258894
 30
0.0
  0
SEQEND
  0
POLYLINE
 62
256
  8
0
 66
1
 10
0.0
 20
0.0
 30
0.0
 70
9
  0
VERTEX
  8
0
 10
6.0
 20
24.0
 30
0.0
  0
VERTEX
  8
0
 10
6.911077910374676
 20
24.0
 30
0.0
  0
VERTEX
  8
0
 10
6.911077910374676
 20
24.42516969150818
 30
0.0
  0
VERTEX
  8
0
 10
6.0
 20
24.42516969150818
 30
0.0
  0
SEQEND
  0
SOLID
 62
195
  8
0
 10
6.0
 20
24.0
 30
0.0
 11
6.911077910374676
 21
24.0
 31
0.0
 13
6.911077910374676
 23
24.42516969150818
 33
0.0
 12
6.0
 22
24.42516969150818
 32
0.0
  0
POLYLINE
 62
45
  8
0
 66
1
 10
0.0
 20
0.0
 30
0.0
 70
9
  0
VERTEX
  8
0
 10
46.0
 20
24.0
 30
0.0
  0
VERTEX
  8
0
 10
46.80826719843301
 20
24.420436790385832
 30
0.0
  0
VERTEX
  8
0
 10
46.61206336291962
 20
24.79762814965457
 30
0.0
  0
VERTEX
  8
0
 10
45.80379616448661
 20
24.37719135926874
 30
0.0
  0
SEQEND
  0
POLYLINE
 62
256
  8
0
 66
1
 10
0.0
 20
0.0
 30
0.0
 70
9
  0
VERTEX
  8
0
 10
6.0
 20
27.0
 30
0.0
  0
VERTEX
  8
0
 10
6.575127152515378
 20
27.0
 30
0.0
  0
VERTEX
  8
0
 10
6.575127152515378
 20
27.268392671173842
 30
0.0
  0
VERTEX
  8
0
 10
6.0
 20
27.268392671173842
 30
0.0
  0
SEQEND
  0
SOLID
 62
154
  8
0
 10
6.0
 20
27.0
 30
0.0
 11
6.575127152515378
 21
27.0
 31
0.0
 13
6.575127152515378
 23
27.268392671173842
 33
0.0
 12
6.0
 22
27.268392671173842
 32
0.0
  0
POLYLINE
 62
66
  8
0
 66
1
 10
0.0
 20
0.0
 30
0.0
 70
9
  0
VERTEX
  8
0
 10
46.0
 20
27.0
 30
0.0
  0
VERTEX
  8
0
 10
46.32073464118118
 20
27.477389287172247
 30
0.0
  0
VERTEX
  8
0
 10
46.09795297383413
 20
27.627065453056797
 30
0.0
  0
VERTEX
  8
0
 10
45.77721833265295
 20
27.14967616588455
 30
0.0
  0
SEQEND
  0
POLYLINE
 62
256
  8
0
 66
1
 10
0.0
 20
0.0
 30
0.0
 70
9
  0
VERTEX
  8
0
 10
9.0
 20
0.0
 30
0.0
  0
VERTEX
  8
0
 10
9.933903270238792
 20
0.0
 30
0.0
  0
VERTEX
  8
0
 10
9.933903270238792
 20
0.435821526111436
 30
0.0
  0
VERTEX
  8
0
 10
9.0
 20
0.435821526111436
 30
0.0
  0
SEQEND
  0
SOLID
 62
154
  8
0
 10
9.0
 20
0.0
 30
0.0
 11
9.933903270238792
 21
0.0
 31
0.0
 13
9.933903270238792
 23
0.435821526111436
 33
0.0
 12
9.0
 22
0.435821526111436
 32
0.0
  0
POLYLINE
 62
36
  8
0
 66
1
 10
0.0
 20
0.0
 30
0.0
 70
9
  0
VERTEX
  8
0
 10
49.0
 20
0.0
 30
0.0
  0
VERTEX
  8
0
 10
49.01963094616109
 20
0.9336969230513346
 30
0.0
  0
VERTEX
  8
0
 10
48.583905715403795
 20
0.9428580312598401
 30
0.0
  0
VERTEX
  8
0
 10
48.56427476924271
 20
0.009161108208505585
 30
0.0
  0
SEQEND
  0
POLYLINE
 62
256
  8
0
 66
1
 10
0.0
 20
0.0
 30
0.0
 70
9
  0
VERTEX
  8
0
 10
9.0
 20
3.0
 30
0.0
  0
VERTEX
  8
0
 10
9.887698914304755
 20
3.0
 30
0.0
  0
VERTEX
  8
0
 10
9.887698914304755
 20
3.414259493342219
 30
0.0
  0
VERTEX
  8
0
 10
9.0
 20
3.414259493342219
 30
0.0
  0
SEQEND
  0
SOLID
 62
187
  8
0
 10
9.0
 20
3.0
 30
0.0
 11
9.887698914304755
 21
3.0
 31
0.0
 13
9.887698914304755
 23
3.414259493342219
 33
0.0
 12
9.0
 22
3.414259493342219
 32
0.0
  0
POLYLINE
 62
211
  8
0
 66
1
 10
0.0
 20
0.0
 30
0.0
 70
9
  0
VERTEX
  8
0
 10
49.0
 20
3.0
 30
0.0
  0
VERTEX
  8
0
 10
49.57425990523359
 20
3.6769305161528374
 30
0.0
  0
VERTEX
  8
0
 10
49.2583589976956
 20
3.9449184719285135
 30
0.0
  0
VERTEX
  8
0
 10
48.684099092462006
 20
3.267987955775676
 30
0.0
  0
SEQEND
  0
POLYLINE
 62
256
  8
0
 66
1
 10
0.0
 20
0.0
 30
0.0
 70
9
  0
VERTEX
  8
0
 10
9.0
 20
6.0
 30
0.0
  0
VERTEX
  8
0
 10
9.983294323128117
 20
6.0
 30
0.0
  0
VERTEX
  8
0
 10
9.983294323128117
 20
6.458870684126454
 30
0.0
  0
VERTEX
  8
0
 10
9.0
 20
6.458870684126454
 30
0.0
  0
SEQEND
  0
SOLID
 62
39
  8
0
 10
9.0
 20
6.0
 30
0.0
 11
9.983294323128117
 21
6.0
 31
0.0
 13
9.983294323128117
 23
6.458870684126454
 33
0.0
 12
9.0
 22
6.458870684126454
 32
0.0
  0
POLYLINE
 62
125
  8
0
 66
1
 10
0.0
 20
0.0
 30
0.0
 70
9
  0
VERTEX
  8
0
 10
49.0
 20
6.0
 30
0.0
  0
VERTEX
  8
0
 10
49.887080091180415
 20
6.424212962705436
 30
0.0
  0
VERTEX
  8
0
 10
49.68911404191788
 20
6.838183671922964
 30
0.0
  0
VERTEX
  8
0
 10
48.80203395073746
 20
6.413970709217528
 30
0.0
  0
SEQEND
  0
POLYLINE
 62
256
  8
0
 66
1
 10
0.0
 20
0.0
 30
0.0
 70
9
  0
VERTEX
  8
0
 10
9.0
 20
9.0
 30
0.0
  0
VERTEX
  8
0
 10
9.232647036098289
 20
9.0
 30
0.0
  0
VERTEX
  8
0
 10
9.232647036098289
 20
9.108568616845869
 30
0.0
  0
VERTEX
  8
0
 10
9.0
 20
9.108568616845869
 30
0.0
  0
SEQEND
  0
SOLID
 62
107
  8
0
 10
9.0
 20
9.0
 30
0.0
 11
9.232647036098289
 21
9.0
 31
0.0
 13
9.232647036098289
 23
9.108568616845869
 33
0.0
 12
9.0
 22
9.108568616845869
 32
0.0
  0
POLYLINE
 62
110
  8
0
 66
1
 10
0.0
 20
0.0
 30
0.0
 70
9
  0
VERTEX
  8
0
 10
49.0
 20
9.0
 30
0.0
  0
VERTEX
  8
0
 10
49.10186900340067
 20
9.209158670753743
 30
0.0
  0
VERTEX
  8
0
 10
49.00426162371559
 20
9.256697539007389
 30
0.0
  0
VERTEX
  8
0
 10
48.90239262031492
 20
9.047538868253646
 30
0.0
  0
SEQEND
  0
POLYLINE
 62
256
  8
0
 66
1
 10
0.0
 20
0.0
 30
0.0
 70
9
  0
VERTEX
  8
0
 10
9.0
 20
12.0
 30
0.0
  0
VERTEX
  8
0
 10
9.034731400827445
 20
12.0
 30
0.0
  0
VERTEX
  8
0
 10
9.034731400827445
 20
12.016207987052807
 30
0.0
  0
VERTEX
  8
0
 10
9.0
 20
12.016207987052807
 30
0.0
  0
SEQEND
  0
SOLID
 62
246
  8
0
 10
9.0
 20
12.0
 30
0.0
 11
9.034731400827445
 21
12.0
 31
0.0
 13
9.034731400827445
 23
12.016207987052807
 33
0.0
 12
9.0
 22
12.016207987052807
 32
0.0
  0
POLYLINE
 62
239
  8
0
 66
1
 10
0.0
 20
0.0
 30
0.0
 70
9
  0
VERTEX
  8
0
 10
49.0
 20
12.0
 30
0.0
  0
VERTEX
  8
0
 10
49.0327942218466
 20
12.011437185707704
 30
0.0
  0
VERTEX
  8
0
 10
49.02745686851634
 20
12.026741155902785
 30
0.0
  0
VERTEX
  8
0
 10
48.99466264666974
 20
12.015303970195081
 30
0.0
  0
SEQEND
  0
POLYLINE
 62
256
  8
0
 66
1
 10
0.0
 20
0.0
 30
0.0
 70
9
  0
VERTEX
  8
0
 10
9.0
 20
15.0
 30
0.0
  0
VERTEX
  8
0
 10
9.381817781203367
 20
15.0
 30
0.0
  0
VERTEX
  8
0
 10
9.381817781203367
 20
15.178181631228238
 30
0.0
  0
VERTEX
  8
0
 10
9.0
 20
15.178181631228238
 30
0.0
  0
SEQEND
  0
SOLID
 62
142
  8
0
 10
9.0
 20
15.0
 30
0.0
 11
9.381817781203367
 21
15.0
 31
0.0
 13
9.381817781203367
 23
15.178181631228238
 33
0.0
 12
9.0
 22
15.178181631228238
 32
0.0
  0
POLYLINE
 62
121
  8
0
 66
1
 10
0.0
 20
0.0
 30
0.0
 70
9
  0
VERTEX
  8
0
 10
49.0
 20
15.0
 30
0.0
  0
VERTEX
  8
0
 10
49.11944989963097
 20
15.36265209157154
 30
0.0
  0
VERTEX
  8
0
 10
48.950212256897586
 20
15.418395378065995
 30
0.0
  0
VERTEX
  8
0
 10
48.830762357266615
 20
15.055743286494454
 30
0.0
  0
SEQEND
  0
POLYLINE
 62
256
  8
0
 66
1
 10
0.0
 20
0.0
 30
0.0
 70
9
  0
VERTEX
  8
0
 10
9.0
 20
18.0
 30
0.0
  0
VERTEX
  8
0
 10
9.607737932968888
 20
18.0
 30
0.0
  0
VERTEX
  8
0
 10
9.607737932968888
 20
18.28361103538548
 30
0.0
  0
VERTEX
  8
0
 10
9.0
 20
18.28361103538548
 30
0.0
  0
SEQEND
  0
SOLID
 62
129
  8
0
 10
9.0
 20
18.0
 30
0.0
 11
9.607737932968888
 21
18.0
 31
0.0
 13
9.607737932968888
 23
18.28361103538548
 33
0.0
 12
9.0
 22
18.28361103538548
 32
0.0
  0
POLYLINE
 62
87
  8
0
 66
1
 10
0.0
 20
0.0
 30
0.0
 70
9
  0
VERTEX
  8
0
 10
49.0
 20
18.0
 30
0.0
  0
VERTEX
  8
0
 10
49.45987535796185
 20
18.397316058458195
 30
0.0
  0
VERTEX
  8
0
 10
49.27446119734803
 20
18.61192455884039
 30
0.0
  0
VERTEX
  8
0
 10
48.814585839386176
 20
18.214608500382198
 30
0.0
  0
SEQEND
  0
POLYLINE
 62
256
  8
0
 66
1
 10
0.0
 20
0.0
 30
0.0
 70
9
  0
VERTEX
  8
0
 10
9.0
 20
21.0
 30
0.0
  0
VERTEX
  8
0
 10
9.326925081953707
 20
21.0
 30
0.0
  0
VERTEX
  8
0
 10
9.326925081953707
 20
21.15256503824506
 30
0.0
  0
VERTEX
  8
0
 10
9.0
 20
21.15256503824506
 30
0.0
  0
SEQEND
  0
SOLID
 62
244
  8
0
 10
9.0
 20
21.0
 30
0.0
 11
9.326925081953707
 21
21.0
 31
0.0
 13
9.326925081953707
 23
21.15256503824506
 33
0.0
 12
9.0
 22
21.15256503824506
 32
0.0
  0
POLYLINE
 62
198
  8
0
 66
1
 10
0.0
 20
0.0
 30
0.0
 70
9
  0
VERTEX
  8
0
 10
49.0
 20
21.0
 30
0.0
  0
VERTEX
  8
0
 10
49.322706683739185
 20
21.052348882323287
 30
0.0
  0
VERTEX
  8
0
 10
49.29827720532165
 20
21.202945334734906
 30
0.0
  0
VERTEX
  8
0
 10
48.97557052158247
 20
21.15059645241162
 30
0.0
  0
SEQEND
  0
POLYLINE
 62
256
  8
0
 66
1
 10
0.0
 20
0.0
 30
0.0
 70
9
  0
VERTEX
  8
0
 10
9.0
 20
24.0
 30
0.0
  0
VERTEX
  8
0
 10
9.28850366727276
 20
24.0
 30
0.0
  0
VERTEX
  8
0
 10
9.28850366727276
 20
24.13463504472729
 30
0.0
  0
VERTEX
  8
0
 10
9.0
 20
24.13463504472729
 30
0.0
  0
SEQEND
  0
SOLID
 62
0
  8
0
 10
9.0
 20
24.0
 30
0.0
 11
9.28850366727276
 21
24.0
 31
0.0
 13
9.28850366727276
 23
24.13463504472729
 33
0.0
 12
9.0
 22
24.13463504472729
 32
0.0
  0
POLYLINE
 62
74
  8
0
 66
1
 10
0.0
 20
0.0
 30
0.0
 70
9
  0
VERTEX
  8
0
 10
49.0
 20
24.0
 30
0.0
  0
VERTEX
  8
0
 10
49.02610415087956
 20
24.28732027310423
 30
0.0
  0
VERTEX
  8
0
 10
48.89202135676425
 20
24.299502210181355
 30
0.0
  0
VERTEX
  8
0
 10
48.86591720588469
 20
24.012181937077127
 30
0.0
  0
SEQEND
  0
POLYLINE
 62
256
  8
0
 66
1
 10
0.0
 20
0.0
 30
0.0
 70
9
  0
VERTEX
  8
0
 10
9.0
 20
27.0
 30
0.0
  0
VERTEX
  8
0
 10
9.447940241933116
 20
27.0
 30
0.0
  0
VERTEX
  8
0
 10
9.447940241933116
 20
27.209038779568786
 30
0.0
  0
VERTEX
  8
0
 10
9.0
 20
27.209038779568786
 30
0.0
  0
SEQEND
  0
SOLID
 62
220
  8
0
 10
9.0
 20
27.0
 30
0.0
 11
9.447940241933116
 21
27.0
 31
0.0
 13
9.447940241933116
 23
27.209038779568786
 33
0.0
 12
9.0
 22
27.209038779568786
 32
0.0
  0
POLYLINE
 62
8
  8
0
 66
1
 10
0.0
 20
0.0
 30
0.0
 70
9
  0
VERTEX
  8
0
 10
49.0
 20
27.0
 30
0.0
  0
VERTEX
  8
0
 10
49.24253354068973
 20
27.376600507147298
 30
0.0
  0
VERTEX
  8
0
 10
49.066786637354326
 20
27.489782826135837
 30
0.0
  0
VERTEX
  8
0
 10
48.82425309666459
 20
27.113182318988542
 30
0.0
  0
SEQEND
  0
POLYLINE
 62
256
  8
0
 66
1
 10
0.0
 20
0.0
 30
0.0
 70
9
  0
VERTEX
  8
0
 10
12.0
 20
0.0
 30
0.0
  0
VERTEX
  8
0
 10
12.270163776675421
 20
0.0
 30
0.0
  0
VERTEX
  8
0
 10
12.270163776675421
 20
0.1260764291151967
 30
0.0
  0
VERTEX
  8
0
 10
12.0
 20
0.1260764291151967
 30
0.0
  0
SEQEND
  0
SOLID
 62
65
  8
0
 10
12.0
 20
0.0
 30
0.0
 11
12.270163776675421
 21
0.0
 31
0.0
 13
12.270163776675421
 23
0.1260764291151967
 33
0.0
 12
12.0
 22
0.1260764291151967
 32
0.0
  0
POLYLINE
 62
177
  8
0
 66
1
 10
0.0
 20
0.0
 30
0.0
 70
9
  0
VERTEX
  8
0
 10
52.0
 20
0.0
 30
0.0
  0
VERTEX
  8
0
 10
52.2663356935731
 20
0.04531847919406221
 30
0.0
  0
VERTEX
  8
0
 10
52.2451870699492
 20
0.16960846952817568
 30
0.0
  0
VERTEX
  8
0
 10
51.978851376376106
 20
0.12428999033411348
 30
0.0
  0
SEQEND
  0
POLYLINE
 62
256
  8
0
 66
1
 10
0.0
 20
0.0
 30
0.0
 70
9
  0
VERTEX
  8
0
 10
12.0
 20
3.0
 30
0.0
  0
VERTEX
  8
0
 10
12.131853795928263
 20
3.0
 30
0.0
  0
VERTEX
  8
0
 10
12.131853795928263
 20
3.0615317714331893
 30
0.0
  0
VERTEX
  8
0
 10
12.0
 20
3.0615317714331893
 30
0.0
  0
SEQEND
  0
SOLID
 62
109
  8
0
 10
12.0
 20
3.0
 30
0.0
 11
12.131853795928263
 21
3.0
 31
0.0
 13
12.131853795928263
 23
3.0615317714331893
 33
0.0
 12
12.0
 22
3.0615317714331893
 32
0.0
  0
POLYLINE
 62
211
  8
0
 66
1
 10
0.0
 20
0.0
 30
0.0
 70
9
  0
VERTEX
  8
0
 10
52.0
 20
3.0
 30
0.0
  0
VERTEX
  8
0
 10
52.12005883133144
 20
3.0545096369463307
 30
0.0
  0
VERTEX
  8
0
 10
52.09462100075648
 20
3.1105370915676693
 30
0.0
  0
VERTEX
  8
0
 10
51.97456216942505
 20
3.0560274546213386
 30
0.0
  0
SEQEND
  0
POLYLINE
 62
256
  8
0
 66
1
 10
0.0
 20
0.0
 30
0.0
 70
9
  0
VERTEX
  8
0
 10
12.0
 20
6.0
 30
0.0
  0
VERTEX
  8
0
 10
12.932193412632664
 20
6.0
 30
0.0
  0
VERTEX
  8
0
 10
12.932193412632664
 20
6.435023592561909
 30
0.0
  0
VERTEX
  8
0
 10
12.0
 20
6.435023592561909
 30
0.0
  0
SEQEND
  0
SOLID
 62
69
  8
0
 10
12.0
 20
6.0
 30
0.0
 11
12.932193412632664
 21
6.0
 31
0.0
 13
12.932193412632664
 23
6.435023592561909
 33
0.0
 12
12.0
 22
6.435023592561909
 32
0.0
  0
POLYLINE
 62
116
  8
0
 66
1
 10
0.0
 20
0.0
 30
0.0
 70
9
  0
VERTEX
  8
0
 10
52.0
 20
6.0
 30
0.0
  0
VERTEX
  8
0
 10
52.134906281036976
 20
6.922379994304138
 30
0.0
  0
VERTEX
  8
0
 10
51.704462283695044
 20
6.985336258788061
 30
0.0
  0
VERTEX
  8
0
 10
51.56955600265807
 20
6.0629562644839226
 30
0.0
  0
SEQEND
  0
POLYLINE
 62
256
  8
0
 66
1
 10
0.0
 20
0.0
 30
0.0
 70
9
  0
VERTEX
  8
0
 10
12.0
 20
9.0
 30
0.0
  0
VERTEX
  8
0
 10
12.533200662138379
 20
9.0
 30
0.0
  0
VERTEX
  8
0
 10
12.533200662138379
 20
9.248826975664576
 30
0.0
  0
VERTEX
  8
0
 10
12.0
 20
9.248826975664576
 30
0.0
  0
SEQEND
  0
SOLID
 62
141
  8
0
 10
12.0
 20
9.0
 30
0.0
 11
12.533200662138379
 21
9.0
 31
0.0
 13
12.533200662138379
 23
9.248826975664576
 33
0.0
 12
12.0
 22
9.248826975664576
 32
0.0
  0
POLYLINE
 62
128
  8
0
 66
1
 10
0.0
 20
0.0
 30
0.0
 70
9
  0
VERTEX
  8
0
 10
52.0
 20
9.0
 30
0.0
  0
VERTEX
  8
0
 10
52.092638494431284
 20
9.525091473416119
 30
0.0
  0
VERTEX
  8
0
 10
51.8475958068371
 20
9.568322770817385
 30
0.0
  0
VERTEX
  8
0
 10
51.754957312405814
 20
9.043231297401267
 30
0.0
  0
SEQEND
  0
POLYLINE
 62
256
  8
0
 66
1
 10
0.0
 20
0.0
 30
0.0
 70
9
  0
VERTEX
  8
0
 10
12.0
 20
12.0
 30
0.0
  0
VERTEX
  8
0
 10
12.068394288777021
 20
12.0
 30
0.0
  0
VERTEX
  8
0
 10
12.068394288777021
 20
12.03191733476261
 30
0.0
  0
VERTEX
  8
0
 10
12.0
 20
12.03191733476261
 30
0.0
  0
SEQEND
  0
SOLID
 62
30
  8
0
 10
12.0
 20
12.0
 30
0.0
 11
12.068394288777021
 21
12.0
 31
0.0
 13
12.068394288777021
 23
12.03191733476261
 33
0.0
 12
12.0
 22
12.03191733476261
 32
0.0
  0
POLYLINE
 62
176
  8
0
 66
1
 10
0.0
 20
0.0
 30
0.0
 70
9
  0
VERTEX
  8
0
 10
52.0
 20
12.0
 30
0.0
  0
VERTEX
  8
0
 10
52.06671471295485
 20
12.01506405697901
 30
0.0
  0
VERTEX
  8
0
 10
52.05968481969798
 20
12.046197589691273
 30
0.0
  0
VERTEX
  8
0
 10
51.99297010674313
 20
12.031133532712262
 30
0.0
  0
SEQEND
  0
POLYLINE
 62
256
  8
0
 66
1
 10
0.0
 20
0.0
 30
0.0
 70
9
  0
VERTEX
  8
0
 10
12.0
 20
15.0
 30
0.0
  0
VERTEX
  8
0
 10
13.032402096912895
 20
15.0
 30
0.0
  0
VERTEX
  8
0
 10
13.032402096912895
 20
15.481787645226017
 30
0.0
  0
VERTEX
  8
0
 10
12.0
 20
15.481787645226017
 30
0.0
  0
SEQEND
  0
SOLID
 62
205
  8
0
 10
12.0
 20
15.0
 30
0.0
 11
13.032402096912895
 21
15.0
 31
0.0
 13
13.032402096912895
 23
15.481787645226017
 33
0.0
 12
12.0
 22
15.481787645226017
 32
0.0
  0
POLYLINE
 62
148
  8
0
 66
1
 10
0.0
 20
0.0
 30
0.0
 70
9
  0
VERTEX
  8
0
 10
52.0
 20
15.0
 30
0.0
  0
VERTEX
  8
0
 10
53.02409676492586
 20
15.130690113545516
 30
0.0
  0
VERTEX
  8
0
 10
52.963108045271284
 20
15.60860193717758
 30
0.0
  0
VERTEX
  8
0
 10
51.939011280345426
 20
15.477911823632066
 30
0.0
  0
SEQEND
  0
POLYLINE
 62
256
  8
0
 66
1
 10
0.0
 20
0.0
 30
0.0
 70
9
  0
VERTEX
  8
0
 10
12.0
 20
18.0
 30
0.0
  0
VERTEX
  8
0
 10
12.824786742246955
 20
18.0
 30
0.0
  0
VERTEX
  8
0
 10
12.824786742246955
 20
18.384900479715245
 30
0.0
  0
VERTEX
  8
0
 10
12.0
 20
18.384900479715245
 30
0.0
  0
SEQEND
  0
SOLID
 62
33
  8
0
 10
12.0
 20
18.0
 30
0.0
 11
12.824786742246955
 21
18.0
 31
0.0
 13
12.824786742246955
 23
18.384900479715245
 33
0.0
 12
12.0
 22
18.384900479715245
 32
0.0
  0
POLYLINE
 62
180
  8
0
 66
1
 10
0.0
 20
0.0
 30
0.0
 70
9
  0
VERTEX
  8
0
 10
52.0
 20
18.0
 30
0.0
  0
VERTEX
  8
0
 10
52.73745128816929
 20
18.369376187326413
 30
0.0
  0
VERTEX
  8
0
 10
52.565075734083635
 20
18.713520121805416
 30
0.0
  0
VERTEX
  8
0
 10
51.82762444591434
 20
18.344143934479003
 30
0.0
  0
SEQEND
  0
POLYLINE
 62
256
  8
0
 66
1
 10
0.0
 20
0.0
 30
0.0
 70
9
  0
VERTEX
  8
0
 10
12.0
 20
21.0
 30
0.0
  0
VERTEX
  8
0
 10
13.022178080701785
 20
21.0
 30
0.0
  0
VERTEX
  8
0
 10
13.022178080701785
 20
21.477016437660833
 30
0.0
  0
VERTEX
  8
0
 10
12.0
 20
21.477016437660833
 30
0.0
  0
SEQEND
  0
SOLID
 62
48
  8
0
 10
12.0
 20
21.0
 30
0.0
 11
13.022178080701785
 21
21.0
 31
0.0
 13
13.022178080701785
 23
21.477016437660833
 33
0.0
 12
12.0
 22
21.477016437660833
 32
0.0
  0
POLYLINE
 62
24
  8
0
 66
1
 10
0.0
 20
0.0
 30
0.0
 70
9
  0
VERTEX
  8
0
 10
52.0
 20
21.0
 30
0.0
  0
VERTEX
  8
0
 10
52.899088694871764
 20
21.486299853404223
 30
0.0
  0
VERTEX
  8
0
 10
52.67214876328313
 20
21.905874577677714
 30
0.0
  0
VERTEX
  8
0
 10
51.77306006841136
 20
21.41957472427349
 30
0.0
  0
SEQEND
  0
POLYLINE
 62
256
  8
0
 66
1
 10
0.0
 20
0.0
 30
0.0
 70
9
  0
VERTEX
  8
0
 10
12.0
 20
24.0
 30
0.0
  0
VERTEX
  8
0
 10
13.240426042607025
 20
24.0
 30
0.0
  0
VERTEX
  8
0
 10
13.240426042607025
 20
24.578865486549944
 30
0.0
  0
VERTEX
  8
0
 10
12.0
 20
24.578865486549944
 30
0.0
  0
SEQEND
  0
SOLID
 62
0
  8
0
 10
12.0
 20
24.0
 30
0.0
 11
13.240426042607025
 21
24.0
 31
0.0
 13
13.240426042607025
 23
24.578865486549944
 33
0.0
 12
12.0
 22
24.578865486549944
 32
0.0
  0
POLYLINE
 62
64
  8
0
 66
1
 10
0.0
 20
0.0
 30
0.0
 70
9
  0
VERTEX
  8
0
 10
52.0
 20
24.0
 30
0.0
  0
VERTEX
  8
0
 10
53.23869273213096
 20
24.065552136072526
 30
0.0
  0
VERTEX
  8
0
 10
53.20810173529711
 20
24.643608744400307
 30
0.0
  0
VERTEX
  8
0
 10
51.969409003166156
 20
24.57805660832778
 30
0.0
  0
SEQEND
  0
POLYLINE
 62
256
  8
0
 66
1
 10
0.0
 20
0.0
 30
0.0
 70
9
  0
VERTEX
  8
0
 10
12.0
 20
27.0
 30
0.0
  0
VERTEX
  8
0
 10
12.982607886580842
 20
27.0
 30
0.0
  0
VERTEX
  8
0
 10
12.982607886580842
 20
27.45855034707106
 30
0.0
  0
VERTEX
  8
0
 10
12.0
 20
27.45855034707106
 30
0.0
  0
SEQEND
  0
SOLID
 62
130
  8
0
 10
12.0
 20
27.0
 30
0.0
 11
12.982607886580842
 21
27.0
 31
0.0
 13
12.982607886580842
 23
27.45855034707106
 33
0.0
 12
12.0
 22
27.45855034707106
 32
0.0
  0
POLYLINE
 62
154
  8
0
 66
1
 10
0.0
 20
0.0
 30
0.0
 70
9
  0
VERTEX
  8
0
 10
52.0
 20
27.0
 30
0.0
  0
VERTEX
  8
0
 10
52.72359576965427
 20
27.6647762186701
 30
0.0
  0
VERTEX
  8
0
 10
52.413366867608225
 20
28.00245424450876
 30
0.0
  0
VERTEX
  8
0
 10
51.68977109795395
 20
27.33767802583866
 30
0.0
  0
SEQEND
  0
POLYLINE
 62
256
  8
0
 66
1
 10
0.0
 20
0.0
 30
0.0
 70
9
  0
VERTEX
  8
0
 10
15.0
 20
0.0
 30
0.0
  0
VERTEX
  8
0
 10
16.26235301827539
 20
0.0
 30
0.0
  0
VERTEX
  8
0
 10
16.26235301827539
 20
0.5890980751951819
 30
0.0
  0
VERTEX
  8
0
 10
15.0
 20
0.5890980751951819
 30
0.0
  0
SEQEND
  0
SOLID
 62
68
  8
0
 10
15.0
 20
0.0
 30
0.0
 11
16.26235301827539
 21
0.0
 31
0.0
 13
16.26235301827539
 23
0.5890980751951819
 33
0.0
 12
15.0
 22
0.5890980751951819
 32
0.0
  0
POLYLINE
 62
125
  8
0
 66
1
 10
0.0
 20
0.0
 30
0.0
 70
9
  0
VERTEX
  8
0
 10
55.0
 20
0.0
 30
0.0
  0
VERTEX
  8
0
 10
55.71038413941664
 20
1.0434986905666261
 30
0.0
  0
VERTEX
  8
0
 10
55.223418083818885
 20
1.375011288961059
 30
0.0
  0
VERTEX
  8
0
 10
54.51303394440224
 20
0.3315125983944329
 30
0.0
  0
SEQEND
  0
POLYLINE
 62
256
  8
0
 66
1
 10
0.0
 20
0.0
 30
0.0
 70
9
  0
VERTEX
  8
0
 10
15.0
 20
3.0
 30
0.0
  0
VERTEX
  8
0
 10
16.271430644599047
 20
3.0
 30
0.0
  0
VERTEX
  8
0
 10
16.271430644599047
 20
3.593334300812889
 30
0.0
  0
VERTEX
  8
0
 10
15.0
 20
3.593334300812889
 30
0.0
  0
SEQEND
  0
SOLID
 62
69
  8
0
 10
15.0
 20
3.0
 30
0.0
 11
16.271430644599047
 21
3.0
 31
0.0
 13
16.271430644599047
 23
3.593334300812889
 33
0.0
 12
15.0
 22
3.593334300812889
 32
0.0
  0
POLYLINE
 62
86
  8
0
 66
1
 10
0.0
 20
0.0
 30
0.0
 70
9
  0
VERTEX
  8
0
 10
55.0
 20
3.0
 30
0.0
  0
VERTEX
  8
0
 10
55.66314304377085
 20
4.084793615174738
 30
0.0
  0
VERTEX
  8
0
 10
55.15690602335597
 20
4.39426036893447
 30
0.0
  0
VERTEX
  8
0
 10
54.49376297958512
 20
3.309466753759731
 30
0.0
  0
SEQEND
  0
POLYLINE
 62
256
  8
0
 66
1
 10
0.0
 20
0.0
 30
0.0
 70
9
  0
VERTEX
  8
0
 10
15.0
 20
6.0
 30
0.0
  0
VERTEX
  8
0
 10
15.154461444693565
 20
6.0
 30
0.0
  0
VERTEX
  8
0
 10
15.154461444693565
 20
6.0720820075236634
 30
0.0
  0
VERTEX
  8
0
 10
15.0
 20
6.0720820075236634
 30
0.0
  0
SEQEND
  0
SOLID
 62
89
  8
0
 10
15.0
 20
6.0
 30
0.0
 11
15.154461444693565
 21
6.0
 31
0.0
 13
15.154461444693565
 23
6.0720820075236634
 33
0.0
 12
15.0
 22
6.0720820075236634
 32
0.0
  0
POLYLINE
 62
121
  8
0
 66
1
 10
0.0
 20
0.0
 30
0.0
 70
9
  0
VERTEX
  8
0
 10
55.0
 20
6.0
 30
0.0
  0
VERTEX
  8
0
 10
55.122069120327836
 20
6.094643899746429
 30
0.0
  0
VERTEX
  8
0
 10
55.07790196711284
 20
6.151609489232752
 30
0.0
  0
VERTEX
  8
0
 10
54.955832846785
 20
6.056965589486323
 30
0.0
  0
SEQEND
  0
POLYLINE
 62
256
  8
0
 66
1
 10
0.0
 20
0.0
 30
0.0
 70
9
  0
VERTEX
  8
0
 10
15.0
 20
9.0
 30
0.0
  0
VERTEX
  8
0
 10
16.456019691598662
 20
9.0
 30
0.0
  0
VERTEX
  8
0
 10
16.456019691598662
 20
9.679475856079375
 30
0.0
  0
VERTEX
  8
0
 10
15.0
 20
9.679475856079375
 30
0.0
  0
SEQEND
  0
SOLID
 62
227
  8
0
 10
15.0
 20
9.0
 30
0.0
 11
16.456019691598662
 21
9.0
 31
0.0
 13
16.456019691598662
 23
9.679475856079375
 33
0.0
 12
15.0
 22
9.679475856079375
 32
0.0
  0
POLYLINE
 62
113
  8
0
 66
1
 10
0.0
 20
0.0
 30
0.0
 70
9
  0
VERTEX
  8
0
 10
55.0
 20
9.0
 30
0.0
  0
VERTEX
  8
0
 10
55.51504301381508
 20
10.361882533937248
 30
0.0
  0
VERTEX
  8
0
 10
54.87949783131103
 20
10.602235940384286
 30
0.0
  0
VERTEX
  8
0
 10
54.364454817495954
 20
9.240353406447037
 30
0.0
  0
SEQEND
  0
POLYLINE
 62
256
  8
0
 66
1
 10
0.0
 20
0.0
 30
0.0
 70
9
  0
VERTEX
  8
0
 10
15.0
 20
12.0
 30
0.0
  0
VERTEX
  8
0
 10
15.684220577281438
 20
12.0
 30
0.0
  0
VERTEX
  8
0
 10
15.684220577281438
 20
12.319302936064672
 30
0.0
  0
VERTEX
  8
0
 10
15.0
 20
12.319302936064672
 30
0.0
  0
SEQEND
  0
SOLID
 62
76
  8
0
 10
15.0
 20
12.0
 30
0.0
 11
15.684220577281438
 21
12.0
 31
0.0
 13
15.684220577281438
 23
12.319302936064672
 33
0.0
 12
15.0
 22
12.319302936064672
 32
0.0
  0
POLYLINE
 62
86
  8
0
 66
1
 10
0.0
 20
0.0
 30
0.0
 70
9
  0
VERTEX
  8
0
 10
55.0
 20
12.0
 30
0.0
  0
VERTEX
  8
0
 10
55.68375066195362
 20
12.025354105256044
 30
0.0
  0
VERTEX
  8
0
 10
55.671918746167464
 20
12.344437747501065
 30
0.0
  0
VERTEX
  8
0
 10
54.98816808421385
 20
12.319083642245023
 30
0.0
  0
SEQEND
  0
POLYLINE
 62
256
  8
0
 66
1
 10
0.0
 20
0.0
 30
0.0
 70
9
  0
VERTEX
  8
0
 10
15.0
 20
15.0
 30
0.0
  0
VERTEX
  8
0
 10
15.124318659030706
 20
15.0
 30
0.0
  0
VERTEX
  8
0
 10
15.124318659030706
 20
15.05801537421433
 30
0.0
  0
VERTEX
  8
0
 10
15.0
 20
15.05801537421433
 30
0.0
  0
SEQEND
  0
SOLID
 62
249
  8
0
 10
15.0
 20
15.0
 30
0.0
 11
15.124318659030706
 21
15.0
 31
0.0
 13
15.124318659030706
 23
15.05801537421433
 33
0.0
 12
15.0
 22
15.05801537421433
 32
0.0
  0
POLYLINE
 62
107
  8
0
 66
1
 10
0.0
 20
0.0
 30
0.0
 70
9
  0
VERTEX
  8
0
 10
55.0
 20
15.0
 30
0.0
  0
VERTEX
  8
0
 10
55.11420085564666
 20
15.049125284251236
 30
0.0
  0
VERTEX
  8
0
 10
55.09127572299608
 20
15.10241901688634
 30
0.0
  0
VERTEX
  8
0
 10
54.97707486734942
 20
15.053293732635106
 30
0.0
  0
SEQEND
  0
POLYLINE
 62
256
  8
0
 66
1
 10
0.0
 20
0.0
 30
0.0
 70
9
  0
VERTEX
  8
0
 10
15.0
 20
18.0
 30
0.0
  0
VERTEX
  8
0
 10
16.200873483038997
 20
18.0
 30
0.0
  0
VERTEX
  8
0
 10
16.200873483038997
 20
18.560407625418197
 30
0.0
  0
VERTEX
  8
0
 10
15.0
 20
18.560407625418197
 30
0.0
  0
SEQEND
  0
SOLID
 62
237
  8
0
 10
15.0
 20
18.0
 30
0.0
 11
16.200873483038997
 21
18.0
 31
0.0
 13
16.200873483038997
 23
18.560407625418197
 33
0.0
 12
15.0
 22
18.560407625418197
 32
0.0
  0
POLYLINE
 62
160
  8
0
 66
1
 10
0.0
 20
0.0
 30
0.0
 70
9
  0
VERTEX
  8
0
 10
55.0
 20
18.0
 30
0.0
  0
VERTEX
  8
0
 10
55.13314407041915
 20
19.193469638817188
 30
0.0
  0
VERTEX
  8
0
 10
54.57619157230446
 20
19.255603538346126
 30
0.0
  0
VERTEX
  8
0
 10
54.44304750188531
 20
18.062133899528938
 30
0.0
  0
SEQEND
  0
POLYLINE
 62
256
  8
0
 66
1
 10
0.0
 20
0.0
 30
0.0
 70
9
  0
VERTEX
  8
0
 10
15.0
 20
21.0
 30
0.0
  0
VERTEX
  8
0
 10
15.925233884204495
 20
21.0
 30
0.0
  0
VERTEX
  8
0
 10
15.925233884204495
 20
21.431775812628764
 30
0.0
  0
VERTEX
  8
0
 10
15.0
 20
21.431775812628764
 30
0.0
  0
SEQEND
  0
SOLID
 62
238
  8
0
 10
15.0
 20
21.0
 30
0.0
 11
15.925233884204495
 21
21.0
 31
0.0
 13
15.925233884204495
 23
21.431775812628764
 33
0.0
 12
15.0
 22
21.431775812628764
 32
0.0
  0
POLYLINE
 62
79
  8
0
 66
1
 10
0.0
 20
0.0
 30
0.0
 70
9
  0
VERTEX
  8
0
 10
55.0
 20
21.0
 30
0.0
  0
VERTEX
  8
0
 10
55.539413079155054
 20
21.75172552871151
 30
0.0
  0
VERTEX
  8
0
 10
55.18860783242302
 20
22.0034516323172
 30
0.0
  0
VERTEX
  8
0
 10
54.64919475326796
 20
21.25172610360569
 30
0.0
  0
SEQEND
  0
POLYLINE
 62
256
  8
0
 66
1
 10
0.0
 20
0.0
 30
0.0
 70
9
  0
VERTEX
  8
0
 10
15.0
 20
24.0
 30
0.0
  0
VERTEX
  8
0
 10
15.836779906991435
 20
24.0
 30
0.0
  0
VERTEX
  8
0
 10
15.836779906991435
 20
24.390497289929336
 30
0.0
  0
VERTEX
  8
0
 10
15.0
 20
24.390497289929336
 30
0.0
  0
SEQEND
  0
SOLID
 62
138
  8
0
 10
15.0
 20
24.0
 30
0.0
 11
15.836779906991435
 21
24.0
 31
0.0
 13
15.836779906991435
 23
24.390497289929336
 33
0.0
 12
15.0
 22
24.390497289929336
 32
0.0
  0
POLYLINE
 62
78
  8
0
 66
1
 10
0.0
 20
0.0
 30
0.0
 70
9
  0
VERTEX
  8
0
 10
55.0
 20
24.0
 30
0.0
  0
VERTEX
  8
0
 10
55.09455683327678
 20
24.831420241529674
 30
0.0
  0
VERTEX
  8
0
 10
54.70656072056293
 20
24.875546763725506
 30
0.0
  0
VERTEX
  8
0
 10
54.61200388728615
 20
24.044126522195832
 30
0.0
  0
SEQEND
  0
POLYLINE
 62
256
  8
0
 66
1
 10
0.0
 20
0.0
 30
0.0
 70
9
  0
VERTEX
  8
0
 10
15.0
 20
27.0
 30
0.0
  0
VERTEX
  8
0
 10
16.11286487509904
 20
27.0
 30
0.0
  0
VERTEX
  8
0
 10
16.11286487509904
 20
27.519336941712886
 30
0.0
  0
VERTEX
  8
0
 10
15.0
 20
27.519336941712886
 30
0.0
  0
SEQEND
  0
SOLID
 62
175
  8
0
 10
15.0
 20
27.0
 30
0.0
 11
16.11286487509904
 21
27.0
 31
0.0
 13
16.11286487509904
 23
27.519336941712886
 33
0.0
 12
15.0
 22
27.519336941712886
 32
0.0
  0
POLYLINE
 62
109
  8
0
 66
1
 10
0.0
 20
0.0
 30
0.0
 70
9
  0
VERTEX
  8
0
 10
55.0
 20
27.0
 30
0.0
  0
VERTEX
  8
0
 10
55.966427259955616
 20
27.551803027758897
 30
0.0
  0
VERTEX
  8
0
 10
55.708919180334796
 20
28.002802415738184
 30
0.0
  0
VERTEX
  8
0
 10
54.74249192037918
 20
27.450999387979287
 30
0.0
  0
SEQEND
  0
POLYLINE
 62
256
  8
0
 66
1
 10
0.0
 20
0.0
 30
0.0
 70
9
  0
VERTEX
  8
0
 10
18.0
 20
0.0
 30
0.0
  0
VERTEX
  8
0
 10
18.927102676084147
 20
0.0
 30
0.0
  0
VERTEX
  8
0
 10
18.927102676084147
 20
0.43264791550593434
 30
0.0
  0
VERTEX
  8
0
 10
18.0
 20
0.43264791550593434
 30
0.0
  0
SEQEND
  0
SOLID
 62
41
  8
0
 10
18.0
 20
0.0
 30
0.0
 11
18.927102676084147
 21
0.0
 31
0.0
 13
18.927102676084147
 23
0.43264791550593434
 33
0.0
 12
18.0
 22
0.43264791550593434
 32
0.0
  0
POLYLINE
 62
202
  8
0
 66
1
 10
0.0
 20
0.0
 30
0.0
 70
9
  0
VERTEX
  8
0
 10
58.0
 20
0.0
 30
0.0
  0
VERTEX
  8
0
 10
58.855957795812216
 20
0.3561679713150384
 30
0.0
  0
VERTEX
  8
0
 10
58.6897460758652
 20
0.7556149426940741
 30
0.0
  0
VERTEX
  8
0
 10
57.833788280052985
 20
0.39944697137903573
 30
0.0
  0
SEQEND
  0
POLYLINE
 62
256
  8
0
 66
1
 10
0.0
 20
0.0
 30
0.0
 70
9
  0
VERTEX
  8
0
 10
18.0
 20
3.0
 30
0.0
  0
VERTEX
  8
0
 10
19.011836508190385
 20
3.0
 30
0.0
  0
VERTEX
  8
0
 10
19.011836508190385
 20
3.4721903704888466
 30
0.0
  0
VERTEX
  8
0
 10
18.0
 20
3.4721903704888466
 30
0.0
  0
SEQEND
  0
SOLID
 62
252
  8
0
 10
18.0
 20
3.0
 30
0.0
 11
19.011836508190385
 21
3.0
 31
0.0
 13
19.011836508190385
 23
3.4721903704888466
 33
0.0
 12
18.0
 22
3.4721903704888466
 32
0.0
  0
POLYLINE
 62
28
  8
0
 66
1
 10
0.0
 20
0.0
 30
0.0
 70
9
  0
VERTEX
  8
0
 10
58.0
 20
3.0
 30
0.0
  0
VERTEX
  8
0
 10
58.93666885387345
 20
3.3827069080775893
 30
0.0
  0
VERTEX
  8
0
 10
58.75807229677058
 20
3.8198190398851994
 30
0.0
  0
VERTEX
  8
0
 10
57.82140344289712
 20
3.4371121318076105
 30
0.0
  0
SEQEND
  0
POLYLINE
 62
256
  8
0
 66
1
 10
0.0
 20
0.0
 30
0.0
 70
9
  0
VERTEX
  8
0
 10
18.0
 20
6.0
 30
0.0
  0
VERTEX
  8
0
 10
19.41993736345548
 20
6.0
 30
0.0
  0
VERTEX
  8
0
 10
19.41993736345548
 20
6.662637436279224
 30
0.0
  0
VERTEX
  8
0
 10
18.0
 20
6.662637436279224
 30
0.0
  0
SEQEND
  0
SOLID
 62
27
  8
0
 10
18.0
 20
6.0
 30
0.0
 11
19.41993736345548
 21
6.0
 31
0.0
 13
19.41993736345548
 23
6.662637436279224
 33
0.0
 12
18.0
 22
6.662637436279224
 32
0.0
  0
POLYLINE
 62
209
  8
0
 66
1
 10
0.0
 20
0.0
 30
0.0
 70
9
  0
VERTEX
  8
0
 10
58.0
 20
6.0
 30
0.0
  0
VERTEX
  8
0
 10
59.308116635917166
 20
6.552316017306806
 30
0.0
  0
VERTEX
  8
0
 10
59.05036916117399
 20
7.162770447401484
 30
0.0
  0
VERTEX
  8
0
 10
57.74225252525682
 20
6.610454430094678
 30
0.0
  0
SEQEND
  0
POLYLINE
 62
256
  8
0
 66
1
 10
0.0
 20
0.0
 30
0.0
 70
9
  0
VERTEX
  8
0
 10
18.0
 20
9.0
 30
0.0
  0
VERTEX
  8
0
 10
18.575144035357184
 20
9.0
 30
0.0
  0
VERTEX
  8
0
 10
18.575144035357184
 20
9.268400549833354
 30
0.0
  0
VERTEX
  8
0
 10
18.0
 20
9.268400549833354
 30
0.0
  0
SEQEND
  0
SOLID
 62
189
  8
0
 10
18.0
 20
9.0
 30
0.0
 11
18.575144035357184
 21
9.0
 31
0.0
 13
18.575144035357184
 23
9.268400549833354
 33
0.0
 12
18.0
 22
9.268400549833354
 32
0.0
  0
POLYLINE
 62
82
  8
0
 66
1
 10
0.0
 20
0.0
 30
0.0
 70
9
  0
VERTEX
  8
0
 10
58.0
 20
9.0
 30
0.0
  0
VERTEX
  8
0
 10
58.42587283203965
 20
9.38655270318221
 30
0.0
  0
VERTEX
  8
0
 10
58.245481570554624
 20
9.585293358134047
 30
0.0
  0
VERTEX
  8
0
 10
57.81960873851497
 20
9.198740654951838
 30
0.0
  0
SEQEND
  0
POLYLINE
 62
256
  8
0
 66
1
 10
0.0
 20
0.0
 30
0.0
 70
9
  0
VERTEX
  8
0
 10
18.0
 20
12.0
 30
0.0
  0
VERTEX
  8
0
 10
18.654040391051684
 20
12.0
 30
0.0
  0
VERTEX
  8
0
 10
18.654040391051684
 20
12.305218849157452
 30
0.0
  0
VERTEX
  8
0
 10
18.0
 20
12.305218849157452
 30
0.0
  0
SEQEND
  0
SOLID
 62
136
  8
0
 10
18.0
 20
12.0
 30
0.0
 11
18.654040391051684
 21
12.0
 31
0.0
 13
18.654040391051684
 23
12.305218849157452
 33
0.0
 12
18.0
 22
12.305218849157452
 32
0.0
  0
POLYLINE
 62
142
  8
0
 66
1
 10
0.0
 20
0.0
 30
0.0
 70
9
  0
VERTEX
  8
0
 10
58.0
 20
12.0
 30
0.0
  0
VERTEX
  8
0
 10
58.23642700112274
 20
12.609812353324486
 30
0.0
  0
VERTEX
  8
0
 10
57.951847902904646
 20
12.72014495384843
 30
0.0
  0
VERTEX
  8
0
 10
57.715420901781904
 20
12.110332600523945
 30
0.0
  0
SEQEND
  0
POLYLINE
 62
256
  8
0
 66
1
 10
0.0
 20
0.0
 30
0.0
 70
9
  0
VERTEX
  8
0
 10
18.0
 20
15.0
 30
0.0
  0
VERTEX
  8
0
 10
19.346969136388342
 20
15.0
 30
0.0
  0
VERTEX
  8
0
 10
19.346969136388342
 20
15.628585596981226
 30
0.0
  0
VERTEX
  8
0
 10
18.0
 20
15.628585596981226
 30
0.0
  0
SEQEND
  0
SOLID
 62
129
  8
0
 10
18.0
 20
15.0
 30
0.0
 11
19.346969136388342
 21
15.0
 31
0.0
 13
19.346969136388342
 23
15.628585596981226
 33
0.0
 12
18.0
 22
15.628585596981226
 32
0.0
  0
POLYLINE
 62
133
  8
0
 66
1
 10
0.0
 20
0.0
 30
0.0
 70
9
  0
VERTEX
  8
0
 10
58.0
 20
15.0
 30
0.0
  0
VERTEX
  8
0
 10
59.33818692634113
 20
15.153563031203603
 30
0.0
  0
VERTEX
  8
0
 10
59.26652417844611
 20
15.778050263496132
 30
0.0
  0
VERTEX
  8
0
 10
57.92833725210498
 20
15.624487232292527
 30
0.0
  0
SEQEND
  0
POLYLINE
 62
256
  8
0
 66
1
 10
0.0
 20
0.0
 30
0.0
 70
9
  0
VERTEX
  8
0
 10
18.0
 20
18.0
 30
0.0
  0
VERTEX
  8
0
 10
18.878028298272483
 20
18.0
 30
0.0
  0
VERTEX
  8
0
 10
18.878028298272483
 20
18.409746539193826
 30
0.0
  0
VERTEX
  8
0
 10
18.0
 20
18.409746539193826
 30
0.0
  0
SEQEND
  0
SOLID
 62
50
  8
0
 10
18.0
 20
18.0
 30
0.0
 11
18.878028298272483
 21
18.0
 31
0.0
 13
18.878028298272483
 23
18.409746539193826
 33
0.0
 12
18.0
 22
18.409746539193826
 32
0.0
  0
POLYLINE
 62
4
  8
0
 66
1
 10
0.0
 20
0.0
 30
0.0
 70
9
  0
VERTEX
  8
0
 10
58.0
 20
18.0
 30
0.0
  0
VERTEX
  8
0
 10
58.846676274375184
 20
18.232535973512558
 30
0.0
  0
VERTEX
  8
0
 10
58.73815948673599
 20
18.627651568220976
 30
0.0
  0
VERTEX
  8
0
 10
57.891483212360804
 20
18.395115594708418
 30
0.0
  0
SEQEND
  0
POLYLINE
 62
256
  8
0
 66
1
 10
0.0
 20
0.0
 30
0.0
 70
9
  0
VERTEX
  8
0
 10
18.0
 20
21.0
 30
0.0
  0
VERTEX
  8
0
 10
18.76570176286255
 20
21.0
 30
0.0
  0
VERTEX
  8
0
 10
18.76570176286255
 20
21.35732748933586
 30
0.0
  0
VERTEX
  8
0
 10
18.0
 20
21.35732748933586
 30
0.0
  0
SEQEND
  0
SOLID
 62
185
  8
0
 10
18.0
 20
21.0
 30
0.0
 11
18.76570176286255
 21
21.0
 31
0.0
 13
18.76570176286255
 23
21.35732748933586
 33
0.0
 12
18.0
 22
21.35732748933586
 32
0.0
  0
POLYLINE
 62
54
  8
0
 66
1
 10
0.0
 20
0.0
 30
0.0
 70
9
  0
VERTEX
  8
0
 10
58.0
 20
21.0
 30
0.0
  0
VERTEX
  8
0
 10
58.18837532609596
 20
21.742168394752202
 30
0.0
  0
VERTEX
  8
0
 10
57.842030075211596
 20
21.83007688026365
 30
0.0
  0
VERTEX
  8
0
 10
57.65365474911564
 20
21.08790848551145
 30
0.0
  0
SEQEND
  0
POLYLINE
 62
256
  8
0
 66
1
 10
0.0
 20
0.0
 30
0.0
 70
9
  0
VERTEX
  8
0
 10
18.0
 20
24.0
 30
0.0
  0
VERTEX
  8
0
 10
19.156852684315187
 20
24.0
 30
0.0
  0
VERTEX
  8
0
 10
19.156852684315187
 20
24.539864586013753
 30
0.0
  0
VERTEX
  8
0
 10
18.0
 20
24.539864586013753
 30
0.0
  0
SEQEND
  0
SOLID
 62
220
  8
0
 10
18.0
 20
24.0
 30
0.0
 11
19.156852684315187
 21
24.0
 31
0.0
 13
19.156852684315187
 23
24.539864586013753
 33
0.0
 12
18.0
 22
24.539864586013753
 32
0.0
  0
POLYLINE
 62
174
  8
0
 66
1
 10
0.0
 20
0.0
 30
0.0
 70
9
  0
VERTEX
  8
0
 10
58.0
 20
24.0
 30
0.0
  0
VERTEX
  8
0
 10
58.547068045696435
 20
25.019325603811236
 30
0.0
  0
VERTEX
  8
0
 10
58.07138276391785
 20
25.274624025136237
 30
0.0
  0
VERTEX
  8
0
 10
57.524314718221426
 20
24.255298421325
 30
0.0
  0
SEQEND
  0
POLYLINE
 62
256
  8
0
 66
1
 10
0.0
 20
0.0
 30
0.0
 70
9
  0
VERTEX
  8
0
 10
18.0
 20
27.0
 30
0.0
  0
VERTEX
  8
0
 10
18.669350827209062
 20
27.0
 30
0.0
  0
VERTEX
  8
0
 10
18.669350827209062
 20
27.312363719364228
 30
0.0
  0
VERTEX
  8
0
 10
18.0
 20
27.312363719364228
 30
0.0
  0
SEQEND
  0
SOLID
 62
80
  8
0
 10
18.0
 20
27.0
 30
0.0
 11
18.669350827209062
 21
27.0
 31
0.0
 13
18.669350827209062
 23
27.312363719364228
 33
0.0
 12
18.0
 22
27.312363719364228
 32
0.0
  0
POLYLINE
 62
132
  8
0
 66
1
 10
0.0
 20
0.0
 30
0.0
 70
9
  0
VERTEX
  8
0
 10
58.0
 20
27.0
 30
0.0
  0
VERTEX
  8
0
 10
58.308974786582624
 20
27.593771935293066
 30
0.0
  0
VERTEX
  8
0
 10
58.0318812167792
 20
27.737960169031627
 30
0.0
  0
VERTEX
  8
0
 10
57.722906430196566
 20
27.144188233738557
 30
0.0
  0
SEQEND
  0
POLYLINE
 62
256
  8
0
 66
1
 10
0.0
 20
0.0
 30
0.0
 70
9
  0
VERTEX
  8
0
 10
21.0
 20
0.0
 30
0.0
  0
VERTEX
  8
0
 10
22.143363095501215
 20
0.0
 30
0.0
  0
VERTEX
  8
0
 10
22.143363095501215
 20
0.5335694445672339
 30
0.0
  0
VERTEX
  8
0
 10
21.0
 20
0.5335694445672339
 30
0.0
  0
SEQEND
  0
SOLID
 62
21
  8
0
 10
21.0
 20
0.0
 30
0.0
 11
22.143363095501215
 21
0.0
 31
0.0
 13
22.143363095501215
 23
0.5335694445672339
 33
0.0
 12
21.0
 22
0.5335694445672339
 32
0.0
  0
POLYLINE
 62
113
  8
0
 66
1
 10
0.0
 20
0.0
 30
0.0
 70
9
  0
VERTEX
  8
0
 10
61.0
 20
0.0
 30
0.0
  0
VERTEX
  8
0
 10
61.85560405016566
 20
0.7584331727279912
 30
0.0
  0
VERTEX
  8
0
 10
61.50166856955926
 20
1.1577150628052975
 30
0.0
  0
VERTEX
  8
0
 10
60.646064519393605
 20
0.3992818900773062
 30
0.0
  0
SEQEND
  0
POLYLINE
 62
256
  8
0
 66
1
 10
0.0
 20
0.0
 30
0.0
 70
9
  0
VERTEX
  8
0
 10
21.0
 20
3.0
 30
0.0
  0
VERTEX
  8
0
 10
21.30326388930433
 20
3.0
 30
0.0
  0
VERTEX
  8
0
 10
21.30326388930433
 20
3.1415231483420203
 30
0.0
  0
VERTEX
  8
0
 10
21.0
 20
3.1415231483420203
 30
0.0
  0
SEQEND
  0
SOLID
 62
146
  8
0
 10
21.0
 20
3.0
 30
0.0
 11
21.30326388930433
 21
3.0
 31
0.0
 13
21.30326388930433
 23
3.1415231483420203
 33
0.0
 12
21.0
 22
3.1415231483420203
 32
0.0
  0
POLYLINE
 62
106
  8
0
 66
1
 10
0.0
 20
0.0
 30
0.0
 70
9
  0
VERTEX
  8
0
 10
61.0
 20
3.0
 30
0.0
  0
VERTEX
  8
0
 10
61.129159062495546
 20
3.2743846262662335
 30
0.0
  0
VERTEX
  8
0
 10
61.001112903571304
 20
3.3346588554308205
 30
0.0
  0
VERTEX
  8
0
 10
60.87195384107576
 20
3.060274229164587
 30
0.0
  0
SEQEND
  0
POLYLINE
 62
256
  8
0
 66
1
 10
0.0
 20
0.0
 30
0.0
 70
9
  0
VERTEX
  8
0
 10
21.0
 20
6.0
 30
0.0
  0
VERTEX
  8
0
 10
21.408774059065184
 20
6.0
 30
0.0
  0
VERTEX
  8
0
 10
21.408774059065184
 20
6.190761227563752
 30
0.0
  0
VERTEX
  8
0
 10
21.0
 20
6.190761227563752
 30
0.0
  0
SEQEND
  0
SOLID
 62
80
  8
0
 10
21.0
 20
6.0
 30
0.0
 11
21.408774059065184
 21
6.0
 31
0.0
 13
21.408774059065184
 23
6.190761227563752
 33
0.0
 12
21.0
 22
6.190761227563752
 32
0.0
  0
POLYLINE
 62
211
  8
0
 66
1
 10
0.0
 20
0.0
 30
0.0
 70
9
  0
VERTEX
  8
0
 10
61.0
 20
6.0
 30
0.0
  0
VERTEX
  8
0
 10
61.183300952252274
 20
6.365372402170765
 30
0.0
  0
VERTEX
  8
0
 10
61.01279383123925
 20
6.450912846555159
 30
0.0
  0
VERTEX
  8
0
 10
60.829492878986976
 20
6.085540444384394
 30
0.0
  0
SEQEND
  0
POLYLINE
 62
256
  8
0
 66
1
 10
0.0
 20
0.0
 30
0.0
 70
9
  0
VERTEX
  8
0
 10
21.0
 20
9.0
 30
0.0
  0
VERTEX
  8
0
 10
21.189780898056142
 20
9.0
 30
0.0
  0
VERTEX
  8
0
 10
21.189780898056142
 20
9.088564419092867
 30
0.0
  0
VERTEX
  8
0
 10
21.0
 20
9.088564419092867
 30
0.0
  0
SEQEND
  0
SOLID
 62
21
  8
0
 10
21.0
 20
9.0
 30
0.0
 11
21.189780898056142
 21
9.0
 31
0.0
 13
21.189780898056142
 23
9.088564419092867
 33
0.0
 12
21.0
 22
9.088564419092867
 32
0.0
  0
POLYLINE
 62
199
  8
0
 66
1
 10
0.0
 20
0.0
 30
0.0
 70
9
  0
VERTEX
  8
0
 10
61.0
 20
9.0
 30
0.0
  0
VERTEX
  8
0
 10
61.046871490166964
 20
9.183901747344946
 30
0.0
  0
VERTEX
  8
0
 10
60.961050674739326
 20
9.205775109422863
 30
0.0
  0
VERTEX
  8
0
 10
60.91417918457236
 20
9.021873362077917
 30
0.0
  0
SEQEND
  0
POLYLINE
 62
256
  8
0
 66
1
 10
0.0
 20
0.0
 30
0.0
 70
9
  0
VERTEX
  8
0
 10
21.0
 20
12.0
 30
0.0
  0
VERTEX
  8
0
 10
22.056321175715407
 20
12.0
 30
0.0
  0
VERTEX
  8
0
 10
22.056321175715407
 20
12.492949882000524
 30
0.0
  0
VERTEX
  8
0
 10
21.0
 20
12.492949882000524
 30
0.0
  0
SEQEND
  0
SOLID
 62
89
  8
0
 10
21.0
 20
12.0
 30
0.0
 11
22.056321175715407
 21
12.0
 31
0.0
 13
22.056321175715407
 23
12.492949882000524
 33
0.0
 12
21.0
 22
12.492949882000524
 32
0.0
  0
POLYLINE
 62
5
  8
0
 66
1
 10
0.0
 20
0.0
 30
0.0
 70
9
  0
VERTEX
  8
0
 10
61.0
 20
12.0
 30
0.0
  0
VERTEX
  8
0
 10
61.092565415719896
 20
13.05225760632907
 30
0.0
  0
VERTEX
  8
0
 10
60.60151186609966
 20
13.095454800331687
 30
0.0
  0
VERTEX
  8
0
 10
60.50894645037977
 20
12.043197194002618
 30
0.0
  0
SEQEND
  0
POLYLINE
 62
256
  8
0
 66
1
 10
0.0
 20
0.0
 30
0.0
 70
9
  0
VERTEX
  8
0
 10
21.0
 20
15.0
 30
0.0
  0
VERTEX
  8
0
 10
21.97327263116124
 20
15.0
 30
0.0
  0
VERTEX
  8
0
 10
21.97327263116124
 20
15.45419389454191
 30
0.0
  0
VERTEX
  8
0
 10
21.0
 20
15.45419389454191
 30
0.0
  0
SEQEND
  0
SOLID
 62
25
  8
0
 10
21.0
 20
15.0
 30
0.0
 11
21.97327263116124
 21
15.0
 31
0.0
 13
21.97327263116124
 23
15.45419389454191
 33
0.0
 12
21.0
 22
15.45419389454191
 32
0.0
  0
POLYLINE
 62
98
  8
0
 66
1
 10
0.0
 20
0.0
 30
0.0
 70
9
  0
VERTEX
  8
0
 10
61.0
 20
15.0
 30
0.0
  0
VERTEX
  8
0
 10
61.71728264847129
 20
15.657848931571326
 30
0.0
  0
VERTEX
  8
0
 10
61.41028648040467
 20
15.99258083419126
 30
0.0
  0
VERTEX
  8
0
 10
60.69300383193338
 20
15.334731902619936
 30
0.0
  0
SEQEND
  0
POLYLINE
 62
256
  8
0
 66
1
 10
0.0
 20
0.0
 30
0.0
 70
9
  0
VERTEX
  8
0
 10
21.0
 20
18.0
 30
0.0
  0
VERTEX
  8
0
 10
21.359676114130348
 20
18.0
 30
0.0
  0
VERTEX
  8
0
 10
21.359676114130348
 20
18.16784885326083
 30
0.0
  0
VERTEX
  8
0
 10
21.0
 20
18.16784885326083
 30
0.0
  0
SEQEND
  0
SOLID
 62
220
  8
0
 10
21.0
 20
18.0
 30
0.0
 11
21.359676114130348
 21
18.0
 31
0.0
 13
21.359676114130348
 23
18.16784885326083
 33
0.0
 12
21.0
 22
18.16784885326083
 32
0.0
  0
POLYLINE
 62
67
  8
0
 66
1
 10
0.0
 20
0.0
 30
0.0
 70
9
  0
VERTEX
  8
0
 10
61.0
 20
18.0
 30
0.0
  0
VERTEX
  8
0
 10
61.34964614135526
 20
18.084347394217513
 30
0.0
  0
VERTEX
  8
0
 10
61.31028402405375
 20
18.247515593516635
 30
0.0
  0
VERTEX
  8
0
 10
60.96063788269849
 20
18.163168199299122
 30
0.0
  0
SEQEND
  0
POLYLINE
 62
256
  8
0
 66
1
 10
0.0
 20
0.0
 30
0.0
 70
9
  0
VERTEX
  8
0
 10
21.0
 20
21.0
 30
0.0
  0
VERTEX
  8
0
 10
21.282719947881855
 20
21.0
 30
0.0
  0
VERTEX
  8
0
 10
21.282719947881855
 20
21.1319359756782
 30
0.0
  0
VERTEX
  8
0
 10
21.0
 20
21.1319359756782
 30
0.0
  0
SEQEND
  0
SOLID
 62
203
  8
0
 10
21.0
 20
21.0
 30
0.0
 11
21.282719947881855
 21
21.0
 31
0.0
 13
21.282719947881855
 23
21.1319359756782
 33
0.0
 12
21.0
 22
21.1319359756782
 32
0.0
  0
POLYLINE
 62
109
  8
0
 66
1
 10
0.0
 20
0.0
 30
0.0
 70
9
  0
VERTEX
  8
0
 10
61.0
 20
21.0
 30
0.0
  0
VERTEX
  8
0
 10
61.10385709566021
 20
21.262952985553206
 30
0.0
  0
VERTEX
  8
0
 10
60.981145702402046
 20
21.31141963019464
 30
0.0
  0
VERTEX
  8
0
 10
60.877288606741836
 20
21.048466644641433
 30
0.0
  0
SEQEND
  0
POLYLINE
 62
256
  8
0
 66
1
 10
0.0
 20
0.0
 30
0.0
 70
9
  0
VERTEX
  8
0
 10
21.0
 20
24.0
 30
0.0
  0
VERTEX
  8
0
 10
21.70711051641107
 20
24.0
 30
0.0
  0
VERTEX
  8
0
 10
21.70711051641107
 20
24.3299849076585
 30
0.0
  0
VERTEX
  8
0
 10
21.0
 20
24.3299849076585
 30
0.0
  0
SEQEND
  0
SOLID
 62
71
  8
0
 10
21.0
 20
24.0
 30
0.0
 11
21.70711051641107
 21
24.0
 31
0.0
 13
21.70711051641107
 23
24.3299849076585
 33
0.0
 12
21.0
 22
24.3299849076585
 32
0.0
  0
POLYLINE
 62
118
  8
0
 66
1
 10
0.0
 20
0.0
 30
0.0
 70
9
  0
VERTEX
  8
0
 10
61.0
 20
24.0
 30
0.0
  0
VERTEX
  8
0
 10
61.68945969585198
 20
24.157005127988946
 30
0.0
  0
VERTEX
  8
0
 10
61.616190636123804
 20
24.478752986053202
 30
0.0
  0
VERTEX
  8
0
 10
60.926730940271824
 20
24.321747858064256
 30
0.0
  0
SEQEND
  0
POLYLINE
 62
256
  8
0
 66
1
 10
0.0
 20
0.0
 30
0.0
 70
9
  0
VERTEX
  8
0
 10
21.0
 20
27.0
 30
0.0
  0
VERTEX
  8
0
 10
21.686315402289257
 20
27.0
 30
0.0
  0
VERTEX
  8
0
 10
21.686315402289257
 20
27.32028052106832
 30
0.0
  0
VERTEX
  8
0
 10
21.0
 20
27.32028052106832
 30
0.0
  0
SEQEND
  0
SOLID
 62
108
  8
0
 10
21.0
 20
27.0
 30
0.0
 11
21.686315402289257
 21
27.0
 31
0.0
 13
21.686315402289257
 23
27.32028052106832
 33
0.0
 12
21.0
 22
27.32028052106832
 32
0.0
  0
POLYLINE
 62
105
  8
0
 66
1
 10
0.0
 20
0.0
 30
0.0
 70
9
  0
VERTEX
  8
0
 10
61.0
 20
27.0
 30
0.0
  0
VERTEX
  8
0
 10
61.601597669170204
 20
27.330316629718276
 30
0.0
  0
VERTEX
  8
0
 10
61.44744990863501
 20
27.61106220866437
 30
0.0
  0
VERTEX
  8
0
 10
60.845852239464804
 20
27.280745578946096
 30
0.0
  0
SEQEND
  0
POLYLINE
 62
256
  8
0
 66
1
 10
0.0
 20
0.0
 30
0.0
 70
9
  0
VERTEX
  8
0
 10
24.0
 20
0.0
 30
0.0
  0
VERTEX
  8
0
 10
24.99874291604431
 20
0.0
 30
0.0
  0
VERTEX
  8
0
 10
24.99874291604431
 20
0.46608002748734473
 30
0.0
  0
VERTEX
  8
0
 10
24.0
 20
0.46608002748734473
 30
0.0
  0
SEQEND
  0
SOLID
 62
148
  8
0
 10
24.0
 20
0.0
 30
0.0
 11
24.99874291604431
 21
0.0
 31
0.0
 13
24.99874291604431
 23
0.46608002748734473
 33
0.0
 12
24.0
 22
0.46608002748734473
 32
0.0
  0
POLYLINE
 62
57
  8
0
 66
1
 10
0.0
 20
0.0
 30
0.0
 70
9
  0
VERTEX
  8
0
 10
64.0
 20
0.0
 30
0.0
  0
VERTEX
  8
0
 10
64.21075845345018
 20
0.9762521634536733
 30
0.0
  0
VERTEX
  8
0
 10
63.75517411050514
 20
1.0746061083970937
 30
0.0
  0
VERTEX
  8
0
 10
63.544415657054955
 20
0.09835394494342034
 30
0.0
  0
SEQEND
  0
POLYLINE
 62
256
  8
0
 66
1
 10
0.0
 20
0.0
 30
0.0
 70
9
  0
VERTEX
  8
0
 10
24.0
 20
3.0
 30
0.0
  0
VERTEX
  8
0
 10
24.281232278291842
 20
3.0
 30
0.0
  0
VERTEX
  8
0
 10
24.281232278291842
 20
3.1312417298695268
 30
0.0
  0
VERTEX
  8
0
 10
24.0
 20
3.1312417298695268
 30
0.0
  0
SEQEND
  0
SOLID
 62
81
  8
0
 10
24.0
 20
3.0
 30
0.0
 11
24.281232278291842
 21
3.0
 31
0.0
 13
24.281232278291842
 23
3.1312417298695268
 33
0.0
 12
24.0
 22
3.1312417298695268
 32
0.0
  0
POLYLINE
 62
17
  8
0
 66
1
 10
0.0
 20
0.0
 30
0.0
 70
9
  0
VERTEX
  8
0
 10
64.0
 20
3.0
 30
0.0
  0
VERTEX
  8
0
 10
64.12339152633474
 20
3.2527174817498845
 30
0.0
  0
VERTEX
  8
0
 10
64.00545670151813
 20
3.310300194039431
 30
0.0
  0
VERTEX
  8
0
 10
63.882065175183385
 20
3.0575827122895465
 30
0.0
  0
SEQEND
  0
POLYLINE
 62
256
  8
0
 66
1
 10
0.0
 20
0.0
 30
0.0
 70
9
  0
VERTEX
  8
0
 10
24.0
 20
6.0
 30
0.0
  0
VERTEX
  8
0
 10
24.043554685955126
 20
6.0
 30
0.0
  0
VERTEX
  8
0
 10
24.043554685955126
 20
6.020325520112392
 30
0.0
  0
VERTEX
  8
0
 10
24.0
 20
6.020325520112392
 30
0.0
  0
SEQEND
  0
SOLID
 62
156
  8
0
 10
24.0
 20
6.0
 30
0.0
 11
24.043554685955126
 21
6.0
 31
0.0
 13
24.043554685955126
 23
6.020325520112392
 33
0.0
 12
24.0
 22
6.020325520112392
 32
0.0
  0
POLYLINE
 62
48
  8
0
 66
1
 10
0.0
 20
0.0
 30
0.0
 70
9
  0
VERTEX
  8
0
 10
64.0
 20
6.0
 30
0.0
  0
VERTEX
  8
0
 10
64.04355403645847
 20
6.00023785883097
 30
0.0
  0
VERTEX
  8
0
 10
64.04344303567069
 20
6.020563075844925
 30
0.0
  0
VERTEX
  8
0
 10
63.99988899921222
 20
6.020325217013955
 30
0.0
  0
SEQEND
  0
POLYLINE
 62
256
  8
0
 66
1
 10
0.0
 20
0.0
 30
0.0
 70
9
  0
VERTEX
  8
0
 10
24.0
 20
9.0
 30
0.0
  0
VERTEX
  8
0
 10
25.019402644150137
 20
9.0
 30
0.0
  0
VERTEX
  8
0
 10
25.019402644150137
 20
9.475721233936731
 30
0.0
  0
VERTEX
  8
0
 10
24.0
 20
9.475721233936731
 30
0.0
  0
SEQEND
  0
SOLID
 62
234
  8
0
 10
24.0
 20
9.0
 30
0.0
 11
25.019402644150137
 21
9.0
 31
0.0
 13
25.019402644150137
 23
9.475721233936731
 33
0.0
 12
24.0
 22
9.475721233936731
 32
0.0
  0
POLYLINE
 62
149
  8
0
 66
1
 10
0.0
 20
0.0
 30
0.0
 70
9
  0
VERTEX
  8
0
 10
64.0
 20
9.0
 30
0.0
  0
VERTEX
  8
0
 10
64.73855421119735
 20
9.702651711748395
 30
0.0
  0
VERTEX
  8
0
 10
64.4106500790481
 20
10.047310343640493
 30
0.0
  0
VERTEX
  8
0
 10
63.67209586785075
 20
9.344658631892097
 30
0.0
  0
SEQEND
  0
POLYLINE
 62
256
  8
0
 66
1
 10
0.0
 20
0.0
 30
0.0
 70
9
  0
VERTEX
  8
0
 10
24.0
 20
12.0
 30
0.0
  0
VERTEX
  8
0
 10
24.360687825239594
 20
12.0
 30
0.0
  0
VERTEX
  8
0
 10
24.360687825239594
 20
12.16832098511181
 30
0.0
  0
VERTEX
  8
0
 10
24.0
 20
12.16832098511181
 30
0.0
  0
SEQEND
  0
SOLID
 62
225
  8
0
 10
24.0
 20
12.0
 30
0.0
 11
24.360687825239594
 21
12.0
 31
0.0
 13
24.360687825239594
 23
12.16832098511181
 33
0.0
 12
24.0
 22
12.16832098511181
 32
0.0
  0
POLYLINE
 62
203
  8
0
 66
1
 10
0.0
 20
0.0
 30
0.0
 70
9
  0
VERTEX
  8
0
 10
64.0
 20
12.0
 30
0.0
  0
VERTEX
  8
0
 10
64.18939376812077
 20
12.306962062595826
 30
0.0
  0
VERTEX
  8
0
 10
64.04614480557605
 20
12.395345821052185
 30
0.0
  0
VERTEX
  8
0
 10
63.85675103745528
 20
12.08838375845636
 30
0.0
  0
SEQEND
  0
POLYLINE
 62
256
  8
0
 66
1
 10
0.0
 20
0.0
 30
0.0
 70
9
  0
VERTEX
  8
0
 10
24.0
 20
15.0
 30
0.0
  0
VERTEX
  8
0
 10
24.81706438462039
 20
15.0
 30
0.0
  0
VERTEX
  8
0
 10
24.81706438462039
 20
15.381296712822849
 30
0.0
  0
VERTEX
  8
0
 10
24.0
 20
15.381296712822849
 30
0.0
  0
SEQEND
  0
SOLID
 62
55
  8
0
 10
24.0
 20
15.0
 30
0.0
 11
24.81706438462039
 21
15.0
 31
0.0
 13
24.81706438462039
 23
15.381296712822849
 33
0.0
 12
24.0
 22
15.381296712822849
 32
0.0
  0
POLYLINE
 62
220
  8
0
 66
1
 10
0.0
 20
0.0
 30
0.0
 70
9
  0
VERTEX
  8
0
 10
64.0
 20
15.0
 30
0.0
  0
VERTEX
  8
0
 10
64.50652579073851
 20
15.641112963471986
 30
0.0
  0
VERTEX
  8
0
 10
64.20733974111825
 20
15.87749166581662
 30
0.0
  0
VERTEX
  8
0
 10
63.70081395037974
 20
15.236378702344634
 30
0.0
  0
SEQEND
  0
POLYLINE
 62
256
  8
0
 66
1
 10
0.0
 20
0.0
 30
0.0
 70
9
  0
VERTEX
  8
0
 10
24.0
 20
18.0
 30
0.0
  0
VERTEX
  8
0
 10
24.959346394752945
 20
18.0
 30
0.0
  0
VERTEX
  8
0
 10
24.959346394752945
 20
18.44769498421804
 30
0.0
  0
VERTEX
  8
0
 10
24.0
 20
18.44769498421804
 30
0.0
  0
SEQEND
  0
SOLID
 62
179
  8
0
 10
24.0
 20
18.0
 30
0.0
 11
24.959346394752945
 21
18.0
 31
0.0
 13
24.959346394752945
 23
18.44769498421804
 33
0.0
 12
24.0
 22
18.44769498421804
 32
0.0
  0
POLYLINE
 62
197
  8
0
 66
1
 10
0.0
 20
0.0
 30
0.0
 70
9
  0
VERTEX
  8
0
 10
64.0
 20
18.0
 30
0.0
  0
VERTEX
  8
0
 10
64.1831751456556
 20
18.941696538774313
 30
0.0
  0
VERTEX
  8
0
 10
63.74371676089425
 20
19.027178273413593
 30
0.0
  0
VERTEX
  8
0
 10
63.560541615238655
 20
18.08548173463928
 30
0.0
  0
SEQEND
  0
POLYLINE
 62
256
  8
0
 66
1
 10
0.0
 20
0.0
 30
0.0
 70
9
  0
VERTEX
  8
0
 10
24.0
 20
21.0
 30
0.0
  0
VERTEX
  8
0
 10
25.2793207075818
 20
21.0
 30
0.0
  0
VERTEX
  8
0
 10
25.2793207075818
 20
21.59701633020484
 30
0.0
  0
VERTEX
  8
0
 10
24.0
 20
21.59701633020484
 30
0.0
  0
SEQEND
  0
SOLID
 62
228
  8
0
 10
24.0
 20
21.0
 30
0.0
 11
25.2793207075818
 21
21.0
 31
0.0
 13
25.2793207075818
 23
21.59701633020484
 33
0.0
 12
24.0
 22
21.59701633020484
 32
0.0
  0
POLYLINE
 62
234
  8
0
 66
1
 10
0.0
 20
0.0
 30
0.0
 70
9
  0
VERTEX
  8
0
 10
64.0
 20
21.0
 30
0.0
  0
VERTEX
  8
0
 10
65.06681069089112
 20
21.706099442464033
 30
0.0
  0
VERTEX
  8
0
 10
64.73729761774123
 20
22.203944431546553
 30
0.0
  0
VERTEX
  8
0
 10
63.67048692685012
 20
21.49784498908252
 30
0.0
  0
SEQEND
  0
POLYLINE
 62
256
  8
0
 66
1
 10
0.0
 20
0.0
 30
0.0
 70
9
  0
VERTEX
  8
0
 10
24.0
 20
24.0
 30
0.0
  0
VERTEX
  8
0
 10
24.005574293690213
 20
24.0
 30
0.0
  0
VERTEX
  8
0
 10
24.005574293690213
 20
24.002601337055435
 30
0.0
  0
VERTEX
  8
0
 10
24.0
 20
24.002601337055435
 30
0.0
  0
SEQEND
  0
SOLID
 62
126
  8
0
 10
24.0
 20
24.0
 30
0.0
 11
24.005574293690213
 21
24.0
 31
0.0
 13
24.005574293690213
 23
24.002601337055435
 33
0.0
 12
24.0
 22
24.002601337055435
 32
0.0
  0
POLYLINE
 62
225
  8
0
 66
1
 10
0.0
 20
0.0
 30
0.0
 70
9
  0
VERTEX
  8
0
 10
64.0
 20
24.0
 30
0.0
  0
VERTEX
  8
0
 10
64.00511306070075
 20
24.002220216299186
 30
0.0
  0
VERTEX
  8
0
 10
64.00407695976114
 20
24.00460631129287
 30
0.0
  0
VERTEX
  8
0
 10
63.99896389906038
 20
24.002386094993685
 30
0.0
  0
SEQEND
  0
POLYLINE
 62
256
  8
0
 66
1
 10
0.0
 20
0.0
 30
0.0
 70
9
  0
VERTEX
  8
0
 10
24.0
 20
27.0
 30
0.0
  0
VERTEX
  8
0
 10
24.60165354667506
 20
27.0
 30
0.0
  0
VERTEX
  8
0
 10
24.60165354667506
 20
27.28077165511503
 30
0.0
  0
VERTEX
  8
0
 10
24.0
 20
27.28077165511503
 30
0.0
  0
SEQEND
  0
SOLID
 62
46
  8
0
 10
24.0
 20
27.0
 30
0.0
 11
24.60165354667506
 21
27.0
 31
0.0
 13
24.60165354667506
 23
27.28077165511503
 33
0.0
 12
24.0
 22
27.28077165511503
 32
0.0
  0
POLYLINE
 62
142
  8
0
 66
1
 10
0.0
 20
0.0
 30
0.0
 70
9
  0
VERTEX
  8
0
 10
64.0
 20
27.0
 30
0.0
  0
VERTEX
  8
0
 10
64.42541774600963
 20
27.42544885897927
 30
0.0
  0
VERTEX
  8
0
 10
64.22687494515263
 20
27.62397714045043
 30
0.0
  0
VERTEX
  8
0
 10
63.80145719914301
 20
27.19852828147116
 30
0.0
  0
SEQEND
  0
POLYLINE
 62
256
  8
0
 66
1
 10
0.0
 20
0.0
 30
0.0
 70
9
  0
VERTEX
  8
0
 10
27.0
 20
0.0
 30
0.0
  0
VERTEX
  8
0
 10
28.315719224477885
 20
0.0
 30
0.0
  0
VERTEX
  8
0
 10
28.315719224477885
 20
0.6140023047563459
 30
0.0
  0
VERTEX
  8
0
 10
27.0
 20
0.6140023047563459
 30
0.0
  0
SEQEND
  0
SOLID
 62
176
  8
0
 10
27.0
 20
0.0
 30
0.0
 11
28.315719224477885
 21
0.0
 31
0.0
 13
28.315719224477885
 23
0.6140023047563459
 33
0.0
 12
27.0
 22
0.6140023047563459
 32
0.0
  0
POLYLINE
 62
89
  8
0
 66
1
 10
0.0
 20
0.0
 30
0.0
 70
9
  0
VERTEX
  8
0
 10
67.0
 20
0.0
 30
0.0
  0
VERTEX
  8
0
 10
68.22209891352294
 20
0.4874334038889184
 30
0.0
  0
VERTEX
  8
0
 10
67.99462999170811
 20
1.0577462301996232
 30
0.0
  0
VERTEX
  8
0
 10
66.77253107818517
 20
0.5703128263107047
 30
0.0
  0
SEQEND
  0
POLYLINE
 62
256
  8
0
 66
1
 10
0.0
 20
0.0
 30
0.0
 70
9
  0
VERTEX
  8
0
 10
27.0
 20
3.0
 30
0.0
  0
VERTEX
  8
0
 10
27.212629255697944
 20
3.0
 30
0.0
  0
VERTEX
  8
0
 10
27.212629255697944
 20
3.099226985992374
 30
0.0
  0
VERTEX
  8
0
 10
27.0
 20
3.099226985992374
 30
0.0
  0
SEQEND
  0
SOLID
 62
151
  8
0
 10
27.0
 20
3.0
 30
0.0
 11
27.212629255697944
 21
3.0
 31
0.0
 13
27.212629255697944
 23
3.099226985992374
 33
0.0
 12
27.0
 22
3.099226985992374
 32
0.0
  0
POLYLINE
 62
219
  8
0
 66
1
 10
0.0
 20
0.0
 30
0.0
 70
9
  0
VERTEX
  8
0
 10
67.0
 20
3.0
 30
0.0
  0
VERTEX
  8
0
 10
67.12579612259469
 20
3.1714250154405743
 30
0.0
  0
VERTEX
  8
0
 10
67.04579778205576
 20
3.230129872651433
 30
0.0
  0
VERTEX
  8
0
 10
66.92000165946106
 20
3.0587048572108593
 30
0.0
  0
SEQEND
  0
POLYLINE
 62
256
  8
0
 66
1
 10
0.0
 20
0.0
 30
0.0
 70
9
  0
VERTEX
  8
0
 10
27.0
 20
6.0
 30
0.0
  0
VERTEX
  8
0
 10
27.247140142069643
 20
6.0
 30
0.0
  0
VERTEX
  8
0
 10
27.247140142069643
 20
6.115332066299167
 30
0.0
  0
VERTEX
  8
0
 10
27.0
 20
6.115332066299167
 30
0.0
  0
SEQEND
  0
SOLID
 62
152
  8
0
 10
27.0
 20
6.0
 30
0.0
 11
27.247140142069643
 21
6.0
 31
0.0
 13
27.247140142069643
 23
6.115332066299167
 33
0.0
 12
27.0
 22
6.115332066299167
 32
0.0
  0
POLYLINE
 62
140
  8
0
 66
1
 10
0.0
 20
0.0
 30
0.0
 70
9
  0
VERTEX
  8
0
 10
67.0
 20
6.0
 30
0.0
  0
VERTEX
  8
0
 10
67.22709732545863
 20
6.097493869508512
 30
0.0
  0
VERTEX
  8
0
 10
67.18160018635466
 20
6.203472621389204
 30
0.0
  0
VERTEX
  8
0
 10
66.95450286089603
 20
6.105978751880691
 30
0.0
  0
SEQEND
  0
POLYLINE
 62
256
  8
0
 66
1
 10
0.0
 20
0.0
 30
0.0
 70
9
  0
VERTEX
  8
0
 10
27.0
 20
9.0
 30
0.0
  0
VERTEX
  8
0
 10
28.345815742146094
 20
9.0
 30
0.0
  0
VERTEX
  8
0
 10
28.345815742146094
 20
9.628047346334844
 30
0.0
  0
VERTEX
  8
0
 10
27.0
 20
9.628047346334844
 30
0.0
  0
SEQEND
  0
SOLID
 62
121
  8
0
 10
27.0
 20
9.0
 30
0.0
 11
28.345815742146094
 21
9.0
 31
0.0
 13
28.345815742146094
 23
9.628047346334844
 33
0.0
 12
27.0
 22
9.628047346334844
 32
0.0
  0
POLYLINE
 62
238
  8
0
 66
1
 10
0.0
 20
0.0
 30
0.0
 70
9
  0
VERTEX
  8
0
 10
67.0
 20
9.0
 30
0.0
  0
VERTEX
  8
0
 10
67.78657603013178
 20
10.092024798541855
 30
0.0
  0
VERTEX
  8
0
 10
67.27696445747891
 20
10.45909361260335
 30
0.0
  0
VERTEX
  8
0
 10
66.49038842734713
 20
9.367068814061497
 30
0.0
  0
SEQEND
  0
POLYLINE
 62
256
  8
0
 66
1
 10
0.0
 20
0.0
 30
0.0
 70
9
  0
VERTEX
  8
0
 10
27.0
 20
12.0
 30
0.0
  0
VERTEX
  8
0
 10
27.411899405683982
 20
12.0
 30
0.0
  0
VERTEX
  8
0
 10
27.411899405683982
 20
12.192219722652526
 30
0.0
  0
VERTEX
  8
0
 10
27.0
 20
12.192219722652526
 30
0.0
  0
SEQEND
  0
SOLID
 62
123
  8
0
 10
27.0
 20
12.0
 30
0.0
 11
27.411899405683982
 21
12.0
 31
0.0
 13
27.411899405683982
 23
12.192219722652526
 33
0.0
 12
27.0
 22
12.192219722652526
 32
0.0
  0
POLYLINE
 62
138
  8
0
 66
1
 10
0.0
 20
0.0
 30
0.0
 70
9
  0
VERTEX
  8
0
 10
67.0
 20
12.0
 30
0.0
  0
VERTEX
  8
0
 10
67.40939168433198
 20
12.045382476823642
 30
0.0
  0
VERTEX
  8
0
 10
67.38821319514761
 20
12.236431929511896
 30
0.0
  0
VERTEX
  8
0
 10
66.97882151081564
 20
12.191049452688254
 30
0.0
  0
SEQEND
  0
POLYLINE
 62
256
  8
0
 66
1
 10
0.0
 20
0.0
 30
0.0
 70
9
  0
VERTEX
  8
0
 10
27.0
 20
15.0
 30
0.0
  0
VERTEX
  8
0
 10
28.135299679007503
 20
15.0
 30
0.0
  0
VERTEX
  8
0
 10
28.135299679007503
 20
15.529806516870169
 30
0.0
  0
VERTEX
  8
0
 10
27.0
 20
15.529806516870169
 30
0.0
  0
SEQEND
  0
SOLID
 62
1
  8
0
 10
27.0
 20
15.0
 30
0.0
 11
28.135299679007503
 21
15.0
 31
0.0
 13
28.135299679007503
 23
15.529806516870169
 33
0.0
 12
27.0
 22
15.529806516870169
 32
0.0
  0
POLYLINE
 62
111
  8
0
 66
1
 10
0.0
 20
0.0
 30
0.0
 70
9
  0
VERTEX
  8
0
 10
67.0
 20
15.0
 30
0.0
  0
VERTEX
  8
0
 10
68.03354156811419
 20
15.469784193151058
 30
0.0
  0
VERTEX
  8
0
 10
67.8143089446437
 20
15.952103591604349
 30
0.0
  0
VERTEX
  8
0
 10
66.78076737652951
 20
15.48231939845329
 30
0.0
  0
SEQEND
  0
POLYLINE
 62
256
  8
0
 66
1
 10
0.0
 20
0.0
 30
0.0
 70
9
  0
VERTEX
  8
0
 10
27.0
 20
18.0
 30
0.0
  0
VERTEX
  8
0
 10
27.216827294181112
 20
18.0
 30
0.0
  0
VERTEX
  8
0
 10
27.216827294181112
 20
18.101186070617853
 30
0.0
  0
VERTEX
  8
0
 10
27.0
 20
18.101186070617853
 30
0.0
  0
SEQEND
  0
SOLID
 62
73
  8
0
 10
27.0
 20
18.0
 30
0.0
 11
27.216827294181112
 21
18.0
 31
0.0
 13
27.216827294181112
 23
18.101186070617853
 33
0.0
 12
27.0
 22
18.101186070617853
 32
0.0
  0
POLYLINE
 62
130
  8
0
 66
1
 10
0.0
 20
0.0
 30
0.0
 70
9
  0
VERTEX
  8
0
 10
67.0
 20
18.0
 30
0.0
  0
VERTEX
  8
0
 10
67.21355338904227
 20
18.037536988830492
 30
0.0
  0
VERTEX
  8
0
 10
67.19603612758804
 20
18.13719523705022
 30
0.0
  0
VERTEX
  8
0
 10
66.98248273854577
 20
18.09965824821973
 30
0.0
  0
SEQEND
  0
POLYLINE
 62
256
  8
0
 66
1
 10
0.0
 20
0.0
 30
0.0
 70
9
  0
VERTEX
  8
0
 10
27.0
 20
21.0
 30
0.0
  0
VERTEX
  8
0
 10
28.468434852574564
 20
21.0
 30
0.0
  0
VERTEX
  8
0
 10
28.468434852574564
 20
21.685269597868132
 30
0.0
  0
VERTEX
  8
0
 10
27.0
 20
21.685269597868132
 30
0.0
  0
SEQEND
  0
SOLID
 62
140
  8
0
 10
27.0
 20
21.0
 30
0.0
 11
28.468434852574564
 21
21.0
 31
0.0
 13
28.468434852574564
 23
21.685269597868132
 33
0.0
 12
27.0
 22
21.685269597868132
 32
0.0
  0
POLYLINE
 62
229
  8
0
 66
1
 10
0.0
 20
0.0
 30
0.0
 70
9
  0
VERTEX
  8
0
 10
67.0
 20
21.0
 30
0.0
  0
VERTEX
  8
0
 10
68.34908713685304
 20
21.57988344814568
 30
0.0
  0
VERTEX
  8
0
 10
68.07847486105173
 20
22.20945744534377
 30
0.0
  0
VERTEX
  8
0
 10
66.72938772419869
 20
21.62957399719809
 30
0.0
  0
SEQEND
  0
POLYLINE
 62
256
  8
0
 66
1
 10
0.0
 20
0.0
 30
0.0
 70
9
  0
VERTEX
  8
0
 10
27.0
 20
24.0
 30
0.0
  0
VERTEX
  8
0
 10
28.182513597383082
 20
24.0
 30
0.0
  0
VERTEX
  8
0
 10
28.182513597383082
 20
24.551839678778773
 30
0.0
  0
VERTEX
  8
0
 10
27.0
 20
24.551839678778773
 30
0.0
  0
SEQEND
  0
SOLID
 62
144
  8
0
 10
27.0
 20
24.0
 30
0.0
 11
28.182513597383082
 21
24.0
 31
0.0
 13
28.182513597383082
 23
24.551839678778773
 33
0.0
 12
27.0
 22
24.551839678778773
 32
0.0
  0
POLYLINE
 62
5
  8
0
 66
1
 10
0.0
 20
0.0
 30
0.0
 70
9
  0
VERTEX
  8
0
 10
67.0
 20
24.0
 30
0.0
  0
VERTEX
  8
0
 10
67.64071546998248
 20
24.993892395846256
 30
0.0
  0
VERTEX
  8
0
 10
67.17689901858756
 20
25.292892948504747
 30
0.0
  0
VERTEX
  8
0
 10
66.53618354860508
 20
24.299000552658487
 30
0.0
  0
SEQEND
  0
POLYLINE
 62
256
  8
0
 66
1
 10
0.0
 20
0.0
 30
0.0
 70
9
  0
VERTEX
  8
0
 10
27.0
 20
27.0
 30
0.0
  0
VERTEX
  8
0
 10
27.9445718616414
 20
27.0
 30
0.0
  0
VERTEX
  8
0
 10
27.9445718616414
 20
27.44080020209932
 30
0.0
  0
VERTEX
  8
0
 10
27.0
 20
27.44080020209932
 30
0.0
  0
SEQEND
  0
SOLID
 62
113
  8
0
 10
27.0
 20
27.0
 30
0.0
 11
27.9445718616414
 21
27.0
 31
0.0
 13
27.9445718616414
 23
27.44080020209932
 33
0.0
 12
27.0
 22
27.44080020209932
 32
0.0
  0
POLYLINE
 62
103
  8
0
 66
1
 10
0.0
 20
0.0
 30
0.0
 70
9
  0
VERTEX
  8
0
 10
67.0
 20
27.0
 30
0.0
  0
VERTEX
  8
0
 10
67.33859690460824
 20
27.881798241092838
 30
0.0
  0
VERTEX
  8
0
 10
66.92709105876492
 20
28.039810129910013
 30
0.0
  0
VERTEX
  8
0
 10
66.58849415415668
 20
27.158011888817175
 30
0.0
  0
SEQEND
  0
ENDSEC
  0
EOF
