  0
SECTION
  2
HEADER
  9
$EXTMAX
 10
100.0
 20
100.0
 30
0.0
  9
$ACADVER
  1
AC1009
  9
$INSBASE
 10
0.0
 20
0.0
 30
0.0
  9
$EXTMIN
 10
0.0
 20
0.0
 30
0.0
  0
ENDSEC
  0
SECTION
  2
TABLES
  0
TABLE
  2
LTYPE
 70
19
  0
LTYPE
  2
CENTER2
 70
0
  3
Center (.5x) ____ _ ____ _ ____ _ ____ _ ____
 72
65
 73
4
 40
1.0
 49
0.625
 49
-0.125
 49
0.125
 49
-0.125
  0
LTYPE
  2
CENTER
 70
0
  3
Center ____ _ ____ _ ____ _ ____ _ ____ _ ____
 72
65
 73
4
 40
2.0
 49
1.25
 49
-0.25
 49
0.25
 49
-0.25
  0
LTYPE
  2
DOTX2
 70
0
  3
Dot (2x) .    .    .    .    .    .    .    . 
 72
65
 73
2
 40
0.4
 49
0.0
 49
-0.4
  0
LTYPE
  2
DASHDOT
 70
0
  3
Dash dot __ . __ . __ . __ . __ . __ . __ . __
 72
65
 73
4
 40
1.4
 49
1.0
 49
-0.2
 49
0.0
 49
-0.2
  0
LTYPE
  2
DIVIDE
 70
0
  3
Divide __ . . __ . . __ . . __ . . __ . . __
 72
65
 73
6
 40
1.6
 49
1.0
 49
-0.2
 49
0.0
 49
-0.2
 49
0.0
 49
-0.2
  0
LTYPE
  2
DIVIDE2
 70
0
  3
Divide(.5x) _ . _ . _ . _ . _ . _ . _ . _
 72
65
 73
6
 40
0.8
 49
0.5
 49
-0.1
 49
0.0
 49
-0.1
 49
0.0
 49
-0.1
  0
LTYPE
  2
PHANTOM2
 70
0
  3
Phantom (.5x) ___ _ _ ___ _ _ ___ _ _ ___ _ _ ___
 72
65
 73
6
 40
1.25
 49
0.625
 49
-0.125
 49
0.125
 49
-0.125
 49
0.125
 49
-0.125
  0
LTYPE
  2
DASHED2
 70
0
  3
Dashed (.5x) _ _ _ _ _ _ _ _ _ _ _ _ _ _
 72
65
 73
2
 40
0.3
 49
0.25
 49
-0.05
  0
LTYPE
  2
DOT
 70
0
  3
Dot .  .  .  .  .  .  .  .  .  .  .  .  .  .  .  .
 72
65
 73
2
 40
0.2
 49
0.0
 49
-0.2
  0
LTYPE
  2
CENTERX2
 70
0
  3
Center (2x) ________  __  ________  __  ________
 72
65
 73
4
 40
3.5
 49
2.5
 49
-0.25
 49
0.5
 49
-0.25
  0
LTYPE
  2
DASHDOTX2
 70
0
  3
Dash dot (2x) ____  .  ____  .  ____  .  ____
 72
65
 73
4
 40
2.4
 49
2.0
 49
-0.2
 49
0.0
 49
-0.2
  0
LTYPE
  2
CONTINUOUS
 70
0
  3
Solid
 72
65
 73
0
 40
0.0
  0
LTYPE
  2
DOT2
 70
0
  3
Dot (.5) . . . . . . . . . . . . . . . . . . . 
 72
65
 73
2
 40
0.1
 49
0.0
 49
-0.1
  0
LTYPE
  2
PHANTOM
 70
0
  3
Phantom ______  __  __  ______  __  __  ______
 72
65
 73
6
 40
2.5
 49
1.25
 49
-0.25
 49
0.25
 49
-0.25
 49
0.25
 49
-0.25
  0
LTYPE
  2
DASHED
 70
0
  3
Dashed __ __ __ __ __ __ __ __ __ __ __ __ __ _
 72
65
 73
2
 40
0.6
 49
0.5
 49
-0.1
  0
LTYPE
  2
DASHDOT2
 70
0
  3
Dash dot (.5x) _ . _ . _ . _ . _ . _ . _ . _
 72
65
 73
4
 40
0.7
 49
0.5
 49
-0.1
 49
0.0
 49
-0.1
  0
LTYPE
  2
DASHEDX2
 70
0
  3
Dashed (2x) ____  ____  ____  ____  ____  ____
 72
65
 73
2
 40
1.2
 49
1.0
 49
-0.2
  0
LTYPE
  2
PHANTOMX2
 70
0
  3
Phantom (2x)____________    ____    ____    ____________
 72
65
 73
6
 40
4.25
 49
2.5
 49
-0.25
 49
0.5
 49
-0.25
 49
0.5
 49
-0.25
  0
LTYPE
  2
DIVIDEX2
 70
0
  3
Divide (2x) ____  . .  ____  . .  ____  . .  ____
 72
65
 73
6
 40
2.6
 49
2.0
 49
-0.2
 49
0.0
 49
-0.2
 49
0.0
 49
-0.2
  0
ENDTAB
  0
TABLE
  2
LAYER
 70
12
  0
LAYER
  2
sector4
 70
0
 62
5
  6
CONTINUOUS
  0
LAYER
  2
sector6
 70
0
 62
8
  6
CONTINUOUS
  0
LAYER
  2
TABLEGRID
 70
0
 62
1
  6
CONTINUOUS
  0
LAYER
  2
sector3
 70
0
 62
4
  6
CONTINUOUS
  0
LAYER
  2
sector5
 70
0
 62
6
  6
CONTINUOUS
  0
LAYER
  2
Guias
 70
0
 62
0
  6
CONTINUOUS
  0
LAYER
  2
sector2
 70
0
 62
3
  6
CONTINUOUS
  0
LAYER
  2
VIEWPORTS
 70
0
 62
7
  6
CONTINUOUS
  0
LAYER
  2
DIMENSIONS
 70
0
 62
1
  6
CONTINUOUS
  0
LAYER
  2
sector1
 70
0
 62
1
  6
CONTINUOUS
  0
LAYER
  2
TABLECONTENT
 70
0
 62
1
  6
CONTINUOUS
  0
LAYER
  2
TABLEBACKGROUND
 70
0
 62
1
  6
CONTINUOUS
  0
ENDTAB
  0
TABLE
  2
STYLE
 70
12
  0
STYLE
  2
TIMES_BOLD_ITALIC
 70
0
 40
0.0
 41
1.0
 42
1.0
 50
0.0
 71
0
  3
timesbi.ttf
  4

  0
STYLE
  2
STANDARD
 70
0
 40
0.0
 41
1.0
 42
1.0
 50
0.0
 71
0
  3
arial.ttf
  4

  0
STYLE
  2
ARIAL_BOLD_ITALIC
 70
0
 40
0.0
 41
1.0
 42
1.0
 50
0.0
 71
0
  3
arialbi.ttf
  4

  0
STYLE
  2
ARIAL
 70
0
 40
0.0
 41
1.0
 42
1.0
 50
0.0
 71
0
  3
arial.ttf
  4

  0
STYLE
  2
TIMES
 70
0
 40
0.0
 41
1.0
 42
1.0
 50
0.0
 71
0
  3
times.ttf
  4

  0
STYLE
  2
TIMES_ITALIC
 70
0
 40
0.0
 41
1.0
 42
1.0
 50
0.0
 71
0
  3
timesi.ttf
  4

  0
STYLE
  2
TIMES_BOLD
 70
0
 40
0.0
 41
1.0
 42
1.0
 50
0.0
 71
0
  3
timesbd.ttf
  4

  0
STYLE
  2
ARIAL_BOLD
 70
0
 40
0.0
 41
1.0
 42
1.0
 50
0.0
 71
0
  3
arialbd.ttf
  4

  0
STYLE
  2
ISOCPEUR_ITALIC
 70
0
 40
0.0
 41
1.0
 42
1.0
 50
0.0
 71
0
  3
isocpeui.ttf
  4

  0
STYLE
  2
ARIAL_BLACK
 70
0
 40
0.0
 41
1.0
 42
1.0
 50
0.0
 71
0
  3
ariblk.ttf
  4

  0
STYLE
  2
ARIAL_ITALIC
 70
0
 40
0.0
 41
1.0
 42
1.0
 50
0.0
 71
0
  3
ariali.ttf
  4

  0
STYLE
  2
ISOCPEUR
 70
0
 40
0.0
 41
1.0
 42
1.0
 50
0.0
 71
0
  3
isocpeur.ttf
  4

  0
ENDTAB
  0
TABLE
  2
VIEW
 70
0
  0
ENDTAB
  0
TABLE
  2
APPID
 70
1
  0
APPID
  2
DXFWRITE
 70
0
  0
ENDTAB
  0
TABLE
  2
VPORT
 70
0
  0
ENDTAB
  0
TABLE
  2
UCS
 70
0
  0
ENDTAB
  0
ENDSEC
  0
SECTION
  2
BLOCKS
  0
ENDSEC
  0
SECTION
  2
ENTITIES
  0
VIEWPORT
  8
VIEWPORTS
 67
1
 10
0.0
 20
0.0
 30
0.0
 40
1.0
 41
1.0
 68
1
 69
1
1001
ACAD
1000
MVIEW
1002
{
1070
16
1010
0.0
1020
0.0
1030
0.0
1010
0.0
1020
0.0
1030
0.0
1040
0.0
1040
1.0
1040
0.0
1040
0.0
1040
50.0
1040
0.0
1040
0.0
1070
0
1070
100
1070
1
1070
3
1070
0
1070
0
1070
0
1070
0
1040
0.0
1040
0.0
1040
0.0
1040
0.1
1040
0.1
1040
0.1
1040
0.1
1070
0
1002
{
1002
}
1002
}
  0
ARC
 62
1
  8
sector1
 10
148.5
 20
105.0
 30
0.0
 40
40.0
 50
30.0
 51
60.0
  0
ARC
 62
1
  8
sector1
 10
148.5
 20
105.0
 30
0.0
 40
80.0
 50
30.0
 51
60.0
  0
LINE
 62
1
  8
sector1
 10
168.5
 20
139.64101615137753
 30
0.0
 11
188.5
 21
174.28203230275508
 31
0.0
  0
LINE
 62
1
  8
sector1
 10
183.14101615137756
 20
125.0
 30
0.0
 11
217.7820323027551
 21
145.0
 31
0.0
  0
ARC
 62
1
  8
sector1
 10
148.5
 20
105.0
 30
0.0
 40
40.0
 50
30.0
 51
60.0
  0
ARC
 62
1
  8
sector1
 10
148.5
 20
105.0
 30
0.0
 40
40.1
 50
30.0
 51
60.0
  0
ARC
 62
1
  8
sector1
 10
148.5
 20
105.0
 30
0.0
 40
40.2
 50
30.0
 51
60.0
  0
ARC
 62
1
  8
sector1
 10
148.5
 20
105.0
 30
0.0
 40
40.3
 50
30.0
 51
60.0
  0
ARC
 62
1
  8
sector1
 10
148.5
 20
105.0
 30
0.0
 40
40.4
 50
30.0
 51
60.0
  0
ARC
 62
1
  8
sector1
 10
148.5
 20
105.0
 30
0.0
 40
40.5
 50
30.0
 51
60.0
  0
ARC
 62
1
  8
sector1
 10
148.5
 20
105.0
 30
0.0
 40
40.6
 50
30.0
 51
60.0
  0
ARC
 62
1
  8
sector1
 10
148.5
 20
105.0
 30
0.0
 40
40.7
 50
30.0
 51
60.0
  0
ARC
 62
1
  8
sector1
 10
148.5
 20
105.0
 30
0.0
 40
40.8
 50
30.0
 51
60.0
  0
ARC
 62
1
  8
sector1
 10
148.5
 20
105.0
 30
0.0
 40
41.0
 50
30.0
 51
60.0
  0
ARC
 62
1
  8
sector1
 10
148.5
 20
105.0
 30
0.0
 40
41.1
 50
30.0
 51
60.0
  0
ARC
 62
1
  8
sector1
 10
148.5
 20
105.0
 30
0.0
 40
41.2
 50
30.0
 51
60.0
  0
ARC
 62
1
  8
sector1
 10
148.5
 20
105.0
 30
0.0
 40
41.3
 50
30.0
 51
60.0
  0
ARC
 62
1
  8
sector1
 10
148.5
 20
105.0
 30
0.0
 40
41.4
 50
30.0
 51
60.0
  0
ARC
 62
1
  8
sector1
 10
148.5
 20
105.0
 30
0.0
 40
41.5
 50
30.0
 51
60.0
  0
ARC
 62
1
  8
sector1
 10
148.5
 20
105.0
 30
0.0
 40
41.6
 50
30.0
 51
60.0
  0
ARC
 62
1
  8
sector1
 10
148.5
 20
105.0
 30
0.0
 40
41.7
 50
30.0
 51
60.0
  0
ARC
 62
1
  8
sector1
 10
148.5
 20
105.0
 30
0.0
 40
41.8
 50
30.0
 51
60.0
  0
ARC
 62
1
  8
sector1
 10
148.5
 20
105.0
 30
0.0
 40
42.0
 50
30.0
 51
60.0
  0
ARC
 62
1
  8
sector1
 10
148.5
 20
105.0
 30
0.0
 40
42.1
 50
30.0
 51
60.0
  0
ARC
 62
1
  8
sector1
 10
148.5
 20
105.0
 30
0.0
 40
42.2
 50
30.0
 51
60.0
  0
ARC
 62
1
  8
sector1
 10
148.5
 20
105.0
 30
0.0
 40
42.3
 50
30.0
 51
60.0
  0
ARC
 62
1
  8
sector1
 10
148.5
 20
105.0
 30
0.0
 40
42.4
 50
30.0
 51
60.0
  0
ARC
 62
1
  8
sector1
 10
148.5
 20
105.0
 30
0.0
 40
42.5
 50
30.0
 51
60.0
  0
ARC
 62
1
  8
sector1
 10
148.5
 20
105.0
 30
0.0
 40
42.6
 50
30.0
 51
60.0
  0
ARC
 62
1
  8
sector1
 10
148.5
 20
105.0
 30
0.0
 40
42.7
 50
30.0
 51
60.0
  0
ARC
 62
1
  8
sector1
 10
148.5
 20
105.0
 30
0.0
 40
42.8
 50
30.0
 51
60.0
  0
ARC
 62
1
  8
sector1
 10
148.5
 20
105.0
 30
0.0
 40
43.0
 50
30.0
 51
60.0
  0
ARC
 62
1
  8
sector1
 10
148.5
 20
105.0
 30
0.0
 40
43.1
 50
30.0
 51
60.0
  0
ARC
 62
1
  8
sector1
 10
148.5
 20
105.0
 30
0.0
 40
43.2
 50
30.0
 51
60.0
  0
ARC
 62
1
  8
sector1
 10
148.5
 20
105.0
 30
0.0
 40
43.3
 50
30.0
 51
60.0
  0
ARC
 62
1
  8
sector1
 10
148.5
 20
105.0
 30
0.0
 40
43.4
 50
30.0
 51
60.0
  0
ARC
 62
1
  8
sector1
 10
148.5
 20
105.0
 30
0.0
 40
43.5
 50
30.0
 51
60.0
  0
ARC
 62
1
  8
sector1
 10
148.5
 20
105.0
 30
0.0
 40
43.6
 50
30.0
 51
60.0
  0
ARC
 62
1
  8
sector1
 10
148.5
 20
105.0
 30
0.0
 40
43.7
 50
30.0
 51
60.0
  0
ARC
 62
1
  8
sector1
 10
148.5
 20
105.0
 30
0.0
 40
43.8
 50
30.0
 51
60.0
  0
ARC
 62
1
  8
sector1
 10
148.5
 20
105.0
 30
0.0
 40
44.0
 50
30.0
 51
60.0
  0
ARC
 62
1
  8
sector1
 10
148.5
 20
105.0
 30
0.0
 40
44.1
 50
30.0
 51
60.0
  0
ARC
 62
1
  8
sector1
 10
148.5
 20
105.0
 30
0.0
 40
44.2
 50
30.0
 51
60.0
  0
ARC
 62
1
  8
sector1
 10
148.5
 20
105.0
 30
0.0
 40
44.3
 50
30.0
 51
60.0
  0
ARC
 62
1
  8
sector1
 10
148.5
 20
105.0
 30
0.0
 40
44.4
 50
30.0
 51
60.0
  0
ARC
 62
1
  8
sector1
 10
148.5
 20
105.0
 30
0.0
 40
44.5
 50
30.0
 51
60.0
  0
ARC
 62
1
  8
sector1
 10
148.5
 20
105.0
 30
0.0
 40
44.6
 50
30.0
 51
60.0
  0
ARC
 62
1
  8
sector1
 10
148.5
 20
105.0
 30
0.0
 40
44.7
 50
30.0
 51
60.0
  0
ARC
 62
1
  8
sector1
 10
148.5
 20
105.0
 30
0.0
 40
44.8
 50
30.0
 51
60.0
  0
ARC
 62
1
  8
sector1
 10
148.5
 20
105.0
 30
0.0
 40
45.0
 50
30.0
 51
60.0
  0
ARC
 62
1
  8
sector1
 10
148.5
 20
105.0
 30
0.0
 40
45.1
 50
30.0
 51
60.0
  0
ARC
 62
1
  8
sector1
 10
148.5
 20
105.0
 30
0.0
 40
45.2
 50
30.0
 51
60.0
  0
ARC
 62
1
  8
sector1
 10
148.5
 20
105.0
 30
0.0
 40
45.3
 50
30.0
 51
60.0
  0
ARC
 62
1
  8
sector1
 10
148.5
 20
105.0
 30
0.0
 40
45.4
 50
30.0
 51
60.0
  0
ARC
 62
1
  8
sector1
 10
148.5
 20
105.0
 30
0.0
 40
45.5
 50
30.0
 51
60.0
  0
ARC
 62
1
  8
sector1
 10
148.5
 20
105.0
 30
0.0
 40
45.6
 50
30.0
 51
60.0
  0
ARC
 62
1
  8
sector1
 10
148.5
 20
105.0
 30
0.0
 40
45.7
 50
30.0
 51
60.0
  0
ARC
 62
1
  8
sector1
 10
148.5
 20
105.0
 30
0.0
 40
45.8
 50
30.0
 51
60.0
  0
ARC
 62
1
  8
sector1
 10
148.5
 20
105.0
 30
0.0
 40
46.0
 50
30.0
 51
60.0
  0
ARC
 62
1
  8
sector1
 10
148.5
 20
105.0
 30
0.0
 40
46.1
 50
30.0
 51
60.0
  0
ARC
 62
1
  8
sector1
 10
148.5
 20
105.0
 30
0.0
 40
46.2
 50
30.0
 51
60.0
  0
ARC
 62
1
  8
sector1
 10
148.5
 20
105.0
 30
0.0
 40
46.3
 50
30.0
 51
60.0
  0
ARC
 62
1
  8
sector1
 10
148.5
 20
105.0
 30
0.0
 40
46.4
 50
30.0
 51
60.0
  0
ARC
 62
1
  8
sector1
 10
148.5
 20
105.0
 30
0.0
 40
46.5
 50
30.0
 51
60.0
  0
ARC
 62
1
  8
sector1
 10
148.5
 20
105.0
 30
0.0
 40
46.6
 50
30.0
 51
60.0
  0
ARC
 62
1
  8
sector1
 10
148.5
 20
105.0
 30
0.0
 40
46.7
 50
30.0
 51
60.0
  0
ARC
 62
1
  8
sector1
 10
148.5
 20
105.0
 30
0.0
 40
46.8
 50
30.0
 51
60.0
  0
ARC
 62
1
  8
sector1
 10
148.5
 20
105.0
 30
0.0
 40
47.0
 50
30.0
 51
60.0
  0
ARC
 62
1
  8
sector1
 10
148.5
 20
105.0
 30
0.0
 40
47.1
 50
30.0
 51
60.0
  0
ARC
 62
1
  8
sector1
 10
148.5
 20
105.0
 30
0.0
 40
47.2
 50
30.0
 51
60.0
  0
ARC
 62
1
  8
sector1
 10
148.5
 20
105.0
 30
0.0
 40
47.3
 50
30.0
 51
60.0
  0
ARC
 62
1
  8
sector1
 10
148.5
 20
105.0
 30
0.0
 40
47.4
 50
30.0
 51
60.0
  0
ARC
 62
1
  8
sector1
 10
148.5
 20
105.0
 30
0.0
 40
47.5
 50
30.0
 51
60.0
  0
ARC
 62
1
  8
sector1
 10
148.5
 20
105.0
 30
0.0
 40
47.6
 50
30.0
 51
60.0
  0
ARC
 62
1
  8
sector1
 10
148.5
 20
105.0
 30
0.0
 40
47.7
 50
30.0
 51
60.0
  0
ARC
 62
1
  8
sector1
 10
148.5
 20
105.0
 30
0.0
 40
47.8
 50
30.0
 51
60.0
  0
ARC
 62
1
  8
sector1
 10
148.5
 20
105.0
 30
0.0
 40
48.0
 50
30.0
 51
60.0
  0
ARC
 62
1
  8
sector1
 10
148.5
 20
105.0
 30
0.0
 40
48.1
 50
30.0
 51
60.0
  0
ARC
 62
1
  8
sector1
 10
148.5
 20
105.0
 30
0.0
 40
48.2
 50
30.0
 51
60.0
  0
ARC
 62
1
  8
sector1
 10
148.5
 20
105.0
 30
0.0
 40
48.3
 50
30.0
 51
60.0
  0
ARC
 62
1
  8
sector1
 10
148.5
 20
105.0
 30
0.0
 40
48.4
 50
30.0
 51
60.0
  0
ARC
 62
1
  8
sector1
 10
148.5
 20
105.0
 30
0.0
 40
48.5
 50
30.0
 51
60.0
  0
ARC
 62
1
  8
sector1
 10
148.5
 20
105.0
 30
0.0
 40
48.6
 50
30.0
 51
60.0
  0
ARC
 62
1
  8
sector1
 10
148.5
 20
105.0
 30
0.0
 40
48.7
 50
30.0
 51
60.0
  0
ARC
 62
1
  8
sector1
 10
148.5
 20
105.0
 30
0.0
 40
48.8
 50
30.0
 51
60.0
  0
ARC
 62
1
  8
sector1
 10
148.5
 20
105.0
 30
0.0
 40
49.0
 50
30.0
 51
60.0
  0
ARC
 62
1
  8
sector1
 10
148.5
 20
105.0
 30
0.0
 40
49.1
 50
30.0
 51
60.0
  0
ARC
 62
1
  8
sector1
 10
148.5
 20
105.0
 30
0.0
 40
49.2
 50
30.0
 51
60.0
  0
ARC
 62
1
  8
sector1
 10
148.5
 20
105.0
 30
0.0
 40
49.3
 50
30.0
 51
60.0
  0
ARC
 62
1
  8
sector1
 10
148.5
 20
105.0
 30
0.0
 40
49.4
 50
30.0
 51
60.0
  0
ARC
 62
1
  8
sector1
 10
148.5
 20
105.0
 30
0.0
 40
49.5
 50
30.0
 51
60.0
  0
ARC
 62
1
  8
sector1
 10
148.5
 20
105.0
 30
0.0
 40
49.6
 50
30.0
 51
60.0
  0
ARC
 62
1
  8
sector1
 10
148.5
 20
105.0
 30
0.0
 40
49.7
 50
30.0
 51
60.0
  0
ARC
 62
1
  8
sector1
 10
148.5
 20
105.0
 30
0.0
 40
49.8
 50
30.0
 51
60.0
  0
ARC
 62
1
  8
sector1
 10
148.5
 20
105.0
 30
0.0
 40
50.0
 50
30.0
 51
60.0
  0
ARC
 62
1
  8
sector1
 10
148.5
 20
105.0
 30
0.0
 40
50.1
 50
30.0
 51
60.0
  0
ARC
 62
1
  8
sector1
 10
148.5
 20
105.0
 30
0.0
 40
50.2
 50
30.0
 51
60.0
  0
ARC
 62
1
  8
sector1
 10
148.5
 20
105.0
 30
0.0
 40
50.3
 50
30.0
 51
60.0
  0
ARC
 62
1
  8
sector1
 10
148.5
 20
105.0
 30
0.0
 40
50.4
 50
30.0
 51
60.0
  0
ARC
 62
1
  8
sector1
 10
148.5
 20
105.0
 30
0.0
 40
50.5
 50
30.0
 51
60.0
  0
ARC
 62
1
  8
sector1
 10
148.5
 20
105.0
 30
0.0
 40
50.6
 50
30.0
 51
60.0
  0
ARC
 62
1
  8
sector1
 10
148.5
 20
105.0
 30
0.0
 40
50.7
 50
30.0
 51
60.0
  0
ARC
 62
1
  8
sector1
 10
148.5
 20
105.0
 30
0.0
 40
50.8
 50
30.0
 51
60.0
  0
ARC
 62
1
  8
sector1
 10
148.5
 20
105.0
 30
0.0
 40
51.0
 50
30.0
 51
60.0
  0
ARC
 62
1
  8
sector1
 10
148.5
 20
105.0
 30
0.0
 40
51.1
 50
30.0
 51
60.0
  0
ARC
 62
1
  8
sector1
 10
148.5
 20
105.0
 30
0.0
 40
51.2
 50
30.0
 51
60.0
  0
ARC
 62
1
  8
sector1
 10
148.5
 20
105.0
 30
0.0
 40
51.3
 50
30.0
 51
60.0
  0
ARC
 62
1
  8
sector1
 10
148.5
 20
105.0
 30
0.0
 40
51.4
 50
30.0
 51
60.0
  0
ARC
 62
1
  8
sector1
 10
148.5
 20
105.0
 30
0.0
 40
51.5
 50
30.0
 51
60.0
  0
ARC
 62
1
  8
sector1
 10
148.5
 20
105.0
 30
0.0
 40
51.6
 50
30.0
 51
60.0
  0
ARC
 62
1
  8
sector1
 10
148.5
 20
105.0
 30
0.0
 40
51.7
 50
30.0
 51
60.0
  0
ARC
 62
1
  8
sector1
 10
148.5
 20
105.0
 30
0.0
 40
51.8
 50
30.0
 51
60.0
  0
ARC
 62
1
  8
sector1
 10
148.5
 20
105.0
 30
0.0
 40
52.0
 50
30.0
 51
60.0
  0
ARC
 62
1
  8
sector1
 10
148.5
 20
105.0
 30
0.0
 40
52.1
 50
30.0
 51
60.0
  0
ARC
 62
1
  8
sector1
 10
148.5
 20
105.0
 30
0.0
 40
52.2
 50
30.0
 51
60.0
  0
ARC
 62
1
  8
sector1
 10
148.5
 20
105.0
 30
0.0
 40
52.3
 50
30.0
 51
60.0
  0
ARC
 62
1
  8
sector1
 10
148.5
 20
105.0
 30
0.0
 40
52.4
 50
30.0
 51
60.0
  0
ARC
 62
1
  8
sector1
 10
148.5
 20
105.0
 30
0.0
 40
52.5
 50
30.0
 51
60.0
  0
ARC
 62
1
  8
sector1
 10
148.5
 20
105.0
 30
0.0
 40
52.6
 50
30.0
 51
60.0
  0
ARC
 62
1
  8
sector1
 10
148.5
 20
105.0
 30
0.0
 40
52.7
 50
30.0
 51
60.0
  0
ARC
 62
1
  8
sector1
 10
148.5
 20
105.0
 30
0.0
 40
52.8
 50
30.0
 51
60.0
  0
ARC
 62
1
  8
sector1
 10
148.5
 20
105.0
 30
0.0
 40
53.0
 50
30.0
 51
60.0
  0
ARC
 62
1
  8
sector1
 10
148.5
 20
105.0
 30
0.0
 40
53.1
 50
30.0
 51
60.0
  0
ARC
 62
1
  8
sector1
 10
148.5
 20
105.0
 30
0.0
 40
53.2
 50
30.0
 51
60.0
  0
ARC
 62
1
  8
sector1
 10
148.5
 20
105.0
 30
0.0
 40
53.3
 50
30.0
 51
60.0
  0
ARC
 62
1
  8
sector1
 10
148.5
 20
105.0
 30
0.0
 40
53.4
 50
30.0
 51
60.0
  0
ARC
 62
1
  8
sector1
 10
148.5
 20
105.0
 30
0.0
 40
53.5
 50
30.0
 51
60.0
  0
ARC
 62
1
  8
sector1
 10
148.5
 20
105.0
 30
0.0
 40
53.6
 50
30.0
 51
60.0
  0
ARC
 62
1
  8
sector1
 10
148.5
 20
105.0
 30
0.0
 40
53.7
 50
30.0
 51
60.0
  0
ARC
 62
1
  8
sector1
 10
148.5
 20
105.0
 30
0.0
 40
53.8
 50
30.0
 51
60.0
  0
ARC
 62
1
  8
sector1
 10
148.5
 20
105.0
 30
0.0
 40
54.0
 50
30.0
 51
60.0
  0
ARC
 62
1
  8
sector1
 10
148.5
 20
105.0
 30
0.0
 40
54.1
 50
30.0
 51
60.0
  0
ARC
 62
1
  8
sector1
 10
148.5
 20
105.0
 30
0.0
 40
54.2
 50
30.0
 51
60.0
  0
ARC
 62
1
  8
sector1
 10
148.5
 20
105.0
 30
0.0
 40
54.3
 50
30.0
 51
60.0
  0
ARC
 62
1
  8
sector1
 10
148.5
 20
105.0
 30
0.0
 40
54.4
 50
30.0
 51
60.0
  0
ARC
 62
1
  8
sector1
 10
148.5
 20
105.0
 30
0.0
 40
54.5
 50
30.0
 51
60.0
  0
ARC
 62
1
  8
sector1
 10
148.5
 20
105.0
 30
0.0
 40
54.6
 50
30.0
 51
60.0
  0
ARC
 62
1
  8
sector1
 10
148.5
 20
105.0
 30
0.0
 40
54.7
 50
30.0
 51
60.0
  0
ARC
 62
1
  8
sector1
 10
148.5
 20
105.0
 30
0.0
 40
54.8
 50
30.0
 51
60.0
  0
ARC
 62
1
  8
sector1
 10
148.5
 20
105.0
 30
0.0
 40
55.0
 50
30.0
 51
60.0
  0
ARC
 62
1
  8
sector1
 10
148.5
 20
105.0
 30
0.0
 40
55.1
 50
30.0
 51
60.0
  0
ARC
 62
1
  8
sector1
 10
148.5
 20
105.0
 30
0.0
 40
55.2
 50
30.0
 51
60.0
  0
ARC
 62
1
  8
sector1
 10
148.5
 20
105.0
 30
0.0
 40
55.3
 50
30.0
 51
60.0
  0
ARC
 62
1
  8
sector1
 10
148.5
 20
105.0
 30
0.0
 40
55.4
 50
30.0
 51
60.0
  0
ARC
 62
1
  8
sector1
 10
148.5
 20
105.0
 30
0.0
 40
55.5
 50
30.0
 51
60.0
  0
ARC
 62
1
  8
sector1
 10
148.5
 20
105.0
 30
0.0
 40
55.6
 50
30.0
 51
60.0
  0
ARC
 62
1
  8
sector1
 10
148.5
 20
105.0
 30
0.0
 40
55.7
 50
30.0
 51
60.0
  0
ARC
 62
1
  8
sector1
 10
148.5
 20
105.0
 30
0.0
 40
55.8
 50
30.0
 51
60.0
  0
ARC
 62
1
  8
sector1
 10
148.5
 20
105.0
 30
0.0
 40
56.0
 50
30.0
 51
60.0
  0
ARC
 62
1
  8
sector1
 10
148.5
 20
105.0
 30
0.0
 40
56.1
 50
30.0
 51
60.0
  0
ARC
 62
1
  8
sector1
 10
148.5
 20
105.0
 30
0.0
 40
56.2
 50
30.0
 51
60.0
  0
ARC
 62
1
  8
sector1
 10
148.5
 20
105.0
 30
0.0
 40
56.3
 50
30.0
 51
60.0
  0
ARC
 62
1
  8
sector1
 10
148.5
 20
105.0
 30
0.0
 40
56.4
 50
30.0
 51
60.0
  0
ARC
 62
1
  8
sector1
 10
148.5
 20
105.0
 30
0.0
 40
56.5
 50
30.0
 51
60.0
  0
ARC
 62
1
  8
sector1
 10
148.5
 20
105.0
 30
0.0
 40
56.6
 50
30.0
 51
60.0
  0
ARC
 62
1
  8
sector1
 10
148.5
 20
105.0
 30
0.0
 40
56.7
 50
30.0
 51
60.0
  0
ARC
 62
1
  8
sector1
 10
148.5
 20
105.0
 30
0.0
 40
56.8
 50
30.0
 51
60.0
  0
ARC
 62
1
  8
sector1
 10
148.5
 20
105.0
 30
0.0
 40
57.0
 50
30.0
 51
60.0
  0
ARC
 62
1
  8
sector1
 10
148.5
 20
105.0
 30
0.0
 40
57.1
 50
30.0
 51
60.0
  0
ARC
 62
1
  8
sector1
 10
148.5
 20
105.0
 30
0.0
 40
57.2
 50
30.0
 51
60.0
  0
ARC
 62
1
  8
sector1
 10
148.5
 20
105.0
 30
0.0
 40
57.3
 50
30.0
 51
60.0
  0
ARC
 62
1
  8
sector1
 10
148.5
 20
105.0
 30
0.0
 40
57.4
 50
30.0
 51
60.0
  0
ARC
 62
1
  8
sector1
 10
148.5
 20
105.0
 30
0.0
 40
57.5
 50
30.0
 51
60.0
  0
ARC
 62
1
  8
sector1
 10
148.5
 20
105.0
 30
0.0
 40
57.6
 50
30.0
 51
60.0
  0
ARC
 62
1
  8
sector1
 10
148.5
 20
105.0
 30
0.0
 40
57.7
 50
30.0
 51
60.0
  0
ARC
 62
1
  8
sector1
 10
148.5
 20
105.0
 30
0.0
 40
57.8
 50
30.0
 51
60.0
  0
ARC
 62
1
  8
sector1
 10
148.5
 20
105.0
 30
0.0
 40
58.0
 50
30.0
 51
60.0
  0
ARC
 62
1
  8
sector1
 10
148.5
 20
105.0
 30
0.0
 40
58.1
 50
30.0
 51
60.0
  0
ARC
 62
1
  8
sector1
 10
148.5
 20
105.0
 30
0.0
 40
58.2
 50
30.0
 51
60.0
  0
ARC
 62
1
  8
sector1
 10
148.5
 20
105.0
 30
0.0
 40
58.3
 50
30.0
 51
60.0
  0
ARC
 62
1
  8
sector1
 10
148.5
 20
105.0
 30
0.0
 40
58.4
 50
30.0
 51
60.0
  0
ARC
 62
1
  8
sector1
 10
148.5
 20
105.0
 30
0.0
 40
58.5
 50
30.0
 51
60.0
  0
ARC
 62
1
  8
sector1
 10
148.5
 20
105.0
 30
0.0
 40
58.6
 50
30.0
 51
60.0
  0
ARC
 62
1
  8
sector1
 10
148.5
 20
105.0
 30
0.0
 40
58.7
 50
30.0
 51
60.0
  0
ARC
 62
1
  8
sector1
 10
148.5
 20
105.0
 30
0.0
 40
58.8
 50
30.0
 51
60.0
  0
ARC
 62
1
  8
sector1
 10
148.5
 20
105.0
 30
0.0
 40
59.0
 50
30.0
 51
60.0
  0
ARC
 62
1
  8
sector1
 10
148.5
 20
105.0
 30
0.0
 40
59.1
 50
30.0
 51
60.0
  0
ARC
 62
1
  8
sector1
 10
148.5
 20
105.0
 30
0.0
 40
59.2
 50
30.0
 51
60.0
  0
ARC
 62
1
  8
sector1
 10
148.5
 20
105.0
 30
0.0
 40
59.3
 50
30.0
 51
60.0
  0
ARC
 62
1
  8
sector1
 10
148.5
 20
105.0
 30
0.0
 40
59.4
 50
30.0
 51
60.0
  0
ARC
 62
1
  8
sector1
 10
148.5
 20
105.0
 30
0.0
 40
59.5
 50
30.0
 51
60.0
  0
ARC
 62
1
  8
sector1
 10
148.5
 20
105.0
 30
0.0
 40
59.6
 50
30.0
 51
60.0
  0
ARC
 62
1
  8
sector1
 10
148.5
 20
105.0
 30
0.0
 40
59.7
 50
30.0
 51
60.0
  0
ARC
 62
1
  8
sector1
 10
148.5
 20
105.0
 30
0.0
 40
59.8
 50
30.0
 51
60.0
  0
ARC
 62
1
  8
sector1
 10
148.5
 20
105.0
 30
0.0
 40
60.0
 50
30.0
 51
60.0
  0
ARC
 62
1
  8
sector1
 10
148.5
 20
105.0
 30
0.0
 40
60.1
 50
30.0
 51
60.0
  0
ARC
 62
1
  8
sector1
 10
148.5
 20
105.0
 30
0.0
 40
60.2
 50
30.0
 51
60.0
  0
ARC
 62
1
  8
sector1
 10
148.5
 20
105.0
 30
0.0
 40
60.3
 50
30.0
 51
60.0
  0
ARC
 62
1
  8
sector1
 10
148.5
 20
105.0
 30
0.0
 40
60.4
 50
30.0
 51
60.0
  0
ARC
 62
1
  8
sector1
 10
148.5
 20
105.0
 30
0.0
 40
60.5
 50
30.0
 51
60.0
  0
ARC
 62
1
  8
sector1
 10
148.5
 20
105.0
 30
0.0
 40
60.6
 50
30.0
 51
60.0
  0
ARC
 62
1
  8
sector1
 10
148.5
 20
105.0
 30
0.0
 40
60.7
 50
30.0
 51
60.0
  0
ARC
 62
1
  8
sector1
 10
148.5
 20
105.0
 30
0.0
 40
60.8
 50
30.0
 51
60.0
  0
ARC
 62
1
  8
sector1
 10
148.5
 20
105.0
 30
0.0
 40
61.0
 50
30.0
 51
60.0
  0
ARC
 62
1
  8
sector1
 10
148.5
 20
105.0
 30
0.0
 40
61.1
 50
30.0
 51
60.0
  0
ARC
 62
1
  8
sector1
 10
148.5
 20
105.0
 30
0.0
 40
61.2
 50
30.0
 51
60.0
  0
ARC
 62
1
  8
sector1
 10
148.5
 20
105.0
 30
0.0
 40
61.3
 50
30.0
 51
60.0
  0
ARC
 62
1
  8
sector1
 10
148.5
 20
105.0
 30
0.0
 40
61.4
 50
30.0
 51
60.0
  0
ARC
 62
1
  8
sector1
 10
148.5
 20
105.0
 30
0.0
 40
61.5
 50
30.0
 51
60.0
  0
ARC
 62
1
  8
sector1
 10
148.5
 20
105.0
 30
0.0
 40
61.6
 50
30.0
 51
60.0
  0
ARC
 62
1
  8
sector1
 10
148.5
 20
105.0
 30
0.0
 40
61.7
 50
30.0
 51
60.0
  0
ARC
 62
1
  8
sector1
 10
148.5
 20
105.0
 30
0.0
 40
61.8
 50
30.0
 51
60.0
  0
ARC
 62
1
  8
sector1
 10
148.5
 20
105.0
 30
0.0
 40
62.0
 50
30.0
 51
60.0
  0
ARC
 62
1
  8
sector1
 10
148.5
 20
105.0
 30
0.0
 40
62.1
 50
30.0
 51
60.0
  0
ARC
 62
1
  8
sector1
 10
148.5
 20
105.0
 30
0.0
 40
62.2
 50
30.0
 51
60.0
  0
ARC
 62
1
  8
sector1
 10
148.5
 20
105.0
 30
0.0
 40
62.3
 50
30.0
 51
60.0
  0
ARC
 62
1
  8
sector1
 10
148.5
 20
105.0
 30
0.0
 40
62.4
 50
30.0
 51
60.0
  0
ARC
 62
1
  8
sector1
 10
148.5
 20
105.0
 30
0.0
 40
62.5
 50
30.0
 51
60.0
  0
ARC
 62
1
  8
sector1
 10
148.5
 20
105.0
 30
0.0
 40
62.6
 50
30.0
 51
60.0
  0
ARC
 62
1
  8
sector1
 10
148.5
 20
105.0
 30
0.0
 40
62.7
 50
30.0
 51
60.0
  0
ARC
 62
1
  8
sector1
 10
148.5
 20
105.0
 30
0.0
 40
62.8
 50
30.0
 51
60.0
  0
ARC
 62
1
  8
sector1
 10
148.5
 20
105.0
 30
0.0
 40
63.0
 50
30.0
 51
60.0
  0
ARC
 62
1
  8
sector1
 10
148.5
 20
105.0
 30
0.0
 40
63.1
 50
30.0
 51
60.0
  0
ARC
 62
1
  8
sector1
 10
148.5
 20
105.0
 30
0.0
 40
63.2
 50
30.0
 51
60.0
  0
ARC
 62
1
  8
sector1
 10
148.5
 20
105.0
 30
0.0
 40
63.3
 50
30.0
 51
60.0
  0
ARC
 62
1
  8
sector1
 10
148.5
 20
105.0
 30
0.0
 40
63.4
 50
30.0
 51
60.0
  0
ARC
 62
1
  8
sector1
 10
148.5
 20
105.0
 30
0.0
 40
63.5
 50
30.0
 51
60.0
  0
ARC
 62
1
  8
sector1
 10
148.5
 20
105.0
 30
0.0
 40
63.6
 50
30.0
 51
60.0
  0
ARC
 62
1
  8
sector1
 10
148.5
 20
105.0
 30
0.0
 40
63.7
 50
30.0
 51
60.0
  0
ARC
 62
1
  8
sector1
 10
148.5
 20
105.0
 30
0.0
 40
63.8
 50
30.0
 51
60.0
  0
ARC
 62
1
  8
sector1
 10
148.5
 20
105.0
 30
0.0
 40
64.0
 50
30.0
 51
60.0
  0
ARC
 62
1
  8
sector1
 10
148.5
 20
105.0
 30
0.0
 40
64.1
 50
30.0
 51
60.0
  0
ARC
 62
1
  8
sector1
 10
148.5
 20
105.0
 30
0.0
 40
64.2
 50
30.0
 51
60.0
  0
ARC
 62
1
  8
sector1
 10
148.5
 20
105.0
 30
0.0
 40
64.3
 50
30.0
 51
60.0
  0
ARC
 62
1
  8
sector1
 10
148.5
 20
105.0
 30
0.0
 40
64.4
 50
30.0
 51
60.0
  0
ARC
 62
1
  8
sector1
 10
148.5
 20
105.0
 30
0.0
 40
64.5
 50
30.0
 51
60.0
  0
ARC
 62
1
  8
sector1
 10
148.5
 20
105.0
 30
0.0
 40
64.6
 50
30.0
 51
60.0
  0
ARC
 62
1
  8
sector1
 10
148.5
 20
105.0
 30
0.0
 40
64.7
 50
30.0
 51
60.0
  0
ARC
 62
1
  8
sector1
 10
148.5
 20
105.0
 30
0.0
 40
64.8
 50
30.0
 51
60.0
  0
ARC
 62
1
  8
sector1
 10
148.5
 20
105.0
 30
0.0
 40
65.0
 50
30.0
 51
60.0
  0
ARC
 62
1
  8
sector1
 10
148.5
 20
105.0
 30
0.0
 40
65.1
 50
30.0
 51
60.0
  0
ARC
 62
1
  8
sector1
 10
148.5
 20
105.0
 30
0.0
 40
65.2
 50
30.0
 51
60.0
  0
ARC
 62
1
  8
sector1
 10
148.5
 20
105.0
 30
0.0
 40
65.3
 50
30.0
 51
60.0
  0
ARC
 62
1
  8
sector1
 10
148.5
 20
105.0
 30
0.0
 40
65.4
 50
30.0
 51
60.0
  0
ARC
 62
1
  8
sector1
 10
148.5
 20
105.0
 30
0.0
 40
65.5
 50
30.0
 51
60.0
  0
ARC
 62
1
  8
sector1
 10
148.5
 20
105.0
 30
0.0
 40
65.6
 50
30.0
 51
60.0
  0
ARC
 62
1
  8
sector1
 10
148.5
 20
105.0
 30
0.0
 40
65.7
 50
30.0
 51
60.0
  0
ARC
 62
1
  8
sector1
 10
148.5
 20
105.0
 30
0.0
 40
65.8
 50
30.0
 51
60.0
  0
ARC
 62
1
  8
sector1
 10
148.5
 20
105.0
 30
0.0
 40
66.0
 50
30.0
 51
60.0
  0
ARC
 62
1
  8
sector1
 10
148.5
 20
105.0
 30
0.0
 40
66.1
 50
30.0
 51
60.0
  0
ARC
 62
1
  8
sector1
 10
148.5
 20
105.0
 30
0.0
 40
66.2
 50
30.0
 51
60.0
  0
ARC
 62
1
  8
sector1
 10
148.5
 20
105.0
 30
0.0
 40
66.3
 50
30.0
 51
60.0
  0
ARC
 62
1
  8
sector1
 10
148.5
 20
105.0
 30
0.0
 40
66.4
 50
30.0
 51
60.0
  0
ARC
 62
1
  8
sector1
 10
148.5
 20
105.0
 30
0.0
 40
66.5
 50
30.0
 51
60.0
  0
ARC
 62
1
  8
sector1
 10
148.5
 20
105.0
 30
0.0
 40
66.6
 50
30.0
 51
60.0
  0
ARC
 62
1
  8
sector1
 10
148.5
 20
105.0
 30
0.0
 40
66.7
 50
30.0
 51
60.0
  0
ARC
 62
1
  8
sector1
 10
148.5
 20
105.0
 30
0.0
 40
66.8
 50
30.0
 51
60.0
  0
ARC
 62
1
  8
sector1
 10
148.5
 20
105.0
 30
0.0
 40
67.0
 50
30.0
 51
60.0
  0
ARC
 62
1
  8
sector1
 10
148.5
 20
105.0
 30
0.0
 40
67.1
 50
30.0
 51
60.0
  0
ARC
 62
1
  8
sector1
 10
148.5
 20
105.0
 30
0.0
 40
67.2
 50
30.0
 51
60.0
  0
ARC
 62
1
  8
sector1
 10
148.5
 20
105.0
 30
0.0
 40
67.3
 50
30.0
 51
60.0
  0
ARC
 62
1
  8
sector1
 10
148.5
 20
105.0
 30
0.0
 40
67.4
 50
30.0
 51
60.0
  0
ARC
 62
1
  8
sector1
 10
148.5
 20
105.0
 30
0.0
 40
67.5
 50
30.0
 51
60.0
  0
ARC
 62
1
  8
sector1
 10
148.5
 20
105.0
 30
0.0
 40
67.6
 50
30.0
 51
60.0
  0
ARC
 62
1
  8
sector1
 10
148.5
 20
105.0
 30
0.0
 40
67.7
 50
30.0
 51
60.0
  0
ARC
 62
1
  8
sector1
 10
148.5
 20
105.0
 30
0.0
 40
67.8
 50
30.0
 51
60.0
  0
ARC
 62
1
  8
sector1
 10
148.5
 20
105.0
 30
0.0
 40
68.0
 50
30.0
 51
60.0
  0
ARC
 62
1
  8
sector1
 10
148.5
 20
105.0
 30
0.0
 40
68.1
 50
30.0
 51
60.0
  0
ARC
 62
1
  8
sector1
 10
148.5
 20
105.0
 30
0.0
 40
68.2
 50
30.0
 51
60.0
  0
ARC
 62
1
  8
sector1
 10
148.5
 20
105.0
 30
0.0
 40
68.3
 50
30.0
 51
60.0
  0
ARC
 62
1
  8
sector1
 10
148.5
 20
105.0
 30
0.0
 40
68.4
 50
30.0
 51
60.0
  0
ARC
 62
1
  8
sector1
 10
148.5
 20
105.0
 30
0.0
 40
68.5
 50
30.0
 51
60.0
  0
ARC
 62
1
  8
sector1
 10
148.5
 20
105.0
 30
0.0
 40
68.6
 50
30.0
 51
60.0
  0
ARC
 62
1
  8
sector1
 10
148.5
 20
105.0
 30
0.0
 40
68.7
 50
30.0
 51
60.0
  0
ARC
 62
1
  8
sector1
 10
148.5
 20
105.0
 30
0.0
 40
68.8
 50
30.0
 51
60.0
  0
ARC
 62
1
  8
sector1
 10
148.5
 20
105.0
 30
0.0
 40
69.0
 50
30.0
 51
60.0
  0
ARC
 62
1
  8
sector1
 10
148.5
 20
105.0
 30
0.0
 40
69.1
 50
30.0
 51
60.0
  0
ARC
 62
1
  8
sector1
 10
148.5
 20
105.0
 30
0.0
 40
69.2
 50
30.0
 51
60.0
  0
ARC
 62
1
  8
sector1
 10
148.5
 20
105.0
 30
0.0
 40
69.3
 50
30.0
 51
60.0
  0
ARC
 62
1
  8
sector1
 10
148.5
 20
105.0
 30
0.0
 40
69.4
 50
30.0
 51
60.0
  0
ARC
 62
1
  8
sector1
 10
148.5
 20
105.0
 30
0.0
 40
69.5
 50
30.0
 51
60.0
  0
ARC
 62
1
  8
sector1
 10
148.5
 20
105.0
 30
0.0
 40
69.6
 50
30.0
 51
60.0
  0
ARC
 62
1
  8
sector1
 10
148.5
 20
105.0
 30
0.0
 40
69.7
 50
30.0
 51
60.0
  0
ARC
 62
1
  8
sector1
 10
148.5
 20
105.0
 30
0.0
 40
69.8
 50
30.0
 51
60.0
  0
ARC
 62
1
  8
sector1
 10
148.5
 20
105.0
 30
0.0
 40
70.0
 50
30.0
 51
60.0
  0
ARC
 62
1
  8
sector1
 10
148.5
 20
105.0
 30
0.0
 40
70.1
 50
30.0
 51
60.0
  0
ARC
 62
1
  8
sector1
 10
148.5
 20
105.0
 30
0.0
 40
70.2
 50
30.0
 51
60.0
  0
ARC
 62
1
  8
sector1
 10
148.5
 20
105.0
 30
0.0
 40
70.3
 50
30.0
 51
60.0
  0
ARC
 62
1
  8
sector1
 10
148.5
 20
105.0
 30
0.0
 40
70.4
 50
30.0
 51
60.0
  0
ARC
 62
1
  8
sector1
 10
148.5
 20
105.0
 30
0.0
 40
70.5
 50
30.0
 51
60.0
  0
ARC
 62
1
  8
sector1
 10
148.5
 20
105.0
 30
0.0
 40
70.6
 50
30.0
 51
60.0
  0
ARC
 62
1
  8
sector1
 10
148.5
 20
105.0
 30
0.0
 40
70.7
 50
30.0
 51
60.0
  0
ARC
 62
1
  8
sector1
 10
148.5
 20
105.0
 30
0.0
 40
70.8
 50
30.0
 51
60.0
  0
ARC
 62
1
  8
sector1
 10
148.5
 20
105.0
 30
0.0
 40
71.0
 50
30.0
 51
60.0
  0
ARC
 62
1
  8
sector1
 10
148.5
 20
105.0
 30
0.0
 40
71.1
 50
30.0
 51
60.0
  0
ARC
 62
1
  8
sector1
 10
148.5
 20
105.0
 30
0.0
 40
71.2
 50
30.0
 51
60.0
  0
ARC
 62
1
  8
sector1
 10
148.5
 20
105.0
 30
0.0
 40
71.3
 50
30.0
 51
60.0
  0
ARC
 62
1
  8
sector1
 10
148.5
 20
105.0
 30
0.0
 40
71.4
 50
30.0
 51
60.0
  0
ARC
 62
1
  8
sector1
 10
148.5
 20
105.0
 30
0.0
 40
71.5
 50
30.0
 51
60.0
  0
ARC
 62
1
  8
sector1
 10
148.5
 20
105.0
 30
0.0
 40
71.6
 50
30.0
 51
60.0
  0
ARC
 62
1
  8
sector1
 10
148.5
 20
105.0
 30
0.0
 40
71.7
 50
30.0
 51
60.0
  0
ARC
 62
1
  8
sector1
 10
148.5
 20
105.0
 30
0.0
 40
71.8
 50
30.0
 51
60.0
  0
ARC
 62
1
  8
sector1
 10
148.5
 20
105.0
 30
0.0
 40
72.0
 50
30.0
 51
60.0
  0
ARC
 62
1
  8
sector1
 10
148.5
 20
105.0
 30
0.0
 40
72.1
 50
30.0
 51
60.0
  0
ARC
 62
1
  8
sector1
 10
148.5
 20
105.0
 30
0.0
 40
72.2
 50
30.0
 51
60.0
  0
ARC
 62
1
  8
sector1
 10
148.5
 20
105.0
 30
0.0
 40
72.3
 50
30.0
 51
60.0
  0
ARC
 62
1
  8
sector1
 10
148.5
 20
105.0
 30
0.0
 40
72.4
 50
30.0
 51
60.0
  0
ARC
 62
1
  8
sector1
 10
148.5
 20
105.0
 30
0.0
 40
72.5
 50
30.0
 51
60.0
  0
ARC
 62
1
  8
sector1
 10
148.5
 20
105.0
 30
0.0
 40
72.6
 50
30.0
 51
60.0
  0
ARC
 62
1
  8
sector1
 10
148.5
 20
105.0
 30
0.0
 40
72.7
 50
30.0
 51
60.0
  0
ARC
 62
1
  8
sector1
 10
148.5
 20
105.0
 30
0.0
 40
72.8
 50
30.0
 51
60.0
  0
ARC
 62
1
  8
sector1
 10
148.5
 20
105.0
 30
0.0
 40
73.0
 50
30.0
 51
60.0
  0
ARC
 62
1
  8
sector1
 10
148.5
 20
105.0
 30
0.0
 40
73.1
 50
30.0
 51
60.0
  0
ARC
 62
1
  8
sector1
 10
148.5
 20
105.0
 30
0.0
 40
73.2
 50
30.0
 51
60.0
  0
ARC
 62
1
  8
sector1
 10
148.5
 20
105.0
 30
0.0
 40
73.3
 50
30.0
 51
60.0
  0
ARC
 62
1
  8
sector1
 10
148.5
 20
105.0
 30
0.0
 40
73.4
 50
30.0
 51
60.0
  0
ARC
 62
1
  8
sector1
 10
148.5
 20
105.0
 30
0.0
 40
73.5
 50
30.0
 51
60.0
  0
ARC
 62
1
  8
sector1
 10
148.5
 20
105.0
 30
0.0
 40
73.6
 50
30.0
 51
60.0
  0
ARC
 62
1
  8
sector1
 10
148.5
 20
105.0
 30
0.0
 40
73.7
 50
30.0
 51
60.0
  0
ARC
 62
1
  8
sector1
 10
148.5
 20
105.0
 30
0.0
 40
73.8
 50
30.0
 51
60.0
  0
ARC
 62
1
  8
sector1
 10
148.5
 20
105.0
 30
0.0
 40
74.0
 50
30.0
 51
60.0
  0
ARC
 62
1
  8
sector1
 10
148.5
 20
105.0
 30
0.0
 40
74.1
 50
30.0
 51
60.0
  0
ARC
 62
1
  8
sector1
 10
148.5
 20
105.0
 30
0.0
 40
74.2
 50
30.0
 51
60.0
  0
ARC
 62
1
  8
sector1
 10
148.5
 20
105.0
 30
0.0
 40
74.3
 50
30.0
 51
60.0
  0
ARC
 62
1
  8
sector1
 10
148.5
 20
105.0
 30
0.0
 40
74.4
 50
30.0
 51
60.0
  0
ARC
 62
1
  8
sector1
 10
148.5
 20
105.0
 30
0.0
 40
74.5
 50
30.0
 51
60.0
  0
ARC
 62
1
  8
sector1
 10
148.5
 20
105.0
 30
0.0
 40
74.6
 50
30.0
 51
60.0
  0
ARC
 62
1
  8
sector1
 10
148.5
 20
105.0
 30
0.0
 40
74.7
 50
30.0
 51
60.0
  0
ARC
 62
1
  8
sector1
 10
148.5
 20
105.0
 30
0.0
 40
74.8
 50
30.0
 51
60.0
  0
ARC
 62
1
  8
sector1
 10
148.5
 20
105.0
 30
0.0
 40
75.0
 50
30.0
 51
60.0
  0
ARC
 62
1
  8
sector1
 10
148.5
 20
105.0
 30
0.0
 40
75.1
 50
30.0
 51
60.0
  0
ARC
 62
1
  8
sector1
 10
148.5
 20
105.0
 30
0.0
 40
75.2
 50
30.0
 51
60.0
  0
ARC
 62
1
  8
sector1
 10
148.5
 20
105.0
 30
0.0
 40
75.3
 50
30.0
 51
60.0
  0
ARC
 62
1
  8
sector1
 10
148.5
 20
105.0
 30
0.0
 40
75.4
 50
30.0
 51
60.0
  0
ARC
 62
1
  8
sector1
 10
148.5
 20
105.0
 30
0.0
 40
75.5
 50
30.0
 51
60.0
  0
ARC
 62
1
  8
sector1
 10
148.5
 20
105.0
 30
0.0
 40
75.6
 50
30.0
 51
60.0
  0
ARC
 62
1
  8
sector1
 10
148.5
 20
105.0
 30
0.0
 40
75.7
 50
30.0
 51
60.0
  0
ARC
 62
1
  8
sector1
 10
148.5
 20
105.0
 30
0.0
 40
75.8
 50
30.0
 51
60.0
  0
ARC
 62
1
  8
sector1
 10
148.5
 20
105.0
 30
0.0
 40
76.0
 50
30.0
 51
60.0
  0
ARC
 62
1
  8
sector1
 10
148.5
 20
105.0
 30
0.0
 40
76.1
 50
30.0
 51
60.0
  0
ARC
 62
1
  8
sector1
 10
148.5
 20
105.0
 30
0.0
 40
76.2
 50
30.0
 51
60.0
  0
ARC
 62
1
  8
sector1
 10
148.5
 20
105.0
 30
0.0
 40
76.3
 50
30.0
 51
60.0
  0
ARC
 62
1
  8
sector1
 10
148.5
 20
105.0
 30
0.0
 40
76.4
 50
30.0
 51
60.0
  0
ARC
 62
1
  8
sector1
 10
148.5
 20
105.0
 30
0.0
 40
76.5
 50
30.0
 51
60.0
  0
ARC
 62
1
  8
sector1
 10
148.5
 20
105.0
 30
0.0
 40
76.6
 50
30.0
 51
60.0
  0
ARC
 62
1
  8
sector1
 10
148.5
 20
105.0
 30
0.0
 40
76.7
 50
30.0
 51
60.0
  0
ARC
 62
1
  8
sector1
 10
148.5
 20
105.0
 30
0.0
 40
76.8
 50
30.0
 51
60.0
  0
ARC
 62
1
  8
sector1
 10
148.5
 20
105.0
 30
0.0
 40
77.0
 50
30.0
 51
60.0
  0
ARC
 62
1
  8
sector1
 10
148.5
 20
105.0
 30
0.0
 40
77.1
 50
30.0
 51
60.0
  0
ARC
 62
1
  8
sector1
 10
148.5
 20
105.0
 30
0.0
 40
77.2
 50
30.0
 51
60.0
  0
ARC
 62
1
  8
sector1
 10
148.5
 20
105.0
 30
0.0
 40
77.3
 50
30.0
 51
60.0
  0
ARC
 62
1
  8
sector1
 10
148.5
 20
105.0
 30
0.0
 40
77.4
 50
30.0
 51
60.0
  0
ARC
 62
1
  8
sector1
 10
148.5
 20
105.0
 30
0.0
 40
77.5
 50
30.0
 51
60.0
  0
ARC
 62
1
  8
sector1
 10
148.5
 20
105.0
 30
0.0
 40
77.6
 50
30.0
 51
60.0
  0
ARC
 62
1
  8
sector1
 10
148.5
 20
105.0
 30
0.0
 40
77.7
 50
30.0
 51
60.0
  0
ARC
 62
1
  8
sector1
 10
148.5
 20
105.0
 30
0.0
 40
77.8
 50
30.0
 51
60.0
  0
ARC
 62
1
  8
sector1
 10
148.5
 20
105.0
 30
0.0
 40
78.0
 50
30.0
 51
60.0
  0
ARC
 62
1
  8
sector1
 10
148.5
 20
105.0
 30
0.0
 40
78.1
 50
30.0
 51
60.0
  0
ARC
 62
1
  8
sector1
 10
148.5
 20
105.0
 30
0.0
 40
78.2
 50
30.0
 51
60.0
  0
ARC
 62
1
  8
sector1
 10
148.5
 20
105.0
 30
0.0
 40
78.3
 50
30.0
 51
60.0
  0
ARC
 62
1
  8
sector1
 10
148.5
 20
105.0
 30
0.0
 40
78.4
 50
30.0
 51
60.0
  0
ARC
 62
1
  8
sector1
 10
148.5
 20
105.0
 30
0.0
 40
78.5
 50
30.0
 51
60.0
  0
ARC
 62
1
  8
sector1
 10
148.5
 20
105.0
 30
0.0
 40
78.6
 50
30.0
 51
60.0
  0
ARC
 62
1
  8
sector1
 10
148.5
 20
105.0
 30
0.0
 40
78.7
 50
30.0
 51
60.0
  0
ARC
 62
1
  8
sector1
 10
148.5
 20
105.0
 30
0.0
 40
78.8
 50
30.0
 51
60.0
  0
ARC
 62
1
  8
sector1
 10
148.5
 20
105.0
 30
0.0
 40
79.0
 50
30.0
 51
60.0
  0
ARC
 62
1
  8
sector1
 10
148.5
 20
105.0
 30
0.0
 40
79.1
 50
30.0
 51
60.0
  0
ARC
 62
1
  8
sector1
 10
148.5
 20
105.0
 30
0.0
 40
79.2
 50
30.0
 51
60.0
  0
ARC
 62
1
  8
sector1
 10
148.5
 20
105.0
 30
0.0
 40
79.3
 50
30.0
 51
60.0
  0
ARC
 62
1
  8
sector1
 10
148.5
 20
105.0
 30
0.0
 40
79.4
 50
30.0
 51
60.0
  0
ARC
 62
1
  8
sector1
 10
148.5
 20
105.0
 30
0.0
 40
79.5
 50
30.0
 51
60.0
  0
ARC
 62
1
  8
sector1
 10
148.5
 20
105.0
 30
0.0
 40
79.6
 50
30.0
 51
60.0
  0
ARC
 62
1
  8
sector1
 10
148.5
 20
105.0
 30
0.0
 40
79.7
 50
30.0
 51
60.0
  0
ARC
 62
1
  8
sector1
 10
148.5
 20
105.0
 30
0.0
 40
79.8
 50
30.0
 51
60.0
  0
TEXT
 62
0
  8
letrasSector1
 10
201.53300858899107
 20
158.03300858899107
 30
0.0
 40
3.0
  1
en
 50
315.0
 41
1.0
 51
0.0
  7
STANDARD
 71
0
 72
1
 73
3
 11
201.53300858899107
 21
158.03300858899107
 31
0.0
  0
ARC
 62
3
  8
sector2
 10
148.5
 20
105.0
 30
0.0
 40
40.0
 50
350.0
 51
30.0
  0
ARC
 62
3
  8
sector2
 10
148.5
 20
105.0
 30
0.0
 40
60.0
 50
350.0
 51
30.0
  0
LINE
 62
3
  8
sector2
 10
183.14101615137756
 20
125.0
 30
0.0
 11
200.46152422706632
 21
135.0
 31
0.0
  0
LINE
 62
3
  8
sector2
 10
187.89231012048833
 20
98.05407289332278
 30
0.0
 11
207.5884651807325
 21
94.58110933998418
 31
0.0
  0
ARC
 62
3
  8
sector2
 10
148.5
 20
105.0
 30
0.0
 40
40.0
 50
350.0
 51
30.0
  0
ARC
 62
3
  8
sector2
 10
148.5
 20
105.0
 30
0.0
 40
40.1
 50
350.0
 51
30.0
  0
ARC
 62
3
  8
sector2
 10
148.5
 20
105.0
 30
0.0
 40
40.2
 50
350.0
 51
30.0
  0
ARC
 62
3
  8
sector2
 10
148.5
 20
105.0
 30
0.0
 40
40.3
 50
350.0
 51
30.0
  0
ARC
 62
3
  8
sector2
 10
148.5
 20
105.0
 30
0.0
 40
40.4
 50
350.0
 51
30.0
  0
ARC
 62
3
  8
sector2
 10
148.5
 20
105.0
 30
0.0
 40
40.5
 50
350.0
 51
30.0
  0
ARC
 62
3
  8
sector2
 10
148.5
 20
105.0
 30
0.0
 40
40.6
 50
350.0
 51
30.0
  0
ARC
 62
3
  8
sector2
 10
148.5
 20
105.0
 30
0.0
 40
40.7
 50
350.0
 51
30.0
  0
ARC
 62
3
  8
sector2
 10
148.5
 20
105.0
 30
0.0
 40
40.8
 50
350.0
 51
30.0
  0
ARC
 62
3
  8
sector2
 10
148.5
 20
105.0
 30
0.0
 40
41.0
 50
350.0
 51
30.0
  0
ARC
 62
3
  8
sector2
 10
148.5
 20
105.0
 30
0.0
 40
41.1
 50
350.0
 51
30.0
  0
ARC
 62
3
  8
sector2
 10
148.5
 20
105.0
 30
0.0
 40
41.2
 50
350.0
 51
30.0
  0
ARC
 62
3
  8
sector2
 10
148.5
 20
105.0
 30
0.0
 40
41.3
 50
350.0
 51
30.0
  0
ARC
 62
3
  8
sector2
 10
148.5
 20
105.0
 30
0.0
 40
41.4
 50
350.0
 51
30.0
  0
ARC
 62
3
  8
sector2
 10
148.5
 20
105.0
 30
0.0
 40
41.5
 50
350.0
 51
30.0
  0
ARC
 62
3
  8
sector2
 10
148.5
 20
105.0
 30
0.0
 40
41.6
 50
350.0
 51
30.0
  0
ARC
 62
3
  8
sector2
 10
148.5
 20
105.0
 30
0.0
 40
41.7
 50
350.0
 51
30.0
  0
ARC
 62
3
  8
sector2
 10
148.5
 20
105.0
 30
0.0
 40
41.8
 50
350.0
 51
30.0
  0
ARC
 62
3
  8
sector2
 10
148.5
 20
105.0
 30
0.0
 40
42.0
 50
350.0
 51
30.0
  0
ARC
 62
3
  8
sector2
 10
148.5
 20
105.0
 30
0.0
 40
42.1
 50
350.0
 51
30.0
  0
ARC
 62
3
  8
sector2
 10
148.5
 20
105.0
 30
0.0
 40
42.2
 50
350.0
 51
30.0
  0
ARC
 62
3
  8
sector2
 10
148.5
 20
105.0
 30
0.0
 40
42.3
 50
350.0
 51
30.0
  0
ARC
 62
3
  8
sector2
 10
148.5
 20
105.0
 30
0.0
 40
42.4
 50
350.0
 51
30.0
  0
ARC
 62
3
  8
sector2
 10
148.5
 20
105.0
 30
0.0
 40
42.5
 50
350.0
 51
30.0
  0
ARC
 62
3
  8
sector2
 10
148.5
 20
105.0
 30
0.0
 40
42.6
 50
350.0
 51
30.0
  0
ARC
 62
3
  8
sector2
 10
148.5
 20
105.0
 30
0.0
 40
42.7
 50
350.0
 51
30.0
  0
ARC
 62
3
  8
sector2
 10
148.5
 20
105.0
 30
0.0
 40
42.8
 50
350.0
 51
30.0
  0
ARC
 62
3
  8
sector2
 10
148.5
 20
105.0
 30
0.0
 40
43.0
 50
350.0
 51
30.0
  0
ARC
 62
3
  8
sector2
 10
148.5
 20
105.0
 30
0.0
 40
43.1
 50
350.0
 51
30.0
  0
ARC
 62
3
  8
sector2
 10
148.5
 20
105.0
 30
0.0
 40
43.2
 50
350.0
 51
30.0
  0
ARC
 62
3
  8
sector2
 10
148.5
 20
105.0
 30
0.0
 40
43.3
 50
350.0
 51
30.0
  0
ARC
 62
3
  8
sector2
 10
148.5
 20
105.0
 30
0.0
 40
43.4
 50
350.0
 51
30.0
  0
ARC
 62
3
  8
sector2
 10
148.5
 20
105.0
 30
0.0
 40
43.5
 50
350.0
 51
30.0
  0
ARC
 62
3
  8
sector2
 10
148.5
 20
105.0
 30
0.0
 40
43.6
 50
350.0
 51
30.0
  0
ARC
 62
3
  8
sector2
 10
148.5
 20
105.0
 30
0.0
 40
43.7
 50
350.0
 51
30.0
  0
ARC
 62
3
  8
sector2
 10
148.5
 20
105.0
 30
0.0
 40
43.8
 50
350.0
 51
30.0
  0
ARC
 62
3
  8
sector2
 10
148.5
 20
105.0
 30
0.0
 40
44.0
 50
350.0
 51
30.0
  0
ARC
 62
3
  8
sector2
 10
148.5
 20
105.0
 30
0.0
 40
44.1
 50
350.0
 51
30.0
  0
ARC
 62
3
  8
sector2
 10
148.5
 20
105.0
 30
0.0
 40
44.2
 50
350.0
 51
30.0
  0
ARC
 62
3
  8
sector2
 10
148.5
 20
105.0
 30
0.0
 40
44.3
 50
350.0
 51
30.0
  0
ARC
 62
3
  8
sector2
 10
148.5
 20
105.0
 30
0.0
 40
44.4
 50
350.0
 51
30.0
  0
ARC
 62
3
  8
sector2
 10
148.5
 20
105.0
 30
0.0
 40
44.5
 50
350.0
 51
30.0
  0
ARC
 62
3
  8
sector2
 10
148.5
 20
105.0
 30
0.0
 40
44.6
 50
350.0
 51
30.0
  0
ARC
 62
3
  8
sector2
 10
148.5
 20
105.0
 30
0.0
 40
44.7
 50
350.0
 51
30.0
  0
ARC
 62
3
  8
sector2
 10
148.5
 20
105.0
 30
0.0
 40
44.8
 50
350.0
 51
30.0
  0
ARC
 62
3
  8
sector2
 10
148.5
 20
105.0
 30
0.0
 40
45.0
 50
350.0
 51
30.0
  0
ARC
 62
3
  8
sector2
 10
148.5
 20
105.0
 30
0.0
 40
45.1
 50
350.0
 51
30.0
  0
ARC
 62
3
  8
sector2
 10
148.5
 20
105.0
 30
0.0
 40
45.2
 50
350.0
 51
30.0
  0
ARC
 62
3
  8
sector2
 10
148.5
 20
105.0
 30
0.0
 40
45.3
 50
350.0
 51
30.0
  0
ARC
 62
3
  8
sector2
 10
148.5
 20
105.0
 30
0.0
 40
45.4
 50
350.0
 51
30.0
  0
ARC
 62
3
  8
sector2
 10
148.5
 20
105.0
 30
0.0
 40
45.5
 50
350.0
 51
30.0
  0
ARC
 62
3
  8
sector2
 10
148.5
 20
105.0
 30
0.0
 40
45.6
 50
350.0
 51
30.0
  0
ARC
 62
3
  8
sector2
 10
148.5
 20
105.0
 30
0.0
 40
45.7
 50
350.0
 51
30.0
  0
ARC
 62
3
  8
sector2
 10
148.5
 20
105.0
 30
0.0
 40
45.8
 50
350.0
 51
30.0
  0
ARC
 62
3
  8
sector2
 10
148.5
 20
105.0
 30
0.0
 40
46.0
 50
350.0
 51
30.0
  0
ARC
 62
3
  8
sector2
 10
148.5
 20
105.0
 30
0.0
 40
46.1
 50
350.0
 51
30.0
  0
ARC
 62
3
  8
sector2
 10
148.5
 20
105.0
 30
0.0
 40
46.2
 50
350.0
 51
30.0
  0
ARC
 62
3
  8
sector2
 10
148.5
 20
105.0
 30
0.0
 40
46.3
 50
350.0
 51
30.0
  0
ARC
 62
3
  8
sector2
 10
148.5
 20
105.0
 30
0.0
 40
46.4
 50
350.0
 51
30.0
  0
ARC
 62
3
  8
sector2
 10
148.5
 20
105.0
 30
0.0
 40
46.5
 50
350.0
 51
30.0
  0
ARC
 62
3
  8
sector2
 10
148.5
 20
105.0
 30
0.0
 40
46.6
 50
350.0
 51
30.0
  0
ARC
 62
3
  8
sector2
 10
148.5
 20
105.0
 30
0.0
 40
46.7
 50
350.0
 51
30.0
  0
ARC
 62
3
  8
sector2
 10
148.5
 20
105.0
 30
0.0
 40
46.8
 50
350.0
 51
30.0
  0
ARC
 62
3
  8
sector2
 10
148.5
 20
105.0
 30
0.0
 40
47.0
 50
350.0
 51
30.0
  0
ARC
 62
3
  8
sector2
 10
148.5
 20
105.0
 30
0.0
 40
47.1
 50
350.0
 51
30.0
  0
ARC
 62
3
  8
sector2
 10
148.5
 20
105.0
 30
0.0
 40
47.2
 50
350.0
 51
30.0
  0
ARC
 62
3
  8
sector2
 10
148.5
 20
105.0
 30
0.0
 40
47.3
 50
350.0
 51
30.0
  0
ARC
 62
3
  8
sector2
 10
148.5
 20
105.0
 30
0.0
 40
47.4
 50
350.0
 51
30.0
  0
ARC
 62
3
  8
sector2
 10
148.5
 20
105.0
 30
0.0
 40
47.5
 50
350.0
 51
30.0
  0
ARC
 62
3
  8
sector2
 10
148.5
 20
105.0
 30
0.0
 40
47.6
 50
350.0
 51
30.0
  0
ARC
 62
3
  8
sector2
 10
148.5
 20
105.0
 30
0.0
 40
47.7
 50
350.0
 51
30.0
  0
ARC
 62
3
  8
sector2
 10
148.5
 20
105.0
 30
0.0
 40
47.8
 50
350.0
 51
30.0
  0
ARC
 62
3
  8
sector2
 10
148.5
 20
105.0
 30
0.0
 40
48.0
 50
350.0
 51
30.0
  0
ARC
 62
3
  8
sector2
 10
148.5
 20
105.0
 30
0.0
 40
48.1
 50
350.0
 51
30.0
  0
ARC
 62
3
  8
sector2
 10
148.5
 20
105.0
 30
0.0
 40
48.2
 50
350.0
 51
30.0
  0
ARC
 62
3
  8
sector2
 10
148.5
 20
105.0
 30
0.0
 40
48.3
 50
350.0
 51
30.0
  0
ARC
 62
3
  8
sector2
 10
148.5
 20
105.0
 30
0.0
 40
48.4
 50
350.0
 51
30.0
  0
ARC
 62
3
  8
sector2
 10
148.5
 20
105.0
 30
0.0
 40
48.5
 50
350.0
 51
30.0
  0
ARC
 62
3
  8
sector2
 10
148.5
 20
105.0
 30
0.0
 40
48.6
 50
350.0
 51
30.0
  0
ARC
 62
3
  8
sector2
 10
148.5
 20
105.0
 30
0.0
 40
48.7
 50
350.0
 51
30.0
  0
ARC
 62
3
  8
sector2
 10
148.5
 20
105.0
 30
0.0
 40
48.8
 50
350.0
 51
30.0
  0
ARC
 62
3
  8
sector2
 10
148.5
 20
105.0
 30
0.0
 40
49.0
 50
350.0
 51
30.0
  0
ARC
 62
3
  8
sector2
 10
148.5
 20
105.0
 30
0.0
 40
49.1
 50
350.0
 51
30.0
  0
ARC
 62
3
  8
sector2
 10
148.5
 20
105.0
 30
0.0
 40
49.2
 50
350.0
 51
30.0
  0
ARC
 62
3
  8
sector2
 10
148.5
 20
105.0
 30
0.0
 40
49.3
 50
350.0
 51
30.0
  0
ARC
 62
3
  8
sector2
 10
148.5
 20
105.0
 30
0.0
 40
49.4
 50
350.0
 51
30.0
  0
ARC
 62
3
  8
sector2
 10
148.5
 20
105.0
 30
0.0
 40
49.5
 50
350.0
 51
30.0
  0
ARC
 62
3
  8
sector2
 10
148.5
 20
105.0
 30
0.0
 40
49.6
 50
350.0
 51
30.0
  0
ARC
 62
3
  8
sector2
 10
148.5
 20
105.0
 30
0.0
 40
49.7
 50
350.0
 51
30.0
  0
ARC
 62
3
  8
sector2
 10
148.5
 20
105.0
 30
0.0
 40
49.8
 50
350.0
 51
30.0
  0
ARC
 62
3
  8
sector2
 10
148.5
 20
105.0
 30
0.0
 40
50.0
 50
350.0
 51
30.0
  0
ARC
 62
3
  8
sector2
 10
148.5
 20
105.0
 30
0.0
 40
50.1
 50
350.0
 51
30.0
  0
ARC
 62
3
  8
sector2
 10
148.5
 20
105.0
 30
0.0
 40
50.2
 50
350.0
 51
30.0
  0
ARC
 62
3
  8
sector2
 10
148.5
 20
105.0
 30
0.0
 40
50.3
 50
350.0
 51
30.0
  0
ARC
 62
3
  8
sector2
 10
148.5
 20
105.0
 30
0.0
 40
50.4
 50
350.0
 51
30.0
  0
ARC
 62
3
  8
sector2
 10
148.5
 20
105.0
 30
0.0
 40
50.5
 50
350.0
 51
30.0
  0
ARC
 62
3
  8
sector2
 10
148.5
 20
105.0
 30
0.0
 40
50.6
 50
350.0
 51
30.0
  0
ARC
 62
3
  8
sector2
 10
148.5
 20
105.0
 30
0.0
 40
50.7
 50
350.0
 51
30.0
  0
ARC
 62
3
  8
sector2
 10
148.5
 20
105.0
 30
0.0
 40
50.8
 50
350.0
 51
30.0
  0
ARC
 62
3
  8
sector2
 10
148.5
 20
105.0
 30
0.0
 40
51.0
 50
350.0
 51
30.0
  0
ARC
 62
3
  8
sector2
 10
148.5
 20
105.0
 30
0.0
 40
51.1
 50
350.0
 51
30.0
  0
ARC
 62
3
  8
sector2
 10
148.5
 20
105.0
 30
0.0
 40
51.2
 50
350.0
 51
30.0
  0
ARC
 62
3
  8
sector2
 10
148.5
 20
105.0
 30
0.0
 40
51.3
 50
350.0
 51
30.0
  0
ARC
 62
3
  8
sector2
 10
148.5
 20
105.0
 30
0.0
 40
51.4
 50
350.0
 51
30.0
  0
ARC
 62
3
  8
sector2
 10
148.5
 20
105.0
 30
0.0
 40
51.5
 50
350.0
 51
30.0
  0
ARC
 62
3
  8
sector2
 10
148.5
 20
105.0
 30
0.0
 40
51.6
 50
350.0
 51
30.0
  0
ARC
 62
3
  8
sector2
 10
148.5
 20
105.0
 30
0.0
 40
51.7
 50
350.0
 51
30.0
  0
ARC
 62
3
  8
sector2
 10
148.5
 20
105.0
 30
0.0
 40
51.8
 50
350.0
 51
30.0
  0
ARC
 62
3
  8
sector2
 10
148.5
 20
105.0
 30
0.0
 40
52.0
 50
350.0
 51
30.0
  0
ARC
 62
3
  8
sector2
 10
148.5
 20
105.0
 30
0.0
 40
52.1
 50
350.0
 51
30.0
  0
ARC
 62
3
  8
sector2
 10
148.5
 20
105.0
 30
0.0
 40
52.2
 50
350.0
 51
30.0
  0
ARC
 62
3
  8
sector2
 10
148.5
 20
105.0
 30
0.0
 40
52.3
 50
350.0
 51
30.0
  0
ARC
 62
3
  8
sector2
 10
148.5
 20
105.0
 30
0.0
 40
52.4
 50
350.0
 51
30.0
  0
ARC
 62
3
  8
sector2
 10
148.5
 20
105.0
 30
0.0
 40
52.5
 50
350.0
 51
30.0
  0
ARC
 62
3
  8
sector2
 10
148.5
 20
105.0
 30
0.0
 40
52.6
 50
350.0
 51
30.0
  0
ARC
 62
3
  8
sector2
 10
148.5
 20
105.0
 30
0.0
 40
52.7
 50
350.0
 51
30.0
  0
ARC
 62
3
  8
sector2
 10
148.5
 20
105.0
 30
0.0
 40
52.8
 50
350.0
 51
30.0
  0
ARC
 62
3
  8
sector2
 10
148.5
 20
105.0
 30
0.0
 40
53.0
 50
350.0
 51
30.0
  0
ARC
 62
3
  8
sector2
 10
148.5
 20
105.0
 30
0.0
 40
53.1
 50
350.0
 51
30.0
  0
ARC
 62
3
  8
sector2
 10
148.5
 20
105.0
 30
0.0
 40
53.2
 50
350.0
 51
30.0
  0
ARC
 62
3
  8
sector2
 10
148.5
 20
105.0
 30
0.0
 40
53.3
 50
350.0
 51
30.0
  0
ARC
 62
3
  8
sector2
 10
148.5
 20
105.0
 30
0.0
 40
53.4
 50
350.0
 51
30.0
  0
ARC
 62
3
  8
sector2
 10
148.5
 20
105.0
 30
0.0
 40
53.5
 50
350.0
 51
30.0
  0
ARC
 62
3
  8
sector2
 10
148.5
 20
105.0
 30
0.0
 40
53.6
 50
350.0
 51
30.0
  0
ARC
 62
3
  8
sector2
 10
148.5
 20
105.0
 30
0.0
 40
53.7
 50
350.0
 51
30.0
  0
ARC
 62
3
  8
sector2
 10
148.5
 20
105.0
 30
0.0
 40
53.8
 50
350.0
 51
30.0
  0
ARC
 62
3
  8
sector2
 10
148.5
 20
105.0
 30
0.0
 40
54.0
 50
350.0
 51
30.0
  0
ARC
 62
3
  8
sector2
 10
148.5
 20
105.0
 30
0.0
 40
54.1
 50
350.0
 51
30.0
  0
ARC
 62
3
  8
sector2
 10
148.5
 20
105.0
 30
0.0
 40
54.2
 50
350.0
 51
30.0
  0
ARC
 62
3
  8
sector2
 10
148.5
 20
105.0
 30
0.0
 40
54.3
 50
350.0
 51
30.0
  0
ARC
 62
3
  8
sector2
 10
148.5
 20
105.0
 30
0.0
 40
54.4
 50
350.0
 51
30.0
  0
ARC
 62
3
  8
sector2
 10
148.5
 20
105.0
 30
0.0
 40
54.5
 50
350.0
 51
30.0
  0
ARC
 62
3
  8
sector2
 10
148.5
 20
105.0
 30
0.0
 40
54.6
 50
350.0
 51
30.0
  0
ARC
 62
3
  8
sector2
 10
148.5
 20
105.0
 30
0.0
 40
54.7
 50
350.0
 51
30.0
  0
ARC
 62
3
  8
sector2
 10
148.5
 20
105.0
 30
0.0
 40
54.8
 50
350.0
 51
30.0
  0
ARC
 62
3
  8
sector2
 10
148.5
 20
105.0
 30
0.0
 40
55.0
 50
350.0
 51
30.0
  0
ARC
 62
3
  8
sector2
 10
148.5
 20
105.0
 30
0.0
 40
55.1
 50
350.0
 51
30.0
  0
ARC
 62
3
  8
sector2
 10
148.5
 20
105.0
 30
0.0
 40
55.2
 50
350.0
 51
30.0
  0
ARC
 62
3
  8
sector2
 10
148.5
 20
105.0
 30
0.0
 40
55.3
 50
350.0
 51
30.0
  0
ARC
 62
3
  8
sector2
 10
148.5
 20
105.0
 30
0.0
 40
55.4
 50
350.0
 51
30.0
  0
ARC
 62
3
  8
sector2
 10
148.5
 20
105.0
 30
0.0
 40
55.5
 50
350.0
 51
30.0
  0
ARC
 62
3
  8
sector2
 10
148.5
 20
105.0
 30
0.0
 40
55.6
 50
350.0
 51
30.0
  0
ARC
 62
3
  8
sector2
 10
148.5
 20
105.0
 30
0.0
 40
55.7
 50
350.0
 51
30.0
  0
ARC
 62
3
  8
sector2
 10
148.5
 20
105.0
 30
0.0
 40
55.8
 50
350.0
 51
30.0
  0
ARC
 62
3
  8
sector2
 10
148.5
 20
105.0
 30
0.0
 40
56.0
 50
350.0
 51
30.0
  0
ARC
 62
3
  8
sector2
 10
148.5
 20
105.0
 30
0.0
 40
56.1
 50
350.0
 51
30.0
  0
ARC
 62
3
  8
sector2
 10
148.5
 20
105.0
 30
0.0
 40
56.2
 50
350.0
 51
30.0
  0
ARC
 62
3
  8
sector2
 10
148.5
 20
105.0
 30
0.0
 40
56.3
 50
350.0
 51
30.0
  0
ARC
 62
3
  8
sector2
 10
148.5
 20
105.0
 30
0.0
 40
56.4
 50
350.0
 51
30.0
  0
ARC
 62
3
  8
sector2
 10
148.5
 20
105.0
 30
0.0
 40
56.5
 50
350.0
 51
30.0
  0
ARC
 62
3
  8
sector2
 10
148.5
 20
105.0
 30
0.0
 40
56.6
 50
350.0
 51
30.0
  0
ARC
 62
3
  8
sector2
 10
148.5
 20
105.0
 30
0.0
 40
56.7
 50
350.0
 51
30.0
  0
ARC
 62
3
  8
sector2
 10
148.5
 20
105.0
 30
0.0
 40
56.8
 50
350.0
 51
30.0
  0
ARC
 62
3
  8
sector2
 10
148.5
 20
105.0
 30
0.0
 40
57.0
 50
350.0
 51
30.0
  0
ARC
 62
3
  8
sector2
 10
148.5
 20
105.0
 30
0.0
 40
57.1
 50
350.0
 51
30.0
  0
ARC
 62
3
  8
sector2
 10
148.5
 20
105.0
 30
0.0
 40
57.2
 50
350.0
 51
30.0
  0
ARC
 62
3
  8
sector2
 10
148.5
 20
105.0
 30
0.0
 40
57.3
 50
350.0
 51
30.0
  0
ARC
 62
3
  8
sector2
 10
148.5
 20
105.0
 30
0.0
 40
57.4
 50
350.0
 51
30.0
  0
ARC
 62
3
  8
sector2
 10
148.5
 20
105.0
 30
0.0
 40
57.5
 50
350.0
 51
30.0
  0
ARC
 62
3
  8
sector2
 10
148.5
 20
105.0
 30
0.0
 40
57.6
 50
350.0
 51
30.0
  0
ARC
 62
3
  8
sector2
 10
148.5
 20
105.0
 30
0.0
 40
57.7
 50
350.0
 51
30.0
  0
ARC
 62
3
  8
sector2
 10
148.5
 20
105.0
 30
0.0
 40
57.8
 50
350.0
 51
30.0
  0
ARC
 62
3
  8
sector2
 10
148.5
 20
105.0
 30
0.0
 40
58.0
 50
350.0
 51
30.0
  0
ARC
 62
3
  8
sector2
 10
148.5
 20
105.0
 30
0.0
 40
58.1
 50
350.0
 51
30.0
  0
ARC
 62
3
  8
sector2
 10
148.5
 20
105.0
 30
0.0
 40
58.2
 50
350.0
 51
30.0
  0
ARC
 62
3
  8
sector2
 10
148.5
 20
105.0
 30
0.0
 40
58.3
 50
350.0
 51
30.0
  0
ARC
 62
3
  8
sector2
 10
148.5
 20
105.0
 30
0.0
 40
58.4
 50
350.0
 51
30.0
  0
ARC
 62
3
  8
sector2
 10
148.5
 20
105.0
 30
0.0
 40
58.5
 50
350.0
 51
30.0
  0
ARC
 62
3
  8
sector2
 10
148.5
 20
105.0
 30
0.0
 40
58.6
 50
350.0
 51
30.0
  0
ARC
 62
3
  8
sector2
 10
148.5
 20
105.0
 30
0.0
 40
58.7
 50
350.0
 51
30.0
  0
ARC
 62
3
  8
sector2
 10
148.5
 20
105.0
 30
0.0
 40
58.8
 50
350.0
 51
30.0
  0
ARC
 62
3
  8
sector2
 10
148.5
 20
105.0
 30
0.0
 40
59.0
 50
350.0
 51
30.0
  0
ARC
 62
3
  8
sector2
 10
148.5
 20
105.0
 30
0.0
 40
59.1
 50
350.0
 51
30.0
  0
ARC
 62
3
  8
sector2
 10
148.5
 20
105.0
 30
0.0
 40
59.2
 50
350.0
 51
30.0
  0
ARC
 62
3
  8
sector2
 10
148.5
 20
105.0
 30
0.0
 40
59.3
 50
350.0
 51
30.0
  0
ARC
 62
3
  8
sector2
 10
148.5
 20
105.0
 30
0.0
 40
59.4
 50
350.0
 51
30.0
  0
ARC
 62
3
  8
sector2
 10
148.5
 20
105.0
 30
0.0
 40
59.5
 50
350.0
 51
30.0
  0
ARC
 62
3
  8
sector2
 10
148.5
 20
105.0
 30
0.0
 40
59.6
 50
350.0
 51
30.0
  0
ARC
 62
3
  8
sector2
 10
148.5
 20
105.0
 30
0.0
 40
59.7
 50
350.0
 51
30.0
  0
ARC
 62
3
  8
sector2
 10
148.5
 20
105.0
 30
0.0
 40
59.8
 50
350.0
 51
30.0
  0
TEXT
 62
0
  8
letrasSector2
 10
202.66442641567144
 20
114.55064977168117
 30
0.0
 40
3.0
  1
un
 50
100.0
 41
1.0
 51
0.0
  7
STANDARD
 71
0
 72
1
 73
3
 11
202.66442641567144
 21
114.55064977168117
 31
0.0
  0
ARC
 62
4
  8
sector3
 10
148.5
 20
105.0
 30
0.0
 40
40.0
 50
270.0
 51
350.0
  0
ARC
 62
4
  8
sector3
 10
148.5
 20
105.0
 30
0.0
 40
70.0
 50
270.0
 51
350.0
  0
LINE
 62
4
  8
sector3
 10
187.89231012048833
 20
98.05407289332278
 30
0.0
 11
217.43654271085455
 21
92.84462756331487
 31
0.0
  0
LINE
 62
4
  8
sector3
 10
148.5
 20
65.0
 30
0.0
 11
148.5
 21
35.0
 31
0.0
  0
ARC
 62
4
  8
sector3
 10
148.5
 20
105.0
 30
0.0
 40
40.0
 50
270.0
 51
350.0
  0
ARC
 62
4
  8
sector3
 10
148.5
 20
105.0
 30
0.0
 40
40.1
 50
270.0
 51
350.0
  0
ARC
 62
4
  8
sector3
 10
148.5
 20
105.0
 30
0.0
 40
40.2
 50
270.0
 51
350.0
  0
ARC
 62
4
  8
sector3
 10
148.5
 20
105.0
 30
0.0
 40
40.3
 50
270.0
 51
350.0
  0
ARC
 62
4
  8
sector3
 10
148.5
 20
105.0
 30
0.0
 40
40.4
 50
270.0
 51
350.0
  0
ARC
 62
4
  8
sector3
 10
148.5
 20
105.0
 30
0.0
 40
40.5
 50
270.0
 51
350.0
  0
ARC
 62
4
  8
sector3
 10
148.5
 20
105.0
 30
0.0
 40
40.6
 50
270.0
 51
350.0
  0
ARC
 62
4
  8
sector3
 10
148.5
 20
105.0
 30
0.0
 40
40.7
 50
270.0
 51
350.0
  0
ARC
 62
4
  8
sector3
 10
148.5
 20
105.0
 30
0.0
 40
40.8
 50
270.0
 51
350.0
  0
ARC
 62
4
  8
sector3
 10
148.5
 20
105.0
 30
0.0
 40
41.0
 50
270.0
 51
350.0
  0
ARC
 62
4
  8
sector3
 10
148.5
 20
105.0
 30
0.0
 40
41.1
 50
270.0
 51
350.0
  0
ARC
 62
4
  8
sector3
 10
148.5
 20
105.0
 30
0.0
 40
41.2
 50
270.0
 51
350.0
  0
ARC
 62
4
  8
sector3
 10
148.5
 20
105.0
 30
0.0
 40
41.3
 50
270.0
 51
350.0
  0
ARC
 62
4
  8
sector3
 10
148.5
 20
105.0
 30
0.0
 40
41.4
 50
270.0
 51
350.0
  0
ARC
 62
4
  8
sector3
 10
148.5
 20
105.0
 30
0.0
 40
41.5
 50
270.0
 51
350.0
  0
ARC
 62
4
  8
sector3
 10
148.5
 20
105.0
 30
0.0
 40
41.6
 50
270.0
 51
350.0
  0
ARC
 62
4
  8
sector3
 10
148.5
 20
105.0
 30
0.0
 40
41.7
 50
270.0
 51
350.0
  0
ARC
 62
4
  8
sector3
 10
148.5
 20
105.0
 30
0.0
 40
41.8
 50
270.0
 51
350.0
  0
ARC
 62
4
  8
sector3
 10
148.5
 20
105.0
 30
0.0
 40
42.0
 50
270.0
 51
350.0
  0
ARC
 62
4
  8
sector3
 10
148.5
 20
105.0
 30
0.0
 40
42.1
 50
270.0
 51
350.0
  0
ARC
 62
4
  8
sector3
 10
148.5
 20
105.0
 30
0.0
 40
42.2
 50
270.0
 51
350.0
  0
ARC
 62
4
  8
sector3
 10
148.5
 20
105.0
 30
0.0
 40
42.3
 50
270.0
 51
350.0
  0
ARC
 62
4
  8
sector3
 10
148.5
 20
105.0
 30
0.0
 40
42.4
 50
270.0
 51
350.0
  0
ARC
 62
4
  8
sector3
 10
148.5
 20
105.0
 30
0.0
 40
42.5
 50
270.0
 51
350.0
  0
ARC
 62
4
  8
sector3
 10
148.5
 20
105.0
 30
0.0
 40
42.6
 50
270.0
 51
350.0
  0
ARC
 62
4
  8
sector3
 10
148.5
 20
105.0
 30
0.0
 40
42.7
 50
270.0
 51
350.0
  0
ARC
 62
4
  8
sector3
 10
148.5
 20
105.0
 30
0.0
 40
42.8
 50
270.0
 51
350.0
  0
ARC
 62
4
  8
sector3
 10
148.5
 20
105.0
 30
0.0
 40
43.0
 50
270.0
 51
350.0
  0
ARC
 62
4
  8
sector3
 10
148.5
 20
105.0
 30
0.0
 40
43.1
 50
270.0
 51
350.0
  0
ARC
 62
4
  8
sector3
 10
148.5
 20
105.0
 30
0.0
 40
43.2
 50
270.0
 51
350.0
  0
ARC
 62
4
  8
sector3
 10
148.5
 20
105.0
 30
0.0
 40
43.3
 50
270.0
 51
350.0
  0
ARC
 62
4
  8
sector3
 10
148.5
 20
105.0
 30
0.0
 40
43.4
 50
270.0
 51
350.0
  0
ARC
 62
4
  8
sector3
 10
148.5
 20
105.0
 30
0.0
 40
43.5
 50
270.0
 51
350.0
  0
ARC
 62
4
  8
sector3
 10
148.5
 20
105.0
 30
0.0
 40
43.6
 50
270.0
 51
350.0
  0
ARC
 62
4
  8
sector3
 10
148.5
 20
105.0
 30
0.0
 40
43.7
 50
270.0
 51
350.0
  0
ARC
 62
4
  8
sector3
 10
148.5
 20
105.0
 30
0.0
 40
43.8
 50
270.0
 51
350.0
  0
ARC
 62
4
  8
sector3
 10
148.5
 20
105.0
 30
0.0
 40
44.0
 50
270.0
 51
350.0
  0
ARC
 62
4
  8
sector3
 10
148.5
 20
105.0
 30
0.0
 40
44.1
 50
270.0
 51
350.0
  0
ARC
 62
4
  8
sector3
 10
148.5
 20
105.0
 30
0.0
 40
44.2
 50
270.0
 51
350.0
  0
ARC
 62
4
  8
sector3
 10
148.5
 20
105.0
 30
0.0
 40
44.3
 50
270.0
 51
350.0
  0
ARC
 62
4
  8
sector3
 10
148.5
 20
105.0
 30
0.0
 40
44.4
 50
270.0
 51
350.0
  0
ARC
 62
4
  8
sector3
 10
148.5
 20
105.0
 30
0.0
 40
44.5
 50
270.0
 51
350.0
  0
ARC
 62
4
  8
sector3
 10
148.5
 20
105.0
 30
0.0
 40
44.6
 50
270.0
 51
350.0
  0
ARC
 62
4
  8
sector3
 10
148.5
 20
105.0
 30
0.0
 40
44.7
 50
270.0
 51
350.0
  0
ARC
 62
4
  8
sector3
 10
148.5
 20
105.0
 30
0.0
 40
44.8
 50
270.0
 51
350.0
  0
ARC
 62
4
  8
sector3
 10
148.5
 20
105.0
 30
0.0
 40
45.0
 50
270.0
 51
350.0
  0
ARC
 62
4
  8
sector3
 10
148.5
 20
105.0
 30
0.0
 40
45.1
 50
270.0
 51
350.0
  0
ARC
 62
4
  8
sector3
 10
148.5
 20
105.0
 30
0.0
 40
45.2
 50
270.0
 51
350.0
  0
ARC
 62
4
  8
sector3
 10
148.5
 20
105.0
 30
0.0
 40
45.3
 50
270.0
 51
350.0
  0
ARC
 62
4
  8
sector3
 10
148.5
 20
105.0
 30
0.0
 40
45.4
 50
270.0
 51
350.0
  0
ARC
 62
4
  8
sector3
 10
148.5
 20
105.0
 30
0.0
 40
45.5
 50
270.0
 51
350.0
  0
ARC
 62
4
  8
sector3
 10
148.5
 20
105.0
 30
0.0
 40
45.6
 50
270.0
 51
350.0
  0
ARC
 62
4
  8
sector3
 10
148.5
 20
105.0
 30
0.0
 40
45.7
 50
270.0
 51
350.0
  0
ARC
 62
4
  8
sector3
 10
148.5
 20
105.0
 30
0.0
 40
45.8
 50
270.0
 51
350.0
  0
ARC
 62
4
  8
sector3
 10
148.5
 20
105.0
 30
0.0
 40
46.0
 50
270.0
 51
350.0
  0
ARC
 62
4
  8
sector3
 10
148.5
 20
105.0
 30
0.0
 40
46.1
 50
270.0
 51
350.0
  0
ARC
 62
4
  8
sector3
 10
148.5
 20
105.0
 30
0.0
 40
46.2
 50
270.0
 51
350.0
  0
ARC
 62
4
  8
sector3
 10
148.5
 20
105.0
 30
0.0
 40
46.3
 50
270.0
 51
350.0
  0
ARC
 62
4
  8
sector3
 10
148.5
 20
105.0
 30
0.0
 40
46.4
 50
270.0
 51
350.0
  0
ARC
 62
4
  8
sector3
 10
148.5
 20
105.0
 30
0.0
 40
46.5
 50
270.0
 51
350.0
  0
ARC
 62
4
  8
sector3
 10
148.5
 20
105.0
 30
0.0
 40
46.6
 50
270.0
 51
350.0
  0
ARC
 62
4
  8
sector3
 10
148.5
 20
105.0
 30
0.0
 40
46.7
 50
270.0
 51
350.0
  0
ARC
 62
4
  8
sector3
 10
148.5
 20
105.0
 30
0.0
 40
46.8
 50
270.0
 51
350.0
  0
ARC
 62
4
  8
sector3
 10
148.5
 20
105.0
 30
0.0
 40
47.0
 50
270.0
 51
350.0
  0
ARC
 62
4
  8
sector3
 10
148.5
 20
105.0
 30
0.0
 40
47.1
 50
270.0
 51
350.0
  0
ARC
 62
4
  8
sector3
 10
148.5
 20
105.0
 30
0.0
 40
47.2
 50
270.0
 51
350.0
  0
ARC
 62
4
  8
sector3
 10
148.5
 20
105.0
 30
0.0
 40
47.3
 50
270.0
 51
350.0
  0
ARC
 62
4
  8
sector3
 10
148.5
 20
105.0
 30
0.0
 40
47.4
 50
270.0
 51
350.0
  0
ARC
 62
4
  8
sector3
 10
148.5
 20
105.0
 30
0.0
 40
47.5
 50
270.0
 51
350.0
  0
ARC
 62
4
  8
sector3
 10
148.5
 20
105.0
 30
0.0
 40
47.6
 50
270.0
 51
350.0
  0
ARC
 62
4
  8
sector3
 10
148.5
 20
105.0
 30
0.0
 40
47.7
 50
270.0
 51
350.0
  0
ARC
 62
4
  8
sector3
 10
148.5
 20
105.0
 30
0.0
 40
47.8
 50
270.0
 51
350.0
  0
ARC
 62
4
  8
sector3
 10
148.5
 20
105.0
 30
0.0
 40
48.0
 50
270.0
 51
350.0
  0
ARC
 62
4
  8
sector3
 10
148.5
 20
105.0
 30
0.0
 40
48.1
 50
270.0
 51
350.0
  0
ARC
 62
4
  8
sector3
 10
148.5
 20
105.0
 30
0.0
 40
48.2
 50
270.0
 51
350.0
  0
ARC
 62
4
  8
sector3
 10
148.5
 20
105.0
 30
0.0
 40
48.3
 50
270.0
 51
350.0
  0
ARC
 62
4
  8
sector3
 10
148.5
 20
105.0
 30
0.0
 40
48.4
 50
270.0
 51
350.0
  0
ARC
 62
4
  8
sector3
 10
148.5
 20
105.0
 30
0.0
 40
48.5
 50
270.0
 51
350.0
  0
ARC
 62
4
  8
sector3
 10
148.5
 20
105.0
 30
0.0
 40
48.6
 50
270.0
 51
350.0
  0
ARC
 62
4
  8
sector3
 10
148.5
 20
105.0
 30
0.0
 40
48.7
 50
270.0
 51
350.0
  0
ARC
 62
4
  8
sector3
 10
148.5
 20
105.0
 30
0.0
 40
48.8
 50
270.0
 51
350.0
  0
ARC
 62
4
  8
sector3
 10
148.5
 20
105.0
 30
0.0
 40
49.0
 50
270.0
 51
350.0
  0
ARC
 62
4
  8
sector3
 10
148.5
 20
105.0
 30
0.0
 40
49.1
 50
270.0
 51
350.0
  0
ARC
 62
4
  8
sector3
 10
148.5
 20
105.0
 30
0.0
 40
49.2
 50
270.0
 51
350.0
  0
ARC
 62
4
  8
sector3
 10
148.5
 20
105.0
 30
0.0
 40
49.3
 50
270.0
 51
350.0
  0
ARC
 62
4
  8
sector3
 10
148.5
 20
105.0
 30
0.0
 40
49.4
 50
270.0
 51
350.0
  0
ARC
 62
4
  8
sector3
 10
148.5
 20
105.0
 30
0.0
 40
49.5
 50
270.0
 51
350.0
  0
ARC
 62
4
  8
sector3
 10
148.5
 20
105.0
 30
0.0
 40
49.6
 50
270.0
 51
350.0
  0
ARC
 62
4
  8
sector3
 10
148.5
 20
105.0
 30
0.0
 40
49.7
 50
270.0
 51
350.0
  0
ARC
 62
4
  8
sector3
 10
148.5
 20
105.0
 30
0.0
 40
49.8
 50
270.0
 51
350.0
  0
ARC
 62
4
  8
sector3
 10
148.5
 20
105.0
 30
0.0
 40
50.0
 50
270.0
 51
350.0
  0
ARC
 62
4
  8
sector3
 10
148.5
 20
105.0
 30
0.0
 40
50.1
 50
270.0
 51
350.0
  0
ARC
 62
4
  8
sector3
 10
148.5
 20
105.0
 30
0.0
 40
50.2
 50
270.0
 51
350.0
  0
ARC
 62
4
  8
sector3
 10
148.5
 20
105.0
 30
0.0
 40
50.3
 50
270.0
 51
350.0
  0
ARC
 62
4
  8
sector3
 10
148.5
 20
105.0
 30
0.0
 40
50.4
 50
270.0
 51
350.0
  0
ARC
 62
4
  8
sector3
 10
148.5
 20
105.0
 30
0.0
 40
50.5
 50
270.0
 51
350.0
  0
ARC
 62
4
  8
sector3
 10
148.5
 20
105.0
 30
0.0
 40
50.6
 50
270.0
 51
350.0
  0
ARC
 62
4
  8
sector3
 10
148.5
 20
105.0
 30
0.0
 40
50.7
 50
270.0
 51
350.0
  0
ARC
 62
4
  8
sector3
 10
148.5
 20
105.0
 30
0.0
 40
50.8
 50
270.0
 51
350.0
  0
ARC
 62
4
  8
sector3
 10
148.5
 20
105.0
 30
0.0
 40
51.0
 50
270.0
 51
350.0
  0
ARC
 62
4
  8
sector3
 10
148.5
 20
105.0
 30
0.0
 40
51.1
 50
270.0
 51
350.0
  0
ARC
 62
4
  8
sector3
 10
148.5
 20
105.0
 30
0.0
 40
51.2
 50
270.0
 51
350.0
  0
ARC
 62
4
  8
sector3
 10
148.5
 20
105.0
 30
0.0
 40
51.3
 50
270.0
 51
350.0
  0
ARC
 62
4
  8
sector3
 10
148.5
 20
105.0
 30
0.0
 40
51.4
 50
270.0
 51
350.0
  0
ARC
 62
4
  8
sector3
 10
148.5
 20
105.0
 30
0.0
 40
51.5
 50
270.0
 51
350.0
  0
ARC
 62
4
  8
sector3
 10
148.5
 20
105.0
 30
0.0
 40
51.6
 50
270.0
 51
350.0
  0
ARC
 62
4
  8
sector3
 10
148.5
 20
105.0
 30
0.0
 40
51.7
 50
270.0
 51
350.0
  0
ARC
 62
4
  8
sector3
 10
148.5
 20
105.0
 30
0.0
 40
51.8
 50
270.0
 51
350.0
  0
ARC
 62
4
  8
sector3
 10
148.5
 20
105.0
 30
0.0
 40
52.0
 50
270.0
 51
350.0
  0
ARC
 62
4
  8
sector3
 10
148.5
 20
105.0
 30
0.0
 40
52.1
 50
270.0
 51
350.0
  0
ARC
 62
4
  8
sector3
 10
148.5
 20
105.0
 30
0.0
 40
52.2
 50
270.0
 51
350.0
  0
ARC
 62
4
  8
sector3
 10
148.5
 20
105.0
 30
0.0
 40
52.3
 50
270.0
 51
350.0
  0
ARC
 62
4
  8
sector3
 10
148.5
 20
105.0
 30
0.0
 40
52.4
 50
270.0
 51
350.0
  0
ARC
 62
4
  8
sector3
 10
148.5
 20
105.0
 30
0.0
 40
52.5
 50
270.0
 51
350.0
  0
ARC
 62
4
  8
sector3
 10
148.5
 20
105.0
 30
0.0
 40
52.6
 50
270.0
 51
350.0
  0
ARC
 62
4
  8
sector3
 10
148.5
 20
105.0
 30
0.0
 40
52.7
 50
270.0
 51
350.0
  0
ARC
 62
4
  8
sector3
 10
148.5
 20
105.0
 30
0.0
 40
52.8
 50
270.0
 51
350.0
  0
ARC
 62
4
  8
sector3
 10
148.5
 20
105.0
 30
0.0
 40
53.0
 50
270.0
 51
350.0
  0
ARC
 62
4
  8
sector3
 10
148.5
 20
105.0
 30
0.0
 40
53.1
 50
270.0
 51
350.0
  0
ARC
 62
4
  8
sector3
 10
148.5
 20
105.0
 30
0.0
 40
53.2
 50
270.0
 51
350.0
  0
ARC
 62
4
  8
sector3
 10
148.5
 20
105.0
 30
0.0
 40
53.3
 50
270.0
 51
350.0
  0
ARC
 62
4
  8
sector3
 10
148.5
 20
105.0
 30
0.0
 40
53.4
 50
270.0
 51
350.0
  0
ARC
 62
4
  8
sector3
 10
148.5
 20
105.0
 30
0.0
 40
53.5
 50
270.0
 51
350.0
  0
ARC
 62
4
  8
sector3
 10
148.5
 20
105.0
 30
0.0
 40
53.6
 50
270.0
 51
350.0
  0
ARC
 62
4
  8
sector3
 10
148.5
 20
105.0
 30
0.0
 40
53.7
 50
270.0
 51
350.0
  0
ARC
 62
4
  8
sector3
 10
148.5
 20
105.0
 30
0.0
 40
53.8
 50
270.0
 51
350.0
  0
ARC
 62
4
  8
sector3
 10
148.5
 20
105.0
 30
0.0
 40
54.0
 50
270.0
 51
350.0
  0
ARC
 62
4
  8
sector3
 10
148.5
 20
105.0
 30
0.0
 40
54.1
 50
270.0
 51
350.0
  0
ARC
 62
4
  8
sector3
 10
148.5
 20
105.0
 30
0.0
 40
54.2
 50
270.0
 51
350.0
  0
ARC
 62
4
  8
sector3
 10
148.5
 20
105.0
 30
0.0
 40
54.3
 50
270.0
 51
350.0
  0
ARC
 62
4
  8
sector3
 10
148.5
 20
105.0
 30
0.0
 40
54.4
 50
270.0
 51
350.0
  0
ARC
 62
4
  8
sector3
 10
148.5
 20
105.0
 30
0.0
 40
54.5
 50
270.0
 51
350.0
  0
ARC
 62
4
  8
sector3
 10
148.5
 20
105.0
 30
0.0
 40
54.6
 50
270.0
 51
350.0
  0
ARC
 62
4
  8
sector3
 10
148.5
 20
105.0
 30
0.0
 40
54.7
 50
270.0
 51
350.0
  0
ARC
 62
4
  8
sector3
 10
148.5
 20
105.0
 30
0.0
 40
54.8
 50
270.0
 51
350.0
  0
ARC
 62
4
  8
sector3
 10
148.5
 20
105.0
 30
0.0
 40
55.0
 50
270.0
 51
350.0
  0
ARC
 62
4
  8
sector3
 10
148.5
 20
105.0
 30
0.0
 40
55.1
 50
270.0
 51
350.0
  0
ARC
 62
4
  8
sector3
 10
148.5
 20
105.0
 30
0.0
 40
55.2
 50
270.0
 51
350.0
  0
ARC
 62
4
  8
sector3
 10
148.5
 20
105.0
 30
0.0
 40
55.3
 50
270.0
 51
350.0
  0
ARC
 62
4
  8
sector3
 10
148.5
 20
105.0
 30
0.0
 40
55.4
 50
270.0
 51
350.0
  0
ARC
 62
4
  8
sector3
 10
148.5
 20
105.0
 30
0.0
 40
55.5
 50
270.0
 51
350.0
  0
ARC
 62
4
  8
sector3
 10
148.5
 20
105.0
 30
0.0
 40
55.6
 50
270.0
 51
350.0
  0
ARC
 62
4
  8
sector3
 10
148.5
 20
105.0
 30
0.0
 40
55.7
 50
270.0
 51
350.0
  0
ARC
 62
4
  8
sector3
 10
148.5
 20
105.0
 30
0.0
 40
55.8
 50
270.0
 51
350.0
  0
ARC
 62
4
  8
sector3
 10
148.5
 20
105.0
 30
0.0
 40
56.0
 50
270.0
 51
350.0
  0
ARC
 62
4
  8
sector3
 10
148.5
 20
105.0
 30
0.0
 40
56.1
 50
270.0
 51
350.0
  0
ARC
 62
4
  8
sector3
 10
148.5
 20
105.0
 30
0.0
 40
56.2
 50
270.0
 51
350.0
  0
ARC
 62
4
  8
sector3
 10
148.5
 20
105.0
 30
0.0
 40
56.3
 50
270.0
 51
350.0
  0
ARC
 62
4
  8
sector3
 10
148.5
 20
105.0
 30
0.0
 40
56.4
 50
270.0
 51
350.0
  0
ARC
 62
4
  8
sector3
 10
148.5
 20
105.0
 30
0.0
 40
56.5
 50
270.0
 51
350.0
  0
ARC
 62
4
  8
sector3
 10
148.5
 20
105.0
 30
0.0
 40
56.6
 50
270.0
 51
350.0
  0
ARC
 62
4
  8
sector3
 10
148.5
 20
105.0
 30
0.0
 40
56.7
 50
270.0
 51
350.0
  0
ARC
 62
4
  8
sector3
 10
148.5
 20
105.0
 30
0.0
 40
56.8
 50
270.0
 51
350.0
  0
ARC
 62
4
  8
sector3
 10
148.5
 20
105.0
 30
0.0
 40
57.0
 50
270.0
 51
350.0
  0
ARC
 62
4
  8
sector3
 10
148.5
 20
105.0
 30
0.0
 40
57.1
 50
270.0
 51
350.0
  0
ARC
 62
4
  8
sector3
 10
148.5
 20
105.0
 30
0.0
 40
57.2
 50
270.0
 51
350.0
  0
ARC
 62
4
  8
sector3
 10
148.5
 20
105.0
 30
0.0
 40
57.3
 50
270.0
 51
350.0
  0
ARC
 62
4
  8
sector3
 10
148.5
 20
105.0
 30
0.0
 40
57.4
 50
270.0
 51
350.0
  0
ARC
 62
4
  8
sector3
 10
148.5
 20
105.0
 30
0.0
 40
57.5
 50
270.0
 51
350.0
  0
ARC
 62
4
  8
sector3
 10
148.5
 20
105.0
 30
0.0
 40
57.6
 50
270.0
 51
350.0
  0
ARC
 62
4
  8
sector3
 10
148.5
 20
105.0
 30
0.0
 40
57.7
 50
270.0
 51
350.0
  0
ARC
 62
4
  8
sector3
 10
148.5
 20
105.0
 30
0.0
 40
57.8
 50
270.0
 51
350.0
  0
ARC
 62
4
  8
sector3
 10
148.5
 20
105.0
 30
0.0
 40
58.0
 50
270.0
 51
350.0
  0
ARC
 62
4
  8
sector3
 10
148.5
 20
105.0
 30
0.0
 40
58.1
 50
270.0
 51
350.0
  0
ARC
 62
4
  8
sector3
 10
148.5
 20
105.0
 30
0.0
 40
58.2
 50
270.0
 51
350.0
  0
ARC
 62
4
  8
sector3
 10
148.5
 20
105.0
 30
0.0
 40
58.3
 50
270.0
 51
350.0
  0
ARC
 62
4
  8
sector3
 10
148.5
 20
105.0
 30
0.0
 40
58.4
 50
270.0
 51
350.0
  0
ARC
 62
4
  8
sector3
 10
148.5
 20
105.0
 30
0.0
 40
58.5
 50
270.0
 51
350.0
  0
ARC
 62
4
  8
sector3
 10
148.5
 20
105.0
 30
0.0
 40
58.6
 50
270.0
 51
350.0
  0
ARC
 62
4
  8
sector3
 10
148.5
 20
105.0
 30
0.0
 40
58.7
 50
270.0
 51
350.0
  0
ARC
 62
4
  8
sector3
 10
148.5
 20
105.0
 30
0.0
 40
58.8
 50
270.0
 51
350.0
  0
ARC
 62
4
  8
sector3
 10
148.5
 20
105.0
 30
0.0
 40
59.0
 50
270.0
 51
350.0
  0
ARC
 62
4
  8
sector3
 10
148.5
 20
105.0
 30
0.0
 40
59.1
 50
270.0
 51
350.0
  0
ARC
 62
4
  8
sector3
 10
148.5
 20
105.0
 30
0.0
 40
59.2
 50
270.0
 51
350.0
  0
ARC
 62
4
  8
sector3
 10
148.5
 20
105.0
 30
0.0
 40
59.3
 50
270.0
 51
350.0
  0
ARC
 62
4
  8
sector3
 10
148.5
 20
105.0
 30
0.0
 40
59.4
 50
270.0
 51
350.0
  0
ARC
 62
4
  8
sector3
 10
148.5
 20
105.0
 30
0.0
 40
59.5
 50
270.0
 51
350.0
  0
ARC
 62
4
  8
sector3
 10
148.5
 20
105.0
 30
0.0
 40
59.6
 50
270.0
 51
350.0
  0
ARC
 62
4
  8
sector3
 10
148.5
 20
105.0
 30
0.0
 40
59.7
 50
270.0
 51
350.0
  0
ARC
 62
4
  8
sector3
 10
148.5
 20
105.0
 30
0.0
 40
59.8
 50
270.0
 51
350.0
  0
ARC
 62
4
  8
sector3
 10
148.5
 20
105.0
 30
0.0
 40
60.0
 50
270.0
 51
350.0
  0
ARC
 62
4
  8
sector3
 10
148.5
 20
105.0
 30
0.0
 40
60.1
 50
270.0
 51
350.0
  0
ARC
 62
4
  8
sector3
 10
148.5
 20
105.0
 30
0.0
 40
60.2
 50
270.0
 51
350.0
  0
ARC
 62
4
  8
sector3
 10
148.5
 20
105.0
 30
0.0
 40
60.3
 50
270.0
 51
350.0
  0
ARC
 62
4
  8
sector3
 10
148.5
 20
105.0
 30
0.0
 40
60.4
 50
270.0
 51
350.0
  0
ARC
 62
4
  8
sector3
 10
148.5
 20
105.0
 30
0.0
 40
60.5
 50
270.0
 51
350.0
  0
ARC
 62
4
  8
sector3
 10
148.5
 20
105.0
 30
0.0
 40
60.6
 50
270.0
 51
350.0
  0
ARC
 62
4
  8
sector3
 10
148.5
 20
105.0
 30
0.0
 40
60.7
 50
270.0
 51
350.0
  0
ARC
 62
4
  8
sector3
 10
148.5
 20
105.0
 30
0.0
 40
60.8
 50
270.0
 51
350.0
  0
ARC
 62
4
  8
sector3
 10
148.5
 20
105.0
 30
0.0
 40
61.0
 50
270.0
 51
350.0
  0
ARC
 62
4
  8
sector3
 10
148.5
 20
105.0
 30
0.0
 40
61.1
 50
270.0
 51
350.0
  0
ARC
 62
4
  8
sector3
 10
148.5
 20
105.0
 30
0.0
 40
61.2
 50
270.0
 51
350.0
  0
ARC
 62
4
  8
sector3
 10
148.5
 20
105.0
 30
0.0
 40
61.3
 50
270.0
 51
350.0
  0
ARC
 62
4
  8
sector3
 10
148.5
 20
105.0
 30
0.0
 40
61.4
 50
270.0
 51
350.0
  0
ARC
 62
4
  8
sector3
 10
148.5
 20
105.0
 30
0.0
 40
61.5
 50
270.0
 51
350.0
  0
ARC
 62
4
  8
sector3
 10
148.5
 20
105.0
 30
0.0
 40
61.6
 50
270.0
 51
350.0
  0
ARC
 62
4
  8
sector3
 10
148.5
 20
105.0
 30
0.0
 40
61.7
 50
270.0
 51
350.0
  0
ARC
 62
4
  8
sector3
 10
148.5
 20
105.0
 30
0.0
 40
61.8
 50
270.0
 51
350.0
  0
ARC
 62
4
  8
sector3
 10
148.5
 20
105.0
 30
0.0
 40
62.0
 50
270.0
 51
350.0
  0
ARC
 62
4
  8
sector3
 10
148.5
 20
105.0
 30
0.0
 40
62.1
 50
270.0
 51
350.0
  0
ARC
 62
4
  8
sector3
 10
148.5
 20
105.0
 30
0.0
 40
62.2
 50
270.0
 51
350.0
  0
ARC
 62
4
  8
sector3
 10
148.5
 20
105.0
 30
0.0
 40
62.3
 50
270.0
 51
350.0
  0
ARC
 62
4
  8
sector3
 10
148.5
 20
105.0
 30
0.0
 40
62.4
 50
270.0
 51
350.0
  0
ARC
 62
4
  8
sector3
 10
148.5
 20
105.0
 30
0.0
 40
62.5
 50
270.0
 51
350.0
  0
ARC
 62
4
  8
sector3
 10
148.5
 20
105.0
 30
0.0
 40
62.6
 50
270.0
 51
350.0
  0
ARC
 62
4
  8
sector3
 10
148.5
 20
105.0
 30
0.0
 40
62.7
 50
270.0
 51
350.0
  0
ARC
 62
4
  8
sector3
 10
148.5
 20
105.0
 30
0.0
 40
62.8
 50
270.0
 51
350.0
  0
ARC
 62
4
  8
sector3
 10
148.5
 20
105.0
 30
0.0
 40
63.0
 50
270.0
 51
350.0
  0
ARC
 62
4
  8
sector3
 10
148.5
 20
105.0
 30
0.0
 40
63.1
 50
270.0
 51
350.0
  0
ARC
 62
4
  8
sector3
 10
148.5
 20
105.0
 30
0.0
 40
63.2
 50
270.0
 51
350.0
  0
ARC
 62
4
  8
sector3
 10
148.5
 20
105.0
 30
0.0
 40
63.3
 50
270.0
 51
350.0
  0
ARC
 62
4
  8
sector3
 10
148.5
 20
105.0
 30
0.0
 40
63.4
 50
270.0
 51
350.0
  0
ARC
 62
4
  8
sector3
 10
148.5
 20
105.0
 30
0.0
 40
63.5
 50
270.0
 51
350.0
  0
ARC
 62
4
  8
sector3
 10
148.5
 20
105.0
 30
0.0
 40
63.6
 50
270.0
 51
350.0
  0
ARC
 62
4
  8
sector3
 10
148.5
 20
105.0
 30
0.0
 40
63.7
 50
270.0
 51
350.0
  0
ARC
 62
4
  8
sector3
 10
148.5
 20
105.0
 30
0.0
 40
63.8
 50
270.0
 51
350.0
  0
ARC
 62
4
  8
sector3
 10
148.5
 20
105.0
 30
0.0
 40
64.0
 50
270.0
 51
350.0
  0
ARC
 62
4
  8
sector3
 10
148.5
 20
105.0
 30
0.0
 40
64.1
 50
270.0
 51
350.0
  0
ARC
 62
4
  8
sector3
 10
148.5
 20
105.0
 30
0.0
 40
64.2
 50
270.0
 51
350.0
  0
ARC
 62
4
  8
sector3
 10
148.5
 20
105.0
 30
0.0
 40
64.3
 50
270.0
 51
350.0
  0
ARC
 62
4
  8
sector3
 10
148.5
 20
105.0
 30
0.0
 40
64.4
 50
270.0
 51
350.0
  0
ARC
 62
4
  8
sector3
 10
148.5
 20
105.0
 30
0.0
 40
64.5
 50
270.0
 51
350.0
  0
ARC
 62
4
  8
sector3
 10
148.5
 20
105.0
 30
0.0
 40
64.6
 50
270.0
 51
350.0
  0
ARC
 62
4
  8
sector3
 10
148.5
 20
105.0
 30
0.0
 40
64.7
 50
270.0
 51
350.0
  0
ARC
 62
4
  8
sector3
 10
148.5
 20
105.0
 30
0.0
 40
64.8
 50
270.0
 51
350.0
  0
ARC
 62
4
  8
sector3
 10
148.5
 20
105.0
 30
0.0
 40
65.0
 50
270.0
 51
350.0
  0
ARC
 62
4
  8
sector3
 10
148.5
 20
105.0
 30
0.0
 40
65.1
 50
270.0
 51
350.0
  0
ARC
 62
4
  8
sector3
 10
148.5
 20
105.0
 30
0.0
 40
65.2
 50
270.0
 51
350.0
  0
ARC
 62
4
  8
sector3
 10
148.5
 20
105.0
 30
0.0
 40
65.3
 50
270.0
 51
350.0
  0
ARC
 62
4
  8
sector3
 10
148.5
 20
105.0
 30
0.0
 40
65.4
 50
270.0
 51
350.0
  0
ARC
 62
4
  8
sector3
 10
148.5
 20
105.0
 30
0.0
 40
65.5
 50
270.0
 51
350.0
  0
ARC
 62
4
  8
sector3
 10
148.5
 20
105.0
 30
0.0
 40
65.6
 50
270.0
 51
350.0
  0
ARC
 62
4
  8
sector3
 10
148.5
 20
105.0
 30
0.0
 40
65.7
 50
270.0
 51
350.0
  0
ARC
 62
4
  8
sector3
 10
148.5
 20
105.0
 30
0.0
 40
65.8
 50
270.0
 51
350.0
  0
ARC
 62
4
  8
sector3
 10
148.5
 20
105.0
 30
0.0
 40
66.0
 50
270.0
 51
350.0
  0
ARC
 62
4
  8
sector3
 10
148.5
 20
105.0
 30
0.0
 40
66.1
 50
270.0
 51
350.0
  0
ARC
 62
4
  8
sector3
 10
148.5
 20
105.0
 30
0.0
 40
66.2
 50
270.0
 51
350.0
  0
ARC
 62
4
  8
sector3
 10
148.5
 20
105.0
 30
0.0
 40
66.3
 50
270.0
 51
350.0
  0
ARC
 62
4
  8
sector3
 10
148.5
 20
105.0
 30
0.0
 40
66.4
 50
270.0
 51
350.0
  0
ARC
 62
4
  8
sector3
 10
148.5
 20
105.0
 30
0.0
 40
66.5
 50
270.0
 51
350.0
  0
ARC
 62
4
  8
sector3
 10
148.5
 20
105.0
 30
0.0
 40
66.6
 50
270.0
 51
350.0
  0
ARC
 62
4
  8
sector3
 10
148.5
 20
105.0
 30
0.0
 40
66.7
 50
270.0
 51
350.0
  0
ARC
 62
4
  8
sector3
 10
148.5
 20
105.0
 30
0.0
 40
66.8
 50
270.0
 51
350.0
  0
ARC
 62
4
  8
sector3
 10
148.5
 20
105.0
 30
0.0
 40
67.0
 50
270.0
 51
350.0
  0
ARC
 62
4
  8
sector3
 10
148.5
 20
105.0
 30
0.0
 40
67.1
 50
270.0
 51
350.0
  0
ARC
 62
4
  8
sector3
 10
148.5
 20
105.0
 30
0.0
 40
67.2
 50
270.0
 51
350.0
  0
ARC
 62
4
  8
sector3
 10
148.5
 20
105.0
 30
0.0
 40
67.3
 50
270.0
 51
350.0
  0
ARC
 62
4
  8
sector3
 10
148.5
 20
105.0
 30
0.0
 40
67.4
 50
270.0
 51
350.0
  0
ARC
 62
4
  8
sector3
 10
148.5
 20
105.0
 30
0.0
 40
67.5
 50
270.0
 51
350.0
  0
ARC
 62
4
  8
sector3
 10
148.5
 20
105.0
 30
0.0
 40
67.6
 50
270.0
 51
350.0
  0
ARC
 62
4
  8
sector3
 10
148.5
 20
105.0
 30
0.0
 40
67.7
 50
270.0
 51
350.0
  0
ARC
 62
4
  8
sector3
 10
148.5
 20
105.0
 30
0.0
 40
67.8
 50
270.0
 51
350.0
  0
ARC
 62
4
  8
sector3
 10
148.5
 20
105.0
 30
0.0
 40
68.0
 50
270.0
 51
350.0
  0
ARC
 62
4
  8
sector3
 10
148.5
 20
105.0
 30
0.0
 40
68.1
 50
270.0
 51
350.0
  0
ARC
 62
4
  8
sector3
 10
148.5
 20
105.0
 30
0.0
 40
68.2
 50
270.0
 51
350.0
  0
ARC
 62
4
  8
sector3
 10
148.5
 20
105.0
 30
0.0
 40
68.3
 50
270.0
 51
350.0
  0
ARC
 62
4
  8
sector3
 10
148.5
 20
105.0
 30
0.0
 40
68.4
 50
270.0
 51
350.0
  0
ARC
 62
4
  8
sector3
 10
148.5
 20
105.0
 30
0.0
 40
68.5
 50
270.0
 51
350.0
  0
ARC
 62
4
  8
sector3
 10
148.5
 20
105.0
 30
0.0
 40
68.6
 50
270.0
 51
350.0
  0
ARC
 62
4
  8
sector3
 10
148.5
 20
105.0
 30
0.0
 40
68.7
 50
270.0
 51
350.0
  0
ARC
 62
4
  8
sector3
 10
148.5
 20
105.0
 30
0.0
 40
68.8
 50
270.0
 51
350.0
  0
ARC
 62
4
  8
sector3
 10
148.5
 20
105.0
 30
0.0
 40
69.0
 50
270.0
 51
350.0
  0
ARC
 62
4
  8
sector3
 10
148.5
 20
105.0
 30
0.0
 40
69.1
 50
270.0
 51
350.0
  0
ARC
 62
4
  8
sector3
 10
148.5
 20
105.0
 30
0.0
 40
69.2
 50
270.0
 51
350.0
  0
ARC
 62
4
  8
sector3
 10
148.5
 20
105.0
 30
0.0
 40
69.3
 50
270.0
 51
350.0
  0
ARC
 62
4
  8
sector3
 10
148.5
 20
105.0
 30
0.0
 40
69.4
 50
270.0
 51
350.0
  0
ARC
 62
4
  8
sector3
 10
148.5
 20
105.0
 30
0.0
 40
69.5
 50
270.0
 51
350.0
  0
ARC
 62
4
  8
sector3
 10
148.5
 20
105.0
 30
0.0
 40
69.6
 50
270.0
 51
350.0
  0
ARC
 62
4
  8
sector3
 10
148.5
 20
105.0
 30
0.0
 40
69.7
 50
270.0
 51
350.0
  0
ARC
 62
4
  8
sector3
 10
148.5
 20
105.0
 30
0.0
 40
69.8
 50
270.0
 51
350.0
  0
TEXT
 62
0
  8
letrasSector3
 10
190.28119462962505
 20
55.20711119726643
 30
0.0
 40
3.0
  1
lugar
 50
220.0
 41
1.0
 51
0.0
  7
STANDARD
 71
0
 72
1
 73
3
 11
190.28119462962505
 21
55.20711119726643
 31
0.0
  0
ARC
 62
5
  8
sector4
 10
148.5
 20
105.0
 30
0.0
 40
40.0
 50
240.0
 51
270.0
  0
ARC
 62
5
  8
sector4
 10
148.5
 20
105.0
 30
0.0
 40
65.0
 50
240.0
 51
270.0
  0
LINE
 62
5
  8
sector4
 10
148.5
 20
65.0
 30
0.0
 11
148.5
 21
40.0
 31
0.0
  0
LINE
 62
5
  8
sector4
 10
128.5
 20
70.35898384862246
 30
0.0
 11
116.0
 21
48.70834875401149
 31
0.0
  0
ARC
 62
5
  8
sector4
 10
148.5
 20
105.0
 30
0.0
 40
40.0
 50
240.0
 51
270.0
  0
ARC
 62
5
  8
sector4
 10
148.5
 20
105.0
 30
0.0
 40
40.1
 50
240.0
 51
270.0
  0
ARC
 62
5
  8
sector4
 10
148.5
 20
105.0
 30
0.0
 40
40.2
 50
240.0
 51
270.0
  0
ARC
 62
5
  8
sector4
 10
148.5
 20
105.0
 30
0.0
 40
40.3
 50
240.0
 51
270.0
  0
ARC
 62
5
  8
sector4
 10
148.5
 20
105.0
 30
0.0
 40
40.4
 50
240.0
 51
270.0
  0
ARC
 62
5
  8
sector4
 10
148.5
 20
105.0
 30
0.0
 40
40.5
 50
240.0
 51
270.0
  0
ARC
 62
5
  8
sector4
 10
148.5
 20
105.0
 30
0.0
 40
40.6
 50
240.0
 51
270.0
  0
ARC
 62
5
  8
sector4
 10
148.5
 20
105.0
 30
0.0
 40
40.7
 50
240.0
 51
270.0
  0
ARC
 62
5
  8
sector4
 10
148.5
 20
105.0
 30
0.0
 40
40.8
 50
240.0
 51
270.0
  0
ARC
 62
5
  8
sector4
 10
148.5
 20
105.0
 30
0.0
 40
41.0
 50
240.0
 51
270.0
  0
ARC
 62
5
  8
sector4
 10
148.5
 20
105.0
 30
0.0
 40
41.1
 50
240.0
 51
270.0
  0
ARC
 62
5
  8
sector4
 10
148.5
 20
105.0
 30
0.0
 40
41.2
 50
240.0
 51
270.0
  0
ARC
 62
5
  8
sector4
 10
148.5
 20
105.0
 30
0.0
 40
41.3
 50
240.0
 51
270.0
  0
ARC
 62
5
  8
sector4
 10
148.5
 20
105.0
 30
0.0
 40
41.4
 50
240.0
 51
270.0
  0
ARC
 62
5
  8
sector4
 10
148.5
 20
105.0
 30
0.0
 40
41.5
 50
240.0
 51
270.0
  0
ARC
 62
5
  8
sector4
 10
148.5
 20
105.0
 30
0.0
 40
41.6
 50
240.0
 51
270.0
  0
ARC
 62
5
  8
sector4
 10
148.5
 20
105.0
 30
0.0
 40
41.7
 50
240.0
 51
270.0
  0
ARC
 62
5
  8
sector4
 10
148.5
 20
105.0
 30
0.0
 40
41.8
 50
240.0
 51
270.0
  0
ARC
 62
5
  8
sector4
 10
148.5
 20
105.0
 30
0.0
 40
42.0
 50
240.0
 51
270.0
  0
ARC
 62
5
  8
sector4
 10
148.5
 20
105.0
 30
0.0
 40
42.1
 50
240.0
 51
270.0
  0
ARC
 62
5
  8
sector4
 10
148.5
 20
105.0
 30
0.0
 40
42.2
 50
240.0
 51
270.0
  0
ARC
 62
5
  8
sector4
 10
148.5
 20
105.0
 30
0.0
 40
42.3
 50
240.0
 51
270.0
  0
ARC
 62
5
  8
sector4
 10
148.5
 20
105.0
 30
0.0
 40
42.4
 50
240.0
 51
270.0
  0
ARC
 62
5
  8
sector4
 10
148.5
 20
105.0
 30
0.0
 40
42.5
 50
240.0
 51
270.0
  0
ARC
 62
5
  8
sector4
 10
148.5
 20
105.0
 30
0.0
 40
42.6
 50
240.0
 51
270.0
  0
ARC
 62
5
  8
sector4
 10
148.5
 20
105.0
 30
0.0
 40
42.7
 50
240.0
 51
270.0
  0
ARC
 62
5
  8
sector4
 10
148.5
 20
105.0
 30
0.0
 40
42.8
 50
240.0
 51
270.0
  0
ARC
 62
5
  8
sector4
 10
148.5
 20
105.0
 30
0.0
 40
43.0
 50
240.0
 51
270.0
  0
ARC
 62
5
  8
sector4
 10
148.5
 20
105.0
 30
0.0
 40
43.1
 50
240.0
 51
270.0
  0
ARC
 62
5
  8
sector4
 10
148.5
 20
105.0
 30
0.0
 40
43.2
 50
240.0
 51
270.0
  0
ARC
 62
5
  8
sector4
 10
148.5
 20
105.0
 30
0.0
 40
43.3
 50
240.0
 51
270.0
  0
ARC
 62
5
  8
sector4
 10
148.5
 20
105.0
 30
0.0
 40
43.4
 50
240.0
 51
270.0
  0
ARC
 62
5
  8
sector4
 10
148.5
 20
105.0
 30
0.0
 40
43.5
 50
240.0
 51
270.0
  0
ARC
 62
5
  8
sector4
 10
148.5
 20
105.0
 30
0.0
 40
43.6
 50
240.0
 51
270.0
  0
ARC
 62
5
  8
sector4
 10
148.5
 20
105.0
 30
0.0
 40
43.7
 50
240.0
 51
270.0
  0
ARC
 62
5
  8
sector4
 10
148.5
 20
105.0
 30
0.0
 40
43.8
 50
240.0
 51
270.0
  0
ARC
 62
5
  8
sector4
 10
148.5
 20
105.0
 30
0.0
 40
44.0
 50
240.0
 51
270.0
  0
ARC
 62
5
  8
sector4
 10
148.5
 20
105.0
 30
0.0
 40
44.1
 50
240.0
 51
270.0
  0
ARC
 62
5
  8
sector4
 10
148.5
 20
105.0
 30
0.0
 40
44.2
 50
240.0
 51
270.0
  0
ARC
 62
5
  8
sector4
 10
148.5
 20
105.0
 30
0.0
 40
44.3
 50
240.0
 51
270.0
  0
ARC
 62
5
  8
sector4
 10
148.5
 20
105.0
 30
0.0
 40
44.4
 50
240.0
 51
270.0
  0
ARC
 62
5
  8
sector4
 10
148.5
 20
105.0
 30
0.0
 40
44.5
 50
240.0
 51
270.0
  0
ARC
 62
5
  8
sector4
 10
148.5
 20
105.0
 30
0.0
 40
44.6
 50
240.0
 51
270.0
  0
ARC
 62
5
  8
sector4
 10
148.5
 20
105.0
 30
0.0
 40
44.7
 50
240.0
 51
270.0
  0
ARC
 62
5
  8
sector4
 10
148.5
 20
105.0
 30
0.0
 40
44.8
 50
240.0
 51
270.0
  0
ARC
 62
5
  8
sector4
 10
148.5
 20
105.0
 30
0.0
 40
45.0
 50
240.0
 51
270.0
  0
ARC
 62
5
  8
sector4
 10
148.5
 20
105.0
 30
0.0
 40
45.1
 50
240.0
 51
270.0
  0
ARC
 62
5
  8
sector4
 10
148.5
 20
105.0
 30
0.0
 40
45.2
 50
240.0
 51
270.0
  0
ARC
 62
5
  8
sector4
 10
148.5
 20
105.0
 30
0.0
 40
45.3
 50
240.0
 51
270.0
  0
ARC
 62
5
  8
sector4
 10
148.5
 20
105.0
 30
0.0
 40
45.4
 50
240.0
 51
270.0
  0
ARC
 62
5
  8
sector4
 10
148.5
 20
105.0
 30
0.0
 40
45.5
 50
240.0
 51
270.0
  0
ARC
 62
5
  8
sector4
 10
148.5
 20
105.0
 30
0.0
 40
45.6
 50
240.0
 51
270.0
  0
ARC
 62
5
  8
sector4
 10
148.5
 20
105.0
 30
0.0
 40
45.7
 50
240.0
 51
270.0
  0
ARC
 62
5
  8
sector4
 10
148.5
 20
105.0
 30
0.0
 40
45.8
 50
240.0
 51
270.0
  0
ARC
 62
5
  8
sector4
 10
148.5
 20
105.0
 30
0.0
 40
46.0
 50
240.0
 51
270.0
  0
ARC
 62
5
  8
sector4
 10
148.5
 20
105.0
 30
0.0
 40
46.1
 50
240.0
 51
270.0
  0
ARC
 62
5
  8
sector4
 10
148.5
 20
105.0
 30
0.0
 40
46.2
 50
240.0
 51
270.0
  0
ARC
 62
5
  8
sector4
 10
148.5
 20
105.0
 30
0.0
 40
46.3
 50
240.0
 51
270.0
  0
ARC
 62
5
  8
sector4
 10
148.5
 20
105.0
 30
0.0
 40
46.4
 50
240.0
 51
270.0
  0
ARC
 62
5
  8
sector4
 10
148.5
 20
105.0
 30
0.0
 40
46.5
 50
240.0
 51
270.0
  0
ARC
 62
5
  8
sector4
 10
148.5
 20
105.0
 30
0.0
 40
46.6
 50
240.0
 51
270.0
  0
ARC
 62
5
  8
sector4
 10
148.5
 20
105.0
 30
0.0
 40
46.7
 50
240.0
 51
270.0
  0
ARC
 62
5
  8
sector4
 10
148.5
 20
105.0
 30
0.0
 40
46.8
 50
240.0
 51
270.0
  0
ARC
 62
5
  8
sector4
 10
148.5
 20
105.0
 30
0.0
 40
47.0
 50
240.0
 51
270.0
  0
ARC
 62
5
  8
sector4
 10
148.5
 20
105.0
 30
0.0
 40
47.1
 50
240.0
 51
270.0
  0
ARC
 62
5
  8
sector4
 10
148.5
 20
105.0
 30
0.0
 40
47.2
 50
240.0
 51
270.0
  0
ARC
 62
5
  8
sector4
 10
148.5
 20
105.0
 30
0.0
 40
47.3
 50
240.0
 51
270.0
  0
ARC
 62
5
  8
sector4
 10
148.5
 20
105.0
 30
0.0
 40
47.4
 50
240.0
 51
270.0
  0
ARC
 62
5
  8
sector4
 10
148.5
 20
105.0
 30
0.0
 40
47.5
 50
240.0
 51
270.0
  0
ARC
 62
5
  8
sector4
 10
148.5
 20
105.0
 30
0.0
 40
47.6
 50
240.0
 51
270.0
  0
ARC
 62
5
  8
sector4
 10
148.5
 20
105.0
 30
0.0
 40
47.7
 50
240.0
 51
270.0
  0
ARC
 62
5
  8
sector4
 10
148.5
 20
105.0
 30
0.0
 40
47.8
 50
240.0
 51
270.0
  0
ARC
 62
5
  8
sector4
 10
148.5
 20
105.0
 30
0.0
 40
48.0
 50
240.0
 51
270.0
  0
ARC
 62
5
  8
sector4
 10
148.5
 20
105.0
 30
0.0
 40
48.1
 50
240.0
 51
270.0
  0
ARC
 62
5
  8
sector4
 10
148.5
 20
105.0
 30
0.0
 40
48.2
 50
240.0
 51
270.0
  0
ARC
 62
5
  8
sector4
 10
148.5
 20
105.0
 30
0.0
 40
48.3
 50
240.0
 51
270.0
  0
ARC
 62
5
  8
sector4
 10
148.5
 20
105.0
 30
0.0
 40
48.4
 50
240.0
 51
270.0
  0
ARC
 62
5
  8
sector4
 10
148.5
 20
105.0
 30
0.0
 40
48.5
 50
240.0
 51
270.0
  0
ARC
 62
5
  8
sector4
 10
148.5
 20
105.0
 30
0.0
 40
48.6
 50
240.0
 51
270.0
  0
ARC
 62
5
  8
sector4
 10
148.5
 20
105.0
 30
0.0
 40
48.7
 50
240.0
 51
270.0
  0
ARC
 62
5
  8
sector4
 10
148.5
 20
105.0
 30
0.0
 40
48.8
 50
240.0
 51
270.0
  0
ARC
 62
5
  8
sector4
 10
148.5
 20
105.0
 30
0.0
 40
49.0
 50
240.0
 51
270.0
  0
ARC
 62
5
  8
sector4
 10
148.5
 20
105.0
 30
0.0
 40
49.1
 50
240.0
 51
270.0
  0
ARC
 62
5
  8
sector4
 10
148.5
 20
105.0
 30
0.0
 40
49.2
 50
240.0
 51
270.0
  0
ARC
 62
5
  8
sector4
 10
148.5
 20
105.0
 30
0.0
 40
49.3
 50
240.0
 51
270.0
  0
ARC
 62
5
  8
sector4
 10
148.5
 20
105.0
 30
0.0
 40
49.4
 50
240.0
 51
270.0
  0
ARC
 62
5
  8
sector4
 10
148.5
 20
105.0
 30
0.0
 40
49.5
 50
240.0
 51
270.0
  0
ARC
 62
5
  8
sector4
 10
148.5
 20
105.0
 30
0.0
 40
49.6
 50
240.0
 51
270.0
  0
ARC
 62
5
  8
sector4
 10
148.5
 20
105.0
 30
0.0
 40
49.7
 50
240.0
 51
270.0
  0
ARC
 62
5
  8
sector4
 10
148.5
 20
105.0
 30
0.0
 40
49.8
 50
240.0
 51
270.0
  0
ARC
 62
5
  8
sector4
 10
148.5
 20
105.0
 30
0.0
 40
50.0
 50
240.0
 51
270.0
  0
ARC
 62
5
  8
sector4
 10
148.5
 20
105.0
 30
0.0
 40
50.1
 50
240.0
 51
270.0
  0
ARC
 62
5
  8
sector4
 10
148.5
 20
105.0
 30
0.0
 40
50.2
 50
240.0
 51
270.0
  0
ARC
 62
5
  8
sector4
 10
148.5
 20
105.0
 30
0.0
 40
50.3
 50
240.0
 51
270.0
  0
ARC
 62
5
  8
sector4
 10
148.5
 20
105.0
 30
0.0
 40
50.4
 50
240.0
 51
270.0
  0
ARC
 62
5
  8
sector4
 10
148.5
 20
105.0
 30
0.0
 40
50.5
 50
240.0
 51
270.0
  0
ARC
 62
5
  8
sector4
 10
148.5
 20
105.0
 30
0.0
 40
50.6
 50
240.0
 51
270.0
  0
ARC
 62
5
  8
sector4
 10
148.5
 20
105.0
 30
0.0
 40
50.7
 50
240.0
 51
270.0
  0
ARC
 62
5
  8
sector4
 10
148.5
 20
105.0
 30
0.0
 40
50.8
 50
240.0
 51
270.0
  0
ARC
 62
5
  8
sector4
 10
148.5
 20
105.0
 30
0.0
 40
51.0
 50
240.0
 51
270.0
  0
ARC
 62
5
  8
sector4
 10
148.5
 20
105.0
 30
0.0
 40
51.1
 50
240.0
 51
270.0
  0
ARC
 62
5
  8
sector4
 10
148.5
 20
105.0
 30
0.0
 40
51.2
 50
240.0
 51
270.0
  0
ARC
 62
5
  8
sector4
 10
148.5
 20
105.0
 30
0.0
 40
51.3
 50
240.0
 51
270.0
  0
ARC
 62
5
  8
sector4
 10
148.5
 20
105.0
 30
0.0
 40
51.4
 50
240.0
 51
270.0
  0
ARC
 62
5
  8
sector4
 10
148.5
 20
105.0
 30
0.0
 40
51.5
 50
240.0
 51
270.0
  0
ARC
 62
5
  8
sector4
 10
148.5
 20
105.0
 30
0.0
 40
51.6
 50
240.0
 51
270.0
  0
ARC
 62
5
  8
sector4
 10
148.5
 20
105.0
 30
0.0
 40
51.7
 50
240.0
 51
270.0
  0
ARC
 62
5
  8
sector4
 10
148.5
 20
105.0
 30
0.0
 40
51.8
 50
240.0
 51
270.0
  0
ARC
 62
5
  8
sector4
 10
148.5
 20
105.0
 30
0.0
 40
52.0
 50
240.0
 51
270.0
  0
ARC
 62
5
  8
sector4
 10
148.5
 20
105.0
 30
0.0
 40
52.1
 50
240.0
 51
270.0
  0
ARC
 62
5
  8
sector4
 10
148.5
 20
105.0
 30
0.0
 40
52.2
 50
240.0
 51
270.0
  0
ARC
 62
5
  8
sector4
 10
148.5
 20
105.0
 30
0.0
 40
52.3
 50
240.0
 51
270.0
  0
ARC
 62
5
  8
sector4
 10
148.5
 20
105.0
 30
0.0
 40
52.4
 50
240.0
 51
270.0
  0
ARC
 62
5
  8
sector4
 10
148.5
 20
105.0
 30
0.0
 40
52.5
 50
240.0
 51
270.0
  0
ARC
 62
5
  8
sector4
 10
148.5
 20
105.0
 30
0.0
 40
52.6
 50
240.0
 51
270.0
  0
ARC
 62
5
  8
sector4
 10
148.5
 20
105.0
 30
0.0
 40
52.7
 50
240.0
 51
270.0
  0
ARC
 62
5
  8
sector4
 10
148.5
 20
105.0
 30
0.0
 40
52.8
 50
240.0
 51
270.0
  0
ARC
 62
5
  8
sector4
 10
148.5
 20
105.0
 30
0.0
 40
53.0
 50
240.0
 51
270.0
  0
ARC
 62
5
  8
sector4
 10
148.5
 20
105.0
 30
0.0
 40
53.1
 50
240.0
 51
270.0
  0
ARC
 62
5
  8
sector4
 10
148.5
 20
105.0
 30
0.0
 40
53.2
 50
240.0
 51
270.0
  0
ARC
 62
5
  8
sector4
 10
148.5
 20
105.0
 30
0.0
 40
53.3
 50
240.0
 51
270.0
  0
ARC
 62
5
  8
sector4
 10
148.5
 20
105.0
 30
0.0
 40
53.4
 50
240.0
 51
270.0
  0
ARC
 62
5
  8
sector4
 10
148.5
 20
105.0
 30
0.0
 40
53.5
 50
240.0
 51
270.0
  0
ARC
 62
5
  8
sector4
 10
148.5
 20
105.0
 30
0.0
 40
53.6
 50
240.0
 51
270.0
  0
ARC
 62
5
  8
sector4
 10
148.5
 20
105.0
 30
0.0
 40
53.7
 50
240.0
 51
270.0
  0
ARC
 62
5
  8
sector4
 10
148.5
 20
105.0
 30
0.0
 40
53.8
 50
240.0
 51
270.0
  0
ARC
 62
5
  8
sector4
 10
148.5
 20
105.0
 30
0.0
 40
54.0
 50
240.0
 51
270.0
  0
ARC
 62
5
  8
sector4
 10
148.5
 20
105.0
 30
0.0
 40
54.1
 50
240.0
 51
270.0
  0
ARC
 62
5
  8
sector4
 10
148.5
 20
105.0
 30
0.0
 40
54.2
 50
240.0
 51
270.0
  0
ARC
 62
5
  8
sector4
 10
148.5
 20
105.0
 30
0.0
 40
54.3
 50
240.0
 51
270.0
  0
ARC
 62
5
  8
sector4
 10
148.5
 20
105.0
 30
0.0
 40
54.4
 50
240.0
 51
270.0
  0
ARC
 62
5
  8
sector4
 10
148.5
 20
105.0
 30
0.0
 40
54.5
 50
240.0
 51
270.0
  0
ARC
 62
5
  8
sector4
 10
148.5
 20
105.0
 30
0.0
 40
54.6
 50
240.0
 51
270.0
  0
ARC
 62
5
  8
sector4
 10
148.5
 20
105.0
 30
0.0
 40
54.7
 50
240.0
 51
270.0
  0
ARC
 62
5
  8
sector4
 10
148.5
 20
105.0
 30
0.0
 40
54.8
 50
240.0
 51
270.0
  0
ARC
 62
5
  8
sector4
 10
148.5
 20
105.0
 30
0.0
 40
55.0
 50
240.0
 51
270.0
  0
ARC
 62
5
  8
sector4
 10
148.5
 20
105.0
 30
0.0
 40
55.1
 50
240.0
 51
270.0
  0
ARC
 62
5
  8
sector4
 10
148.5
 20
105.0
 30
0.0
 40
55.2
 50
240.0
 51
270.0
  0
ARC
 62
5
  8
sector4
 10
148.5
 20
105.0
 30
0.0
 40
55.3
 50
240.0
 51
270.0
  0
ARC
 62
5
  8
sector4
 10
148.5
 20
105.0
 30
0.0
 40
55.4
 50
240.0
 51
270.0
  0
ARC
 62
5
  8
sector4
 10
148.5
 20
105.0
 30
0.0
 40
55.5
 50
240.0
 51
270.0
  0
ARC
 62
5
  8
sector4
 10
148.5
 20
105.0
 30
0.0
 40
55.6
 50
240.0
 51
270.0
  0
ARC
 62
5
  8
sector4
 10
148.5
 20
105.0
 30
0.0
 40
55.7
 50
240.0
 51
270.0
  0
ARC
 62
5
  8
sector4
 10
148.5
 20
105.0
 30
0.0
 40
55.8
 50
240.0
 51
270.0
  0
ARC
 62
5
  8
sector4
 10
148.5
 20
105.0
 30
0.0
 40
56.0
 50
240.0
 51
270.0
  0
ARC
 62
5
  8
sector4
 10
148.5
 20
105.0
 30
0.0
 40
56.1
 50
240.0
 51
270.0
  0
ARC
 62
5
  8
sector4
 10
148.5
 20
105.0
 30
0.0
 40
56.2
 50
240.0
 51
270.0
  0
ARC
 62
5
  8
sector4
 10
148.5
 20
105.0
 30
0.0
 40
56.3
 50
240.0
 51
270.0
  0
ARC
 62
5
  8
sector4
 10
148.5
 20
105.0
 30
0.0
 40
56.4
 50
240.0
 51
270.0
  0
ARC
 62
5
  8
sector4
 10
148.5
 20
105.0
 30
0.0
 40
56.5
 50
240.0
 51
270.0
  0
ARC
 62
5
  8
sector4
 10
148.5
 20
105.0
 30
0.0
 40
56.6
 50
240.0
 51
270.0
  0
ARC
 62
5
  8
sector4
 10
148.5
 20
105.0
 30
0.0
 40
56.7
 50
240.0
 51
270.0
  0
ARC
 62
5
  8
sector4
 10
148.5
 20
105.0
 30
0.0
 40
56.8
 50
240.0
 51
270.0
  0
ARC
 62
5
  8
sector4
 10
148.5
 20
105.0
 30
0.0
 40
57.0
 50
240.0
 51
270.0
  0
ARC
 62
5
  8
sector4
 10
148.5
 20
105.0
 30
0.0
 40
57.1
 50
240.0
 51
270.0
  0
ARC
 62
5
  8
sector4
 10
148.5
 20
105.0
 30
0.0
 40
57.2
 50
240.0
 51
270.0
  0
ARC
 62
5
  8
sector4
 10
148.5
 20
105.0
 30
0.0
 40
57.3
 50
240.0
 51
270.0
  0
ARC
 62
5
  8
sector4
 10
148.5
 20
105.0
 30
0.0
 40
57.4
 50
240.0
 51
270.0
  0
ARC
 62
5
  8
sector4
 10
148.5
 20
105.0
 30
0.0
 40
57.5
 50
240.0
 51
270.0
  0
ARC
 62
5
  8
sector4
 10
148.5
 20
105.0
 30
0.0
 40
57.6
 50
240.0
 51
270.0
  0
ARC
 62
5
  8
sector4
 10
148.5
 20
105.0
 30
0.0
 40
57.7
 50
240.0
 51
270.0
  0
ARC
 62
5
  8
sector4
 10
148.5
 20
105.0
 30
0.0
 40
57.8
 50
240.0
 51
270.0
  0
ARC
 62
5
  8
sector4
 10
148.5
 20
105.0
 30
0.0
 40
58.0
 50
240.0
 51
270.0
  0
ARC
 62
5
  8
sector4
 10
148.5
 20
105.0
 30
0.0
 40
58.1
 50
240.0
 51
270.0
  0
ARC
 62
5
  8
sector4
 10
148.5
 20
105.0
 30
0.0
 40
58.2
 50
240.0
 51
270.0
  0
ARC
 62
5
  8
sector4
 10
148.5
 20
105.0
 30
0.0
 40
58.3
 50
240.0
 51
270.0
  0
ARC
 62
5
  8
sector4
 10
148.5
 20
105.0
 30
0.0
 40
58.4
 50
240.0
 51
270.0
  0
ARC
 62
5
  8
sector4
 10
148.5
 20
105.0
 30
0.0
 40
58.5
 50
240.0
 51
270.0
  0
ARC
 62
5
  8
sector4
 10
148.5
 20
105.0
 30
0.0
 40
58.6
 50
240.0
 51
270.0
  0
ARC
 62
5
  8
sector4
 10
148.5
 20
105.0
 30
0.0
 40
58.7
 50
240.0
 51
270.0
  0
ARC
 62
5
  8
sector4
 10
148.5
 20
105.0
 30
0.0
 40
58.8
 50
240.0
 51
270.0
  0
ARC
 62
5
  8
sector4
 10
148.5
 20
105.0
 30
0.0
 40
59.0
 50
240.0
 51
270.0
  0
ARC
 62
5
  8
sector4
 10
148.5
 20
105.0
 30
0.0
 40
59.1
 50
240.0
 51
270.0
  0
ARC
 62
5
  8
sector4
 10
148.5
 20
105.0
 30
0.0
 40
59.2
 50
240.0
 51
270.0
  0
ARC
 62
5
  8
sector4
 10
148.5
 20
105.0
 30
0.0
 40
59.3
 50
240.0
 51
270.0
  0
ARC
 62
5
  8
sector4
 10
148.5
 20
105.0
 30
0.0
 40
59.4
 50
240.0
 51
270.0
  0
ARC
 62
5
  8
sector4
 10
148.5
 20
105.0
 30
0.0
 40
59.5
 50
240.0
 51
270.0
  0
ARC
 62
5
  8
sector4
 10
148.5
 20
105.0
 30
0.0
 40
59.6
 50
240.0
 51
270.0
  0
ARC
 62
5
  8
sector4
 10
148.5
 20
105.0
 30
0.0
 40
59.7
 50
240.0
 51
270.0
  0
ARC
 62
5
  8
sector4
 10
148.5
 20
105.0
 30
0.0
 40
59.8
 50
240.0
 51
270.0
  0
ARC
 62
5
  8
sector4
 10
148.5
 20
105.0
 30
0.0
 40
60.0
 50
240.0
 51
270.0
  0
ARC
 62
5
  8
sector4
 10
148.5
 20
105.0
 30
0.0
 40
60.1
 50
240.0
 51
270.0
  0
ARC
 62
5
  8
sector4
 10
148.5
 20
105.0
 30
0.0
 40
60.2
 50
240.0
 51
270.0
  0
ARC
 62
5
  8
sector4
 10
148.5
 20
105.0
 30
0.0
 40
60.3
 50
240.0
 51
270.0
  0
ARC
 62
5
  8
sector4
 10
148.5
 20
105.0
 30
0.0
 40
60.4
 50
240.0
 51
270.0
  0
ARC
 62
5
  8
sector4
 10
148.5
 20
105.0
 30
0.0
 40
60.5
 50
240.0
 51
270.0
  0
ARC
 62
5
  8
sector4
 10
148.5
 20
105.0
 30
0.0
 40
60.6
 50
240.0
 51
270.0
  0
ARC
 62
5
  8
sector4
 10
148.5
 20
105.0
 30
0.0
 40
60.7
 50
240.0
 51
270.0
  0
ARC
 62
5
  8
sector4
 10
148.5
 20
105.0
 30
0.0
 40
60.8
 50
240.0
 51
270.0
  0
ARC
 62
5
  8
sector4
 10
148.5
 20
105.0
 30
0.0
 40
61.0
 50
240.0
 51
270.0
  0
ARC
 62
5
  8
sector4
 10
148.5
 20
105.0
 30
0.0
 40
61.1
 50
240.0
 51
270.0
  0
ARC
 62
5
  8
sector4
 10
148.5
 20
105.0
 30
0.0
 40
61.2
 50
240.0
 51
270.0
  0
ARC
 62
5
  8
sector4
 10
148.5
 20
105.0
 30
0.0
 40
61.3
 50
240.0
 51
270.0
  0
ARC
 62
5
  8
sector4
 10
148.5
 20
105.0
 30
0.0
 40
61.4
 50
240.0
 51
270.0
  0
ARC
 62
5
  8
sector4
 10
148.5
 20
105.0
 30
0.0
 40
61.5
 50
240.0
 51
270.0
  0
ARC
 62
5
  8
sector4
 10
148.5
 20
105.0
 30
0.0
 40
61.6
 50
240.0
 51
270.0
  0
ARC
 62
5
  8
sector4
 10
148.5
 20
105.0
 30
0.0
 40
61.7
 50
240.0
 51
270.0
  0
ARC
 62
5
  8
sector4
 10
148.5
 20
105.0
 30
0.0
 40
61.8
 50
240.0
 51
270.0
  0
ARC
 62
5
  8
sector4
 10
148.5
 20
105.0
 30
0.0
 40
62.0
 50
240.0
 51
270.0
  0
ARC
 62
5
  8
sector4
 10
148.5
 20
105.0
 30
0.0
 40
62.1
 50
240.0
 51
270.0
  0
ARC
 62
5
  8
sector4
 10
148.5
 20
105.0
 30
0.0
 40
62.2
 50
240.0
 51
270.0
  0
ARC
 62
5
  8
sector4
 10
148.5
 20
105.0
 30
0.0
 40
62.3
 50
240.0
 51
270.0
  0
ARC
 62
5
  8
sector4
 10
148.5
 20
105.0
 30
0.0
 40
62.4
 50
240.0
 51
270.0
  0
ARC
 62
5
  8
sector4
 10
148.5
 20
105.0
 30
0.0
 40
62.5
 50
240.0
 51
270.0
  0
ARC
 62
5
  8
sector4
 10
148.5
 20
105.0
 30
0.0
 40
62.6
 50
240.0
 51
270.0
  0
ARC
 62
5
  8
sector4
 10
148.5
 20
105.0
 30
0.0
 40
62.7
 50
240.0
 51
270.0
  0
ARC
 62
5
  8
sector4
 10
148.5
 20
105.0
 30
0.0
 40
62.8
 50
240.0
 51
270.0
  0
ARC
 62
5
  8
sector4
 10
148.5
 20
105.0
 30
0.0
 40
63.0
 50
240.0
 51
270.0
  0
ARC
 62
5
  8
sector4
 10
148.5
 20
105.0
 30
0.0
 40
63.1
 50
240.0
 51
270.0
  0
ARC
 62
5
  8
sector4
 10
148.5
 20
105.0
 30
0.0
 40
63.2
 50
240.0
 51
270.0
  0
ARC
 62
5
  8
sector4
 10
148.5
 20
105.0
 30
0.0
 40
63.3
 50
240.0
 51
270.0
  0
ARC
 62
5
  8
sector4
 10
148.5
 20
105.0
 30
0.0
 40
63.4
 50
240.0
 51
270.0
  0
ARC
 62
5
  8
sector4
 10
148.5
 20
105.0
 30
0.0
 40
63.5
 50
240.0
 51
270.0
  0
ARC
 62
5
  8
sector4
 10
148.5
 20
105.0
 30
0.0
 40
63.6
 50
240.0
 51
270.0
  0
ARC
 62
5
  8
sector4
 10
148.5
 20
105.0
 30
0.0
 40
63.7
 50
240.0
 51
270.0
  0
ARC
 62
5
  8
sector4
 10
148.5
 20
105.0
 30
0.0
 40
63.8
 50
240.0
 51
270.0
  0
ARC
 62
5
  8
sector4
 10
148.5
 20
105.0
 30
0.0
 40
64.0
 50
240.0
 51
270.0
  0
ARC
 62
5
  8
sector4
 10
148.5
 20
105.0
 30
0.0
 40
64.1
 50
240.0
 51
270.0
  0
ARC
 62
5
  8
sector4
 10
148.5
 20
105.0
 30
0.0
 40
64.2
 50
240.0
 51
270.0
  0
ARC
 62
5
  8
sector4
 10
148.5
 20
105.0
 30
0.0
 40
64.3
 50
240.0
 51
270.0
  0
ARC
 62
5
  8
sector4
 10
148.5
 20
105.0
 30
0.0
 40
64.4
 50
240.0
 51
270.0
  0
ARC
 62
5
  8
sector4
 10
148.5
 20
105.0
 30
0.0
 40
64.5
 50
240.0
 51
270.0
  0
ARC
 62
5
  8
sector4
 10
148.5
 20
105.0
 30
0.0
 40
64.6
 50
240.0
 51
270.0
  0
ARC
 62
5
  8
sector4
 10
148.5
 20
105.0
 30
0.0
 40
64.7
 50
240.0
 51
270.0
  0
ARC
 62
5
  8
sector4
 10
148.5
 20
105.0
 30
0.0
 40
64.8
 50
240.0
 51
270.0
  0
TEXT
 62
0
  8
letrasSector4
 10
132.97085729384875
 20
47.0444504226559
 30
0.0
 40
3.0
  1
de
 50
165.0
 41
1.0
 51
0.0
  7
STANDARD
 71
0
 72
1
 73
3
 11
132.97085729384875
 21
47.0444504226559
 31
0.0
  0
ARC
 62
6
  8
sector5
 10
148.5
 20
105.0
 30
0.0
 40
40.0
 50
180.0
 51
240.0
  0
ARC
 62
6
  8
sector5
 10
148.5
 20
105.0
 30
0.0
 40
50.0
 50
180.0
 51
240.0
  0
LINE
 62
6
  8
sector5
 10
128.5
 20
70.35898384862246
 30
0.0
 11
123.5
 21
61.69872981077807
 31
0.0
  0
LINE
 62
6
  8
sector5
 10
108.5
 20
105.0
 30
0.0
 11
98.5
 21
105.0
 31
0.0
  0
ARC
 62
6
  8
sector5
 10
148.5
 20
105.0
 30
0.0
 40
40.0
 50
180.0
 51
240.0
  0
ARC
 62
6
  8
sector5
 10
148.5
 20
105.0
 30
0.0
 40
40.1
 50
180.0
 51
240.0
  0
ARC
 62
6
  8
sector5
 10
148.5
 20
105.0
 30
0.0
 40
40.2
 50
180.0
 51
240.0
  0
ARC
 62
6
  8
sector5
 10
148.5
 20
105.0
 30
0.0
 40
40.3
 50
180.0
 51
240.0
  0
ARC
 62
6
  8
sector5
 10
148.5
 20
105.0
 30
0.0
 40
40.4
 50
180.0
 51
240.0
  0
ARC
 62
6
  8
sector5
 10
148.5
 20
105.0
 30
0.0
 40
40.5
 50
180.0
 51
240.0
  0
ARC
 62
6
  8
sector5
 10
148.5
 20
105.0
 30
0.0
 40
40.6
 50
180.0
 51
240.0
  0
ARC
 62
6
  8
sector5
 10
148.5
 20
105.0
 30
0.0
 40
40.7
 50
180.0
 51
240.0
  0
ARC
 62
6
  8
sector5
 10
148.5
 20
105.0
 30
0.0
 40
40.8
 50
180.0
 51
240.0
  0
ARC
 62
6
  8
sector5
 10
148.5
 20
105.0
 30
0.0
 40
41.0
 50
180.0
 51
240.0
  0
ARC
 62
6
  8
sector5
 10
148.5
 20
105.0
 30
0.0
 40
41.1
 50
180.0
 51
240.0
  0
ARC
 62
6
  8
sector5
 10
148.5
 20
105.0
 30
0.0
 40
41.2
 50
180.0
 51
240.0
  0
ARC
 62
6
  8
sector5
 10
148.5
 20
105.0
 30
0.0
 40
41.3
 50
180.0
 51
240.0
  0
ARC
 62
6
  8
sector5
 10
148.5
 20
105.0
 30
0.0
 40
41.4
 50
180.0
 51
240.0
  0
ARC
 62
6
  8
sector5
 10
148.5
 20
105.0
 30
0.0
 40
41.5
 50
180.0
 51
240.0
  0
ARC
 62
6
  8
sector5
 10
148.5
 20
105.0
 30
0.0
 40
41.6
 50
180.0
 51
240.0
  0
ARC
 62
6
  8
sector5
 10
148.5
 20
105.0
 30
0.0
 40
41.7
 50
180.0
 51
240.0
  0
ARC
 62
6
  8
sector5
 10
148.5
 20
105.0
 30
0.0
 40
41.8
 50
180.0
 51
240.0
  0
ARC
 62
6
  8
sector5
 10
148.5
 20
105.0
 30
0.0
 40
42.0
 50
180.0
 51
240.0
  0
ARC
 62
6
  8
sector5
 10
148.5
 20
105.0
 30
0.0
 40
42.1
 50
180.0
 51
240.0
  0
ARC
 62
6
  8
sector5
 10
148.5
 20
105.0
 30
0.0
 40
42.2
 50
180.0
 51
240.0
  0
ARC
 62
6
  8
sector5
 10
148.5
 20
105.0
 30
0.0
 40
42.3
 50
180.0
 51
240.0
  0
ARC
 62
6
  8
sector5
 10
148.5
 20
105.0
 30
0.0
 40
42.4
 50
180.0
 51
240.0
  0
ARC
 62
6
  8
sector5
 10
148.5
 20
105.0
 30
0.0
 40
42.5
 50
180.0
 51
240.0
  0
ARC
 62
6
  8
sector5
 10
148.5
 20
105.0
 30
0.0
 40
42.6
 50
180.0
 51
240.0
  0
ARC
 62
6
  8
sector5
 10
148.5
 20
105.0
 30
0.0
 40
42.7
 50
180.0
 51
240.0
  0
ARC
 62
6
  8
sector5
 10
148.5
 20
105.0
 30
0.0
 40
42.8
 50
180.0
 51
240.0
  0
ARC
 62
6
  8
sector5
 10
148.5
 20
105.0
 30
0.0
 40
43.0
 50
180.0
 51
240.0
  0
ARC
 62
6
  8
sector5
 10
148.5
 20
105.0
 30
0.0
 40
43.1
 50
180.0
 51
240.0
  0
ARC
 62
6
  8
sector5
 10
148.5
 20
105.0
 30
0.0
 40
43.2
 50
180.0
 51
240.0
  0
ARC
 62
6
  8
sector5
 10
148.5
 20
105.0
 30
0.0
 40
43.3
 50
180.0
 51
240.0
  0
ARC
 62
6
  8
sector5
 10
148.5
 20
105.0
 30
0.0
 40
43.4
 50
180.0
 51
240.0
  0
ARC
 62
6
  8
sector5
 10
148.5
 20
105.0
 30
0.0
 40
43.5
 50
180.0
 51
240.0
  0
ARC
 62
6
  8
sector5
 10
148.5
 20
105.0
 30
0.0
 40
43.6
 50
180.0
 51
240.0
  0
ARC
 62
6
  8
sector5
 10
148.5
 20
105.0
 30
0.0
 40
43.7
 50
180.0
 51
240.0
  0
ARC
 62
6
  8
sector5
 10
148.5
 20
105.0
 30
0.0
 40
43.8
 50
180.0
 51
240.0
  0
ARC
 62
6
  8
sector5
 10
148.5
 20
105.0
 30
0.0
 40
44.0
 50
180.0
 51
240.0
  0
ARC
 62
6
  8
sector5
 10
148.5
 20
105.0
 30
0.0
 40
44.1
 50
180.0
 51
240.0
  0
ARC
 62
6
  8
sector5
 10
148.5
 20
105.0
 30
0.0
 40
44.2
 50
180.0
 51
240.0
  0
ARC
 62
6
  8
sector5
 10
148.5
 20
105.0
 30
0.0
 40
44.3
 50
180.0
 51
240.0
  0
ARC
 62
6
  8
sector5
 10
148.5
 20
105.0
 30
0.0
 40
44.4
 50
180.0
 51
240.0
  0
ARC
 62
6
  8
sector5
 10
148.5
 20
105.0
 30
0.0
 40
44.5
 50
180.0
 51
240.0
  0
ARC
 62
6
  8
sector5
 10
148.5
 20
105.0
 30
0.0
 40
44.6
 50
180.0
 51
240.0
  0
ARC
 62
6
  8
sector5
 10
148.5
 20
105.0
 30
0.0
 40
44.7
 50
180.0
 51
240.0
  0
ARC
 62
6
  8
sector5
 10
148.5
 20
105.0
 30
0.0
 40
44.8
 50
180.0
 51
240.0
  0
ARC
 62
6
  8
sector5
 10
148.5
 20
105.0
 30
0.0
 40
45.0
 50
180.0
 51
240.0
  0
ARC
 62
6
  8
sector5
 10
148.5
 20
105.0
 30
0.0
 40
45.1
 50
180.0
 51
240.0
  0
ARC
 62
6
  8
sector5
 10
148.5
 20
105.0
 30
0.0
 40
45.2
 50
180.0
 51
240.0
  0
ARC
 62
6
  8
sector5
 10
148.5
 20
105.0
 30
0.0
 40
45.3
 50
180.0
 51
240.0
  0
ARC
 62
6
  8
sector5
 10
148.5
 20
105.0
 30
0.0
 40
45.4
 50
180.0
 51
240.0
  0
ARC
 62
6
  8
sector5
 10
148.5
 20
105.0
 30
0.0
 40
45.5
 50
180.0
 51
240.0
  0
ARC
 62
6
  8
sector5
 10
148.5
 20
105.0
 30
0.0
 40
45.6
 50
180.0
 51
240.0
  0
ARC
 62
6
  8
sector5
 10
148.5
 20
105.0
 30
0.0
 40
45.7
 50
180.0
 51
240.0
  0
ARC
 62
6
  8
sector5
 10
148.5
 20
105.0
 30
0.0
 40
45.8
 50
180.0
 51
240.0
  0
ARC
 62
6
  8
sector5
 10
148.5
 20
105.0
 30
0.0
 40
46.0
 50
180.0
 51
240.0
  0
ARC
 62
6
  8
sector5
 10
148.5
 20
105.0
 30
0.0
 40
46.1
 50
180.0
 51
240.0
  0
ARC
 62
6
  8
sector5
 10
148.5
 20
105.0
 30
0.0
 40
46.2
 50
180.0
 51
240.0
  0
ARC
 62
6
  8
sector5
 10
148.5
 20
105.0
 30
0.0
 40
46.3
 50
180.0
 51
240.0
  0
ARC
 62
6
  8
sector5
 10
148.5
 20
105.0
 30
0.0
 40
46.4
 50
180.0
 51
240.0
  0
ARC
 62
6
  8
sector5
 10
148.5
 20
105.0
 30
0.0
 40
46.5
 50
180.0
 51
240.0
  0
ARC
 62
6
  8
sector5
 10
148.5
 20
105.0
 30
0.0
 40
46.6
 50
180.0
 51
240.0
  0
ARC
 62
6
  8
sector5
 10
148.5
 20
105.0
 30
0.0
 40
46.7
 50
180.0
 51
240.0
  0
ARC
 62
6
  8
sector5
 10
148.5
 20
105.0
 30
0.0
 40
46.8
 50
180.0
 51
240.0
  0
ARC
 62
6
  8
sector5
 10
148.5
 20
105.0
 30
0.0
 40
47.0
 50
180.0
 51
240.0
  0
ARC
 62
6
  8
sector5
 10
148.5
 20
105.0
 30
0.0
 40
47.1
 50
180.0
 51
240.0
  0
ARC
 62
6
  8
sector5
 10
148.5
 20
105.0
 30
0.0
 40
47.2
 50
180.0
 51
240.0
  0
ARC
 62
6
  8
sector5
 10
148.5
 20
105.0
 30
0.0
 40
47.3
 50
180.0
 51
240.0
  0
ARC
 62
6
  8
sector5
 10
148.5
 20
105.0
 30
0.0
 40
47.4
 50
180.0
 51
240.0
  0
ARC
 62
6
  8
sector5
 10
148.5
 20
105.0
 30
0.0
 40
47.5
 50
180.0
 51
240.0
  0
ARC
 62
6
  8
sector5
 10
148.5
 20
105.0
 30
0.0
 40
47.6
 50
180.0
 51
240.0
  0
ARC
 62
6
  8
sector5
 10
148.5
 20
105.0
 30
0.0
 40
47.7
 50
180.0
 51
240.0
  0
ARC
 62
6
  8
sector5
 10
148.5
 20
105.0
 30
0.0
 40
47.8
 50
180.0
 51
240.0
  0
ARC
 62
6
  8
sector5
 10
148.5
 20
105.0
 30
0.0
 40
48.0
 50
180.0
 51
240.0
  0
ARC
 62
6
  8
sector5
 10
148.5
 20
105.0
 30
0.0
 40
48.1
 50
180.0
 51
240.0
  0
ARC
 62
6
  8
sector5
 10
148.5
 20
105.0
 30
0.0
 40
48.2
 50
180.0
 51
240.0
  0
ARC
 62
6
  8
sector5
 10
148.5
 20
105.0
 30
0.0
 40
48.3
 50
180.0
 51
240.0
  0
ARC
 62
6
  8
sector5
 10
148.5
 20
105.0
 30
0.0
 40
48.4
 50
180.0
 51
240.0
  0
ARC
 62
6
  8
sector5
 10
148.5
 20
105.0
 30
0.0
 40
48.5
 50
180.0
 51
240.0
  0
ARC
 62
6
  8
sector5
 10
148.5
 20
105.0
 30
0.0
 40
48.6
 50
180.0
 51
240.0
  0
ARC
 62
6
  8
sector5
 10
148.5
 20
105.0
 30
0.0
 40
48.7
 50
180.0
 51
240.0
  0
ARC
 62
6
  8
sector5
 10
148.5
 20
105.0
 30
0.0
 40
48.8
 50
180.0
 51
240.0
  0
ARC
 62
6
  8
sector5
 10
148.5
 20
105.0
 30
0.0
 40
49.0
 50
180.0
 51
240.0
  0
ARC
 62
6
  8
sector5
 10
148.5
 20
105.0
 30
0.0
 40
49.1
 50
180.0
 51
240.0
  0
ARC
 62
6
  8
sector5
 10
148.5
 20
105.0
 30
0.0
 40
49.2
 50
180.0
 51
240.0
  0
ARC
 62
6
  8
sector5
 10
148.5
 20
105.0
 30
0.0
 40
49.3
 50
180.0
 51
240.0
  0
ARC
 62
6
  8
sector5
 10
148.5
 20
105.0
 30
0.0
 40
49.4
 50
180.0
 51
240.0
  0
ARC
 62
6
  8
sector5
 10
148.5
 20
105.0
 30
0.0
 40
49.5
 50
180.0
 51
240.0
  0
ARC
 62
6
  8
sector5
 10
148.5
 20
105.0
 30
0.0
 40
49.6
 50
180.0
 51
240.0
  0
ARC
 62
6
  8
sector5
 10
148.5
 20
105.0
 30
0.0
 40
49.7
 50
180.0
 51
240.0
  0
ARC
 62
6
  8
sector5
 10
148.5
 20
105.0
 30
0.0
 40
49.8
 50
180.0
 51
240.0
  0
TEXT
 62
0
  8
letrasSector5
 10
109.52885682970026
 20
82.5
 30
0.0
 40
3.0
  1
la
 50
120.0
 41
1.0
 51
0.0
  7
STANDARD
 71
0
 72
1
 73
3
 11
109.52885682970026
 21
82.5
 31
0.0
  0
ARC
 62
8
  8
sector6
 10
148.5
 20
105.0
 30
0.0
 40
40.0
 50
90.0
 51
180.0
  0
ARC
 62
8
  8
sector6
 10
148.5
 20
105.0
 30
0.0
 40
75.0
 50
90.0
 51
180.0
  0
LINE
 62
8
  8
sector6
 10
108.5
 20
105.0
 30
0.0
 11
73.5
 21
105.0
 31
0.0
  0
LINE
 62
8
  8
sector6
 10
148.5
 20
145.0
 30
0.0
 11
148.5
 21
180.0
 31
0.0
  0
ARC
 62
8
  8
sector6
 10
148.5
 20
105.0
 30
0.0
 40
40.0
 50
90.0
 51
180.0
  0
ARC
 62
8
  8
sector6
 10
148.5
 20
105.0
 30
0.0
 40
40.1
 50
90.0
 51
180.0
  0
ARC
 62
8
  8
sector6
 10
148.5
 20
105.0
 30
0.0
 40
40.2
 50
90.0
 51
180.0
  0
ARC
 62
8
  8
sector6
 10
148.5
 20
105.0
 30
0.0
 40
40.3
 50
90.0
 51
180.0
  0
ARC
 62
8
  8
sector6
 10
148.5
 20
105.0
 30
0.0
 40
40.4
 50
90.0
 51
180.0
  0
ARC
 62
8
  8
sector6
 10
148.5
 20
105.0
 30
0.0
 40
40.5
 50
90.0
 51
180.0
  0
ARC
 62
8
  8
sector6
 10
148.5
 20
105.0
 30
0.0
 40
40.6
 50
90.0
 51
180.0
  0
ARC
 62
8
  8
sector6
 10
148.5
 20
105.0
 30
0.0
 40
40.7
 50
90.0
 51
180.0
  0
ARC
 62
8
  8
sector6
 10
148.5
 20
105.0
 30
0.0
 40
40.8
 50
90.0
 51
180.0
  0
ARC
 62
8
  8
sector6
 10
148.5
 20
105.0
 30
0.0
 40
41.0
 50
90.0
 51
180.0
  0
ARC
 62
8
  8
sector6
 10
148.5
 20
105.0
 30
0.0
 40
41.1
 50
90.0
 51
180.0
  0
ARC
 62
8
  8
sector6
 10
148.5
 20
105.0
 30
0.0
 40
41.2
 50
90.0
 51
180.0
  0
ARC
 62
8
  8
sector6
 10
148.5
 20
105.0
 30
0.0
 40
41.3
 50
90.0
 51
180.0
  0
ARC
 62
8
  8
sector6
 10
148.5
 20
105.0
 30
0.0
 40
41.4
 50
90.0
 51
180.0
  0
ARC
 62
8
  8
sector6
 10
148.5
 20
105.0
 30
0.0
 40
41.5
 50
90.0
 51
180.0
  0
ARC
 62
8
  8
sector6
 10
148.5
 20
105.0
 30
0.0
 40
41.6
 50
90.0
 51
180.0
  0
ARC
 62
8
  8
sector6
 10
148.5
 20
105.0
 30
0.0
 40
41.7
 50
90.0
 51
180.0
  0
ARC
 62
8
  8
sector6
 10
148.5
 20
105.0
 30
0.0
 40
41.8
 50
90.0
 51
180.0
  0
ARC
 62
8
  8
sector6
 10
148.5
 20
105.0
 30
0.0
 40
42.0
 50
90.0
 51
180.0
  0
ARC
 62
8
  8
sector6
 10
148.5
 20
105.0
 30
0.0
 40
42.1
 50
90.0
 51
180.0
  0
ARC
 62
8
  8
sector6
 10
148.5
 20
105.0
 30
0.0
 40
42.2
 50
90.0
 51
180.0
  0
ARC
 62
8
  8
sector6
 10
148.5
 20
105.0
 30
0.0
 40
42.3
 50
90.0
 51
180.0
  0
ARC
 62
8
  8
sector6
 10
148.5
 20
105.0
 30
0.0
 40
42.4
 50
90.0
 51
180.0
  0
ARC
 62
8
  8
sector6
 10
148.5
 20
105.0
 30
0.0
 40
42.5
 50
90.0
 51
180.0
  0
ARC
 62
8
  8
sector6
 10
148.5
 20
105.0
 30
0.0
 40
42.6
 50
90.0
 51
180.0
  0
ARC
 62
8
  8
sector6
 10
148.5
 20
105.0
 30
0.0
 40
42.7
 50
90.0
 51
180.0
  0
ARC
 62
8
  8
sector6
 10
148.5
 20
105.0
 30
0.0
 40
42.8
 50
90.0
 51
180.0
  0
ARC
 62
8
  8
sector6
 10
148.5
 20
105.0
 30
0.0
 40
43.0
 50
90.0
 51
180.0
  0
ARC
 62
8
  8
sector6
 10
148.5
 20
105.0
 30
0.0
 40
43.1
 50
90.0
 51
180.0
  0
ARC
 62
8
  8
sector6
 10
148.5
 20
105.0
 30
0.0
 40
43.2
 50
90.0
 51
180.0
  0
ARC
 62
8
  8
sector6
 10
148.5
 20
105.0
 30
0.0
 40
43.3
 50
90.0
 51
180.0
  0
ARC
 62
8
  8
sector6
 10
148.5
 20
105.0
 30
0.0
 40
43.4
 50
90.0
 51
180.0
  0
ARC
 62
8
  8
sector6
 10
148.5
 20
105.0
 30
0.0
 40
43.5
 50
90.0
 51
180.0
  0
ARC
 62
8
  8
sector6
 10
148.5
 20
105.0
 30
0.0
 40
43.6
 50
90.0
 51
180.0
  0
ARC
 62
8
  8
sector6
 10
148.5
 20
105.0
 30
0.0
 40
43.7
 50
90.0
 51
180.0
  0
ARC
 62
8
  8
sector6
 10
148.5
 20
105.0
 30
0.0
 40
43.8
 50
90.0
 51
180.0
  0
ARC
 62
8
  8
sector6
 10
148.5
 20
105.0
 30
0.0
 40
44.0
 50
90.0
 51
180.0
  0
ARC
 62
8
  8
sector6
 10
148.5
 20
105.0
 30
0.0
 40
44.1
 50
90.0
 51
180.0
  0
ARC
 62
8
  8
sector6
 10
148.5
 20
105.0
 30
0.0
 40
44.2
 50
90.0
 51
180.0
  0
ARC
 62
8
  8
sector6
 10
148.5
 20
105.0
 30
0.0
 40
44.3
 50
90.0
 51
180.0
  0
ARC
 62
8
  8
sector6
 10
148.5
 20
105.0
 30
0.0
 40
44.4
 50
90.0
 51
180.0
  0
ARC
 62
8
  8
sector6
 10
148.5
 20
105.0
 30
0.0
 40
44.5
 50
90.0
 51
180.0
  0
ARC
 62
8
  8
sector6
 10
148.5
 20
105.0
 30
0.0
 40
44.6
 50
90.0
 51
180.0
  0
ARC
 62
8
  8
sector6
 10
148.5
 20
105.0
 30
0.0
 40
44.7
 50
90.0
 51
180.0
  0
ARC
 62
8
  8
sector6
 10
148.5
 20
105.0
 30
0.0
 40
44.8
 50
90.0
 51
180.0
  0
ARC
 62
8
  8
sector6
 10
148.5
 20
105.0
 30
0.0
 40
45.0
 50
90.0
 51
180.0
  0
ARC
 62
8
  8
sector6
 10
148.5
 20
105.0
 30
0.0
 40
45.1
 50
90.0
 51
180.0
  0
ARC
 62
8
  8
sector6
 10
148.5
 20
105.0
 30
0.0
 40
45.2
 50
90.0
 51
180.0
  0
ARC
 62
8
  8
sector6
 10
148.5
 20
105.0
 30
0.0
 40
45.3
 50
90.0
 51
180.0
  0
ARC
 62
8
  8
sector6
 10
148.5
 20
105.0
 30
0.0
 40
45.4
 50
90.0
 51
180.0
  0
ARC
 62
8
  8
sector6
 10
148.5
 20
105.0
 30
0.0
 40
45.5
 50
90.0
 51
180.0
  0
ARC
 62
8
  8
sector6
 10
148.5
 20
105.0
 30
0.0
 40
45.6
 50
90.0
 51
180.0
  0
ARC
 62
8
  8
sector6
 10
148.5
 20
105.0
 30
0.0
 40
45.7
 50
90.0
 51
180.0
  0
ARC
 62
8
  8
sector6
 10
148.5
 20
105.0
 30
0.0
 40
45.8
 50
90.0
 51
180.0
  0
ARC
 62
8
  8
sector6
 10
148.5
 20
105.0
 30
0.0
 40
46.0
 50
90.0
 51
180.0
  0
ARC
 62
8
  8
sector6
 10
148.5
 20
105.0
 30
0.0
 40
46.1
 50
90.0
 51
180.0
  0
ARC
 62
8
  8
sector6
 10
148.5
 20
105.0
 30
0.0
 40
46.2
 50
90.0
 51
180.0
  0
ARC
 62
8
  8
sector6
 10
148.5
 20
105.0
 30
0.0
 40
46.3
 50
90.0
 51
180.0
  0
ARC
 62
8
  8
sector6
 10
148.5
 20
105.0
 30
0.0
 40
46.4
 50
90.0
 51
180.0
  0
ARC
 62
8
  8
sector6
 10
148.5
 20
105.0
 30
0.0
 40
46.5
 50
90.0
 51
180.0
  0
ARC
 62
8
  8
sector6
 10
148.5
 20
105.0
 30
0.0
 40
46.6
 50
90.0
 51
180.0
  0
ARC
 62
8
  8
sector6
 10
148.5
 20
105.0
 30
0.0
 40
46.7
 50
90.0
 51
180.0
  0
ARC
 62
8
  8
sector6
 10
148.5
 20
105.0
 30
0.0
 40
46.8
 50
90.0
 51
180.0
  0
ARC
 62
8
  8
sector6
 10
148.5
 20
105.0
 30
0.0
 40
47.0
 50
90.0
 51
180.0
  0
ARC
 62
8
  8
sector6
 10
148.5
 20
105.0
 30
0.0
 40
47.1
 50
90.0
 51
180.0
  0
ARC
 62
8
  8
sector6
 10
148.5
 20
105.0
 30
0.0
 40
47.2
 50
90.0
 51
180.0
  0
ARC
 62
8
  8
sector6
 10
148.5
 20
105.0
 30
0.0
 40
47.3
 50
90.0
 51
180.0
  0
ARC
 62
8
  8
sector6
 10
148.5
 20
105.0
 30
0.0
 40
47.4
 50
90.0
 51
180.0
  0
ARC
 62
8
  8
sector6
 10
148.5
 20
105.0
 30
0.0
 40
47.5
 50
90.0
 51
180.0
  0
ARC
 62
8
  8
sector6
 10
148.5
 20
105.0
 30
0.0
 40
47.6
 50
90.0
 51
180.0
  0
ARC
 62
8
  8
sector6
 10
148.5
 20
105.0
 30
0.0
 40
47.7
 50
90.0
 51
180.0
  0
ARC
 62
8
  8
sector6
 10
148.5
 20
105.0
 30
0.0
 40
47.8
 50
90.0
 51
180.0
  0
ARC
 62
8
  8
sector6
 10
148.5
 20
105.0
 30
0.0
 40
48.0
 50
90.0
 51
180.0
  0
ARC
 62
8
  8
sector6
 10
148.5
 20
105.0
 30
0.0
 40
48.1
 50
90.0
 51
180.0
  0
ARC
 62
8
  8
sector6
 10
148.5
 20
105.0
 30
0.0
 40
48.2
 50
90.0
 51
180.0
  0
ARC
 62
8
  8
sector6
 10
148.5
 20
105.0
 30
0.0
 40
48.3
 50
90.0
 51
180.0
  0
ARC
 62
8
  8
sector6
 10
148.5
 20
105.0
 30
0.0
 40
48.4
 50
90.0
 51
180.0
  0
ARC
 62
8
  8
sector6
 10
148.5
 20
105.0
 30
0.0
 40
48.5
 50
90.0
 51
180.0
  0
ARC
 62
8
  8
sector6
 10
148.5
 20
105.0
 30
0.0
 40
48.6
 50
90.0
 51
180.0
  0
ARC
 62
8
  8
sector6
 10
148.5
 20
105.0
 30
0.0
 40
48.7
 50
90.0
 51
180.0
  0
ARC
 62
8
  8
sector6
 10
148.5
 20
105.0
 30
0.0
 40
48.8
 50
90.0
 51
180.0
  0
ARC
 62
8
  8
sector6
 10
148.5
 20
105.0
 30
0.0
 40
49.0
 50
90.0
 51
180.0
  0
ARC
 62
8
  8
sector6
 10
148.5
 20
105.0
 30
0.0
 40
49.1
 50
90.0
 51
180.0
  0
ARC
 62
8
  8
sector6
 10
148.5
 20
105.0
 30
0.0
 40
49.2
 50
90.0
 51
180.0
  0
ARC
 62
8
  8
sector6
 10
148.5
 20
105.0
 30
0.0
 40
49.3
 50
90.0
 51
180.0
  0
ARC
 62
8
  8
sector6
 10
148.5
 20
105.0
 30
0.0
 40
49.4
 50
90.0
 51
180.0
  0
ARC
 62
8
  8
sector6
 10
148.5
 20
105.0
 30
0.0
 40
49.5
 50
90.0
 51
180.0
  0
ARC
 62
8
  8
sector6
 10
148.5
 20
105.0
 30
0.0
 40
49.6
 50
90.0
 51
180.0
  0
ARC
 62
8
  8
sector6
 10
148.5
 20
105.0
 30
0.0
 40
49.7
 50
90.0
 51
180.0
  0
ARC
 62
8
  8
sector6
 10
148.5
 20
105.0
 30
0.0
 40
49.8
 50
90.0
 51
180.0
  0
ARC
 62
8
  8
sector6
 10
148.5
 20
105.0
 30
0.0
 40
50.0
 50
90.0
 51
180.0
  0
ARC
 62
8
  8
sector6
 10
148.5
 20
105.0
 30
0.0
 40
50.1
 50
90.0
 51
180.0
  0
ARC
 62
8
  8
sector6
 10
148.5
 20
105.0
 30
0.0
 40
50.2
 50
90.0
 51
180.0
  0
ARC
 62
8
  8
sector6
 10
148.5
 20
105.0
 30
0.0
 40
50.3
 50
90.0
 51
180.0
  0
ARC
 62
8
  8
sector6
 10
148.5
 20
105.0
 30
0.0
 40
50.4
 50
90.0
 51
180.0
  0
ARC
 62
8
  8
sector6
 10
148.5
 20
105.0
 30
0.0
 40
50.5
 50
90.0
 51
180.0
  0
ARC
 62
8
  8
sector6
 10
148.5
 20
105.0
 30
0.0
 40
50.6
 50
90.0
 51
180.0
  0
ARC
 62
8
  8
sector6
 10
148.5
 20
105.0
 30
0.0
 40
50.7
 50
90.0
 51
180.0
  0
ARC
 62
8
  8
sector6
 10
148.5
 20
105.0
 30
0.0
 40
50.8
 50
90.0
 51
180.0
  0
ARC
 62
8
  8
sector6
 10
148.5
 20
105.0
 30
0.0
 40
51.0
 50
90.0
 51
180.0
  0
ARC
 62
8
  8
sector6
 10
148.5
 20
105.0
 30
0.0
 40
51.1
 50
90.0
 51
180.0
  0
ARC
 62
8
  8
sector6
 10
148.5
 20
105.0
 30
0.0
 40
51.2
 50
90.0
 51
180.0
  0
ARC
 62
8
  8
sector6
 10
148.5
 20
105.0
 30
0.0
 40
51.3
 50
90.0
 51
180.0
  0
ARC
 62
8
  8
sector6
 10
148.5
 20
105.0
 30
0.0
 40
51.4
 50
90.0
 51
180.0
  0
ARC
 62
8
  8
sector6
 10
148.5
 20
105.0
 30
0.0
 40
51.5
 50
90.0
 51
180.0
  0
ARC
 62
8
  8
sector6
 10
148.5
 20
105.0
 30
0.0
 40
51.6
 50
90.0
 51
180.0
  0
ARC
 62
8
  8
sector6
 10
148.5
 20
105.0
 30
0.0
 40
51.7
 50
90.0
 51
180.0
  0
ARC
 62
8
  8
sector6
 10
148.5
 20
105.0
 30
0.0
 40
51.8
 50
90.0
 51
180.0
  0
ARC
 62
8
  8
sector6
 10
148.5
 20
105.0
 30
0.0
 40
52.0
 50
90.0
 51
180.0
  0
ARC
 62
8
  8
sector6
 10
148.5
 20
105.0
 30
0.0
 40
52.1
 50
90.0
 51
180.0
  0
ARC
 62
8
  8
sector6
 10
148.5
 20
105.0
 30
0.0
 40
52.2
 50
90.0
 51
180.0
  0
ARC
 62
8
  8
sector6
 10
148.5
 20
105.0
 30
0.0
 40
52.3
 50
90.0
 51
180.0
  0
ARC
 62
8
  8
sector6
 10
148.5
 20
105.0
 30
0.0
 40
52.4
 50
90.0
 51
180.0
  0
ARC
 62
8
  8
sector6
 10
148.5
 20
105.0
 30
0.0
 40
52.5
 50
90.0
 51
180.0
  0
ARC
 62
8
  8
sector6
 10
148.5
 20
105.0
 30
0.0
 40
52.6
 50
90.0
 51
180.0
  0
ARC
 62
8
  8
sector6
 10
148.5
 20
105.0
 30
0.0
 40
52.7
 50
90.0
 51
180.0
  0
ARC
 62
8
  8
sector6
 10
148.5
 20
105.0
 30
0.0
 40
52.8
 50
90.0
 51
180.0
  0
ARC
 62
8
  8
sector6
 10
148.5
 20
105.0
 30
0.0
 40
53.0
 50
90.0
 51
180.0
  0
ARC
 62
8
  8
sector6
 10
148.5
 20
105.0
 30
0.0
 40
53.1
 50
90.0
 51
180.0
  0
ARC
 62
8
  8
sector6
 10
148.5
 20
105.0
 30
0.0
 40
53.2
 50
90.0
 51
180.0
  0
ARC
 62
8
  8
sector6
 10
148.5
 20
105.0
 30
0.0
 40
53.3
 50
90.0
 51
180.0
  0
ARC
 62
8
  8
sector6
 10
148.5
 20
105.0
 30
0.0
 40
53.4
 50
90.0
 51
180.0
  0
ARC
 62
8
  8
sector6
 10
148.5
 20
105.0
 30
0.0
 40
53.5
 50
90.0
 51
180.0
  0
ARC
 62
8
  8
sector6
 10
148.5
 20
105.0
 30
0.0
 40
53.6
 50
90.0
 51
180.0
  0
ARC
 62
8
  8
sector6
 10
148.5
 20
105.0
 30
0.0
 40
53.7
 50
90.0
 51
180.0
  0
ARC
 62
8
  8
sector6
 10
148.5
 20
105.0
 30
0.0
 40
53.8
 50
90.0
 51
180.0
  0
ARC
 62
8
  8
sector6
 10
148.5
 20
105.0
 30
0.0
 40
54.0
 50
90.0
 51
180.0
  0
ARC
 62
8
  8
sector6
 10
148.5
 20
105.0
 30
0.0
 40
54.1
 50
90.0
 51
180.0
  0
ARC
 62
8
  8
sector6
 10
148.5
 20
105.0
 30
0.0
 40
54.2
 50
90.0
 51
180.0
  0
ARC
 62
8
  8
sector6
 10
148.5
 20
105.0
 30
0.0
 40
54.3
 50
90.0
 51
180.0
  0
ARC
 62
8
  8
sector6
 10
148.5
 20
105.0
 30
0.0
 40
54.4
 50
90.0
 51
180.0
  0
ARC
 62
8
  8
sector6
 10
148.5
 20
105.0
 30
0.0
 40
54.5
 50
90.0
 51
180.0
  0
ARC
 62
8
  8
sector6
 10
148.5
 20
105.0
 30
0.0
 40
54.6
 50
90.0
 51
180.0
  0
ARC
 62
8
  8
sector6
 10
148.5
 20
105.0
 30
0.0
 40
54.7
 50
90.0
 51
180.0
  0
ARC
 62
8
  8
sector6
 10
148.5
 20
105.0
 30
0.0
 40
54.8
 50
90.0
 51
180.0
  0
ARC
 62
8
  8
sector6
 10
148.5
 20
105.0
 30
0.0
 40
55.0
 50
90.0
 51
180.0
  0
ARC
 62
8
  8
sector6
 10
148.5
 20
105.0
 30
0.0
 40
55.1
 50
90.0
 51
180.0
  0
ARC
 62
8
  8
sector6
 10
148.5
 20
105.0
 30
0.0
 40
55.2
 50
90.0
 51
180.0
  0
ARC
 62
8
  8
sector6
 10
148.5
 20
105.0
 30
0.0
 40
55.3
 50
90.0
 51
180.0
  0
ARC
 62
8
  8
sector6
 10
148.5
 20
105.0
 30
0.0
 40
55.4
 50
90.0
 51
180.0
  0
ARC
 62
8
  8
sector6
 10
148.5
 20
105.0
 30
0.0
 40
55.5
 50
90.0
 51
180.0
  0
ARC
 62
8
  8
sector6
 10
148.5
 20
105.0
 30
0.0
 40
55.6
 50
90.0
 51
180.0
  0
ARC
 62
8
  8
sector6
 10
148.5
 20
105.0
 30
0.0
 40
55.7
 50
90.0
 51
180.0
  0
ARC
 62
8
  8
sector6
 10
148.5
 20
105.0
 30
0.0
 40
55.8
 50
90.0
 51
180.0
  0
ARC
 62
8
  8
sector6
 10
148.5
 20
105.0
 30
0.0
 40
56.0
 50
90.0
 51
180.0
  0
ARC
 62
8
  8
sector6
 10
148.5
 20
105.0
 30
0.0
 40
56.1
 50
90.0
 51
180.0
  0
ARC
 62
8
  8
sector6
 10
148.5
 20
105.0
 30
0.0
 40
56.2
 50
90.0
 51
180.0
  0
ARC
 62
8
  8
sector6
 10
148.5
 20
105.0
 30
0.0
 40
56.3
 50
90.0
 51
180.0
  0
ARC
 62
8
  8
sector6
 10
148.5
 20
105.0
 30
0.0
 40
56.4
 50
90.0
 51
180.0
  0
ARC
 62
8
  8
sector6
 10
148.5
 20
105.0
 30
0.0
 40
56.5
 50
90.0
 51
180.0
  0
ARC
 62
8
  8
sector6
 10
148.5
 20
105.0
 30
0.0
 40
56.6
 50
90.0
 51
180.0
  0
ARC
 62
8
  8
sector6
 10
148.5
 20
105.0
 30
0.0
 40
56.7
 50
90.0
 51
180.0
  0
ARC
 62
8
  8
sector6
 10
148.5
 20
105.0
 30
0.0
 40
56.8
 50
90.0
 51
180.0
  0
ARC
 62
8
  8
sector6
 10
148.5
 20
105.0
 30
0.0
 40
57.0
 50
90.0
 51
180.0
  0
ARC
 62
8
  8
sector6
 10
148.5
 20
105.0
 30
0.0
 40
57.1
 50
90.0
 51
180.0
  0
ARC
 62
8
  8
sector6
 10
148.5
 20
105.0
 30
0.0
 40
57.2
 50
90.0
 51
180.0
  0
ARC
 62
8
  8
sector6
 10
148.5
 20
105.0
 30
0.0
 40
57.3
 50
90.0
 51
180.0
  0
ARC
 62
8
  8
sector6
 10
148.5
 20
105.0
 30
0.0
 40
57.4
 50
90.0
 51
180.0
  0
ARC
 62
8
  8
sector6
 10
148.5
 20
105.0
 30
0.0
 40
57.5
 50
90.0
 51
180.0
  0
ARC
 62
8
  8
sector6
 10
148.5
 20
105.0
 30
0.0
 40
57.6
 50
90.0
 51
180.0
  0
ARC
 62
8
  8
sector6
 10
148.5
 20
105.0
 30
0.0
 40
57.7
 50
90.0
 51
180.0
  0
ARC
 62
8
  8
sector6
 10
148.5
 20
105.0
 30
0.0
 40
57.8
 50
90.0
 51
180.0
  0
ARC
 62
8
  8
sector6
 10
148.5
 20
105.0
 30
0.0
 40
58.0
 50
90.0
 51
180.0
  0
ARC
 62
8
  8
sector6
 10
148.5
 20
105.0
 30
0.0
 40
58.1
 50
90.0
 51
180.0
  0
ARC
 62
8
  8
sector6
 10
148.5
 20
105.0
 30
0.0
 40
58.2
 50
90.0
 51
180.0
  0
ARC
 62
8
  8
sector6
 10
148.5
 20
105.0
 30
0.0
 40
58.3
 50
90.0
 51
180.0
  0
ARC
 62
8
  8
sector6
 10
148.5
 20
105.0
 30
0.0
 40
58.4
 50
90.0
 51
180.0
  0
ARC
 62
8
  8
sector6
 10
148.5
 20
105.0
 30
0.0
 40
58.5
 50
90.0
 51
180.0
  0
ARC
 62
8
  8
sector6
 10
148.5
 20
105.0
 30
0.0
 40
58.6
 50
90.0
 51
180.0
  0
ARC
 62
8
  8
sector6
 10
148.5
 20
105.0
 30
0.0
 40
58.7
 50
90.0
 51
180.0
  0
ARC
 62
8
  8
sector6
 10
148.5
 20
105.0
 30
0.0
 40
58.8
 50
90.0
 51
180.0
  0
ARC
 62
8
  8
sector6
 10
148.5
 20
105.0
 30
0.0
 40
59.0
 50
90.0
 51
180.0
  0
ARC
 62
8
  8
sector6
 10
148.5
 20
105.0
 30
0.0
 40
59.1
 50
90.0
 51
180.0
  0
ARC
 62
8
  8
sector6
 10
148.5
 20
105.0
 30
0.0
 40
59.2
 50
90.0
 51
180.0
  0
ARC
 62
8
  8
sector6
 10
148.5
 20
105.0
 30
0.0
 40
59.3
 50
90.0
 51
180.0
  0
ARC
 62
8
  8
sector6
 10
148.5
 20
105.0
 30
0.0
 40
59.4
 50
90.0
 51
180.0
  0
ARC
 62
8
  8
sector6
 10
148.5
 20
105.0
 30
0.0
 40
59.5
 50
90.0
 51
180.0
  0
ARC
 62
8
  8
sector6
 10
148.5
 20
105.0
 30
0.0
 40
59.6
 50
90.0
 51
180.0
  0
ARC
 62
8
  8
sector6
 10
148.5
 20
105.0
 30
0.0
 40
59.7
 50
90.0
 51
180.0
  0
ARC
 62
8
  8
sector6
 10
148.5
 20
105.0
 30
0.0
 40
59.8
 50
90.0
 51
180.0
  0
ARC
 62
8
  8
sector6
 10
148.5
 20
105.0
 30
0.0
 40
60.0
 50
90.0
 51
180.0
  0
ARC
 62
8
  8
sector6
 10
148.5
 20
105.0
 30
0.0
 40
60.1
 50
90.0
 51
180.0
  0
ARC
 62
8
  8
sector6
 10
148.5
 20
105.0
 30
0.0
 40
60.2
 50
90.0
 51
180.0
  0
ARC
 62
8
  8
sector6
 10
148.5
 20
105.0
 30
0.0
 40
60.3
 50
90.0
 51
180.0
  0
ARC
 62
8
  8
sector6
 10
148.5
 20
105.0
 30
0.0
 40
60.4
 50
90.0
 51
180.0
  0
ARC
 62
8
  8
sector6
 10
148.5
 20
105.0
 30
0.0
 40
60.5
 50
90.0
 51
180.0
  0
ARC
 62
8
  8
sector6
 10
148.5
 20
105.0
 30
0.0
 40
60.6
 50
90.0
 51
180.0
  0
ARC
 62
8
  8
sector6
 10
148.5
 20
105.0
 30
0.0
 40
60.7
 50
90.0
 51
180.0
  0
ARC
 62
8
  8
sector6
 10
148.5
 20
105.0
 30
0.0
 40
60.8
 50
90.0
 51
180.0
  0
ARC
 62
8
  8
sector6
 10
148.5
 20
105.0
 30
0.0
 40
61.0
 50
90.0
 51
180.0
  0
ARC
 62
8
  8
sector6
 10
148.5
 20
105.0
 30
0.0
 40
61.1
 50
90.0
 51
180.0
  0
ARC
 62
8
  8
sector6
 10
148.5
 20
105.0
 30
0.0
 40
61.2
 50
90.0
 51
180.0
  0
ARC
 62
8
  8
sector6
 10
148.5
 20
105.0
 30
0.0
 40
61.3
 50
90.0
 51
180.0
  0
ARC
 62
8
  8
sector6
 10
148.5
 20
105.0
 30
0.0
 40
61.4
 50
90.0
 51
180.0
  0
ARC
 62
8
  8
sector6
 10
148.5
 20
105.0
 30
0.0
 40
61.5
 50
90.0
 51
180.0
  0
ARC
 62
8
  8
sector6
 10
148.5
 20
105.0
 30
0.0
 40
61.6
 50
90.0
 51
180.0
  0
ARC
 62
8
  8
sector6
 10
148.5
 20
105.0
 30
0.0
 40
61.7
 50
90.0
 51
180.0
  0
ARC
 62
8
  8
sector6
 10
148.5
 20
105.0
 30
0.0
 40
61.8
 50
90.0
 51
180.0
  0
ARC
 62
8
  8
sector6
 10
148.5
 20
105.0
 30
0.0
 40
62.0
 50
90.0
 51
180.0
  0
ARC
 62
8
  8
sector6
 10
148.5
 20
105.0
 30
0.0
 40
62.1
 50
90.0
 51
180.0
  0
ARC
 62
8
  8
sector6
 10
148.5
 20
105.0
 30
0.0
 40
62.2
 50
90.0
 51
180.0
  0
ARC
 62
8
  8
sector6
 10
148.5
 20
105.0
 30
0.0
 40
62.3
 50
90.0
 51
180.0
  0
ARC
 62
8
  8
sector6
 10
148.5
 20
105.0
 30
0.0
 40
62.4
 50
90.0
 51
180.0
  0
ARC
 62
8
  8
sector6
 10
148.5
 20
105.0
 30
0.0
 40
62.5
 50
90.0
 51
180.0
  0
ARC
 62
8
  8
sector6
 10
148.5
 20
105.0
 30
0.0
 40
62.6
 50
90.0
 51
180.0
  0
ARC
 62
8
  8
sector6
 10
148.5
 20
105.0
 30
0.0
 40
62.7
 50
90.0
 51
180.0
  0
ARC
 62
8
  8
sector6
 10
148.5
 20
105.0
 30
0.0
 40
62.8
 50
90.0
 51
180.0
  0
ARC
 62
8
  8
sector6
 10
148.5
 20
105.0
 30
0.0
 40
63.0
 50
90.0
 51
180.0
  0
ARC
 62
8
  8
sector6
 10
148.5
 20
105.0
 30
0.0
 40
63.1
 50
90.0
 51
180.0
  0
ARC
 62
8
  8
sector6
 10
148.5
 20
105.0
 30
0.0
 40
63.2
 50
90.0
 51
180.0
  0
ARC
 62
8
  8
sector6
 10
148.5
 20
105.0
 30
0.0
 40
63.3
 50
90.0
 51
180.0
  0
ARC
 62
8
  8
sector6
 10
148.5
 20
105.0
 30
0.0
 40
63.4
 50
90.0
 51
180.0
  0
ARC
 62
8
  8
sector6
 10
148.5
 20
105.0
 30
0.0
 40
63.5
 50
90.0
 51
180.0
  0
ARC
 62
8
  8
sector6
 10
148.5
 20
105.0
 30
0.0
 40
63.6
 50
90.0
 51
180.0
  0
ARC
 62
8
  8
sector6
 10
148.5
 20
105.0
 30
0.0
 40
63.7
 50
90.0
 51
180.0
  0
ARC
 62
8
  8
sector6
 10
148.5
 20
105.0
 30
0.0
 40
63.8
 50
90.0
 51
180.0
  0
ARC
 62
8
  8
sector6
 10
148.5
 20
105.0
 30
0.0
 40
64.0
 50
90.0
 51
180.0
  0
ARC
 62
8
  8
sector6
 10
148.5
 20
105.0
 30
0.0
 40
64.1
 50
90.0
 51
180.0
  0
ARC
 62
8
  8
sector6
 10
148.5
 20
105.0
 30
0.0
 40
64.2
 50
90.0
 51
180.0
  0
ARC
 62
8
  8
sector6
 10
148.5
 20
105.0
 30
0.0
 40
64.3
 50
90.0
 51
180.0
  0
ARC
 62
8
  8
sector6
 10
148.5
 20
105.0
 30
0.0
 40
64.4
 50
90.0
 51
180.0
  0
ARC
 62
8
  8
sector6
 10
148.5
 20
105.0
 30
0.0
 40
64.5
 50
90.0
 51
180.0
  0
ARC
 62
8
  8
sector6
 10
148.5
 20
105.0
 30
0.0
 40
64.6
 50
90.0
 51
180.0
  0
ARC
 62
8
  8
sector6
 10
148.5
 20
105.0
 30
0.0
 40
64.7
 50
90.0
 51
180.0
  0
ARC
 62
8
  8
sector6
 10
148.5
 20
105.0
 30
0.0
 40
64.8
 50
90.0
 51
180.0
  0
ARC
 62
8
  8
sector6
 10
148.5
 20
105.0
 30
0.0
 40
65.0
 50
90.0
 51
180.0
  0
ARC
 62
8
  8
sector6
 10
148.5
 20
105.0
 30
0.0
 40
65.1
 50
90.0
 51
180.0
  0
ARC
 62
8
  8
sector6
 10
148.5
 20
105.0
 30
0.0
 40
65.2
 50
90.0
 51
180.0
  0
ARC
 62
8
  8
sector6
 10
148.5
 20
105.0
 30
0.0
 40
65.3
 50
90.0
 51
180.0
  0
ARC
 62
8
  8
sector6
 10
148.5
 20
105.0
 30
0.0
 40
65.4
 50
90.0
 51
180.0
  0
ARC
 62
8
  8
sector6
 10
148.5
 20
105.0
 30
0.0
 40
65.5
 50
90.0
 51
180.0
  0
ARC
 62
8
  8
sector6
 10
148.5
 20
105.0
 30
0.0
 40
65.6
 50
90.0
 51
180.0
  0
ARC
 62
8
  8
sector6
 10
148.5
 20
105.0
 30
0.0
 40
65.7
 50
90.0
 51
180.0
  0
ARC
 62
8
  8
sector6
 10
148.5
 20
105.0
 30
0.0
 40
65.8
 50
90.0
 51
180.0
  0
ARC
 62
8
  8
sector6
 10
148.5
 20
105.0
 30
0.0
 40
66.0
 50
90.0
 51
180.0
  0
ARC
 62
8
  8
sector6
 10
148.5
 20
105.0
 30
0.0
 40
66.1
 50
90.0
 51
180.0
  0
ARC
 62
8
  8
sector6
 10
148.5
 20
105.0
 30
0.0
 40
66.2
 50
90.0
 51
180.0
  0
ARC
 62
8
  8
sector6
 10
148.5
 20
105.0
 30
0.0
 40
66.3
 50
90.0
 51
180.0
  0
ARC
 62
8
  8
sector6
 10
148.5
 20
105.0
 30
0.0
 40
66.4
 50
90.0
 51
180.0
  0
ARC
 62
8
  8
sector6
 10
148.5
 20
105.0
 30
0.0
 40
66.5
 50
90.0
 51
180.0
  0
ARC
 62
8
  8
sector6
 10
148.5
 20
105.0
 30
0.0
 40
66.6
 50
90.0
 51
180.0
  0
ARC
 62
8
  8
sector6
 10
148.5
 20
105.0
 30
0.0
 40
66.7
 50
90.0
 51
180.0
  0
ARC
 62
8
  8
sector6
 10
148.5
 20
105.0
 30
0.0
 40
66.8
 50
90.0
 51
180.0
  0
ARC
 62
8
  8
sector6
 10
148.5
 20
105.0
 30
0.0
 40
67.0
 50
90.0
 51
180.0
  0
ARC
 62
8
  8
sector6
 10
148.5
 20
105.0
 30
0.0
 40
67.1
 50
90.0
 51
180.0
  0
ARC
 62
8
  8
sector6
 10
148.5
 20
105.0
 30
0.0
 40
67.2
 50
90.0
 51
180.0
  0
ARC
 62
8
  8
sector6
 10
148.5
 20
105.0
 30
0.0
 40
67.3
 50
90.0
 51
180.0
  0
ARC
 62
8
  8
sector6
 10
148.5
 20
105.0
 30
0.0
 40
67.4
 50
90.0
 51
180.0
  0
ARC
 62
8
  8
sector6
 10
148.5
 20
105.0
 30
0.0
 40
67.5
 50
90.0
 51
180.0
  0
ARC
 62
8
  8
sector6
 10
148.5
 20
105.0
 30
0.0
 40
67.6
 50
90.0
 51
180.0
  0
ARC
 62
8
  8
sector6
 10
148.5
 20
105.0
 30
0.0
 40
67.7
 50
90.0
 51
180.0
  0
ARC
 62
8
  8
sector6
 10
148.5
 20
105.0
 30
0.0
 40
67.8
 50
90.0
 51
180.0
  0
ARC
 62
8
  8
sector6
 10
148.5
 20
105.0
 30
0.0
 40
68.0
 50
90.0
 51
180.0
  0
ARC
 62
8
  8
sector6
 10
148.5
 20
105.0
 30
0.0
 40
68.1
 50
90.0
 51
180.0
  0
ARC
 62
8
  8
sector6
 10
148.5
 20
105.0
 30
0.0
 40
68.2
 50
90.0
 51
180.0
  0
ARC
 62
8
  8
sector6
 10
148.5
 20
105.0
 30
0.0
 40
68.3
 50
90.0
 51
180.0
  0
ARC
 62
8
  8
sector6
 10
148.5
 20
105.0
 30
0.0
 40
68.4
 50
90.0
 51
180.0
  0
ARC
 62
8
  8
sector6
 10
148.5
 20
105.0
 30
0.0
 40
68.5
 50
90.0
 51
180.0
  0
ARC
 62
8
  8
sector6
 10
148.5
 20
105.0
 30
0.0
 40
68.6
 50
90.0
 51
180.0
  0
ARC
 62
8
  8
sector6
 10
148.5
 20
105.0
 30
0.0
 40
68.7
 50
90.0
 51
180.0
  0
ARC
 62
8
  8
sector6
 10
148.5
 20
105.0
 30
0.0
 40
68.8
 50
90.0
 51
180.0
  0
ARC
 62
8
  8
sector6
 10
148.5
 20
105.0
 30
0.0
 40
69.0
 50
90.0
 51
180.0
  0
ARC
 62
8
  8
sector6
 10
148.5
 20
105.0
 30
0.0
 40
69.1
 50
90.0
 51
180.0
  0
ARC
 62
8
  8
sector6
 10
148.5
 20
105.0
 30
0.0
 40
69.2
 50
90.0
 51
180.0
  0
ARC
 62
8
  8
sector6
 10
148.5
 20
105.0
 30
0.0
 40
69.3
 50
90.0
 51
180.0
  0
ARC
 62
8
  8
sector6
 10
148.5
 20
105.0
 30
0.0
 40
69.4
 50
90.0
 51
180.0
  0
ARC
 62
8
  8
sector6
 10
148.5
 20
105.0
 30
0.0
 40
69.5
 50
90.0
 51
180.0
  0
ARC
 62
8
  8
sector6
 10
148.5
 20
105.0
 30
0.0
 40
69.6
 50
90.0
 51
180.0
  0
ARC
 62
8
  8
sector6
 10
148.5
 20
105.0
 30
0.0
 40
69.7
 50
90.0
 51
180.0
  0
ARC
 62
8
  8
sector6
 10
148.5
 20
105.0
 30
0.0
 40
69.8
 50
90.0
 51
180.0
  0
ARC
 62
8
  8
sector6
 10
148.5
 20
105.0
 30
0.0
 40
70.0
 50
90.0
 51
180.0
  0
ARC
 62
8
  8
sector6
 10
148.5
 20
105.0
 30
0.0
 40
70.1
 50
90.0
 51
180.0
  0
ARC
 62
8
  8
sector6
 10
148.5
 20
105.0
 30
0.0
 40
70.2
 50
90.0
 51
180.0
  0
ARC
 62
8
  8
sector6
 10
148.5
 20
105.0
 30
0.0
 40
70.3
 50
90.0
 51
180.0
  0
ARC
 62
8
  8
sector6
 10
148.5
 20
105.0
 30
0.0
 40
70.4
 50
90.0
 51
180.0
  0
ARC
 62
8
  8
sector6
 10
148.5
 20
105.0
 30
0.0
 40
70.5
 50
90.0
 51
180.0
  0
ARC
 62
8
  8
sector6
 10
148.5
 20
105.0
 30
0.0
 40
70.6
 50
90.0
 51
180.0
  0
ARC
 62
8
  8
sector6
 10
148.5
 20
105.0
 30
0.0
 40
70.7
 50
90.0
 51
180.0
  0
ARC
 62
8
  8
sector6
 10
148.5
 20
105.0
 30
0.0
 40
70.8
 50
90.0
 51
180.0
  0
ARC
 62
8
  8
sector6
 10
148.5
 20
105.0
 30
0.0
 40
71.0
 50
90.0
 51
180.0
  0
ARC
 62
8
  8
sector6
 10
148.5
 20
105.0
 30
0.0
 40
71.1
 50
90.0
 51
180.0
  0
ARC
 62
8
  8
sector6
 10
148.5
 20
105.0
 30
0.0
 40
71.2
 50
90.0
 51
180.0
  0
ARC
 62
8
  8
sector6
 10
148.5
 20
105.0
 30
0.0
 40
71.3
 50
90.0
 51
180.0
  0
ARC
 62
8
  8
sector6
 10
148.5
 20
105.0
 30
0.0
 40
71.4
 50
90.0
 51
180.0
  0
ARC
 62
8
  8
sector6
 10
148.5
 20
105.0
 30
0.0
 40
71.5
 50
90.0
 51
180.0
  0
ARC
 62
8
  8
sector6
 10
148.5
 20
105.0
 30
0.0
 40
71.6
 50
90.0
 51
180.0
  0
ARC
 62
8
  8
sector6
 10
148.5
 20
105.0
 30
0.0
 40
71.7
 50
90.0
 51
180.0
  0
ARC
 62
8
  8
sector6
 10
148.5
 20
105.0
 30
0.0
 40
71.8
 50
90.0
 51
180.0
  0
ARC
 62
8
  8
sector6
 10
148.5
 20
105.0
 30
0.0
 40
72.0
 50
90.0
 51
180.0
  0
ARC
 62
8
  8
sector6
 10
148.5
 20
105.0
 30
0.0
 40
72.1
 50
90.0
 51
180.0
  0
ARC
 62
8
  8
sector6
 10
148.5
 20
105.0
 30
0.0
 40
72.2
 50
90.0
 51
180.0
  0
ARC
 62
8
  8
sector6
 10
148.5
 20
105.0
 30
0.0
 40
72.3
 50
90.0
 51
180.0
  0
ARC
 62
8
  8
sector6
 10
148.5
 20
105.0
 30
0.0
 40
72.4
 50
90.0
 51
180.0
  0
ARC
 62
8
  8
sector6
 10
148.5
 20
105.0
 30
0.0
 40
72.5
 50
90.0
 51
180.0
  0
ARC
 62
8
  8
sector6
 10
148.5
 20
105.0
 30
0.0
 40
72.6
 50
90.0
 51
180.0
  0
ARC
 62
8
  8
sector6
 10
148.5
 20
105.0
 30
0.0
 40
72.7
 50
90.0
 51
180.0
  0
ARC
 62
8
  8
sector6
 10
148.5
 20
105.0
 30
0.0
 40
72.8
 50
90.0
 51
180.0
  0
ARC
 62
8
  8
sector6
 10
148.5
 20
105.0
 30
0.0
 40
73.0
 50
90.0
 51
180.0
  0
ARC
 62
8
  8
sector6
 10
148.5
 20
105.0
 30
0.0
 40
73.1
 50
90.0
 51
180.0
  0
ARC
 62
8
  8
sector6
 10
148.5
 20
105.0
 30
0.0
 40
73.2
 50
90.0
 51
180.0
  0
ARC
 62
8
  8
sector6
 10
148.5
 20
105.0
 30
0.0
 40
73.3
 50
90.0
 51
180.0
  0
ARC
 62
8
  8
sector6
 10
148.5
 20
105.0
 30
0.0
 40
73.4
 50
90.0
 51
180.0
  0
ARC
 62
8
  8
sector6
 10
148.5
 20
105.0
 30
0.0
 40
73.5
 50
90.0
 51
180.0
  0
ARC
 62
8
  8
sector6
 10
148.5
 20
105.0
 30
0.0
 40
73.6
 50
90.0
 51
180.0
  0
ARC
 62
8
  8
sector6
 10
148.5
 20
105.0
 30
0.0
 40
73.7
 50
90.0
 51
180.0
  0
ARC
 62
8
  8
sector6
 10
148.5
 20
105.0
 30
0.0
 40
73.8
 50
90.0
 51
180.0
  0
ARC
 62
8
  8
sector6
 10
148.5
 20
105.0
 30
0.0
 40
74.0
 50
90.0
 51
180.0
  0
ARC
 62
8
  8
sector6
 10
148.5
 20
105.0
 30
0.0
 40
74.1
 50
90.0
 51
180.0
  0
ARC
 62
8
  8
sector6
 10
148.5
 20
105.0
 30
0.0
 40
74.2
 50
90.0
 51
180.0
  0
ARC
 62
8
  8
sector6
 10
148.5
 20
105.0
 30
0.0
 40
74.3
 50
90.0
 51
180.0
  0
ARC
 62
8
  8
sector6
 10
148.5
 20
105.0
 30
0.0
 40
74.4
 50
90.0
 51
180.0
  0
ARC
 62
8
  8
sector6
 10
148.5
 20
105.0
 30
0.0
 40
74.5
 50
90.0
 51
180.0
  0
ARC
 62
8
  8
sector6
 10
148.5
 20
105.0
 30
0.0
 40
74.6
 50
90.0
 51
180.0
  0
ARC
 62
8
  8
sector6
 10
148.5
 20
105.0
 30
0.0
 40
74.7
 50
90.0
 51
180.0
  0
ARC
 62
8
  8
sector6
 10
148.5
 20
105.0
 30
0.0
 40
74.8
 50
90.0
 51
180.0
  0
TEXT
 62
0
  8
letrasSector6
 10
99.00252531694167
 20
154.49747468305833
 30
0.0
 40
3.0
  1
mancha
 50
45.0
 41
1.0
 51
0.0
  7
STANDARD
 71
0
 72
1
 73
3
 11
99.00252531694167
 21
154.49747468305833
 31
0.0
  0
LINE
 62
0
  8
Guias
 10
148.5
 20
105.0
 30
0.0
 11
261.6370849898476
 21
218.1370849898476
 31
0.0
  0
LINE
 62
0
  8
Guias
 10
148.5
 20
105.0
 30
0.0
 11
306.0692404819533
 21
132.78370842670884
 31
0.0
  0
LINE
 62
0
  8
Guias
 10
148.5
 20
105.0
 30
0.0
 11
251.3460175498463
 21
-17.56711089903648
 31
0.0
  0
LINE
 62
0
  8
Guias
 10
148.5
 20
105.0
 30
0.0
 11
107.08895278359668
 21
-49.548132206250926
 31
0.0
  0
LINE
 62
0
  8
Guias
 10
148.5
 20
105.0
 30
0.0
 11
9.935935394489803
 21
25.000000000000014
 31
0.0
  0
LINE
 62
0
  8
Guias
 10
148.5
 20
105.0
 30
0.0
 11
35.36291501015239
 21
218.1370849898476
 31
0.0
  0
ENDSEC
  0
EOF
