  0
SECTION
  2
HEADER
  9
$EXTMIN
 10
0.0
 20
0.0
 30
0.0
  9
$INSBASE
 10
0.0
 20
0.0
 30
0.0
  9
$EXTMAX
 10
100.0
 20
100.0
 30
0.0
  9
$ACADVER
  1
AC1009
  0
ENDSEC
  0
SECTION
  2
TABLES
  0
TABLE
  2
LTYPE
 70
19
  0
LTYPE
  2
DASHDOT
 70
0
  3
Dash dot __ . __ . __ . __ . __ . __ . __ . __
 72
65
 73
4
 40
1.4
 49
1.0
 49
-0.2
 49
0.0
 49
-0.2
  0
LTYPE
  2
CENTERX2
 70
0
  3
Center (2x) ________  __  ________  __  ________
 72
65
 73
4
 40
3.5
 49
2.5
 49
-0.25
 49
0.5
 49
-0.25
  0
LTYPE
  2
DASHEDX2
 70
0
  3
Dashed (2x) ____  ____  ____  ____  ____  ____
 72
65
 73
2
 40
1.2
 49
1.0
 49
-0.2
  0
LTYPE
  2
DASHDOT2
 70
0
  3
Dash dot (.5x) _ . _ . _ . _ . _ . _ . _ . _
 72
65
 73
4
 40
0.7
 49
0.5
 49
-0.1
 49
0.0
 49
-0.1
  0
LTYPE
  2
PHANTOM2
 70
0
  3
Phantom (.5x) ___ _ _ ___ _ _ ___ _ _ ___ _ _ ___
 72
65
 73
6
 40
1.25
 49
0.625
 49
-0.125
 49
0.125
 49
-0.125
 49
0.125
 49
-0.125
  0
LTYPE
  2
DOT
 70
0
  3
Dot .  .  .  .  .  .  .  .  .  .  .  .  .  .  .  .
 72
65
 73
2
 40
0.2
 49
0.0
 49
-0.2
  0
LTYPE
  2
DASHED2
 70
0
  3
Dashed (.5x) _ _ _ _ _ _ _ _ _ _ _ _ _ _
 72
65
 73
2
 40
0.3
 49
0.25
 49
-0.05
  0
LTYPE
  2
CONTINUOUS
 70
0
  3
Solid
 72
65
 73
0
 40
0.0
  0
LTYPE
  2
DASHDOTX2
 70
0
  3
Dash dot (2x) ____  .  ____  .  ____  .  ____
 72
65
 73
4
 40
2.4
 49
2.0
 49
-0.2
 49
0.0
 49
-0.2
  0
LTYPE
  2
PHANTOMX2
 70
0
  3
Phantom (2x)____________    ____    ____    ____________
 72
65
 73
6
 40
4.25
 49
2.5
 49
-0.25
 49
0.5
 49
-0.25
 49
0.5
 49
-0.25
  0
LTYPE
  2
DIVIDE
 70
0
  3
Divide __ . . __ . . __ . . __ . . __ . . __
 72
65
 73
6
 40
1.6
 49
1.0
 49
-0.2
 49
0.0
 49
-0.2
 49
0.0
 49
-0.2
  0
LTYPE
  2
DASHED
 70
0
  3
Dashed __ __ __ __ __ __ __ __ __ __ __ __ __ _
 72
65
 73
2
 40
0.6
 49
0.5
 49
-0.1
  0
LTYPE
  2
DIVIDE2
 70
0
  3
Divide(.5x) _ . _ . _ . _ . _ . _ . _ . _
 72
65
 73
6
 40
0.8
 49
0.5
 49
-0.1
 49
0.0
 49
-0.1
 49
0.0
 49
-0.1
  0
LTYPE
  2
CENTER
 70
0
  3
Center ____ _ ____ _ ____ _ ____ _ ____ _ ____
 72
65
 73
4
 40
2.0
 49
1.25
 49
-0.25
 49
0.25
 49
-0.25
  0
LTYPE
  2
CENTER2
 70
0
  3
Center (.5x) ____ _ ____ _ ____ _ ____ _ ____
 72
65
 73
4
 40
1.0
 49
0.625
 49
-0.125
 49
0.125
 49
-0.125
  0
LTYPE
  2
DOTX2
 70
0
  3
Dot (2x) .    .    .    .    .    .    .    . 
 72
65
 73
2
 40
0.4
 49
0.0
 49
-0.4
  0
LTYPE
  2
DOT2
 70
0
  3
Dot (.5) . . . . . . . . . . . . . . . . . . . 
 72
65
 73
2
 40
0.1
 49
0.0
 49
-0.1
  0
LTYPE
  2
PHANTOM
 70
0
  3
Phantom ______  __  __  ______  __  __  ______
 72
65
 73
6
 40
2.5
 49
1.25
 49
-0.25
 49
0.25
 49
-0.25
 49
0.25
 49
-0.25
  0
LTYPE
  2
DIVIDEX2
 70
0
  3
Divide (2x) ____  . .  ____  . .  ____  . .  ____
 72
65
 73
6
 40
2.6
 49
2.0
 49
-0.2
 49
0.0
 49
-0.2
 49
0.0
 49
-0.2
  0
ENDTAB
  0
TABLE
  2
LAYER
 70
7
  0
LAYER
  2
DIMENSIONS
 70
0
 62
1
  6
CONTINUOUS
  0
LAYER
  2
TABLEGRID
 70
0
 62
1
  6
CONTINUOUS
  0
LAYER
  2
TABLECONTENT
 70
0
 62
1
  6
CONTINUOUS
  0
LAYER
  2
VIEWPORTS
 70
0
 62
7
  6
CONTINUOUS
  0
LAYER
  2
TABLEBACKGROUND
 70
0
 62
1
  6
CONTINUOUS
  0
LAYER
  2
base
 70
0
 62
0
  6
CONTINUOUS
  0
LAYER
  2
circulos
 70
0
 62
5
  6
CONTINUOUS
  0
ENDTAB
  0
TABLE
  2
STYLE
 70
12
  0
STYLE
  2
ARIAL_BOLD
 70
0
 40
0.0
 41
1.0
 42
1.0
 50
0.0
 71
0
  3
arialbd.ttf
  4

  0
STYLE
  2
ISOCPEUR_ITALIC
 70
0
 40
0.0
 41
1.0
 42
1.0
 50
0.0
 71
0
  3
isocpeui.ttf
  4

  0
STYLE
  2
ARIAL_BOLD_ITALIC
 70
0
 40
0.0
 41
1.0
 42
1.0
 50
0.0
 71
0
  3
arialbi.ttf
  4

  0
STYLE
  2
STANDARD
 70
0
 40
0.0
 41
1.0
 42
1.0
 50
0.0
 71
0
  3
arial.ttf
  4

  0
STYLE
  2
TIMES_BOLD
 70
0
 40
0.0
 41
1.0
 42
1.0
 50
0.0
 71
0
  3
timesbd.ttf
  4

  0
STYLE
  2
TIMES
 70
0
 40
0.0
 41
1.0
 42
1.0
 50
0.0
 71
0
  3
times.ttf
  4

  0
STYLE
  2
ARIAL_BLACK
 70
0
 40
0.0
 41
1.0
 42
1.0
 50
0.0
 71
0
  3
ariblk.ttf
  4

  0
STYLE
  2
TIMES_ITALIC
 70
0
 40
0.0
 41
1.0
 42
1.0
 50
0.0
 71
0
  3
timesi.ttf
  4

  0
STYLE
  2
ARIAL_ITALIC
 70
0
 40
0.0
 41
1.0
 42
1.0
 50
0.0
 71
0
  3
ariali.ttf
  4

  0
STYLE
  2
TIMES_BOLD_ITALIC
 70
0
 40
0.0
 41
1.0
 42
1.0
 50
0.0
 71
0
  3
timesbi.ttf
  4

  0
STYLE
  2
ARIAL
 70
0
 40
0.0
 41
1.0
 42
1.0
 50
0.0
 71
0
  3
arial.ttf
  4

  0
STYLE
  2
ISOCPEUR
 70
0
 40
0.0
 41
1.0
 42
1.0
 50
0.0
 71
0
  3
isocpeur.ttf
  4

  0
ENDTAB
  0
TABLE
  2
VIEW
 70
0
  0
ENDTAB
  0
TABLE
  2
APPID
 70
1
  0
APPID
  2
DXFWRITE
 70
0
  0
ENDTAB
  0
TABLE
  2
VPORT
 70
0
  0
ENDTAB
  0
TABLE
  2
UCS
 70
0
  0
ENDTAB
  0
ENDSEC
  0
SECTION
  2
BLOCKS
  0
ENDSEC
  0
SECTION
  2
ENTITIES
  0
VIEWPORT
  8
VIEWPORTS
 67
1
 10
0.0
 20
0.0
 30
0.0
 40
1.0
 41
1.0
 68
1
 69
1
1001
ACAD
1000
MVIEW
1002
{
1070
16
1010
0.0
1020
0.0
1030
0.0
1010
0.0
1020
0.0
1030
0.0
1040
0.0
1040
1.0
1040
0.0
1040
0.0
1040
50.0
1040
0.0
1040
0.0
1070
0
1070
100
1070
1
1070
3
1070
0
1070
0
1070
0
1070
0
1040
0.0
1040
0.0
1040
0.0
1040
0.1
1040
0.1
1040
0.1
1040
0.1
1070
0
1002
{
1002
}
1002
}
  0
CIRCLE
 62
0
  8
base
 10
20.0
 20
20.0
 30
0.0
 40
40.0
  0
CIRCLE
 62
0
  8
base
 10
20.0
 20
20.0
 30
0.0
 40
31.0
  0
CIRCLE
 62
0
  8
base
 10
120.0
 20
20.0
 30
0.0
 40
40.0
  0
CIRCLE
 62
0
  8
base
 10
120.0
 20
20.0
 30
0.0
 40
31.0
  0
CIRCLE
 62
0
  8
base
 10
220.0
 20
20.0
 30
0.0
 40
40.0
  0
CIRCLE
 62
0
  8
base
 10
220.0
 20
20.0
 30
0.0
 40
31.0
  0
CIRCLE
 62
0
  8
base
 10
320.0
 20
20.0
 30
0.0
 40
40.0
  0
CIRCLE
 62
0
  8
base
 10
320.0
 20
20.0
 30
0.0
 40
31.0
  0
CIRCLE
 62
0
  8
base
 10
420.0
 20
20.0
 30
0.0
 40
40.0
  0
CIRCLE
 62
0
  8
base
 10
420.0
 20
20.0
 30
0.0
 40
31.0
  0
CIRCLE
 62
0
  8
base
 10
520.0
 20
20.0
 30
0.0
 40
40.0
  0
CIRCLE
 62
0
  8
base
 10
520.0
 20
20.0
 30
0.0
 40
31.0
  0
CIRCLE
 62
0
  8
base
 10
620.0
 20
20.0
 30
0.0
 40
40.0
  0
CIRCLE
 62
0
  8
base
 10
620.0
 20
20.0
 30
0.0
 40
31.0
  0
CIRCLE
 62
0
  8
base
 10
720.0
 20
20.0
 30
0.0
 40
40.0
  0
CIRCLE
 62
0
  8
base
 10
720.0
 20
20.0
 30
0.0
 40
31.0
  0
CIRCLE
 62
0
  8
base
 10
820.0
 20
20.0
 30
0.0
 40
40.0
  0
CIRCLE
 62
0
  8
base
 10
820.0
 20
20.0
 30
0.0
 40
31.0
  0
ARC
 62
2
  8
circulos
 10
20.0
 20
20.0
 30
0.0
 40
31.0
 50
270.0
 51
90.0
  0
ARC
 62
2
  8
circulos
 10
20.0
 20
20.0
 30
0.0
 40
40.0
 50
270.0
 51
90.0
  0
LINE
 62
2
  8
circulos
 10
20.000000000000004
 20
51.0
 30
0.0
 11
20.000000000000004
 21
60.0
 31
0.0
  0
LINE
 62
2
  8
circulos
 10
19.999999999999996
 20
-11.0
 30
0.0
 11
19.999999999999996
 21
-20.0
 31
0.0
  0
ARC
 62
3
  8
circulos
 10
120.0
 20
20.0
 30
0.0
 40
31.0
 50
234.0
 51
90.0
  0
ARC
 62
3
  8
circulos
 10
120.0
 20
20.0
 30
0.0
 40
40.0
 50
234.0
 51
90.0
  0
LINE
 62
3
  8
circulos
 10
120.0
 20
51.0
 30
0.0
 11
120.0
 21
60.0
 31
0.0
  0
LINE
 62
3
  8
circulos
 10
101.77865717893333
 20
-5.079526825623372
 30
0.0
 11
96.48858990830107
 21
-12.360679774997898
 31
0.0
  0
ARC
 62
4
  8
circulos
 10
220.0
 20
20.0
 30
0.0
 40
31.0
 50
270.0
 51
90.0
  0
ARC
 62
4
  8
circulos
 10
220.0
 20
20.0
 30
0.0
 40
40.0
 50
270.0
 51
90.0
  0
LINE
 62
4
  8
circulos
 10
220.0
 20
51.0
 30
0.0
 11
220.0
 21
60.0
 31
0.0
  0
LINE
 62
4
  8
circulos
 10
220.0
 20
-11.0
 30
0.0
 11
220.0
 21
-20.0
 31
0.0
  0
ARC
 62
5
  8
circulos
 10
320.0
 20
20.0
 30
0.0
 40
31.0
 50
198.0
 51
90.0
  0
ARC
 62
5
  8
circulos
 10
320.0
 20
20.0
 30
0.0
 40
40.0
 50
198.0
 51
90.0
  0
LINE
 62
5
  8
circulos
 10
320.0
 20
51.0
 30
0.0
 11
320.0
 21
60.0
 31
0.0
  0
LINE
 62
5
  8
circulos
 10
290.51724799485027
 20
10.42047317437663
 30
0.0
 11
281.95773934819385
 21
7.639320225002104
 31
0.0
  0
ARC
 62
1
  8
circulos
 10
420.0
 20
20.0
 30
0.0
 40
31.0
 50
198.0
 51
90.0
  0
ARC
 62
1
  8
circulos
 10
420.0
 20
20.0
 30
0.0
 40
40.0
 50
198.0
 51
90.0
  0
LINE
 62
1
  8
circulos
 10
420.0
 20
51.0
 30
0.0
 11
420.0
 21
60.0
 31
0.0
  0
LINE
 62
1
  8
circulos
 10
390.51724799485027
 20
10.42047317437663
 30
0.0
 11
381.95773934819385
 21
7.639320225002104
 31
0.0
  0
ARC
 62
2
  8
circulos
 10
520.0
 20
20.0
 30
0.0
 40
31.0
 50
252.0
 51
90.0
  0
ARC
 62
2
  8
circulos
 10
520.0
 20
20.0
 30
0.0
 40
40.0
 50
252.0
 51
90.0
  0
LINE
 62
2
  8
circulos
 10
520.0
 20
51.0
 30
0.0
 11
520.0
 21
60.0
 31
0.0
  0
LINE
 62
2
  8
circulos
 10
510.42047317437664
 20
-9.48275200514976
 30
0.0
 11
507.6393202250021
 21
-18.04226065180614
 31
0.0
  0
ARC
 62
3
  8
circulos
 10
620.0
 20
20.0
 30
0.0
 40
31.0
 50
270.0
 51
90.0
  0
ARC
 62
3
  8
circulos
 10
620.0
 20
20.0
 30
0.0
 40
40.0
 50
270.0
 51
90.0
  0
LINE
 62
3
  8
circulos
 10
620.0
 20
51.0
 30
0.0
 11
620.0
 21
60.0
 31
0.0
  0
LINE
 62
3
  8
circulos
 10
620.0
 20
-11.0
 30
0.0
 11
620.0
 21
-20.0
 31
0.0
  0
ARC
 62
4
  8
circulos
 10
720.0
 20
20.0
 30
0.0
 40
31.0
 50
162.0
 51
90.0
  0
ARC
 62
4
  8
circulos
 10
720.0
 20
20.0
 30
0.0
 40
40.0
 50
162.0
 51
90.0
  0
LINE
 62
4
  8
circulos
 10
720.0
 20
51.0
 30
0.0
 11
720.0
 21
60.0
 31
0.0
  0
LINE
 62
4
  8
circulos
 10
690.5172479948502
 20
29.57952682562337
 30
0.0
 11
681.9577393481939
 21
32.3606797749979
 31
0.0
  0
ARC
 62
5
  8
circulos
 10
820.0
 20
20.0
 30
0.0
 40
31.0
 50
252.0
 51
90.0
  0
ARC
 62
5
  8
circulos
 10
820.0
 20
20.0
 30
0.0
 40
40.0
 50
252.0
 51
90.0
  0
LINE
 62
5
  8
circulos
 10
820.0
 20
51.0
 30
0.0
 11
820.0
 21
60.0
 31
0.0
  0
LINE
 62
5
  8
circulos
 10
810.4204731743766
 20
-9.48275200514976
 30
0.0
 11
807.639320225002
 21
-18.04226065180614
 31
0.0
  0
TEXT
 62
0
  8
numeros
 10
20.0
 20
20.0
 30
0.0
 40
8.0
  1
50 %
 50
0.0
  0
TEXT
 62
0
  8
numeros
 10
120.0
 20
20.0
 30
0.0
 40
8.0
  1
60 %
 50
0.0
  0
TEXT
 62
0
  8
numeros
 10
220.0
 20
20.0
 30
0.0
 40
8.0
  1
50 %
 50
0.0
  0
TEXT
 62
0
  8
numeros
 10
320.0
 20
20.0
 30
0.0
 40
8.0
  1
70 %
 50
0.0
  0
TEXT
 62
0
  8
numeros
 10
420.0
 20
20.0
 30
0.0
 40
8.0
  1
70 %
 50
0.0
  0
TEXT
 62
0
  8
numeros
 10
520.0
 20
20.0
 30
0.0
 40
8.0
  1
55 %
 50
0.0
  0
TEXT
 62
0
  8
numeros
 10
620.0
 20
20.0
 30
0.0
 40
8.0
  1
50 %
 50
0.0
  0
TEXT
 62
0
  8
numeros
 10
720.0
 20
20.0
 30
0.0
 40
8.0
  1
80 %
 50
0.0
  0
TEXT
 62
0
  8
numeros
 10
820.0
 20
20.0
 30
0.0
 40
8.0
  1
55 %
 50
0.0
  0
ENDSEC
  0
EOF
