999
dxflib 3.1.0.0
  0
SECTION
  2
HEADER
  9
$ACADVER
  1
AC1015
  9
$HANDSEED
  5
FFFF
  9
$ANGBASE
 50
0.0
  9
$ATTMODE
 70
1
  9
$AUNITS
 70
0
  9
$AUPREC
 70
0
  9
$CELTSCALE
 40
1.0
  9
$CHAMFERA
 40
0.0
  9
$CHAMFERB
 40
0.0
  9
$CHAMFERC
 40
0.0
  9
$CHAMFERD
 40
0.0
  9
$CMLJUST
 70
0
  9
$CMLSCALE
 40
1.0
  9
$DIMADEC
 70
0
  9
$DIMALTD
 70
2
  9
$DIMALTF
 40
25.399999999999999
  9
$DIMALTRND
 40
0.0
  9
$DIMALTTD
 70
2
  9
$DIMALTTZ
 70
0
  9
$DIMALTU
 70
2
  9
$DIMALTZ
 70
0
  9
$DIMAPOST
  1

  9
$DIMASZ
 40
0.18
  9
$DIMATFIT
 70
3
  9
$DIMAUNIT
 70
0
  9
$DIMAZIN
 70
0
  9
$DIMCEN
 40
0.09
  9
$DIMDEC
 70
4
  9
$DIMDLE
 40
0.0
  9
$DIMDLI
 40
0.38
  9
$DIMDSEP
 70
46
  9
$DIMEXE
 40
0.18
  9
$DIMEXO
 40
0.0625
  9
$DIMFRAC
 70
0
  9
$DIMGAP
 40
0.09
  9
$DIMJUST
 70
0
  9
$DIMLFAC
 40
1.0
  9
$DIMLUNIT
 70
2
  9
$DIMLWD
 70
-2
  9
$DIMLWE
 70
-2
  9
$DIMPOST
  1

  9
$DIMRND
 40
0.0
  9
$DIMSCALE
 40
1.0
  9
$DIMTAD
 70
0
  9
$DIMTDEC
 70
4
  9
$DIMTFAC
 40
1.0
  9
$DIMTM
 40
0.0
  9
$DIMTOLJ
 70
1
  9
$DIMTP
 40
0.0
  9
$DIMTSZ
 40
0.0
  9
$DIMTVP
 40
0.0
  9
$DIMTXT
 40
0.18
  9
$DIMTZIN
 70
0
  9
$DIMZIN
 70
0
  9
$ELEVATION
 40
0.0
  9
$EXTMAX
 10
100.0
 20
100.0
 30
0.0
  9
$EXTMIN
 10
0.0
 20
0.0
 30
0.0
  9
$FILLETRAD
 40
0.5
  9
$INSBASE
 10
0.0
 20
0.0
 30
0.0
  9
$INSUNITS
 70
0
  9
$LIMMAX
 10
12.0
 20
9.0
  9
$LIMMIN
 10
0.0
 20
0.0
  9
$LTSCALE
 40
1.0
  9
$LUNITS
 70
2
  9
$LUPREC
 70
4
  9
$MAXACTVP
 70
64
  9
$PDMODE
 70
0
  9
$PDSIZE
 40
0.0
  9
$PELEVATION
 40
0.0
  9
$PEXTMAX
 10
-100000000000000000000.0
 20
-100000000000000000000.0
 30
-100000000000000000000.0
  9
$PEXTMIN
 10
100000000000000000000.0
 20
100000000000000000000.0
 30
100000000000000000000.0
  9
$PINSBASE
 10
0.0
 20
0.0
 30
0.0
  9
$PLIMMAX
 10
12.0
 20
9.0
  9
$PLIMMIN
 10
0.0
 20
0.0
  9
$PLINEWID
 40
0.0
  9
$PROXYGRAPHICS
 70
1
  9
$PUCSORG
 10
0.0
 20
0.0
 30
0.0
  9
$PUCSXDIR
 10
1.0
 20
0.0
 30
0.0
  9
$PUCSYDIR
 10
0.0
 20
1.0
 30
0.0
  9
$SHADEDGE
 70
3
  9
$SHADEDIF
 70
70
  9
$SKETCHINC
 40
0.1
  9
$SPLINESEGS
 70
8
  9
$SPLINETYPE
 70
6
  9
$SURFTAB1
 70
6
  9
$SURFTAB2
 70
6
  9
$SURFTYPE
 70
6
  9
$SURFU
 70
6
  9
$SURFV
 70
6
  9
$TEXTSIZE
 40
1.0
  9
$THICKNESS
 40
0.0
  9
$TRACEWID
 40
0.05
  9
$TREEDEPTH
 70
3020
  9
$UCSORG
 10
0.0
 20
0.0
 30
0.0
  9
$UCSXDIR
 10
1.0
 20
0.0
 30
0.0
  9
$UCSYDIR
 10
0.0
 20
1.0
 30
0.0
  9
$UNITMODE
 70
0
  9
$USERI1
 70
0
  9
$USERI2
 70
0
  9
$USERI3
 70
0
  9
$USERI4
 70
0
  9
$USERI5
 70
0
  9
$USERR1
 40
0.0
  9
$USERR2
 40
0.0
  9
$USERR3
 40
0.0
  9
$USERR4
 40
0.0
  9
$USERR5
 40
0.0
  0
SECTION
  2
TABLES
  0
TABLE
  2
VPORT
  5
8
100
AcDbSymbolTable
 70
1
  0
VPORT
  5
30
100
AcDbSymbolTableRecord
100
AcDbViewportTableRecord
  2
*Active
 70
0
 10
0.0
 20
0.0
 11
1.0
 21
1.0
 12
286.30555555555549
 22
148.5
 13
0.0
 23
0.0
 14
10.0
 24
10.0
 15
10.0
 25
10.0
 16
0.0
 26
0.0
 36
1.0
 17
0.0
 27
0.0
 37
0.0
 40
297.0
 41
1.92798353909465
 42
50.0
 43
0.0
 44
0.0
 50
0.0
 51
0.0
 71
0
 72
100
 73
1
 74
3
 75
1
 76
1
 77
0
 78
0
281
0
 65
1
110
0.0
120
0.0
130
0.0
111
1.0
121
0.0
131
0.0
112
0.0
122
1.0
132
0.0
 79
0
146
0.0
  0
ENDTAB
  0
TABLE
  2
LTYPE
  5
5
100
AcDbSymbolTable
 70
21
  0
LTYPE
  5
31
100
AcDbSymbolTableRecord
100
AcDbLinetypeTableRecord
  2
CENTER2
 70
0
  3
Center (.5x) ___ _ ___ _ ___ _ ___ _ ___ _ ___
 72
65
 73
4
 40
28.574999999999999
 49
19.050000000000001
 74
0
 49
-3.1749999999999998
 74
0
 49
3.1749999999999998
 74
0
 49
-3.1749999999999998
 74
0
  0
LTYPE
  5
32
100
AcDbSymbolTableRecord
100
AcDbLinetypeTableRecord
  2
DIVIDEX2
 70
0
  3
Divide (2x) ________  .  .  ________  .  .  _
 72
65
 73
6
 40
63.5
 49
25.399999999999999
 74
0
 49
-12.699999999999999
 74
0
 49
0.0
 74
0
 49
-12.699999999999999
 74
0
 49
0.0
 74
0
 49
-12.699999999999999
 74
0
  0
LTYPE
  5
33
100
AcDbSymbolTableRecord
100
AcDbLinetypeTableRecord
  2
DOT2
 70
0
  3
Dot (.5x) .....................................
 72
65
 73
2
 40
3.1749999999999998
 49
0.0
 74
0
 49
-3.1749999999999998
 74
0
  0
LTYPE
  5
34
100
AcDbSymbolTableRecord
100
AcDbLinetypeTableRecord
  2
DASHDOT2
 70
0
  3
Dash dot (.5x) _._._._._._._._._._._._._._._.
 72
65
 73
4
 40
12.699999999999999
 49
6.3499999999999996
 74
0
 49
-3.1749999999999998
 74
0
 49
0.0
 74
0
 49
-3.1749999999999998
 74
0
  0
LTYPE
  5
35
100
AcDbSymbolTableRecord
100
AcDbLinetypeTableRecord
  2
DIVIDE
 70
0
  3
Divide ____ . . ____ . . ____ . . ____ . . ____
 72
65
 73
6
 40
31.75
 49
12.699999999999999
 74
0
 49
-6.3499999999999996
 74
0
 49
0.0
 74
0
 49
-6.3499999999999996
 74
0
 49
0.0
 74
0
 49
-6.3499999999999996
 74
0
  0
LTYPE
  5
36
100
AcDbSymbolTableRecord
100
AcDbLinetypeTableRecord
  2
DASHDOT
 70
0
  3
Dash dot __ . __ . __ . __ . __ . __ . __ . __
 72
65
 73
4
 40
25.399999999999999
 49
12.699999999999999
 74
0
 49
-6.3499999999999996
 74
0
 49
0.0
 74
0
 49
-6.3499999999999996
 74
0
  0
LTYPE
  5
37
100
AcDbSymbolTableRecord
100
AcDbLinetypeTableRecord
  2
BORDER
 70
0
  3
Border __ __ . __ __ . __ __ . __ __ . __ __ .
 72
65
 73
6
 40
44.450000000000003
 49
12.699999999999999
 74
0
 49
-6.3499999999999996
 74
0
 49
12.699999999999999
 74
0
 49
-6.3499999999999996
 74
0
 49
0.0
 74
0
 49
-6.3499999999999996
 74
0
  0
LTYPE
  5
38
100
AcDbSymbolTableRecord
100
AcDbLinetypeTableRecord
  2
DASHDOTX2
 70
0
  3
Dash dot (2x) ____  .  ____  .  ____  .  ___
 72
65
 73
4
 40
50.799999999999997
 49
25.399999999999999
 74
0
 49
-12.699999999999999
 74
0
 49
0.0
 74
0
 49
-12.699999999999999
 74
0
  0
LTYPE
  5
39
100
AcDbSymbolTableRecord
100
AcDbLinetypeTableRecord
  2
CENTERX2
 70
0
  3
Center (2x) ________  __  ________  __  _____
 72
65
 73
4
 40
101.59999999999999
 49
63.5
 74
0
 49
-12.699999999999999
 74
0
 49
12.699999999999999
 74
0
 49
-12.699999999999999
 74
0
  0
LTYPE
  5
3A
100
AcDbSymbolTableRecord
100
AcDbLinetypeTableRecord
  2
BORDER2
 70
0
  3
Border (.5x) __.__.__.__.__.__.__.__.__.__.__.
 72
65
 73
6
 40
22.225000000000001
 49
6.3499999999999996
 74
0
 49
-3.1749999999999998
 74
0
 49
6.3499999999999996
 74
0
 49
-3.1749999999999998
 74
0
 49
0.0
 74
0
 49
-3.1749999999999998
 74
0
  0
LTYPE
  5
3B
100
AcDbSymbolTableRecord
100
AcDbLinetypeTableRecord
  2
BORDERX2
 70
0
  3
Border (2x) ____  ____  .  ____  ____  .  ___
 72
65
 73
6
 40
88.900000000000006
 49
25.399999999999999
 74
0
 49
-12.699999999999999
 74
0
 49
25.399999999999999
 74
0
 49
-12.699999999999999
 74
0
 49
0.0
 74
0
 49
-12.699999999999999
 74
0
  0
LTYPE
  5
16
100
AcDbSymbolTableRecord
100
AcDbLinetypeTableRecord
  2
CONTINUOUS
 70
0
  3
Solid line
 72
65
 73
0
 40
0.0
  0
LTYPE
  5
14
100
AcDbSymbolTableRecord
100
AcDbLinetypeTableRecord
  2
BYBLOCK
 70
0
  3

 72
65
 73
0
 40
0.0
  0
LTYPE
  5
15
100
AcDbSymbolTableRecord
100
AcDbLinetypeTableRecord
  2
BYLAYER
 70
0
  3

 72
65
 73
0
 40
0.0
  0
LTYPE
  5
3C
100
AcDbSymbolTableRecord
100
AcDbLinetypeTableRecord
  2
DASHED2
 70
0
  3
Dashed (.5x) _ _ _ _ _ _ _ _ _ _ _ _ _ _ _ _ _
 72
65
 73
2
 40
9.5250000000000004
 49
6.3499999999999996
 74
0
 49
-3.1749999999999998
 74
0
  0
LTYPE
  5
3D
100
AcDbSymbolTableRecord
100
AcDbLinetypeTableRecord
  2
CENTER
 70
0
  3
Center ____ _ ____ _ ____ _ ____ _ ____ _ ____
 72
65
 73
4
 40
50.799999999999997
 49
31.75
 74
0
 49
-6.3499999999999996
 74
0
 49
6.3499999999999996
 74
0
 49
-6.3499999999999996
 74
0
  0
LTYPE
  5
3E
100
AcDbSymbolTableRecord
100
AcDbLinetypeTableRecord
  2
DIVIDE2
 70
0
  3
Divide (.5x) __..__..__..__..__..__..__..__.._
 72
65
 73
6
 40
15.875
 49
6.3499999999999996
 74
0
 49
-3.1749999999999998
 74
0
 49
0.0
 74
0
 49
-3.1749999999999998
 74
0
 49
0.0
 74
0
 49
-3.1749999999999998
 74
0
  0
LTYPE
  5
3F
100
AcDbSymbolTableRecord
100
AcDbLinetypeTableRecord
  2
DASHED
 70
0
  3
Dashed __ __ __ __ __ __ __ __ __ __ __ __ __ _
 72
65
 73
2
 40
19.050000000000001
 49
12.699999999999999
 74
0
 49
-6.3499999999999996
 74
0
  0
LTYPE
  5
40
100
AcDbSymbolTableRecord
100
AcDbLinetypeTableRecord
  2
DOTX2
 70
0
  3
Dot (2x) .  .  .  .  .  .  .  .  .  .  .  .  .
 72
65
 73
2
 40
12.699999999999999
 49
0.0
 74
0
 49
-12.699999999999999
 74
0
  0
LTYPE
  5
41
100
AcDbSymbolTableRecord
100
AcDbLinetypeTableRecord
  2
DASHEDX2
 70
0
  3
Dashed (2x) ____  ____  ____  ____  ____  ___
 72
65
 73
2
 40
38.100000000000001
 49
25.399999999999999
 74
0
 49
-12.699999999999999
 74
0
  0
LTYPE
  5
42
100
AcDbSymbolTableRecord
100
AcDbLinetypeTableRecord
  2
DOT
 70
0
  3
Dot . . . . . . . . . . . . . . . . . . . . . .
 72
65
 73
2
 40
6.3499999999999996
 49
0.0
 74
0
 49
-6.3499999999999996
 74
0
  0
ENDTAB
  0
TABLE
  2
LAYER
  5
2
100
AcDbSymbolTable
 70
7
  0
LAYER
  5
43
100
AcDbSymbolTableRecord
100
AcDbLayerTableRecord
  2
layer1
 70
0
 62
7
420
16777215
  6
CONTINUOUS
370
-3
390
F
  0
LAYER
  5
44
100
AcDbSymbolTableRecord
100
AcDbLayerTableRecord
  2
DIMENSIONS
 70
0
 62
1
420
16711680
  6
CONTINUOUS
370
-3
390
F
  0
LAYER
  5
45
100
AcDbSymbolTableRecord
100
AcDbLayerTableRecord
  2
VIEWPORTS
 70
0
 62
7
420
16777215
  6
CONTINUOUS
370
-3
390
F
  0
LAYER
  5
46
100
AcDbSymbolTableRecord
100
AcDbLayerTableRecord
  2
TABLECONTENT
 70
0
 62
1
420
16711680
  6
CONTINUOUS
370
-3
390
F
  0
LAYER
  5
47
100
AcDbSymbolTableRecord
100
AcDbLayerTableRecord
  2
TABLEGRID
 70
0
 62
1
420
16711680
  6
CONTINUOUS
370
-3
390
F
  0
LAYER
  5
48
100
AcDbSymbolTableRecord
100
AcDbLayerTableRecord
  2
TABLEBACKGROUND
 70
0
 62
1
420
16711680
  6
CONTINUOUS
370
-3
390
F
  0
LAYER
  5
10
100
AcDbSymbolTableRecord
100
AcDbLayerTableRecord
  2
0
 70
0
 62
7
420
16777215
  6
CONTINUOUS
370
-3
390
F
  0
ENDTAB
  0
TABLE
  2
STYLE
  5
3
100
AcDbSymbolTable
 70
21
  0
STYLE
  5
49
100
AcDbSymbolTableRecord
100
AcDbTextStyleTableRecord
  2
textstyle0
 70
0
 40
0.0
 41
1.0
 50
0.0
 71
0
 42
3.0
  3
arial.ttf
  4

1001
ACAD
1000
textstyle0
1071
0
  0
STYLE
  5
4A
100
AcDbSymbolTableRecord
100
AcDbTextStyleTableRecord
  2
textstyle1
 70
0
 40
0.0
 41
1.0
 50
0.0
 71
0
 42
3.0
  3
arial.ttf
  4

1001
ACAD
1000
textstyle1
1071
0
  0
STYLE
  5
4B
100
AcDbSymbolTableRecord
100
AcDbTextStyleTableRecord
  2
textstyle2
 70
0
 40
0.0
 41
1.0
 50
0.0
 71
0
 42
3.0
  3
arial.ttf
  4

1001
ACAD
1000
textstyle2
1071
0
  0
STYLE
  5
4C
100
AcDbSymbolTableRecord
100
AcDbTextStyleTableRecord
  2
textstyle3
 70
0
 40
0.0
 41
1.0
 50
0.0
 71
0
 42
3.0
  3
arial.ttf
  4

1001
ACAD
1000
textstyle3
1071
0
  0
STYLE
  5
4D
100
AcDbSymbolTableRecord
100
AcDbTextStyleTableRecord
  2
textstyle4
 70
0
 40
0.0
 41
1.0
 50
0.0
 71
0
 42
3.0
  3
arial.ttf
  4

1001
ACAD
1000
textstyle4
1071
0
  0
STYLE
  5
4E
100
AcDbSymbolTableRecord
100
AcDbTextStyleTableRecord
  2
textstyle5
 70
0
 40
0.0
 41
1.0
 50
0.0
 71
0
 42
3.0
  3
arial.ttf
  4

1001
ACAD
1000
textstyle5
1071
0
  0
STYLE
  5
4F
100
AcDbSymbolTableRecord
100
AcDbTextStyleTableRecord
  2
textstyle6
 70
0
 40
0.0
 41
1.0
 50
0.0
 71
0
 42
3.0
  3
arial.ttf
  4

1001
ACAD
1000
textstyle6
1071
0
  0
STYLE
  5
50
100
AcDbSymbolTableRecord
100
AcDbTextStyleTableRecord
  2
textstyle7
 70
0
 40
0.0
 41
1.0
 50
0.0
 71
0
 42
3.0
  3
arial.ttf
  4

1001
ACAD
1000
textstyle7
1071
0
  0
STYLE
  5
51
100
AcDbSymbolTableRecord
100
AcDbTextStyleTableRecord
  2
textstyle8
 70
0
 40
0.0
 41
1.0
 50
0.0
 71
0
 42
2.0
  3
arial.ttf
  4

1001
ACAD
1000
textstyle8
1071
0
  0
STYLE
  5
52
100
AcDbSymbolTableRecord
100
AcDbTextStyleTableRecord
  2
textstyle9
 70
0
 40
0.0
 41
1.0
 50
0.0
 71
0
 42
0.2
  3
arial.ttf
  4

1001
ACAD
1000
textstyle9
1071
0
  0
STYLE
  5
53
100
AcDbSymbolTableRecord
100
AcDbTextStyleTableRecord
  2
textstyle10
 70
0
 40
0.0
 41
1.0
 50
0.0
 71
0
 42
3.0
  3
arial.ttf
  4

1001
ACAD
1000
textstyle10
1071
0
  0
STYLE
  5
54
100
AcDbSymbolTableRecord
100
AcDbTextStyleTableRecord
  2
textstyle11
 70
0
 40
0.0
 41
1.0
 50
0.0
 71
0
 42
3.0
  3
arial.ttf
  4

1001
ACAD
1000
textstyle11
1071
0
  0
STYLE
  5
55
100
AcDbSymbolTableRecord
100
AcDbTextStyleTableRecord
  2
textstyle12
 70
0
 40
0.0
 41
1.0
 50
0.0
 71
0
 42
3.0
  3
arial.ttf
  4

1001
ACAD
1000
textstyle12
1071
0
  0
STYLE
  5
56
100
AcDbSymbolTableRecord
100
AcDbTextStyleTableRecord
  2
textstyle13
 70
0
 40
0.0
 41
1.0
 50
0.0
 71
0
 42
3.0
  3
arial.ttf
  4

1001
ACAD
1000
textstyle13
1071
0
  0
STYLE
  5
57
100
AcDbSymbolTableRecord
100
AcDbTextStyleTableRecord
  2
textstyle14
 70
0
 40
0.0
 41
1.0
 50
0.0
 71
0
 42
3.0
  3
arial.ttf
  4

1001
ACAD
1000
textstyle14
1071
0
  0
STYLE
  5
58
100
AcDbSymbolTableRecord
100
AcDbTextStyleTableRecord
  2
textstyle15
 70
0
 40
0.0
 41
1.0
 50
0.0
 71
0
 42
3.0
  3
arial.ttf
  4

1001
ACAD
1000
textstyle15
1071
0
  0
STYLE
  5
59
100
AcDbSymbolTableRecord
100
AcDbTextStyleTableRecord
  2
textstyle16
 70
0
 40
0.0
 41
1.0
 50
0.0
 71
0
 42
3.0
  3
arial.ttf
  4

1001
ACAD
1000
textstyle16
1071
0
  0
STYLE
  5
5A
100
AcDbSymbolTableRecord
100
AcDbTextStyleTableRecord
  2
textstyle17
 70
0
 40
0.0
 41
1.0
 50
0.0
 71
0
 42
3.0
  3
arial.ttf
  4

1001
ACAD
1000
textstyle17
1071
0
  0
STYLE
  5
5B
100
AcDbSymbolTableRecord
100
AcDbTextStyleTableRecord
  2
textstyle18
 70
0
 40
0.0
 41
1.0
 50
0.0
 71
0
 42
3.0
  3
arial.ttf
  4

1001
ACAD
1000
textstyle18
1071
0
  0
STYLE
  5
5C
100
AcDbSymbolTableRecord
100
AcDbTextStyleTableRecord
  2
textstyle19
 70
0
 40
0.0
 41
1.0
 50
0.0
 71
0
 42
3.0
  3
arial.ttf
  4

1001
ACAD
1000
textstyle19
1071
0
  0
STYLE
  5
5D
100
AcDbSymbolTableRecord
100
AcDbTextStyleTableRecord
  2
textstyle20
 70
0
 40
0.0
 41
1.0
 50
0.0
 71
0
 42
3.0
  3
arial.ttf
  4

1001
ACAD
1000
textstyle20
1071
0
  0
ENDTAB
  0
TABLE
  2
VIEW
  5
6
100
AcDbSymbolTable
 70
0
  0
ENDTAB
  0
TABLE
  2
UCS
  5
7
100
AcDbSymbolTable
 70
0
  0
ENDTAB
  0
TABLE
  2
APPID
  5
9
100
AcDbSymbolTable
 70
1
  0
APPID
  5
5E
100
AcDbSymbolTableRecord
100
AcDbRegAppTableRecord
  2
QCAD
 70
0
  0
ENDTAB
  0
TABLE
  2
DIMSTYLE
  5
A
100
AcDbSymbolTable
 70
1
100
AcDbDimStyleTable
 71
0
  0
DIMSTYLE
105
27
100
AcDbSymbolTableRecord
100
AcDbDimStyleTableRecord
  2
Standard
 41
0.18
 42
0.0625
 43
3.75
 44
0.18
 70
0
 73
0
 74
0
 77
1
 78
8
140
0.18
141
2.5
143
0.03937007874016
147
0.09
171
3
172
1
271
2
272
2
274
3
278
44
283
0
284
8
340
11
  0
ENDTAB
  0
TABLE
  2
BLOCK_RECORD
  5
1
100
AcDbSymbolTable
 70
1
  0
BLOCK_RECORD
  5
1F
100
AcDbSymbolTableRecord
100
AcDbBlockTableRecord
  2
*Model_Space
340
22
  0
BLOCK_RECORD
  5
1B
100
AcDbSymbolTableRecord
100
AcDbBlockTableRecord
  2
*Paper_Space
340
1E
  0
BLOCK_RECORD
  5
23
100
AcDbSymbolTableRecord
100
AcDbBlockTableRecord
  2
*Paper_Space0
340
26
  0
BLOCK_RECORD
  5
5F
100
AcDbSymbolTableRecord
100
AcDbBlockTableRecord
  2
*Model_Space
340
0
  0
BLOCK_RECORD
  5
60
100
AcDbSymbolTableRecord
100
AcDbBlockTableRecord
  2
*Paper_Space
340
0
  0
ENDTAB
  0
ENDSEC
  0
SECTION
  2
BLOCKS
  0
BLOCK
  5
20
100
AcDbEntity
  8
0
100
AcDbBlockBegin
  2
*Model_Space
 70
0
 10
0.0
 20
0.0
 30
0.0
  3
*Model_Space
  1

  0
BLOCK
  5
1C
100
AcDbEntity
 67
1
  8
0
100
AcDbBlockBegin
  2
*Paper_Space
 70
0
 10
0.0
 20
0.0
 30
0.0
  3
*Paper_Space
  1

  0
ENDBLK
  5
1D
100
AcDbEntity
 67
1
  8
0
100
AcDbBlockEnd
  0
ENDSEC
  0
SECTION
  2
ENTITIES
  0
ARC
  5
61
100
AcDbEntity
  8
0
 62
7
420
16777215
370
-1
  6
BYLAYER
100
AcDbCircle
 10
11.0
 20
9.0
 30
0.0
 40
1.0
100
AcDbArc
 50
90.0
 51
180.0
  0
LINE
  5
62
100
AcDbEntity
100
AcDbLine
  8
0
 62
7
420
16777215
370
-1
  6
BYLAYER
 10
11.0
 20
10.0
 30
0.0
 11
17.0
 21
10.0
 31
0.0
  0
ARC
  5
63
100
AcDbEntity
  8
0
 62
7
420
16777215
370
-1
  6
BYLAYER
100
AcDbCircle
 10
17.0
 20
9.0
 30
0.0
 40
1.0
100
AcDbArc
 50
0.0
 51
90.0
  0
LINE
  5
64
100
AcDbEntity
100
AcDbLine
  8
0
 62
7
420
16777215
370
-1
  6
BYLAYER
 10
18.0
 20
9.0
 30
0.0
 11
18.0
 21
6.0
 31
0.0
  0
ARC
  5
65
100
AcDbEntity
  8
0
 62
7
420
16777215
370
-1
  6
BYLAYER
100
AcDbCircle
 10
17.0
 20
6.0
 30
0.0
 40
1.0
100
AcDbArc
 50
270.0
 51
0.0
  0
LINE
  5
66
100
AcDbEntity
100
AcDbLine
  8
0
 62
7
420
16777215
370
-1
  6
BYLAYER
 10
17.0
 20
5.0
 30
0.0
 11
11.0
 21
5.0
 31
0.0
  0
ARC
  5
67
100
AcDbEntity
  8
0
 62
7
420
16777215
370
-1
  6
BYLAYER
100
AcDbCircle
 10
11.0
 20
6.0
 30
0.0
 40
1.0
100
AcDbArc
 50
180.0
 51
270.0
  0
LINE
  5
68
100
AcDbEntity
100
AcDbLine
  8
0
 62
7
420
16777215
370
-1
  6
BYLAYER
 10
10.0
 20
6.0
 30
0.0
 11
10.0
 21
9.0
 31
0.0
  0
TEXT
  5
69
100
AcDbEntity
100
AcDbText
  8
layer1
 62
1
420
16711680
370
-1
  6
BYLAYER
 10
0.0
 20
0.0
 30
0.0
 40
3.0
  1
1
 50
0.0
 41
1.0
  7
textstyle0
 71
0
 72
1
 11
14.0
 21
6.0
 31
0.0
 73
0
  0
ARC
  5
6A
100
AcDbEntity
  8
0
 62
7
420
16777215
370
-1
  6
BYLAYER
100
AcDbCircle
 10
23.0
 20
9.0
 30
0.0
 40
1.0
100
AcDbArc
 50
90.0
 51
180.0
  0
LINE
  5
6B
100
AcDbEntity
100
AcDbLine
  8
0
 62
7
420
16777215
370
-1
  6
BYLAYER
 10
23.0
 20
10.0
 30
0.0
 11
29.0
 21
10.0
 31
0.0
  0
ARC
  5
6C
100
AcDbEntity
  8
0
 62
7
420
16777215
370
-1
  6
BYLAYER
100
AcDbCircle
 10
29.0
 20
9.0
 30
0.0
 40
1.0
100
AcDbArc
 50
0.0
 51
90.0
  0
LINE
  5
6D
100
AcDbEntity
100
AcDbLine
  8
0
 62
7
420
16777215
370
-1
  6
BYLAYER
 10
30.0
 20
9.0
 30
0.0
 11
30.0
 21
6.0
 31
0.0
  0
ARC
  5
6E
100
AcDbEntity
  8
0
 62
7
420
16777215
370
-1
  6
BYLAYER
100
AcDbCircle
 10
29.0
 20
6.0
 30
0.0
 40
1.0
100
AcDbArc
 50
270.0
 51
0.0
  0
LINE
  5
6F
100
AcDbEntity
100
AcDbLine
  8
0
 62
7
420
16777215
370
-1
  6
BYLAYER
 10
29.0
 20
5.0
 30
0.0
 11
23.0
 21
5.0
 31
0.0
  0
ARC
  5
70
100
AcDbEntity
  8
0
 62
7
420
16777215
370
-1
  6
BYLAYER
100
AcDbCircle
 10
23.0
 20
6.0
 30
0.0
 40
1.0
100
AcDbArc
 50
180.0
 51
270.0
  0
LINE
  5
71
100
AcDbEntity
100
AcDbLine
  8
0
 62
7
420
16777215
370
-1
  6
BYLAYER
 10
22.0
 20
6.0
 30
0.0
 11
22.0
 21
9.0
 31
0.0
  0
TEXT
  5
72
100
AcDbEntity
100
AcDbText
  8
layer1
 62
1
420
16711680
370
-1
  6
BYLAYER
 10
0.0
 20
0.0
 30
0.0
 40
3.0
  1
2
 50
0.0
 41
1.0
  7
textstyle1
 71
0
 72
1
 11
26.0
 21
6.0
 31
0.0
 73
0
  0
ARC
  5
73
100
AcDbEntity
  8
0
 62
7
420
16777215
370
-1
  6
BYLAYER
100
AcDbCircle
 10
35.0
 20
9.0
 30
0.0
 40
1.0
100
AcDbArc
 50
90.0
 51
180.0
  0
LINE
  5
74
100
AcDbEntity
100
AcDbLine
  8
0
 62
7
420
16777215
370
-1
  6
BYLAYER
 10
35.0
 20
10.0
 30
0.0
 11
41.0
 21
10.0
 31
0.0
  0
ARC
  5
75
100
AcDbEntity
  8
0
 62
7
420
16777215
370
-1
  6
BYLAYER
100
AcDbCircle
 10
41.0
 20
9.0
 30
0.0
 40
1.0
100
AcDbArc
 50
0.0
 51
90.0
  0
LINE
  5
76
100
AcDbEntity
100
AcDbLine
  8
0
 62
7
420
16777215
370
-1
  6
BYLAYER
 10
42.0
 20
9.0
 30
0.0
 11
42.0
 21
6.0
 31
0.0
  0
ARC
  5
77
100
AcDbEntity
  8
0
 62
7
420
16777215
370
-1
  6
BYLAYER
100
AcDbCircle
 10
41.0
 20
6.0
 30
0.0
 40
1.0
100
AcDbArc
 50
270.0
 51
0.0
  0
LINE
  5
78
100
AcDbEntity
100
AcDbLine
  8
0
 62
7
420
16777215
370
-1
  6
BYLAYER
 10
41.0
 20
5.0
 30
0.0
 11
35.0
 21
5.0
 31
0.0
  0
ARC
  5
79
100
AcDbEntity
  8
0
 62
7
420
16777215
370
-1
  6
BYLAYER
100
AcDbCircle
 10
35.0
 20
6.0
 30
0.0
 40
1.0
100
AcDbArc
 50
180.0
 51
270.0
  0
LINE
  5
7A
100
AcDbEntity
100
AcDbLine
  8
0
 62
7
420
16777215
370
-1
  6
BYLAYER
 10
34.0
 20
6.0
 30
0.0
 11
34.0
 21
9.0
 31
0.0
  0
TEXT
  5
7B
100
AcDbEntity
100
AcDbText
  8
layer1
 62
1
420
16711680
370
-1
  6
BYLAYER
 10
0.0
 20
0.0
 30
0.0
 40
3.0
  1
3
 50
0.0
 41
1.0
  7
textstyle2
 71
0
 72
1
 11
38.0
 21
6.0
 31
0.0
 73
0
  0
ARC
  5
7C
100
AcDbEntity
  8
0
 62
7
420
16777215
370
-1
  6
BYLAYER
100
AcDbCircle
 10
47.0
 20
9.0
 30
0.0
 40
1.0
100
AcDbArc
 50
90.0
 51
180.0
  0
LINE
  5
7D
100
AcDbEntity
100
AcDbLine
  8
0
 62
7
420
16777215
370
-1
  6
BYLAYER
 10
47.0
 20
10.0
 30
0.0
 11
53.0
 21
10.0
 31
0.0
  0
ARC
  5
7E
100
AcDbEntity
  8
0
 62
7
420
16777215
370
-1
  6
BYLAYER
100
AcDbCircle
 10
53.0
 20
9.0
 30
0.0
 40
1.0
100
AcDbArc
 50
0.0
 51
90.0
  0
LINE
  5
7F
100
AcDbEntity
100
AcDbLine
  8
0
 62
7
420
16777215
370
-1
  6
BYLAYER
 10
54.0
 20
9.0
 30
0.0
 11
54.0
 21
6.0
 31
0.0
  0
ARC
  5
80
100
AcDbEntity
  8
0
 62
7
420
16777215
370
-1
  6
BYLAYER
100
AcDbCircle
 10
53.0
 20
6.0
 30
0.0
 40
1.0
100
AcDbArc
 50
270.0
 51
0.0
  0
LINE
  5
81
100
AcDbEntity
100
AcDbLine
  8
0
 62
7
420
16777215
370
-1
  6
BYLAYER
 10
53.0
 20
5.0
 30
0.0
 11
47.0
 21
5.0
 31
0.0
  0
ARC
  5
82
100
AcDbEntity
  8
0
 62
7
420
16777215
370
-1
  6
BYLAYER
100
AcDbCircle
 10
47.0
 20
6.0
 30
0.0
 40
1.0
100
AcDbArc
 50
180.0
 51
270.0
  0
LINE
  5
83
100
AcDbEntity
100
AcDbLine
  8
0
 62
7
420
16777215
370
-1
  6
BYLAYER
 10
46.0
 20
6.0
 30
0.0
 11
46.0
 21
9.0
 31
0.0
  0
TEXT
  5
84
100
AcDbEntity
100
AcDbText
  8
layer1
 62
1
420
16711680
370
-1
  6
BYLAYER
 10
0.0
 20
0.0
 30
0.0
 40
3.0
  1
4
 50
0.0
 41
1.0
  7
textstyle3
 71
0
 72
1
 11
50.0
 21
6.0
 31
0.0
 73
0
  0
ARC
  5
85
100
AcDbEntity
  8
0
 62
7
420
16777215
370
-1
  6
BYLAYER
100
AcDbCircle
 10
11.0
 20
2.0
 30
0.0
 40
1.0
100
AcDbArc
 50
90.0
 51
180.0
  0
LINE
  5
86
100
AcDbEntity
100
AcDbLine
  8
0
 62
7
420
16777215
370
-1
  6
BYLAYER
 10
11.0
 20
3.0
 30
0.0
 11
17.0
 21
3.0
 31
0.0
  0
ARC
  5
87
100
AcDbEntity
  8
0
 62
7
420
16777215
370
-1
  6
BYLAYER
100
AcDbCircle
 10
17.0
 20
2.0
 30
0.0
 40
1.0
100
AcDbArc
 50
0.0
 51
90.0
  0
LINE
  5
88
100
AcDbEntity
100
AcDbLine
  8
0
 62
7
420
16777215
370
-1
  6
BYLAYER
 10
18.0
 20
2.0
 30
0.0
 11
18.0
 21
-1.0
 31
0.0
  0
ARC
  5
89
100
AcDbEntity
  8
0
 62
7
420
16777215
370
-1
  6
BYLAYER
100
AcDbCircle
 10
17.0
 20
-1.0
 30
0.0
 40
1.0
100
AcDbArc
 50
270.0
 51
0.0
  0
LINE
  5
8A
100
AcDbEntity
100
AcDbLine
  8
0
 62
7
420
16777215
370
-1
  6
BYLAYER
 10
17.0
 20
-2.0
 30
0.0
 11
11.0
 21
-2.0
 31
0.0
  0
ARC
  5
8B
100
AcDbEntity
  8
0
 62
7
420
16777215
370
-1
  6
BYLAYER
100
AcDbCircle
 10
11.0
 20
-1.0
 30
0.0
 40
1.0
100
AcDbArc
 50
180.0
 51
270.0
  0
LINE
  5
8C
100
AcDbEntity
100
AcDbLine
  8
0
 62
7
420
16777215
370
-1
  6
BYLAYER
 10
10.0
 20
-1.0
 30
0.0
 11
10.0
 21
2.0
 31
0.0
  0
TEXT
  5
8D
100
AcDbEntity
100
AcDbText
  8
layer1
 62
1
420
16711680
370
-1
  6
BYLAYER
 10
0.0
 20
0.0
 30
0.0
 40
3.0
  1
5
 50
0.0
 41
1.0
  7
textstyle4
 71
0
 72
1
 11
14.0
 21
-1.0
 31
0.0
 73
0
  0
ARC
  5
8E
100
AcDbEntity
  8
0
 62
7
420
16777215
370
-1
  6
BYLAYER
100
AcDbCircle
 10
23.0
 20
2.0
 30
0.0
 40
1.0
100
AcDbArc
 50
90.0
 51
180.0
  0
LINE
  5
8F
100
AcDbEntity
100
AcDbLine
  8
0
 62
7
420
16777215
370
-1
  6
BYLAYER
 10
23.0
 20
3.0
 30
0.0
 11
29.0
 21
3.0
 31
0.0
  0
ARC
  5
90
100
AcDbEntity
  8
0
 62
7
420
16777215
370
-1
  6
BYLAYER
100
AcDbCircle
 10
29.0
 20
2.0
 30
0.0
 40
1.0
100
AcDbArc
 50
0.0
 51
90.0
  0
LINE
  5
91
100
AcDbEntity
100
AcDbLine
  8
0
 62
7
420
16777215
370
-1
  6
BYLAYER
 10
30.0
 20
2.0
 30
0.0
 11
30.0
 21
-1.0
 31
0.0
  0
ARC
  5
92
100
AcDbEntity
  8
0
 62
7
420
16777215
370
-1
  6
BYLAYER
100
AcDbCircle
 10
29.0
 20
-1.0
 30
0.0
 40
1.0
100
AcDbArc
 50
270.0
 51
0.0
  0
LINE
  5
93
100
AcDbEntity
100
AcDbLine
  8
0
 62
7
420
16777215
370
-1
  6
BYLAYER
 10
29.0
 20
-2.0
 30
0.0
 11
23.0
 21
-2.0
 31
0.0
  0
ARC
  5
94
100
AcDbEntity
  8
0
 62
7
420
16777215
370
-1
  6
BYLAYER
100
AcDbCircle
 10
23.0
 20
-1.0
 30
0.0
 40
1.0
100
AcDbArc
 50
180.0
 51
270.0
  0
LINE
  5
95
100
AcDbEntity
100
AcDbLine
  8
0
 62
7
420
16777215
370
-1
  6
BYLAYER
 10
22.0
 20
-1.0
 30
0.0
 11
22.0
 21
2.0
 31
0.0
  0
TEXT
  5
96
100
AcDbEntity
100
AcDbText
  8
layer1
 62
1
420
16711680
370
-1
  6
BYLAYER
 10
0.0
 20
0.0
 30
0.0
 40
3.0
  1
6
 50
0.0
 41
1.0
  7
textstyle5
 71
0
 72
1
 11
26.0
 21
-1.0
 31
0.0
 73
0
  0
ARC
  5
97
100
AcDbEntity
  8
0
 62
7
420
16777215
370
-1
  6
BYLAYER
100
AcDbCircle
 10
35.0
 20
2.0
 30
0.0
 40
1.0
100
AcDbArc
 50
90.0
 51
180.0
  0
LINE
  5
98
100
AcDbEntity
100
AcDbLine
  8
0
 62
7
420
16777215
370
-1
  6
BYLAYER
 10
35.0
 20
3.0
 30
0.0
 11
41.0
 21
3.0
 31
0.0
  0
ARC
  5
99
100
AcDbEntity
  8
0
 62
7
420
16777215
370
-1
  6
BYLAYER
100
AcDbCircle
 10
41.0
 20
2.0
 30
0.0
 40
1.0
100
AcDbArc
 50
0.0
 51
90.0
  0
LINE
  5
9A
100
AcDbEntity
100
AcDbLine
  8
0
 62
7
420
16777215
370
-1
  6
BYLAYER
 10
42.0
 20
2.0
 30
0.0
 11
42.0
 21
-1.0
 31
0.0
  0
ARC
  5
9B
100
AcDbEntity
  8
0
 62
7
420
16777215
370
-1
  6
BYLAYER
100
AcDbCircle
 10
41.0
 20
-1.0
 30
0.0
 40
1.0
100
AcDbArc
 50
270.0
 51
0.0
  0
LINE
  5
9C
100
AcDbEntity
100
AcDbLine
  8
0
 62
7
420
16777215
370
-1
  6
BYLAYER
 10
41.0
 20
-2.0
 30
0.0
 11
35.0
 21
-2.0
 31
0.0
  0
ARC
  5
9D
100
AcDbEntity
  8
0
 62
7
420
16777215
370
-1
  6
BYLAYER
100
AcDbCircle
 10
35.0
 20
-1.0
 30
0.0
 40
1.0
100
AcDbArc
 50
180.0
 51
270.0
  0
LINE
  5
9E
100
AcDbEntity
100
AcDbLine
  8
0
 62
7
420
16777215
370
-1
  6
BYLAYER
 10
34.0
 20
-1.0
 30
0.0
 11
34.0
 21
2.0
 31
0.0
  0
TEXT
  5
9F
100
AcDbEntity
100
AcDbText
  8
layer1
 62
1
420
16711680
370
-1
  6
BYLAYER
 10
0.0
 20
0.0
 30
0.0
 40
3.0
  1
7
 50
0.0
 41
1.0
  7
textstyle6
 71
0
 72
1
 11
38.0
 21
-1.0
 31
0.0
 73
0
  0
ARC
  5
A0
100
AcDbEntity
  8
0
 62
7
420
16777215
370
-1
  6
BYLAYER
100
AcDbCircle
 10
47.0
 20
2.0
 30
0.0
 40
1.0
100
AcDbArc
 50
90.0
 51
180.0
  0
LINE
  5
A1
100
AcDbEntity
100
AcDbLine
  8
0
 62
7
420
16777215
370
-1
  6
BYLAYER
 10
47.0
 20
3.0
 30
0.0
 11
53.0
 21
3.0
 31
0.0
  0
ARC
  5
A2
100
AcDbEntity
  8
0
 62
7
420
16777215
370
-1
  6
BYLAYER
100
AcDbCircle
 10
53.0
 20
2.0
 30
0.0
 40
1.0
100
AcDbArc
 50
0.0
 51
90.0
  0
LINE
  5
A3
100
AcDbEntity
100
AcDbLine
  8
0
 62
7
420
16777215
370
-1
  6
BYLAYER
 10
54.0
 20
2.0
 30
0.0
 11
54.0
 21
-1.0
 31
0.0
  0
ARC
  5
A4
100
AcDbEntity
  8
0
 62
7
420
16777215
370
-1
  6
BYLAYER
100
AcDbCircle
 10
53.0
 20
-1.0
 30
0.0
 40
1.0
100
AcDbArc
 50
270.0
 51
0.0
  0
LINE
  5
A5
100
AcDbEntity
100
AcDbLine
  8
0
 62
7
420
16777215
370
-1
  6
BYLAYER
 10
53.0
 20
-2.0
 30
0.0
 11
47.0
 21
-2.0
 31
0.0
  0
ARC
  5
A6
100
AcDbEntity
  8
0
 62
7
420
16777215
370
-1
  6
BYLAYER
100
AcDbCircle
 10
47.0
 20
-1.0
 30
0.0
 40
1.0
100
AcDbArc
 50
180.0
 51
270.0
  0
LINE
  5
A7
100
AcDbEntity
100
AcDbLine
  8
0
 62
7
420
16777215
370
-1
  6
BYLAYER
 10
46.0
 20
-1.0
 30
0.0
 11
46.0
 21
2.0
 31
0.0
  0
TEXT
  5
A8
100
AcDbEntity
100
AcDbText
  8
layer1
 62
1
420
16711680
370
-1
  6
BYLAYER
 10
0.0
 20
0.0
 30
0.0
 40
3.0
  1
8
 50
0.0
 41
1.0
  7
textstyle7
 71
0
 72
1
 11
50.0
 21
-1.0
 31
0.0
 73
0
  0
ARC
  5
A9
100
AcDbEntity
  8
0
 62
7
420
16777215
370
-1
  6
BYLAYER
100
AcDbCircle
 10
11.0
 20
-5.0
 30
0.0
 40
1.0
100
AcDbArc
 50
90.0
 51
180.0
  0
LINE
  5
AA
100
AcDbEntity
100
AcDbLine
  8
0
 62
7
420
16777215
370
-1
  6
BYLAYER
 10
11.0
 20
-4.0
 30
0.0
 11
17.0
 21
-4.0
 31
0.0
  0
ARC
  5
AB
100
AcDbEntity
  8
0
 62
7
420
16777215
370
-1
  6
BYLAYER
100
AcDbCircle
 10
17.0
 20
-5.0
 30
0.0
 40
1.0
100
AcDbArc
 50
0.0
 51
90.0
  0
LINE
  5
AC
100
AcDbEntity
100
AcDbLine
  8
0
 62
7
420
16777215
370
-1
  6
BYLAYER
 10
18.0
 20
-5.0
 30
0.0
 11
18.0
 21
-8.0
 31
0.0
  0
ARC
  5
AD
100
AcDbEntity
  8
0
 62
7
420
16777215
370
-1
  6
BYLAYER
100
AcDbCircle
 10
17.0
 20
-8.0
 30
0.0
 40
1.0
100
AcDbArc
 50
270.0
 51
0.0
  0
LINE
  5
AE
100
AcDbEntity
100
AcDbLine
  8
0
 62
7
420
16777215
370
-1
  6
BYLAYER
 10
17.0
 20
-9.0
 30
0.0
 11
11.0
 21
-9.0
 31
0.0
  0
ARC
  5
AF
100
AcDbEntity
  8
0
 62
7
420
16777215
370
-1
  6
BYLAYER
100
AcDbCircle
 10
11.0
 20
-8.0
 30
0.0
 40
1.0
100
AcDbArc
 50
180.0
 51
270.0
  0
LINE
  5
B0
100
AcDbEntity
100
AcDbLine
  8
0
 62
7
420
16777215
370
-1
  6
BYLAYER
 10
10.0
 20
-8.0
 30
0.0
 11
10.0
 21
-5.0
 31
0.0
  0
TEXT
  5
B1
100
AcDbEntity
100
AcDbText
  8
layer1
 62
1
420
16711680
370
-1
  6
BYLAYER
 10
0.0
 20
0.0
 30
0.0
 40
2.0
  1
9
 50
0.0
 41
1.0
  7
textstyle8
 71
0
 72
1
 11
14.0
 21
-7.0
 31
0.0
 73
0
  0
TEXT
  5
B2
100
AcDbEntity
100
AcDbText
  8
layer1
 62
1
420
16711680
370
-1
  6
BYLAYER
 10
0.0
 20
0.0
 30
0.0
 40
0.2
  1
o
 50
0.0
 41
1.0
  7
textstyle9
 71
0
 72
1
 11
14.0
 21
-8.0
 31
0.0
 73
0
  0
ARC
  5
B3
100
AcDbEntity
  8
0
 62
7
420
16777215
370
-1
  6
BYLAYER
100
AcDbCircle
 10
23.0
 20
-5.0
 30
0.0
 40
1.0
100
AcDbArc
 50
90.0
 51
180.0
  0
LINE
  5
B4
100
AcDbEntity
100
AcDbLine
  8
0
 62
7
420
16777215
370
-1
  6
BYLAYER
 10
23.0
 20
-4.0
 30
0.0
 11
29.0
 21
-4.0
 31
0.0
  0
ARC
  5
B5
100
AcDbEntity
  8
0
 62
7
420
16777215
370
-1
  6
BYLAYER
100
AcDbCircle
 10
29.0
 20
-5.0
 30
0.0
 40
1.0
100
AcDbArc
 50
0.0
 51
90.0
  0
LINE
  5
B6
100
AcDbEntity
100
AcDbLine
  8
0
 62
7
420
16777215
370
-1
  6
BYLAYER
 10
30.0
 20
-5.0
 30
0.0
 11
30.0
 21
-8.0
 31
0.0
  0
ARC
  5
B7
100
AcDbEntity
  8
0
 62
7
420
16777215
370
-1
  6
BYLAYER
100
AcDbCircle
 10
29.0
 20
-8.0
 30
0.0
 40
1.0
100
AcDbArc
 50
270.0
 51
0.0
  0
LINE
  5
B8
100
AcDbEntity
100
AcDbLine
  8
0
 62
7
420
16777215
370
-1
  6
BYLAYER
 10
29.0
 20
-9.0
 30
0.0
 11
23.0
 21
-9.0
 31
0.0
  0
ARC
  5
B9
100
AcDbEntity
  8
0
 62
7
420
16777215
370
-1
  6
BYLAYER
100
AcDbCircle
 10
23.0
 20
-8.0
 30
0.0
 40
1.0
100
AcDbArc
 50
180.0
 51
270.0
  0
LINE
  5
BA
100
AcDbEntity
100
AcDbLine
  8
0
 62
7
420
16777215
370
-1
  6
BYLAYER
 10
22.0
 20
-8.0
 30
0.0
 11
22.0
 21
-5.0
 31
0.0
  0
TEXT
  5
BB
100
AcDbEntity
100
AcDbText
  8
layer1
 62
1
420
16711680
370
-1
  6
BYLAYER
 10
0.0
 20
0.0
 30
0.0
 40
3.0
  1
10
 50
0.0
 41
1.0
  7
textstyle10
 71
0
 72
1
 11
26.0
 21
-8.0
 31
0.0
 73
0
  0
ARC
  5
BC
100
AcDbEntity
  8
0
 62
7
420
16777215
370
-1
  6
BYLAYER
100
AcDbCircle
 10
35.0
 20
-5.0
 30
0.0
 40
1.0
100
AcDbArc
 50
90.0
 51
180.0
  0
LINE
  5
BD
100
AcDbEntity
100
AcDbLine
  8
0
 62
7
420
16777215
370
-1
  6
BYLAYER
 10
35.0
 20
-4.0
 30
0.0
 11
41.0
 21
-4.0
 31
0.0
  0
ARC
  5
BE
100
AcDbEntity
  8
0
 62
7
420
16777215
370
-1
  6
BYLAYER
100
AcDbCircle
 10
41.0
 20
-5.0
 30
0.0
 40
1.0
100
AcDbArc
 50
0.0
 51
90.0
  0
LINE
  5
BF
100
AcDbEntity
100
AcDbLine
  8
0
 62
7
420
16777215
370
-1
  6
BYLAYER
 10
42.0
 20
-5.0
 30
0.0
 11
42.0
 21
-8.0
 31
0.0
  0
ARC
  5
C0
100
AcDbEntity
  8
0
 62
7
420
16777215
370
-1
  6
BYLAYER
100
AcDbCircle
 10
41.0
 20
-8.0
 30
0.0
 40
1.0
100
AcDbArc
 50
270.0
 51
0.0
  0
LINE
  5
C1
100
AcDbEntity
100
AcDbLine
  8
0
 62
7
420
16777215
370
-1
  6
BYLAYER
 10
41.0
 20
-9.0
 30
0.0
 11
35.0
 21
-9.0
 31
0.0
  0
ARC
  5
C2
100
AcDbEntity
  8
0
 62
7
420
16777215
370
-1
  6
BYLAYER
100
AcDbCircle
 10
35.0
 20
-8.0
 30
0.0
 40
1.0
100
AcDbArc
 50
180.0
 51
270.0
  0
LINE
  5
C3
100
AcDbEntity
100
AcDbLine
  8
0
 62
7
420
16777215
370
-1
  6
BYLAYER
 10
34.0
 20
-8.0
 30
0.0
 11
34.0
 21
-5.0
 31
0.0
  0
TEXT
  5
C4
100
AcDbEntity
100
AcDbText
  8
layer1
 62
1
420
16711680
370
-1
  6
BYLAYER
 10
0.0
 20
0.0
 30
0.0
 40
3.0
  1
11
 50
0.0
 41
1.0
  7
textstyle11
 71
0
 72
1
 11
38.0
 21
-8.0
 31
0.0
 73
0
  0
ARC
  5
C5
100
AcDbEntity
  8
0
 62
7
420
16777215
370
-1
  6
BYLAYER
100
AcDbCircle
 10
47.0
 20
-5.0
 30
0.0
 40
1.0
100
AcDbArc
 50
90.0
 51
180.0
  0
LINE
  5
C6
100
AcDbEntity
100
AcDbLine
  8
0
 62
7
420
16777215
370
-1
  6
BYLAYER
 10
47.0
 20
-4.0
 30
0.0
 11
53.0
 21
-4.0
 31
0.0
  0
ARC
  5
C7
100
AcDbEntity
  8
0
 62
7
420
16777215
370
-1
  6
BYLAYER
100
AcDbCircle
 10
53.0
 20
-5.0
 30
0.0
 40
1.0
100
AcDbArc
 50
0.0
 51
90.0
  0
LINE
  5
C8
100
AcDbEntity
100
AcDbLine
  8
0
 62
7
420
16777215
370
-1
  6
BYLAYER
 10
54.0
 20
-5.0
 30
0.0
 11
54.0
 21
-8.0
 31
0.0
  0
ARC
  5
C9
100
AcDbEntity
  8
0
 62
7
420
16777215
370
-1
  6
BYLAYER
100
AcDbCircle
 10
53.0
 20
-8.0
 30
0.0
 40
1.0
100
AcDbArc
 50
270.0
 51
0.0
  0
LINE
  5
CA
100
AcDbEntity
100
AcDbLine
  8
0
 62
7
420
16777215
370
-1
  6
BYLAYER
 10
53.0
 20
-9.0
 30
0.0
 11
47.0
 21
-9.0
 31
0.0
  0
ARC
  5
CB
100
AcDbEntity
  8
0
 62
7
420
16777215
370
-1
  6
BYLAYER
100
AcDbCircle
 10
47.0
 20
-8.0
 30
0.0
 40
1.0
100
AcDbArc
 50
180.0
 51
270.0
  0
LINE
  5
CC
100
AcDbEntity
100
AcDbLine
  8
0
 62
7
420
16777215
370
-1
  6
BYLAYER
 10
46.0
 20
-8.0
 30
0.0
 11
46.0
 21
-5.0
 31
0.0
  0
TEXT
  5
CD
100
AcDbEntity
100
AcDbText
  8
layer1
 62
1
420
16711680
370
-1
  6
BYLAYER
 10
0.0
 20
0.0
 30
0.0
 40
3.0
  1
12
 50
0.0
 41
1.0
  7
textstyle12
 71
0
 72
1
 11
50.0
 21
-8.0
 31
0.0
 73
0
  0
ARC
  5
CE
100
AcDbEntity
  8
0
 62
7
420
16777215
370
-1
  6
BYLAYER
100
AcDbCircle
 10
11.0
 20
-12.0
 30
0.0
 40
1.0
100
AcDbArc
 50
90.0
 51
180.0
  0
LINE
  5
CF
100
AcDbEntity
100
AcDbLine
  8
0
 62
7
420
16777215
370
-1
  6
BYLAYER
 10
11.0
 20
-11.0
 30
0.0
 11
17.0
 21
-11.0
 31
0.0
  0
ARC
  5
D0
100
AcDbEntity
  8
0
 62
7
420
16777215
370
-1
  6
BYLAYER
100
AcDbCircle
 10
17.0
 20
-12.0
 30
0.0
 40
1.0
100
AcDbArc
 50
0.0
 51
90.0
  0
LINE
  5
D1
100
AcDbEntity
100
AcDbLine
  8
0
 62
7
420
16777215
370
-1
  6
BYLAYER
 10
18.0
 20
-12.0
 30
0.0
 11
18.0
 21
-15.0
 31
0.0
  0
ARC
  5
D2
100
AcDbEntity
  8
0
 62
7
420
16777215
370
-1
  6
BYLAYER
100
AcDbCircle
 10
17.0
 20
-15.0
 30
0.0
 40
1.0
100
AcDbArc
 50
270.0
 51
0.0
  0
LINE
  5
D3
100
AcDbEntity
100
AcDbLine
  8
0
 62
7
420
16777215
370
-1
  6
BYLAYER
 10
17.0
 20
-16.0
 30
0.0
 11
11.0
 21
-16.0
 31
0.0
  0
ARC
  5
D4
100
AcDbEntity
  8
0
 62
7
420
16777215
370
-1
  6
BYLAYER
100
AcDbCircle
 10
11.0
 20
-15.0
 30
0.0
 40
1.0
100
AcDbArc
 50
180.0
 51
270.0
  0
LINE
  5
D5
100
AcDbEntity
100
AcDbLine
  8
0
 62
7
420
16777215
370
-1
  6
BYLAYER
 10
10.0
 20
-15.0
 30
0.0
 11
10.0
 21
-12.0
 31
0.0
  0
TEXT
  5
D6
100
AcDbEntity
100
AcDbText
  8
layer1
 62
1
420
16711680
370
-1
  6
BYLAYER
 10
0.0
 20
0.0
 30
0.0
 40
3.0
  1
13
 50
0.0
 41
1.0
  7
textstyle13
 71
0
 72
1
 11
14.0
 21
-15.0
 31
0.0
 73
0
  0
ARC
  5
D7
100
AcDbEntity
  8
0
 62
7
420
16777215
370
-1
  6
BYLAYER
100
AcDbCircle
 10
23.0
 20
-12.0
 30
0.0
 40
1.0
100
AcDbArc
 50
90.0
 51
180.0
  0
LINE
  5
D8
100
AcDbEntity
100
AcDbLine
  8
0
 62
7
420
16777215
370
-1
  6
BYLAYER
 10
23.0
 20
-11.0
 30
0.0
 11
29.0
 21
-11.0
 31
0.0
  0
ARC
  5
D9
100
AcDbEntity
  8
0
 62
7
420
16777215
370
-1
  6
BYLAYER
100
AcDbCircle
 10
29.0
 20
-12.0
 30
0.0
 40
1.0
100
AcDbArc
 50
0.0
 51
90.0
  0
LINE
  5
DA
100
AcDbEntity
100
AcDbLine
  8
0
 62
7
420
16777215
370
-1
  6
BYLAYER
 10
30.0
 20
-12.0
 30
0.0
 11
30.0
 21
-15.0
 31
0.0
  0
ARC
  5
DB
100
AcDbEntity
  8
0
 62
7
420
16777215
370
-1
  6
BYLAYER
100
AcDbCircle
 10
29.0
 20
-15.0
 30
0.0
 40
1.0
100
AcDbArc
 50
270.0
 51
0.0
  0
LINE
  5
DC
100
AcDbEntity
100
AcDbLine
  8
0
 62
7
420
16777215
370
-1
  6
BYLAYER
 10
29.0
 20
-16.0
 30
0.0
 11
23.0
 21
-16.0
 31
0.0
  0
ARC
  5
DD
100
AcDbEntity
  8
0
 62
7
420
16777215
370
-1
  6
BYLAYER
100
AcDbCircle
 10
23.0
 20
-15.0
 30
0.0
 40
1.0
100
AcDbArc
 50
180.0
 51
270.0
  0
LINE
  5
DE
100
AcDbEntity
100
AcDbLine
  8
0
 62
7
420
16777215
370
-1
  6
BYLAYER
 10
22.0
 20
-15.0
 30
0.0
 11
22.0
 21
-12.0
 31
0.0
  0
TEXT
  5
DF
100
AcDbEntity
100
AcDbText
  8
layer1
 62
1
420
16711680
370
-1
  6
BYLAYER
 10
0.0
 20
0.0
 30
0.0
 40
3.0
  1
14
 50
0.0
 41
1.0
  7
textstyle14
 71
0
 72
1
 11
26.0
 21
-15.0
 31
0.0
 73
0
  0
ARC
  5
E0
100
AcDbEntity
  8
0
 62
7
420
16777215
370
-1
  6
BYLAYER
100
AcDbCircle
 10
35.0
 20
-12.0
 30
0.0
 40
1.0
100
AcDbArc
 50
90.0
 51
180.0
  0
LINE
  5
E1
100
AcDbEntity
100
AcDbLine
  8
0
 62
7
420
16777215
370
-1
  6
BYLAYER
 10
35.0
 20
-11.0
 30
0.0
 11
41.0
 21
-11.0
 31
0.0
  0
ARC
  5
E2
100
AcDbEntity
  8
0
 62
7
420
16777215
370
-1
  6
BYLAYER
100
AcDbCircle
 10
41.0
 20
-12.0
 30
0.0
 40
1.0
100
AcDbArc
 50
0.0
 51
90.0
  0
LINE
  5
E3
100
AcDbEntity
100
AcDbLine
  8
0
 62
7
420
16777215
370
-1
  6
BYLAYER
 10
42.0
 20
-12.0
 30
0.0
 11
42.0
 21
-15.0
 31
0.0
  0
ARC
  5
E4
100
AcDbEntity
  8
0
 62
7
420
16777215
370
-1
  6
BYLAYER
100
AcDbCircle
 10
41.0
 20
-15.0
 30
0.0
 40
1.0
100
AcDbArc
 50
270.0
 51
0.0
  0
LINE
  5
E5
100
AcDbEntity
100
AcDbLine
  8
0
 62
7
420
16777215
370
-1
  6
BYLAYER
 10
41.0
 20
-16.0
 30
0.0
 11
35.0
 21
-16.0
 31
0.0
  0
ARC
  5
E6
100
AcDbEntity
  8
0
 62
7
420
16777215
370
-1
  6
BYLAYER
100
AcDbCircle
 10
35.0
 20
-15.0
 30
0.0
 40
1.0
100
AcDbArc
 50
180.0
 51
270.0
  0
LINE
  5
E7
100
AcDbEntity
100
AcDbLine
  8
0
 62
7
420
16777215
370
-1
  6
BYLAYER
 10
34.0
 20
-15.0
 30
0.0
 11
34.0
 21
-12.0
 31
0.0
  0
TEXT
  5
E8
100
AcDbEntity
100
AcDbText
  8
layer1
 62
1
420
16711680
370
-1
  6
BYLAYER
 10
0.0
 20
0.0
 30
0.0
 40
3.0
  1
15
 50
0.0
 41
1.0
  7
textstyle15
 71
0
 72
1
 11
38.0
 21
-15.0
 31
0.0
 73
0
  0
ARC
  5
E9
100
AcDbEntity
  8
0
 62
7
420
16777215
370
-1
  6
BYLAYER
100
AcDbCircle
 10
47.0
 20
-12.0
 30
0.0
 40
1.0
100
AcDbArc
 50
90.0
 51
180.0
  0
LINE
  5
EA
100
AcDbEntity
100
AcDbLine
  8
0
 62
7
420
16777215
370
-1
  6
BYLAYER
 10
47.0
 20
-11.0
 30
0.0
 11
53.0
 21
-11.0
 31
0.0
  0
ARC
  5
EB
100
AcDbEntity
  8
0
 62
7
420
16777215
370
-1
  6
BYLAYER
100
AcDbCircle
 10
53.0
 20
-12.0
 30
0.0
 40
1.0
100
AcDbArc
 50
0.0
 51
90.0
  0
LINE
  5
EC
100
AcDbEntity
100
AcDbLine
  8
0
 62
7
420
16777215
370
-1
  6
BYLAYER
 10
54.0
 20
-12.0
 30
0.0
 11
54.0
 21
-15.0
 31
0.0
  0
ARC
  5
ED
100
AcDbEntity
  8
0
 62
7
420
16777215
370
-1
  6
BYLAYER
100
AcDbCircle
 10
53.0
 20
-15.0
 30
0.0
 40
1.0
100
AcDbArc
 50
270.0
 51
0.0
  0
LINE
  5
EE
100
AcDbEntity
100
AcDbLine
  8
0
 62
7
420
16777215
370
-1
  6
BYLAYER
 10
53.0
 20
-16.0
 30
0.0
 11
47.0
 21
-16.0
 31
0.0
  0
ARC
  5
EF
100
AcDbEntity
  8
0
 62
7
420
16777215
370
-1
  6
BYLAYER
100
AcDbCircle
 10
47.0
 20
-15.0
 30
0.0
 40
1.0
100
AcDbArc
 50
180.0
 51
270.0
  0
LINE
  5
F0
100
AcDbEntity
100
AcDbLine
  8
0
 62
7
420
16777215
370
-1
  6
BYLAYER
 10
46.0
 20
-15.0
 30
0.0
 11
46.0
 21
-12.0
 31
0.0
  0
TEXT
  5
F1
100
AcDbEntity
100
AcDbText
  8
layer1
 62
1
420
16711680
370
-1
  6
BYLAYER
 10
0.0
 20
0.0
 30
0.0
 40
3.0
  1
16
 50
0.0
 41
1.0
  7
textstyle16
 71
0
 72
1
 11
50.0
 21
-15.0
 31
0.0
 73
0
  0
ARC
  5
F2
100
AcDbEntity
  8
0
 62
7
420
16777215
370
-1
  6
BYLAYER
100
AcDbCircle
 10
11.0
 20
-19.0
 30
0.0
 40
1.0
100
AcDbArc
 50
90.0
 51
180.0
  0
LINE
  5
F3
100
AcDbEntity
100
AcDbLine
  8
0
 62
7
420
16777215
370
-1
  6
BYLAYER
 10
11.0
 20
-18.0
 30
0.0
 11
17.0
 21
-18.0
 31
0.0
  0
ARC
  5
F4
100
AcDbEntity
  8
0
 62
7
420
16777215
370
-1
  6
BYLAYER
100
AcDbCircle
 10
17.0
 20
-19.0
 30
0.0
 40
1.0
100
AcDbArc
 50
0.0
 51
90.0
  0
LINE
  5
F5
100
AcDbEntity
100
AcDbLine
  8
0
 62
7
420
16777215
370
-1
  6
BYLAYER
 10
18.0
 20
-19.0
 30
0.0
 11
18.0
 21
-22.0
 31
0.0
  0
ARC
  5
F6
100
AcDbEntity
  8
0
 62
7
420
16777215
370
-1
  6
BYLAYER
100
AcDbCircle
 10
17.0
 20
-22.0
 30
0.0
 40
1.0
100
AcDbArc
 50
270.0
 51
0.0
  0
LINE
  5
F7
100
AcDbEntity
100
AcDbLine
  8
0
 62
7
420
16777215
370
-1
  6
BYLAYER
 10
17.0
 20
-23.0
 30
0.0
 11
11.0
 21
-23.0
 31
0.0
  0
ARC
  5
F8
100
AcDbEntity
  8
0
 62
7
420
16777215
370
-1
  6
BYLAYER
100
AcDbCircle
 10
11.0
 20
-22.0
 30
0.0
 40
1.0
100
AcDbArc
 50
180.0
 51
270.0
  0
LINE
  5
F9
100
AcDbEntity
100
AcDbLine
  8
0
 62
7
420
16777215
370
-1
  6
BYLAYER
 10
10.0
 20
-22.0
 30
0.0
 11
10.0
 21
-19.0
 31
0.0
  0
TEXT
  5
FA
100
AcDbEntity
100
AcDbText
  8
layer1
 62
1
420
16711680
370
-1
  6
BYLAYER
 10
0.0
 20
0.0
 30
0.0
 40
3.0
  1
17
 50
0.0
 41
1.0
  7
textstyle17
 71
0
 72
1
 11
14.0
 21
-22.0
 31
0.0
 73
0
  0
ARC
  5
FB
100
AcDbEntity
  8
0
 62
7
420
16777215
370
-1
  6
BYLAYER
100
AcDbCircle
 10
23.0
 20
-19.0
 30
0.0
 40
1.0
100
AcDbArc
 50
90.0
 51
180.0
  0
LINE
  5
FC
100
AcDbEntity
100
AcDbLine
  8
0
 62
7
420
16777215
370
-1
  6
BYLAYER
 10
23.0
 20
-18.0
 30
0.0
 11
29.0
 21
-18.0
 31
0.0
  0
ARC
  5
FD
100
AcDbEntity
  8
0
 62
7
420
16777215
370
-1
  6
BYLAYER
100
AcDbCircle
 10
29.0
 20
-19.0
 30
0.0
 40
1.0
100
AcDbArc
 50
0.0
 51
90.0
  0
LINE
  5
FE
100
AcDbEntity
100
AcDbLine
  8
0
 62
7
420
16777215
370
-1
  6
BYLAYER
 10
30.0
 20
-19.0
 30
0.0
 11
30.0
 21
-22.0
 31
0.0
  0
ARC
  5
FF
100
AcDbEntity
  8
0
 62
7
420
16777215
370
-1
  6
BYLAYER
100
AcDbCircle
 10
29.0
 20
-22.0
 30
0.0
 40
1.0
100
AcDbArc
 50
270.0
 51
0.0
  0
LINE
  5
100
100
AcDbEntity
100
AcDbLine
  8
0
 62
7
420
16777215
370
-1
  6
BYLAYER
 10
29.0
 20
-23.0
 30
0.0
 11
23.0
 21
-23.0
 31
0.0
  0
ARC
  5
101
100
AcDbEntity
  8
0
 62
7
420
16777215
370
-1
  6
BYLAYER
100
AcDbCircle
 10
23.0
 20
-22.0
 30
0.0
 40
1.0
100
AcDbArc
 50
180.0
 51
270.0
  0
LINE
  5
102
100
AcDbEntity
100
AcDbLine
  8
0
 62
7
420
16777215
370
-1
  6
BYLAYER
 10
22.0
 20
-22.0
 30
0.0
 11
22.0
 21
-19.0
 31
0.0
  0
TEXT
  5
103
100
AcDbEntity
100
AcDbText
  8
layer1
 62
1
420
16711680
370
-1
  6
BYLAYER
 10
0.0
 20
0.0
 30
0.0
 40
3.0
  1
18
 50
0.0
 41
1.0
  7
textstyle18
 71
0
 72
1
 11
26.0
 21
-22.0
 31
0.0
 73
0
  0
ARC
  5
104
100
AcDbEntity
  8
0
 62
7
420
16777215
370
-1
  6
BYLAYER
100
AcDbCircle
 10
35.0
 20
-19.0
 30
0.0
 40
1.0
100
AcDbArc
 50
90.0
 51
180.0
  0
LINE
  5
105
100
AcDbEntity
100
AcDbLine
  8
0
 62
7
420
16777215
370
-1
  6
BYLAYER
 10
35.0
 20
-18.0
 30
0.0
 11
41.0
 21
-18.0
 31
0.0
  0
ARC
  5
106
100
AcDbEntity
  8
0
 62
7
420
16777215
370
-1
  6
BYLAYER
100
AcDbCircle
 10
41.0
 20
-19.0
 30
0.0
 40
1.0
100
AcDbArc
 50
0.0
 51
90.0
  0
LINE
  5
107
100
AcDbEntity
100
AcDbLine
  8
0
 62
7
420
16777215
370
-1
  6
BYLAYER
 10
42.0
 20
-19.0
 30
0.0
 11
42.0
 21
-22.0
 31
0.0
  0
ARC
  5
108
100
AcDbEntity
  8
0
 62
7
420
16777215
370
-1
  6
BYLAYER
100
AcDbCircle
 10
41.0
 20
-22.0
 30
0.0
 40
1.0
100
AcDbArc
 50
270.0
 51
0.0
  0
LINE
  5
109
100
AcDbEntity
100
AcDbLine
  8
0
 62
7
420
16777215
370
-1
  6
BYLAYER
 10
41.0
 20
-23.0
 30
0.0
 11
35.0
 21
-23.0
 31
0.0
  0
ARC
  5
10A
100
AcDbEntity
  8
0
 62
7
420
16777215
370
-1
  6
BYLAYER
100
AcDbCircle
 10
35.0
 20
-22.0
 30
0.0
 40
1.0
100
AcDbArc
 50
180.0
 51
270.0
  0
LINE
  5
10B
100
AcDbEntity
100
AcDbLine
  8
0
 62
7
420
16777215
370
-1
  6
BYLAYER
 10
34.0
 20
-22.0
 30
0.0
 11
34.0
 21
-19.0
 31
0.0
  0
TEXT
  5
10C
100
AcDbEntity
100
AcDbText
  8
layer1
 62
1
420
16711680
370
-1
  6
BYLAYER
 10
0.0
 20
0.0
 30
0.0
 40
3.0
  1
19
 50
0.0
 41
1.0
  7
textstyle19
 71
0
 72
1
 11
38.0
 21
-22.0
 31
0.0
 73
0
  0
ARC
  5
10D
100
AcDbEntity
  8
0
 62
7
420
16777215
370
-1
  6
BYLAYER
100
AcDbCircle
 10
47.0
 20
-19.0
 30
0.0
 40
1.0
100
AcDbArc
 50
90.0
 51
180.0
  0
LINE
  5
10E
100
AcDbEntity
100
AcDbLine
  8
0
 62
7
420
16777215
370
-1
  6
BYLAYER
 10
47.0
 20
-18.0
 30
0.0
 11
53.0
 21
-18.0
 31
0.0
  0
ARC
  5
10F
100
AcDbEntity
  8
0
 62
7
420
16777215
370
-1
  6
BYLAYER
100
AcDbCircle
 10
53.0
 20
-19.0
 30
0.0
 40
1.0
100
AcDbArc
 50
0.0
 51
90.0
  0
LINE
  5
110
100
AcDbEntity
100
AcDbLine
  8
0
 62
7
420
16777215
370
-1
  6
BYLAYER
 10
54.0
 20
-19.0
 30
0.0
 11
54.0
 21
-22.0
 31
0.0
  0
ARC
  5
111
100
AcDbEntity
  8
0
 62
7
420
16777215
370
-1
  6
BYLAYER
100
AcDbCircle
 10
53.0
 20
-22.0
 30
0.0
 40
1.0
100
AcDbArc
 50
270.0
 51
0.0
  0
LINE
  5
112
100
AcDbEntity
100
AcDbLine
  8
0
 62
7
420
16777215
370
-1
  6
BYLAYER
 10
53.0
 20
-23.0
 30
0.0
 11
47.0
 21
-23.0
 31
0.0
  0
ARC
  5
113
100
AcDbEntity
  8
0
 62
7
420
16777215
370
-1
  6
BYLAYER
100
AcDbCircle
 10
47.0
 20
-22.0
 30
0.0
 40
1.0
100
AcDbArc
 50
180.0
 51
270.0
  0
LINE
  5
114
100
AcDbEntity
100
AcDbLine
  8
0
 62
7
420
16777215
370
-1
  6
BYLAYER
 10
46.0
 20
-22.0
 30
0.0
 11
46.0
 21
-19.0
 31
0.0
  0
TEXT
  5
115
100
AcDbEntity
100
AcDbText
  8
layer1
 62
1
420
16711680
370
-1
  6
BYLAYER
 10
0.0
 20
0.0
 30
0.0
 40
3.0
  1
20
 50
0.0
 41
1.0
  7
textstyle20
 71
0
 72
1
 11
50.0
 21
-22.0
 31
0.0
 73
0
  0
ARC
  5
116
100
AcDbEntity
  8
0
 62
7
420
16777215
370
-1
  6
BYLAYER
100
AcDbCircle
 10
11.0
 20
9.0
 30
0.0
 40
1.0
100
AcDbArc
 50
90.0
 51
180.0
  0
LINE
  5
117
100
AcDbEntity
100
AcDbLine
  8
0
 62
7
420
16777215
370
-1
  6
BYLAYER
 10
11.0
 20
10.0
 30
0.0
 11
17.0
 21
10.0
 31
0.0
  0
ARC
  5
118
100
AcDbEntity
  8
0
 62
7
420
16777215
370
-1
  6
BYLAYER
100
AcDbCircle
 10
17.0
 20
9.0
 30
0.0
 40
1.0
100
AcDbArc
 50
0.0
 51
90.0
  0
LINE
  5
119
100
AcDbEntity
100
AcDbLine
  8
0
 62
7
420
16777215
370
-1
  6
BYLAYER
 10
18.0
 20
9.0
 30
0.0
 11
18.0
 21
6.0
 31
0.0
  0
ARC
  5
11A
100
AcDbEntity
  8
0
 62
7
420
16777215
370
-1
  6
BYLAYER
100
AcDbCircle
 10
17.0
 20
6.0
 30
0.0
 40
1.0
100
AcDbArc
 50
270.0
 51
0.0
  0
LINE
  5
11B
100
AcDbEntity
100
AcDbLine
  8
0
 62
7
420
16777215
370
-1
  6
BYLAYER
 10
17.0
 20
5.0
 30
0.0
 11
11.0
 21
5.0
 31
0.0
  0
ARC
  5
11C
100
AcDbEntity
  8
0
 62
7
420
16777215
370
-1
  6
BYLAYER
100
AcDbCircle
 10
11.0
 20
6.0
 30
0.0
 40
1.0
100
AcDbArc
 50
180.0
 51
270.0
  0
LINE
  5
11D
100
AcDbEntity
100
AcDbLine
  8
0
 62
7
420
16777215
370
-1
  6
BYLAYER
 10
10.0
 20
6.0
 30
0.0
 11
10.0
 21
9.0
 31
0.0
  0
ARC
  5
11E
100
AcDbEntity
  8
0
 62
7
420
16777215
370
-1
  6
BYLAYER
100
AcDbCircle
 10
23.0
 20
9.0
 30
0.0
 40
1.0
100
AcDbArc
 50
90.0
 51
180.0
  0
LINE
  5
11F
100
AcDbEntity
100
AcDbLine
  8
0
 62
7
420
16777215
370
-1
  6
BYLAYER
 10
23.0
 20
10.0
 30
0.0
 11
29.0
 21
10.0
 31
0.0
  0
ARC
  5
120
100
AcDbEntity
  8
0
 62
7
420
16777215
370
-1
  6
BYLAYER
100
AcDbCircle
 10
29.0
 20
9.0
 30
0.0
 40
1.0
100
AcDbArc
 50
0.0
 51
90.0
  0
LINE
  5
121
100
AcDbEntity
100
AcDbLine
  8
0
 62
7
420
16777215
370
-1
  6
BYLAYER
 10
30.0
 20
9.0
 30
0.0
 11
30.0
 21
6.0
 31
0.0
  0
ARC
  5
122
100
AcDbEntity
  8
0
 62
7
420
16777215
370
-1
  6
BYLAYER
100
AcDbCircle
 10
29.0
 20
6.0
 30
0.0
 40
1.0
100
AcDbArc
 50
270.0
 51
0.0
  0
LINE
  5
123
100
AcDbEntity
100
AcDbLine
  8
0
 62
7
420
16777215
370
-1
  6
BYLAYER
 10
29.0
 20
5.0
 30
0.0
 11
23.0
 21
5.0
 31
0.0
  0
ARC
  5
124
100
AcDbEntity
  8
0
 62
7
420
16777215
370
-1
  6
BYLAYER
100
AcDbCircle
 10
23.0
 20
6.0
 30
0.0
 40
1.0
100
AcDbArc
 50
180.0
 51
270.0
  0
LINE
  5
125
100
AcDbEntity
100
AcDbLine
  8
0
 62
7
420
16777215
370
-1
  6
BYLAYER
 10
22.0
 20
6.0
 30
0.0
 11
22.0
 21
9.0
 31
0.0
  0
ARC
  5
126
100
AcDbEntity
  8
0
 62
7
420
16777215
370
-1
  6
BYLAYER
100
AcDbCircle
 10
35.0
 20
9.0
 30
0.0
 40
1.0
100
AcDbArc
 50
90.0
 51
180.0
  0
LINE
  5
127
100
AcDbEntity
100
AcDbLine
  8
0
 62
7
420
16777215
370
-1
  6
BYLAYER
 10
35.0
 20
10.0
 30
0.0
 11
41.0
 21
10.0
 31
0.0
  0
ARC
  5
128
100
AcDbEntity
  8
0
 62
7
420
16777215
370
-1
  6
BYLAYER
100
AcDbCircle
 10
41.0
 20
9.0
 30
0.0
 40
1.0
100
AcDbArc
 50
0.0
 51
90.0
  0
LINE
  5
129
100
AcDbEntity
100
AcDbLine
  8
0
 62
7
420
16777215
370
-1
  6
BYLAYER
 10
42.0
 20
9.0
 30
0.0
 11
42.0
 21
6.0
 31
0.0
  0
ARC
  5
12A
100
AcDbEntity
  8
0
 62
7
420
16777215
370
-1
  6
BYLAYER
100
AcDbCircle
 10
41.0
 20
6.0
 30
0.0
 40
1.0
100
AcDbArc
 50
270.0
 51
0.0
  0
LINE
  5
12B
100
AcDbEntity
100
AcDbLine
  8
0
 62
7
420
16777215
370
-1
  6
BYLAYER
 10
41.0
 20
5.0
 30
0.0
 11
35.0
 21
5.0
 31
0.0
  0
ARC
  5
12C
100
AcDbEntity
  8
0
 62
7
420
16777215
370
-1
  6
BYLAYER
100
AcDbCircle
 10
35.0
 20
6.0
 30
0.0
 40
1.0
100
AcDbArc
 50
180.0
 51
270.0
  0
LINE
  5
12D
100
AcDbEntity
100
AcDbLine
  8
0
 62
7
420
16777215
370
-1
  6
BYLAYER
 10
34.0
 20
6.0
 30
0.0
 11
34.0
 21
9.0
 31
0.0
  0
ARC
  5
12E
100
AcDbEntity
  8
0
 62
7
420
16777215
370
-1
  6
BYLAYER
100
AcDbCircle
 10
47.0
 20
9.0
 30
0.0
 40
1.0
100
AcDbArc
 50
90.0
 51
180.0
  0
LINE
  5
12F
100
AcDbEntity
100
AcDbLine
  8
0
 62
7
420
16777215
370
-1
  6
BYLAYER
 10
47.0
 20
10.0
 30
0.0
 11
53.0
 21
10.0
 31
0.0
  0
ARC
  5
130
100
AcDbEntity
  8
0
 62
7
420
16777215
370
-1
  6
BYLAYER
100
AcDbCircle
 10
53.0
 20
9.0
 30
0.0
 40
1.0
100
AcDbArc
 50
0.0
 51
90.0
  0
LINE
  5
131
100
AcDbEntity
100
AcDbLine
  8
0
 62
7
420
16777215
370
-1
  6
BYLAYER
 10
54.0
 20
9.0
 30
0.0
 11
54.0
 21
6.0
 31
0.0
  0
ARC
  5
132
100
AcDbEntity
  8
0
 62
7
420
16777215
370
-1
  6
BYLAYER
100
AcDbCircle
 10
53.0
 20
6.0
 30
0.0
 40
1.0
100
AcDbArc
 50
270.0
 51
0.0
  0
LINE
  5
133
100
AcDbEntity
100
AcDbLine
  8
0
 62
7
420
16777215
370
-1
  6
BYLAYER
 10
53.0
 20
5.0
 30
0.0
 11
47.0
 21
5.0
 31
0.0
  0
ARC
  5
134
100
AcDbEntity
  8
0
 62
7
420
16777215
370
-1
  6
BYLAYER
100
AcDbCircle
 10
47.0
 20
6.0
 30
0.0
 40
1.0
100
AcDbArc
 50
180.0
 51
270.0
  0
LINE
  5
135
100
AcDbEntity
100
AcDbLine
  8
0
 62
7
420
16777215
370
-1
  6
BYLAYER
 10
46.0
 20
6.0
 30
0.0
 11
46.0
 21
9.0
 31
0.0
  0
ARC
  5
136
100
AcDbEntity
  8
0
 62
7
420
16777215
370
-1
  6
BYLAYER
100
AcDbCircle
 10
11.0
 20
2.0
 30
0.0
 40
1.0
100
AcDbArc
 50
90.0
 51
180.0
  0
LINE
  5
137
100
AcDbEntity
100
AcDbLine
  8
0
 62
7
420
16777215
370
-1
  6
BYLAYER
 10
11.0
 20
3.0
 30
0.0
 11
17.0
 21
3.0
 31
0.0
  0
ARC
  5
138
100
AcDbEntity
  8
0
 62
7
420
16777215
370
-1
  6
BYLAYER
100
AcDbCircle
 10
17.0
 20
2.0
 30
0.0
 40
1.0
100
AcDbArc
 50
0.0
 51
90.0
  0
LINE
  5
139
100
AcDbEntity
100
AcDbLine
  8
0
 62
7
420
16777215
370
-1
  6
BYLAYER
 10
18.0
 20
2.0
 30
0.0
 11
18.0
 21
-1.0
 31
0.0
  0
ARC
  5
13A
100
AcDbEntity
  8
0
 62
7
420
16777215
370
-1
  6
BYLAYER
100
AcDbCircle
 10
17.0
 20
-1.0
 30
0.0
 40
1.0
100
AcDbArc
 50
270.0
 51
0.0
  0
LINE
  5
13B
100
AcDbEntity
100
AcDbLine
  8
0
 62
7
420
16777215
370
-1
  6
BYLAYER
 10
17.0
 20
-2.0
 30
0.0
 11
11.0
 21
-2.0
 31
0.0
  0
ARC
  5
13C
100
AcDbEntity
  8
0
 62
7
420
16777215
370
-1
  6
BYLAYER
100
AcDbCircle
 10
11.0
 20
-1.0
 30
0.0
 40
1.0
100
AcDbArc
 50
180.0
 51
270.0
  0
LINE
  5
13D
100
AcDbEntity
100
AcDbLine
  8
0
 62
7
420
16777215
370
-1
  6
BYLAYER
 10
10.0
 20
-1.0
 30
0.0
 11
10.0
 21
2.0
 31
0.0
  0
ARC
  5
13E
100
AcDbEntity
  8
0
 62
7
420
16777215
370
-1
  6
BYLAYER
100
AcDbCircle
 10
23.0
 20
2.0
 30
0.0
 40
1.0
100
AcDbArc
 50
90.0
 51
180.0
  0
LINE
  5
13F
100
AcDbEntity
100
AcDbLine
  8
0
 62
7
420
16777215
370
-1
  6
BYLAYER
 10
23.0
 20
3.0
 30
0.0
 11
29.0
 21
3.0
 31
0.0
  0
ARC
  5
140
100
AcDbEntity
  8
0
 62
7
420
16777215
370
-1
  6
BYLAYER
100
AcDbCircle
 10
29.0
 20
2.0
 30
0.0
 40
1.0
100
AcDbArc
 50
0.0
 51
90.0
  0
LINE
  5
141
100
AcDbEntity
100
AcDbLine
  8
0
 62
7
420
16777215
370
-1
  6
BYLAYER
 10
30.0
 20
2.0
 30
0.0
 11
30.0
 21
-1.0
 31
0.0
  0
ARC
  5
142
100
AcDbEntity
  8
0
 62
7
420
16777215
370
-1
  6
BYLAYER
100
AcDbCircle
 10
29.0
 20
-1.0
 30
0.0
 40
1.0
100
AcDbArc
 50
270.0
 51
0.0
  0
LINE
  5
143
100
AcDbEntity
100
AcDbLine
  8
0
 62
7
420
16777215
370
-1
  6
BYLAYER
 10
29.0
 20
-2.0
 30
0.0
 11
23.0
 21
-2.0
 31
0.0
  0
ARC
  5
144
100
AcDbEntity
  8
0
 62
7
420
16777215
370
-1
  6
BYLAYER
100
AcDbCircle
 10
23.0
 20
-1.0
 30
0.0
 40
1.0
100
AcDbArc
 50
180.0
 51
270.0
  0
LINE
  5
145
100
AcDbEntity
100
AcDbLine
  8
0
 62
7
420
16777215
370
-1
  6
BYLAYER
 10
22.0
 20
-1.0
 30
0.0
 11
22.0
 21
2.0
 31
0.0
  0
ARC
  5
146
100
AcDbEntity
  8
0
 62
7
420
16777215
370
-1
  6
BYLAYER
100
AcDbCircle
 10
35.0
 20
2.0
 30
0.0
 40
1.0
100
AcDbArc
 50
90.0
 51
180.0
  0
LINE
  5
147
100
AcDbEntity
100
AcDbLine
  8
0
 62
7
420
16777215
370
-1
  6
BYLAYER
 10
35.0
 20
3.0
 30
0.0
 11
41.0
 21
3.0
 31
0.0
  0
ARC
  5
148
100
AcDbEntity
  8
0
 62
7
420
16777215
370
-1
  6
BYLAYER
100
AcDbCircle
 10
41.0
 20
2.0
 30
0.0
 40
1.0
100
AcDbArc
 50
0.0
 51
90.0
  0
LINE
  5
149
100
AcDbEntity
100
AcDbLine
  8
0
 62
7
420
16777215
370
-1
  6
BYLAYER
 10
42.0
 20
2.0
 30
0.0
 11
42.0
 21
-1.0
 31
0.0
  0
ARC
  5
14A
100
AcDbEntity
  8
0
 62
7
420
16777215
370
-1
  6
BYLAYER
100
AcDbCircle
 10
41.0
 20
-1.0
 30
0.0
 40
1.0
100
AcDbArc
 50
270.0
 51
0.0
  0
LINE
  5
14B
100
AcDbEntity
100
AcDbLine
  8
0
 62
7
420
16777215
370
-1
  6
BYLAYER
 10
41.0
 20
-2.0
 30
0.0
 11
35.0
 21
-2.0
 31
0.0
  0
ARC
  5
14C
100
AcDbEntity
  8
0
 62
7
420
16777215
370
-1
  6
BYLAYER
100
AcDbCircle
 10
35.0
 20
-1.0
 30
0.0
 40
1.0
100
AcDbArc
 50
180.0
 51
270.0
  0
LINE
  5
14D
100
AcDbEntity
100
AcDbLine
  8
0
 62
7
420
16777215
370
-1
  6
BYLAYER
 10
34.0
 20
-1.0
 30
0.0
 11
34.0
 21
2.0
 31
0.0
  0
ARC
  5
14E
100
AcDbEntity
  8
0
 62
7
420
16777215
370
-1
  6
BYLAYER
100
AcDbCircle
 10
47.0
 20
2.0
 30
0.0
 40
1.0
100
AcDbArc
 50
90.0
 51
180.0
  0
LINE
  5
14F
100
AcDbEntity
100
AcDbLine
  8
0
 62
7
420
16777215
370
-1
  6
BYLAYER
 10
47.0
 20
3.0
 30
0.0
 11
53.0
 21
3.0
 31
0.0
  0
ARC
  5
150
100
AcDbEntity
  8
0
 62
7
420
16777215
370
-1
  6
BYLAYER
100
AcDbCircle
 10
53.0
 20
2.0
 30
0.0
 40
1.0
100
AcDbArc
 50
0.0
 51
90.0
  0
LINE
  5
151
100
AcDbEntity
100
AcDbLine
  8
0
 62
7
420
16777215
370
-1
  6
BYLAYER
 10
54.0
 20
2.0
 30
0.0
 11
54.0
 21
-1.0
 31
0.0
  0
ARC
  5
152
100
AcDbEntity
  8
0
 62
7
420
16777215
370
-1
  6
BYLAYER
100
AcDbCircle
 10
53.0
 20
-1.0
 30
0.0
 40
1.0
100
AcDbArc
 50
270.0
 51
0.0
  0
LINE
  5
153
100
AcDbEntity
100
AcDbLine
  8
0
 62
7
420
16777215
370
-1
  6
BYLAYER
 10
53.0
 20
-2.0
 30
0.0
 11
47.0
 21
-2.0
 31
0.0
  0
ARC
  5
154
100
AcDbEntity
  8
0
 62
7
420
16777215
370
-1
  6
BYLAYER
100
AcDbCircle
 10
47.0
 20
-1.0
 30
0.0
 40
1.0
100
AcDbArc
 50
180.0
 51
270.0
  0
LINE
  5
155
100
AcDbEntity
100
AcDbLine
  8
0
 62
7
420
16777215
370
-1
  6
BYLAYER
 10
46.0
 20
-1.0
 30
0.0
 11
46.0
 21
2.0
 31
0.0
  0
ARC
  5
156
100
AcDbEntity
  8
0
 62
7
420
16777215
370
-1
  6
BYLAYER
100
AcDbCircle
 10
11.0
 20
-5.0
 30
0.0
 40
1.0
100
AcDbArc
 50
90.0
 51
180.0
  0
LINE
  5
157
100
AcDbEntity
100
AcDbLine
  8
0
 62
7
420
16777215
370
-1
  6
BYLAYER
 10
11.0
 20
-4.0
 30
0.0
 11
17.0
 21
-4.0
 31
0.0
  0
ARC
  5
158
100
AcDbEntity
  8
0
 62
7
420
16777215
370
-1
  6
BYLAYER
100
AcDbCircle
 10
17.0
 20
-5.0
 30
0.0
 40
1.0
100
AcDbArc
 50
0.0
 51
90.0
  0
LINE
  5
159
100
AcDbEntity
100
AcDbLine
  8
0
 62
7
420
16777215
370
-1
  6
BYLAYER
 10
18.0
 20
-5.0
 30
0.0
 11
18.0
 21
-8.0
 31
0.0
  0
ARC
  5
15A
100
AcDbEntity
  8
0
 62
7
420
16777215
370
-1
  6
BYLAYER
100
AcDbCircle
 10
17.0
 20
-8.0
 30
0.0
 40
1.0
100
AcDbArc
 50
270.0
 51
0.0
  0
LINE
  5
15B
100
AcDbEntity
100
AcDbLine
  8
0
 62
7
420
16777215
370
-1
  6
BYLAYER
 10
17.0
 20
-9.0
 30
0.0
 11
11.0
 21
-9.0
 31
0.0
  0
ARC
  5
15C
100
AcDbEntity
  8
0
 62
7
420
16777215
370
-1
  6
BYLAYER
100
AcDbCircle
 10
11.0
 20
-8.0
 30
0.0
 40
1.0
100
AcDbArc
 50
180.0
 51
270.0
  0
LINE
  5
15D
100
AcDbEntity
100
AcDbLine
  8
0
 62
7
420
16777215
370
-1
  6
BYLAYER
 10
10.0
 20
-8.0
 30
0.0
 11
10.0
 21
-5.0
 31
0.0
  0
ARC
  5
15E
100
AcDbEntity
  8
0
 62
7
420
16777215
370
-1
  6
BYLAYER
100
AcDbCircle
 10
23.0
 20
-5.0
 30
0.0
 40
1.0
100
AcDbArc
 50
90.0
 51
180.0
  0
LINE
  5
15F
100
AcDbEntity
100
AcDbLine
  8
0
 62
7
420
16777215
370
-1
  6
BYLAYER
 10
23.0
 20
-4.0
 30
0.0
 11
29.0
 21
-4.0
 31
0.0
  0
ARC
  5
160
100
AcDbEntity
  8
0
 62
7
420
16777215
370
-1
  6
BYLAYER
100
AcDbCircle
 10
29.0
 20
-5.0
 30
0.0
 40
1.0
100
AcDbArc
 50
0.0
 51
90.0
  0
LINE
  5
161
100
AcDbEntity
100
AcDbLine
  8
0
 62
7
420
16777215
370
-1
  6
BYLAYER
 10
30.0
 20
-5.0
 30
0.0
 11
30.0
 21
-8.0
 31
0.0
  0
ARC
  5
162
100
AcDbEntity
  8
0
 62
7
420
16777215
370
-1
  6
BYLAYER
100
AcDbCircle
 10
29.0
 20
-8.0
 30
0.0
 40
1.0
100
AcDbArc
 50
270.0
 51
0.0
  0
LINE
  5
163
100
AcDbEntity
100
AcDbLine
  8
0
 62
7
420
16777215
370
-1
  6
BYLAYER
 10
29.0
 20
-9.0
 30
0.0
 11
23.0
 21
-9.0
 31
0.0
  0
ARC
  5
164
100
AcDbEntity
  8
0
 62
7
420
16777215
370
-1
  6
BYLAYER
100
AcDbCircle
 10
23.0
 20
-8.0
 30
0.0
 40
1.0
100
AcDbArc
 50
180.0
 51
270.0
  0
LINE
  5
165
100
AcDbEntity
100
AcDbLine
  8
0
 62
7
420
16777215
370
-1
  6
BYLAYER
 10
22.0
 20
-8.0
 30
0.0
 11
22.0
 21
-5.0
 31
0.0
  0
ARC
  5
166
100
AcDbEntity
  8
0
 62
7
420
16777215
370
-1
  6
BYLAYER
100
AcDbCircle
 10
35.0
 20
-5.0
 30
0.0
 40
1.0
100
AcDbArc
 50
90.0
 51
180.0
  0
LINE
  5
167
100
AcDbEntity
100
AcDbLine
  8
0
 62
7
420
16777215
370
-1
  6
BYLAYER
 10
35.0
 20
-4.0
 30
0.0
 11
41.0
 21
-4.0
 31
0.0
  0
ARC
  5
168
100
AcDbEntity
  8
0
 62
7
420
16777215
370
-1
  6
BYLAYER
100
AcDbCircle
 10
41.0
 20
-5.0
 30
0.0
 40
1.0
100
AcDbArc
 50
0.0
 51
90.0
  0
LINE
  5
169
100
AcDbEntity
100
AcDbLine
  8
0
 62
7
420
16777215
370
-1
  6
BYLAYER
 10
42.0
 20
-5.0
 30
0.0
 11
42.0
 21
-8.0
 31
0.0
  0
ARC
  5
16A
100
AcDbEntity
  8
0
 62
7
420
16777215
370
-1
  6
BYLAYER
100
AcDbCircle
 10
41.0
 20
-8.0
 30
0.0
 40
1.0
100
AcDbArc
 50
270.0
 51
0.0
  0
LINE
  5
16B
100
AcDbEntity
100
AcDbLine
  8
0
 62
7
420
16777215
370
-1
  6
BYLAYER
 10
41.0
 20
-9.0
 30
0.0
 11
35.0
 21
-9.0
 31
0.0
  0
ARC
  5
16C
100
AcDbEntity
  8
0
 62
7
420
16777215
370
-1
  6
BYLAYER
100
AcDbCircle
 10
35.0
 20
-8.0
 30
0.0
 40
1.0
100
AcDbArc
 50
180.0
 51
270.0
  0
LINE
  5
16D
100
AcDbEntity
100
AcDbLine
  8
0
 62
7
420
16777215
370
-1
  6
BYLAYER
 10
34.0
 20
-8.0
 30
0.0
 11
34.0
 21
-5.0
 31
0.0
  0
ARC
  5
16E
100
AcDbEntity
  8
0
 62
7
420
16777215
370
-1
  6
BYLAYER
100
AcDbCircle
 10
47.0
 20
-5.0
 30
0.0
 40
1.0
100
AcDbArc
 50
90.0
 51
180.0
  0
LINE
  5
16F
100
AcDbEntity
100
AcDbLine
  8
0
 62
7
420
16777215
370
-1
  6
BYLAYER
 10
47.0
 20
-4.0
 30
0.0
 11
53.0
 21
-4.0
 31
0.0
  0
ARC
  5
170
100
AcDbEntity
  8
0
 62
7
420
16777215
370
-1
  6
BYLAYER
100
AcDbCircle
 10
53.0
 20
-5.0
 30
0.0
 40
1.0
100
AcDbArc
 50
0.0
 51
90.0
  0
LINE
  5
171
100
AcDbEntity
100
AcDbLine
  8
0
 62
7
420
16777215
370
-1
  6
BYLAYER
 10
54.0
 20
-5.0
 30
0.0
 11
54.0
 21
-8.0
 31
0.0
  0
ARC
  5
172
100
AcDbEntity
  8
0
 62
7
420
16777215
370
-1
  6
BYLAYER
100
AcDbCircle
 10
53.0
 20
-8.0
 30
0.0
 40
1.0
100
AcDbArc
 50
270.0
 51
0.0
  0
LINE
  5
173
100
AcDbEntity
100
AcDbLine
  8
0
 62
7
420
16777215
370
-1
  6
BYLAYER
 10
53.0
 20
-9.0
 30
0.0
 11
47.0
 21
-9.0
 31
0.0
  0
ARC
  5
174
100
AcDbEntity
  8
0
 62
7
420
16777215
370
-1
  6
BYLAYER
100
AcDbCircle
 10
47.0
 20
-8.0
 30
0.0
 40
1.0
100
AcDbArc
 50
180.0
 51
270.0
  0
LINE
  5
175
100
AcDbEntity
100
AcDbLine
  8
0
 62
7
420
16777215
370
-1
  6
BYLAYER
 10
46.0
 20
-8.0
 30
0.0
 11
46.0
 21
-5.0
 31
0.0
  0
ARC
  5
176
100
AcDbEntity
  8
0
 62
7
420
16777215
370
-1
  6
BYLAYER
100
AcDbCircle
 10
11.0
 20
-12.0
 30
0.0
 40
1.0
100
AcDbArc
 50
90.0
 51
180.0
  0
LINE
  5
177
100
AcDbEntity
100
AcDbLine
  8
0
 62
7
420
16777215
370
-1
  6
BYLAYER
 10
11.0
 20
-11.0
 30
0.0
 11
17.0
 21
-11.0
 31
0.0
  0
ARC
  5
178
100
AcDbEntity
  8
0
 62
7
420
16777215
370
-1
  6
BYLAYER
100
AcDbCircle
 10
17.0
 20
-12.0
 30
0.0
 40
1.0
100
AcDbArc
 50
0.0
 51
90.0
  0
LINE
  5
179
100
AcDbEntity
100
AcDbLine
  8
0
 62
7
420
16777215
370
-1
  6
BYLAYER
 10
18.0
 20
-12.0
 30
0.0
 11
18.0
 21
-15.0
 31
0.0
  0
ARC
  5
17A
100
AcDbEntity
  8
0
 62
7
420
16777215
370
-1
  6
BYLAYER
100
AcDbCircle
 10
17.0
 20
-15.0
 30
0.0
 40
1.0
100
AcDbArc
 50
270.0
 51
0.0
  0
LINE
  5
17B
100
AcDbEntity
100
AcDbLine
  8
0
 62
7
420
16777215
370
-1
  6
BYLAYER
 10
17.0
 20
-16.0
 30
0.0
 11
11.0
 21
-16.0
 31
0.0
  0
ARC
  5
17C
100
AcDbEntity
  8
0
 62
7
420
16777215
370
-1
  6
BYLAYER
100
AcDbCircle
 10
11.0
 20
-15.0
 30
0.0
 40
1.0
100
AcDbArc
 50
180.0
 51
270.0
  0
LINE
  5
17D
100
AcDbEntity
100
AcDbLine
  8
0
 62
7
420
16777215
370
-1
  6
BYLAYER
 10
10.0
 20
-15.0
 30
0.0
 11
10.0
 21
-12.0
 31
0.0
  0
ARC
  5
17E
100
AcDbEntity
  8
0
 62
7
420
16777215
370
-1
  6
BYLAYER
100
AcDbCircle
 10
23.0
 20
-12.0
 30
0.0
 40
1.0
100
AcDbArc
 50
90.0
 51
180.0
  0
LINE
  5
17F
100
AcDbEntity
100
AcDbLine
  8
0
 62
7
420
16777215
370
-1
  6
BYLAYER
 10
23.0
 20
-11.0
 30
0.0
 11
29.0
 21
-11.0
 31
0.0
  0
ARC
  5
180
100
AcDbEntity
  8
0
 62
7
420
16777215
370
-1
  6
BYLAYER
100
AcDbCircle
 10
29.0
 20
-12.0
 30
0.0
 40
1.0
100
AcDbArc
 50
0.0
 51
90.0
  0
LINE
  5
181
100
AcDbEntity
100
AcDbLine
  8
0
 62
7
420
16777215
370
-1
  6
BYLAYER
 10
30.0
 20
-12.0
 30
0.0
 11
30.0
 21
-15.0
 31
0.0
  0
ARC
  5
182
100
AcDbEntity
  8
0
 62
7
420
16777215
370
-1
  6
BYLAYER
100
AcDbCircle
 10
29.0
 20
-15.0
 30
0.0
 40
1.0
100
AcDbArc
 50
270.0
 51
0.0
  0
LINE
  5
183
100
AcDbEntity
100
AcDbLine
  8
0
 62
7
420
16777215
370
-1
  6
BYLAYER
 10
29.0
 20
-16.0
 30
0.0
 11
23.0
 21
-16.0
 31
0.0
  0
ARC
  5
184
100
AcDbEntity
  8
0
 62
7
420
16777215
370
-1
  6
BYLAYER
100
AcDbCircle
 10
23.0
 20
-15.0
 30
0.0
 40
1.0
100
AcDbArc
 50
180.0
 51
270.0
  0
LINE
  5
185
100
AcDbEntity
100
AcDbLine
  8
0
 62
7
420
16777215
370
-1
  6
BYLAYER
 10
22.0
 20
-15.0
 30
0.0
 11
22.0
 21
-12.0
 31
0.0
  0
ARC
  5
186
100
AcDbEntity
  8
0
 62
7
420
16777215
370
-1
  6
BYLAYER
100
AcDbCircle
 10
35.0
 20
-12.0
 30
0.0
 40
1.0
100
AcDbArc
 50
90.0
 51
180.0
  0
LINE
  5
187
100
AcDbEntity
100
AcDbLine
  8
0
 62
7
420
16777215
370
-1
  6
BYLAYER
 10
35.0
 20
-11.0
 30
0.0
 11
41.0
 21
-11.0
 31
0.0
  0
ARC
  5
188
100
AcDbEntity
  8
0
 62
7
420
16777215
370
-1
  6
BYLAYER
100
AcDbCircle
 10
41.0
 20
-12.0
 30
0.0
 40
1.0
100
AcDbArc
 50
0.0
 51
90.0
  0
LINE
  5
189
100
AcDbEntity
100
AcDbLine
  8
0
 62
7
420
16777215
370
-1
  6
BYLAYER
 10
42.0
 20
-12.0
 30
0.0
 11
42.0
 21
-15.0
 31
0.0
  0
ARC
  5
18A
100
AcDbEntity
  8
0
 62
7
420
16777215
370
-1
  6
BYLAYER
100
AcDbCircle
 10
41.0
 20
-15.0
 30
0.0
 40
1.0
100
AcDbArc
 50
270.0
 51
0.0
  0
LINE
  5
18B
100
AcDbEntity
100
AcDbLine
  8
0
 62
7
420
16777215
370
-1
  6
BYLAYER
 10
41.0
 20
-16.0
 30
0.0
 11
35.0
 21
-16.0
 31
0.0
  0
ARC
  5
18C
100
AcDbEntity
  8
0
 62
7
420
16777215
370
-1
  6
BYLAYER
100
AcDbCircle
 10
35.0
 20
-15.0
 30
0.0
 40
1.0
100
AcDbArc
 50
180.0
 51
270.0
  0
LINE
  5
18D
100
AcDbEntity
100
AcDbLine
  8
0
 62
7
420
16777215
370
-1
  6
BYLAYER
 10
34.0
 20
-15.0
 30
0.0
 11
34.0
 21
-12.0
 31
0.0
  0
ARC
  5
18E
100
AcDbEntity
  8
0
 62
7
420
16777215
370
-1
  6
BYLAYER
100
AcDbCircle
 10
47.0
 20
-12.0
 30
0.0
 40
1.0
100
AcDbArc
 50
90.0
 51
180.0
  0
LINE
  5
18F
100
AcDbEntity
100
AcDbLine
  8
0
 62
7
420
16777215
370
-1
  6
BYLAYER
 10
47.0
 20
-11.0
 30
0.0
 11
53.0
 21
-11.0
 31
0.0
  0
ARC
  5
190
100
AcDbEntity
  8
0
 62
7
420
16777215
370
-1
  6
BYLAYER
100
AcDbCircle
 10
53.0
 20
-12.0
 30
0.0
 40
1.0
100
AcDbArc
 50
0.0
 51
90.0
  0
LINE
  5
191
100
AcDbEntity
100
AcDbLine
  8
0
 62
7
420
16777215
370
-1
  6
BYLAYER
 10
54.0
 20
-12.0
 30
0.0
 11
54.0
 21
-15.0
 31
0.0
  0
ARC
  5
192
100
AcDbEntity
  8
0
 62
7
420
16777215
370
-1
  6
BYLAYER
100
AcDbCircle
 10
53.0
 20
-15.0
 30
0.0
 40
1.0
100
AcDbArc
 50
270.0
 51
0.0
  0
LINE
  5
193
100
AcDbEntity
100
AcDbLine
  8
0
 62
7
420
16777215
370
-1
  6
BYLAYER
 10
53.0
 20
-16.0
 30
0.0
 11
47.0
 21
-16.0
 31
0.0
  0
ARC
  5
194
100
AcDbEntity
  8
0
 62
7
420
16777215
370
-1
  6
BYLAYER
100
AcDbCircle
 10
47.0
 20
-15.0
 30
0.0
 40
1.0
100
AcDbArc
 50
180.0
 51
270.0
  0
LINE
  5
195
100
AcDbEntity
100
AcDbLine
  8
0
 62
7
420
16777215
370
-1
  6
BYLAYER
 10
46.0
 20
-15.0
 30
0.0
 11
46.0
 21
-12.0
 31
0.0
  0
ARC
  5
196
100
AcDbEntity
  8
0
 62
7
420
16777215
370
-1
  6
BYLAYER
100
AcDbCircle
 10
11.0
 20
-19.0
 30
0.0
 40
1.0
100
AcDbArc
 50
90.0
 51
180.0
  0
LINE
  5
197
100
AcDbEntity
100
AcDbLine
  8
0
 62
7
420
16777215
370
-1
  6
BYLAYER
 10
11.0
 20
-18.0
 30
0.0
 11
17.0
 21
-18.0
 31
0.0
  0
ARC
  5
198
100
AcDbEntity
  8
0
 62
7
420
16777215
370
-1
  6
BYLAYER
100
AcDbCircle
 10
17.0
 20
-19.0
 30
0.0
 40
1.0
100
AcDbArc
 50
0.0
 51
90.0
  0
LINE
  5
199
100
AcDbEntity
100
AcDbLine
  8
0
 62
7
420
16777215
370
-1
  6
BYLAYER
 10
18.0
 20
-19.0
 30
0.0
 11
18.0
 21
-22.0
 31
0.0
  0
ARC
  5
19A
100
AcDbEntity
  8
0
 62
7
420
16777215
370
-1
  6
BYLAYER
100
AcDbCircle
 10
17.0
 20
-22.0
 30
0.0
 40
1.0
100
AcDbArc
 50
270.0
 51
0.0
  0
LINE
  5
19B
100
AcDbEntity
100
AcDbLine
  8
0
 62
7
420
16777215
370
-1
  6
BYLAYER
 10
17.0
 20
-23.0
 30
0.0
 11
11.0
 21
-23.0
 31
0.0
  0
ARC
  5
19C
100
AcDbEntity
  8
0
 62
7
420
16777215
370
-1
  6
BYLAYER
100
AcDbCircle
 10
11.0
 20
-22.0
 30
0.0
 40
1.0
100
AcDbArc
 50
180.0
 51
270.0
  0
LINE
  5
19D
100
AcDbEntity
100
AcDbLine
  8
0
 62
7
420
16777215
370
-1
  6
BYLAYER
 10
10.0
 20
-22.0
 30
0.0
 11
10.0
 21
-19.0
 31
0.0
  0
ARC
  5
19E
100
AcDbEntity
  8
0
 62
7
420
16777215
370
-1
  6
BYLAYER
100
AcDbCircle
 10
23.0
 20
-19.0
 30
0.0
 40
1.0
100
AcDbArc
 50
90.0
 51
180.0
  0
LINE
  5
19F
100
AcDbEntity
100
AcDbLine
  8
0
 62
7
420
16777215
370
-1
  6
BYLAYER
 10
23.0
 20
-18.0
 30
0.0
 11
29.0
 21
-18.0
 31
0.0
  0
ARC
  5
1A0
100
AcDbEntity
  8
0
 62
7
420
16777215
370
-1
  6
BYLAYER
100
AcDbCircle
 10
29.0
 20
-19.0
 30
0.0
 40
1.0
100
AcDbArc
 50
0.0
 51
90.0
  0
LINE
  5
1A1
100
AcDbEntity
100
AcDbLine
  8
0
 62
7
420
16777215
370
-1
  6
BYLAYER
 10
30.0
 20
-19.0
 30
0.0
 11
30.0
 21
-22.0
 31
0.0
  0
ARC
  5
1A2
100
AcDbEntity
  8
0
 62
7
420
16777215
370
-1
  6
BYLAYER
100
AcDbCircle
 10
29.0
 20
-22.0
 30
0.0
 40
1.0
100
AcDbArc
 50
270.0
 51
0.0
  0
LINE
  5
1A3
100
AcDbEntity
100
AcDbLine
  8
0
 62
7
420
16777215
370
-1
  6
BYLAYER
 10
29.0
 20
-23.0
 30
0.0
 11
23.0
 21
-23.0
 31
0.0
  0
ARC
  5
1A4
100
AcDbEntity
  8
0
 62
7
420
16777215
370
-1
  6
BYLAYER
100
AcDbCircle
 10
23.0
 20
-22.0
 30
0.0
 40
1.0
100
AcDbArc
 50
180.0
 51
270.0
  0
LINE
  5
1A5
100
AcDbEntity
100
AcDbLine
  8
0
 62
7
420
16777215
370
-1
  6
BYLAYER
 10
22.0
 20
-22.0
 30
0.0
 11
22.0
 21
-19.0
 31
0.0
  0
ARC
  5
1A6
100
AcDbEntity
  8
0
 62
7
420
16777215
370
-1
  6
BYLAYER
100
AcDbCircle
 10
35.0
 20
-19.0
 30
0.0
 40
1.0
100
AcDbArc
 50
90.0
 51
180.0
  0
LINE
  5
1A7
100
AcDbEntity
100
AcDbLine
  8
0
 62
7
420
16777215
370
-1
  6
BYLAYER
 10
35.0
 20
-18.0
 30
0.0
 11
41.0
 21
-18.0
 31
0.0
  0
ARC
  5
1A8
100
AcDbEntity
  8
0
 62
7
420
16777215
370
-1
  6
BYLAYER
100
AcDbCircle
 10
41.0
 20
-19.0
 30
0.0
 40
1.0
100
AcDbArc
 50
0.0
 51
90.0
  0
LINE
  5
1A9
100
AcDbEntity
100
AcDbLine
  8
0
 62
7
420
16777215
370
-1
  6
BYLAYER
 10
42.0
 20
-19.0
 30
0.0
 11
42.0
 21
-22.0
 31
0.0
  0
ARC
  5
1AA
100
AcDbEntity
  8
0
 62
7
420
16777215
370
-1
  6
BYLAYER
100
AcDbCircle
 10
41.0
 20
-22.0
 30
0.0
 40
1.0
100
AcDbArc
 50
270.0
 51
0.0
  0
LINE
  5
1AB
100
AcDbEntity
100
AcDbLine
  8
0
 62
7
420
16777215
370
-1
  6
BYLAYER
 10
41.0
 20
-23.0
 30
0.0
 11
35.0
 21
-23.0
 31
0.0
  0
ARC
  5
1AC
100
AcDbEntity
  8
0
 62
7
420
16777215
370
-1
  6
BYLAYER
100
AcDbCircle
 10
35.0
 20
-22.0
 30
0.0
 40
1.0
100
AcDbArc
 50
180.0
 51
270.0
  0
LINE
  5
1AD
100
AcDbEntity
100
AcDbLine
  8
0
 62
7
420
16777215
370
-1
  6
BYLAYER
 10
34.0
 20
-22.0
 30
0.0
 11
34.0
 21
-19.0
 31
0.0
  0
ARC
  5
1AE
100
AcDbEntity
  8
0
 62
7
420
16777215
370
-1
  6
BYLAYER
100
AcDbCircle
 10
47.0
 20
-19.0
 30
0.0
 40
1.0
100
AcDbArc
 50
90.0
 51
180.0
  0
LINE
  5
1AF
100
AcDbEntity
100
AcDbLine
  8
0
 62
7
420
16777215
370
-1
  6
BYLAYER
 10
47.0
 20
-18.0
 30
0.0
 11
53.0
 21
-18.0
 31
0.0
  0
ARC
  5
1B0
100
AcDbEntity
  8
0
 62
7
420
16777215
370
-1
  6
BYLAYER
100
AcDbCircle
 10
53.0
 20
-19.0
 30
0.0
 40
1.0
100
AcDbArc
 50
0.0
 51
90.0
  0
LINE
  5
1B1
100
AcDbEntity
100
AcDbLine
  8
0
 62
7
420
16777215
370
-1
  6
BYLAYER
 10
54.0
 20
-19.0
 30
0.0
 11
54.0
 21
-22.0
 31
0.0
  0
ARC
  5
1B2
100
AcDbEntity
  8
0
 62
7
420
16777215
370
-1
  6
BYLAYER
100
AcDbCircle
 10
53.0
 20
-22.0
 30
0.0
 40
1.0
100
AcDbArc
 50
270.0
 51
0.0
  0
LINE
  5
1B3
100
AcDbEntity
100
AcDbLine
  8
0
 62
7
420
16777215
370
-1
  6
BYLAYER
 10
53.0
 20
-23.0
 30
0.0
 11
47.0
 21
-23.0
 31
0.0
  0
ARC
  5
1B4
100
AcDbEntity
  8
0
 62
7
420
16777215
370
-1
  6
BYLAYER
100
AcDbCircle
 10
47.0
 20
-22.0
 30
0.0
 40
1.0
100
AcDbArc
 50
180.0
 51
270.0
  0
LINE
  5
1B5
100
AcDbEntity
100
AcDbLine
  8
0
 62
7
420
16777215
370
-1
  6
BYLAYER
 10
46.0
 20
-22.0
 30
0.0
 11
46.0
 21
-19.0
 31
0.0
  0
ENDSEC
  0
SECTION
  2
OBJECTS
  0
DICTIONARY
  5
C
100
AcDbDictionary
280
0
281
1
  3
ACAD_GROUP
350
D
  3
ACAD_LAYOUT
350
1A
  3
ACAD_MLINESTYLE
350
17
  3
ACAD_PLOTSETTINGS
350
19
  3
ACAD_PLOTSTYLENAME
350
E
  3
AcDbVariableDictionary
350
1B6
  3
QCAD_OBJECTS
350
1B7
  0
DICTIONARY
  5
D
100
AcDbDictionary
280
0
281
1
  0
ACDBDICTIONARYWDFLT
  5
E
100
AcDbDictionary
281
1
  3
Normal
350
F
100
AcDbDictionaryWithDefault
340
F
  0
ACDBPLACEHOLDER
  5
F
  0
DICTIONARY
  5
17
100
AcDbDictionary
280
0
281
1
  3
Standard
350
18
  0
MLINESTYLE
  5
18
100
AcDbMlineStyle
  2
STANDARD
 70
0
  3

 62
256
 51
90.0
 52
90.0
 71
2
 49
0.5
 62
256
  6
BYLAYER
 49
-0.5
 62
256
  6
BYLAYER
  0
DICTIONARY
  5
19
100
AcDbDictionary
280
0
281
1
  0
DICTIONARY
  5
1A
100
AcDbDictionary
281
1
  3
Layout1
350
1E
  3
Layout2
350
26
  3
Model
350
22
  0
LAYOUT
  5
1E
100
AcDbPlotSettings
  1

  2
C:\Program Files\AutoCAD 2002\plotters\DWF ePlot (optimized for plotting).pc3
  4

  6

 40
0.0
 41
0.0
 42
0.0
 43
0.0
 44
0.0
 45
0.0
 46
0.0
 47
0.0
 48
0.0
 49
0.0
140
0.0
141
0.0
142
1.0
143
1.0
 70
688
 72
0
 73
0
 74
5
  7

 75
16
147
1.0
148
0.0
149
0.0
100
AcDbLayout
  1
Layout1
 70
1
 71
1
 10
0.0
 20
0.0
 11
420.0
 21
297.0
 12
0.0
 22
0.0
 32
0.0
 14
100000000000000000000.0
 24
100000000000000000000.0
 34
100000000000000000000.0
 15
-100000000000000000000.0
 25
-100000000000000000000.0
 35
-100000000000000000000.0
146
0.0
 13
0.0
 23
0.0
 33
0.0
 16
1.0
 26
0.0
 36
0.0
 17
0.0
 27
1.0
 37
0.0
 76
0
330
1B
  0
LAYOUT
  5
22
100
AcDbPlotSettings
  1

  2
C:\Program Files\AutoCAD 2002\plotters\DWF ePlot (optimized for plotting).pc3
  4

  6

 40
0.0
 41
0.0
 42
0.0
 43
0.0
 44
0.0
 45
0.0
 46
0.0
 47
0.0
 48
0.0
 49
0.0
140
0.0
141
0.0
142
1.0
143
1.0
 70
1712
 72
0
 73
0
 74
0
  7

 75
0
147
1.0
148
0.0
149
0.0
100
AcDbLayout
  1
Model
 70
1
 71
0
 10
0.0
 20
0.0
 11
12.0
 21
9.0
 12
0.0
 22
0.0
 32
0.0
 14
0.0
 24
0.0
 34
0.0
 15
0.0
 25
0.0
 35
0.0
146
0.0
 13
0.0
 23
0.0
 33
0.0
 16
1.0
 26
0.0
 36
0.0
 17
0.0
 27
1.0
 37
0.0
 76
0
330
1F
  0
LAYOUT
  5
26
100
AcDbPlotSettings
  1

  2
C:\Program Files\AutoCAD 2002\plotters\DWF ePlot (optimized for plotting).pc3
  4

  6

 40
0.0
 41
0.0
 42
0.0
 43
0.0
 44
0.0
 45
0.0
 46
0.0
 47
0.0
 48
0.0
 49
0.0
140
0.0
141
0.0
142
1.0
143
1.0
 70
688
 72
0
 73
0
 74
5
  7

 75
16
147
1.0
148
0.0
149
0.0
100
AcDbLayout
  1
Layout2
 70
1
 71
2
 10
0.0
 20
0.0
 11
12.0
 21
9.0
 12
0.0
 22
0.0
 32
0.0
 14
0.0
 24
0.0
 34
0.0
 15
0.0
 25
0.0
 35
0.0
146
0.0
 13
0.0
 23
0.0
 33
0.0
 16
1.0
 26
0.0
 36
0.0
 17
0.0
 27
1.0
 37
0.0
 76
0
330
23
  0
DICTIONARY
  5
1B6
100
AcDbDictionary
281
1
  3
DIMASSOC
350
1B9
  3
HIDETEXT
350
1B8
  0
DICTIONARYVAR
  5
1B8
100
DictionaryVariables
280
0
  1
2
  0
DICTIONARYVAR
  5
1B9
100
DictionaryVariables
280
0
  1
1
  0
DICTIONARY
  5
1B7
100
AcDbDictionary
281
1
  3
Grid/DisplayGrid00
350
1BA
  3
Grid/DisplayGrid01
350
1BB
  3
Grid/DisplayGrid02
350
1BC
  3
Grid/DisplayGrid03
350
1BD
  3
Grid/GridSpacingX00
350
1BE
  3
Grid/GridSpacingX01
350
1BF
  3
Grid/GridSpacingX02
350
1C0
  3
Grid/GridSpacingX03
350
1C1
  3
Grid/GridSpacingY00
350
1C2
  3
Grid/GridSpacingY01
350
1C3
  3
Grid/GridSpacingY02
350
1C4
  3
Grid/GridSpacingY03
350
1C5
  3
Grid/IsometricGrid00
350
1C6
  3
Grid/IsometricGrid01
350
1C7
  3
Grid/IsometricGrid02
350
1C8
  3
Grid/IsometricGrid03
350
1C9
  3
Grid/IsometricProjection00
350
1CA
  3
Grid/IsometricProjection01
350
1CB
  3
Grid/IsometricProjection02
350
1CC
  3
Grid/IsometricProjection03
350
1CD
  3
Grid/MetaGridSpacingX00
350
1CE
  3
Grid/MetaGridSpacingX01
350
1CF
  3
Grid/MetaGridSpacingX02
350
1D0
  3
Grid/MetaGridSpacingX03
350
1D1
  3
Grid/MetaGridSpacingY00
350
1D2
  3
Grid/MetaGridSpacingY01
350
1D3
  3
Grid/MetaGridSpacingY02
350
1D4
  3
Grid/MetaGridSpacingY03
350
1D5
  3
MultiPageSettings/Columns
350
1D6
  3
MultiPageSettings/GlueMarginsBottom
350
1D7
  3
MultiPageSettings/GlueMarginsLeft
350
1D8
  3
MultiPageSettings/GlueMarginsRight
350
1D9
  3
MultiPageSettings/GlueMarginsTop
350
1DA
  3
MultiPageSettings/PrintCropMarks
350
1DB
  3
MultiPageSettings/Rows
350
1DC
  3
PageSettings/OffsetX
350
1DD
  3
PageSettings/OffsetY
350
1DE
  3
PageSettings/PageOrientation
350
1DF
  3
PageSettings/PaperHeight
350
1E0
  3
PageSettings/PaperWidth
350
1E1
  3
PageSettings/Scale
350
1E2
  3
PageSettings/ShowPaperBorders
350
1E3
  3
UnitSettings/PaperUnit
350
1E4
  0
XRECORD
  5
1BA
330
1B7
100
AcDbXrecord
280
1
290
1
  0
XRECORD
  5
1BB
330
1B7
100
AcDbXrecord
280
1
290
1
  0
XRECORD
  5
1BC
330
1B7
100
AcDbXrecord
280
1
290
1
  0
XRECORD
  5
1BD
330
1B7
100
AcDbXrecord
280
1
290
1
  0
XRECORD
  5
1BE
330
1B7
100
AcDbXrecord
280
1
1000
auto
  0
XRECORD
  5
1BF
330
1B7
100
AcDbXrecord
280
1
1000
auto
  0
XRECORD
  5
1C0
330
1B7
100
AcDbXrecord
280
1
1000
auto
  0
XRECORD
  5
1C1
330
1B7
100
AcDbXrecord
280
1
1000
auto
  0
XRECORD
  5
1C2
330
1B7
100
AcDbXrecord
280
1
1000
auto
  0
XRECORD
  5
1C3
330
1B7
100
AcDbXrecord
280
1
1000
auto
  0
XRECORD
  5
1C4
330
1B7
100
AcDbXrecord
280
1
1000
auto
  0
XRECORD
  5
1C5
330
1B7
100
AcDbXrecord
280
1
1000
auto
  0
XRECORD
  5
1C6
330
1B7
100
AcDbXrecord
280
1
290
0
  0
XRECORD
  5
1C7
330
1B7
100
AcDbXrecord
280
1
290
0
  0
XRECORD
  5
1C8
330
1B7
100
AcDbXrecord
280
1
290
0
  0
XRECORD
  5
1C9
330
1B7
100
AcDbXrecord
280
1
290
0
  0
XRECORD
  5
1CA
330
1B7
100
AcDbXrecord
280
1
 90
0
  0
XRECORD
  5
1CB
330
1B7
100
AcDbXrecord
280
1
 90
0
  0
XRECORD
  5
1CC
330
1B7
100
AcDbXrecord
280
1
 90
0
  0
XRECORD
  5
1CD
330
1B7
100
AcDbXrecord
280
1
 90
0
  0
XRECORD
  5
1CE
330
1B7
100
AcDbXrecord
280
1
1000
auto
  0
XRECORD
  5
1CF
330
1B7
100
AcDbXrecord
280
1
1000
auto
  0
XRECORD
  5
1D0
330
1B7
100
AcDbXrecord
280
1
1000
auto
  0
XRECORD
  5
1D1
330
1B7
100
AcDbXrecord
280
1
1000
auto
  0
XRECORD
  5
1D2
330
1B7
100
AcDbXrecord
280
1
1000
auto
  0
XRECORD
  5
1D3
330
1B7
100
AcDbXrecord
280
1
1000
auto
  0
XRECORD
  5
1D4
330
1B7
100
AcDbXrecord
280
1
1000
auto
  0
XRECORD
  5
1D5
330
1B7
100
AcDbXrecord
280
1
1000
auto
  0
XRECORD
  5
1D6
330
1B7
100
AcDbXrecord
280
1
 90
1
  0
XRECORD
  5
1D7
330
1B7
100
AcDbXrecord
280
1
 40
10.0
  0
XRECORD
  5
1D8
330
1B7
100
AcDbXrecord
280
1
 40
10.0
  0
XRECORD
  5
1D9
330
1B7
100
AcDbXrecord
280
1
 40
10.0
  0
XRECORD
  5
1DA
330
1B7
100
AcDbXrecord
280
1
 40
10.0
  0
XRECORD
  5
1DB
330
1B7
100
AcDbXrecord
280
1
290
0
  0
XRECORD
  5
1DC
330
1B7
100
AcDbXrecord
280
1
 90
1
  0
XRECORD
  5
1DD
330
1B7
100
AcDbXrecord
280
1
 40
0.0
  0
XRECORD
  5
1DE
330
1B7
100
AcDbXrecord
280
1
 40
0.0
  0
XRECORD
  5
1DF
330
1B7
100
AcDbXrecord
280
1
1000
Portrait
  0
XRECORD
  5
1E0
330
1B7
100
AcDbXrecord
280
1
 40
594.0
  0
XRECORD
  5
1E1
330
1B7
100
AcDbXrecord
280
1
 40
420.0
  0
XRECORD
  5
1E2
330
1B7
100
AcDbXrecord
280
1
1000
1:1
  0
XRECORD
  5
1E3
330
1B7
100
AcDbXrecord
280
1
290
1
  0
XRECORD
  5
1E4
330
1B7
100
AcDbXrecord
280
1
 90
4
  0
ENDSEC
  0
EOF
