  0
SECTION
  2
HEADER
  9
$ACADVER
  1
AC1009
  9
$EXTMIN
 10
0.0
 20
0.0
 30
0.0
  9
$EXTMAX
 10
100.0
 20
100.0
 30
0.0
  9
$INSBASE
 10
0.0
 20
0.0
 30
0.0
  0
ENDSEC
  0
SECTION
  2
TABLES
  0
TABLE
  2
LTYPE
 70
19
  0
LTYPE
  2
PHANTOM
 70
0
  3
Phantom ______  __  __  ______  __  __  ______
 72
65
 73
6
 40
2.5
 49
1.25
 49
-0.25
 49
0.25
 49
-0.25
 49
0.25
 49
-0.25
  0
LTYPE
  2
DOT2
 70
0
  3
Dot (.5) . . . . . . . . . . . . . . . . . . . 
 72
65
 73
2
 40
0.1
 49
0.0
 49
-0.1
  0
LTYPE
  2
DIVIDE
 70
0
  3
Divide __ . . __ . . __ . . __ . . __ . . __
 72
65
 73
6
 40
1.6
 49
1.0
 49
-0.2
 49
0.0
 49
-0.2
 49
0.0
 49
-0.2
  0
LTYPE
  2
DIVIDEX2
 70
0
  3
Divide (2x) ____  . .  ____  . .  ____  . .  ____
 72
65
 73
6
 40
2.6
 49
2.0
 49
-0.2
 49
0.0
 49
-0.2
 49
0.0
 49
-0.2
  0
LTYPE
  2
CENTER
 70
0
  3
Center ____ _ ____ _ ____ _ ____ _ ____ _ ____
 72
65
 73
4
 40
2.0
 49
1.25
 49
-0.25
 49
0.25
 49
-0.25
  0
LTYPE
  2
DASHDOT
 70
0
  3
Dash dot __ . __ . __ . __ . __ . __ . __ . __
 72
65
 73
4
 40
1.4
 49
1.0
 49
-0.2
 49
0.0
 49
-0.2
  0
LTYPE
  2
CENTERX2
 70
0
  3
Center (2x) ________  __  ________  __  ________
 72
65
 73
4
 40
3.5
 49
2.5
 49
-0.25
 49
0.5
 49
-0.25
  0
LTYPE
  2
PHANTOMX2
 70
0
  3
Phantom (2x)____________    ____    ____    ____________
 72
65
 73
6
 40
4.25
 49
2.5
 49
-0.25
 49
0.5
 49
-0.25
 49
0.5
 49
-0.25
  0
LTYPE
  2
CONTINUOUS
 70
0
  3
Solid
 72
65
 73
0
 40
0.0
  0
LTYPE
  2
PHANTOM2
 70
0
  3
Phantom (.5x) ___ _ _ ___ _ _ ___ _ _ ___ _ _ ___
 72
65
 73
6
 40
1.25
 49
0.625
 49
-0.125
 49
0.125
 49
-0.125
 49
0.125
 49
-0.125
  0
LTYPE
  2
DASHED
 70
0
  3
Dashed __ __ __ __ __ __ __ __ __ __ __ __ __ _
 72
65
 73
2
 40
0.6
 49
0.5
 49
-0.1
  0
LTYPE
  2
DASHED2
 70
0
  3
Dashed (.5x) _ _ _ _ _ _ _ _ _ _ _ _ _ _
 72
65
 73
2
 40
0.3
 49
0.25
 49
-0.05
  0
LTYPE
  2
DASHDOT2
 70
0
  3
Dash dot (.5x) _ . _ . _ . _ . _ . _ . _ . _
 72
65
 73
4
 40
0.7
 49
0.5
 49
-0.1
 49
0.0
 49
-0.1
  0
LTYPE
  2
DOTX2
 70
0
  3
Dot (2x) .    .    .    .    .    .    .    . 
 72
65
 73
2
 40
0.4
 49
0.0
 49
-0.4
  0
LTYPE
  2
DIVIDE2
 70
0
  3
Divide(.5x) _ . _ . _ . _ . _ . _ . _ . _
 72
65
 73
6
 40
0.8
 49
0.5
 49
-0.1
 49
0.0
 49
-0.1
 49
0.0
 49
-0.1
  0
LTYPE
  2
CENTER2
 70
0
  3
Center (.5x) ____ _ ____ _ ____ _ ____ _ ____
 72
65
 73
4
 40
1.0
 49
0.625
 49
-0.125
 49
0.125
 49
-0.125
  0
LTYPE
  2
DASHDOTX2
 70
0
  3
Dash dot (2x) ____  .  ____  .  ____  .  ____
 72
65
 73
4
 40
2.4
 49
2.0
 49
-0.2
 49
0.0
 49
-0.2
  0
LTYPE
  2
DOT
 70
0
  3
Dot .  .  .  .  .  .  .  .  .  .  .  .  .  .  .  .
 72
65
 73
2
 40
0.2
 49
0.0
 49
-0.2
  0
LTYPE
  2
DASHEDX2
 70
0
  3
Dashed (2x) ____  ____  ____  ____  ____  ____
 72
65
 73
2
 40
1.2
 49
1.0
 49
-0.2
  0
ENDTAB
  0
TABLE
  2
LAYER
 70
6
  0
LAYER
  2
layer1
 70
0
 62
7
  6
CONTINUOUS
  0
LAYER
  2
DIMENSIONS
 70
0
 62
1
  6
CONTINUOUS
  0
LAYER
  2
TABLECONTENT
 70
0
 62
1
  6
CONTINUOUS
  0
LAYER
  2
TABLEBACKGROUND
 70
0
 62
1
  6
CONTINUOUS
  0
LAYER
  2
TABLEGRID
 70
0
 62
1
  6
CONTINUOUS
  0
LAYER
  2
VIEWPORTS
 70
0
 62
7
  6
CONTINUOUS
  0
ENDTAB
  0
TABLE
  2
STYLE
 70
12
  0
STYLE
  2
TIMES
 70
0
 40
0.0
 41
1.0
 42
1.0
 50
0.0
 71
0
  3
times.ttf
  4

  0
STYLE
  2
ARIAL
 70
0
 40
0.0
 41
1.0
 42
1.0
 50
0.0
 71
0
  3
arial.ttf
  4

  0
STYLE
  2
TIMES_BOLD
 70
0
 40
0.0
 41
1.0
 42
1.0
 50
0.0
 71
0
  3
timesbd.ttf
  4

  0
STYLE
  2
ARIAL_BLACK
 70
0
 40
0.0
 41
1.0
 42
1.0
 50
0.0
 71
0
  3
ariblk.ttf
  4

  0
STYLE
  2
TIMES_ITALIC
 70
0
 40
0.0
 41
1.0
 42
1.0
 50
0.0
 71
0
  3
timesi.ttf
  4

  0
STYLE
  2
ISOCPEUR
 70
0
 40
0.0
 41
1.0
 42
1.0
 50
0.0
 71
0
  3
isocpeur.ttf
  4

  0
STYLE
  2
ARIAL_BOLD
 70
0
 40
0.0
 41
1.0
 42
1.0
 50
0.0
 71
0
  3
arialbd.ttf
  4

  0
STYLE
  2
ARIAL_ITALIC
 70
0
 40
0.0
 41
1.0
 42
1.0
 50
0.0
 71
0
  3
ariali.ttf
  4

  0
STYLE
  2
ARIAL_BOLD_ITALIC
 70
0
 40
0.0
 41
1.0
 42
1.0
 50
0.0
 71
0
  3
arialbi.ttf
  4

  0
STYLE
  2
TIMES_BOLD_ITALIC
 70
0
 40
0.0
 41
1.0
 42
1.0
 50
0.0
 71
0
  3
timesbi.ttf
  4

  0
STYLE
  2
ISOCPEUR_ITALIC
 70
0
 40
0.0
 41
1.0
 42
1.0
 50
0.0
 71
0
  3
isocpeui.ttf
  4

  0
STYLE
  2
STANDARD
 70
0
 40
0.0
 41
1.0
 42
1.0
 50
0.0
 71
0
  3
arial.ttf
  4

  0
ENDTAB
  0
TABLE
  2
VIEW
 70
0
  0
ENDTAB
  0
TABLE
  2
APPID
 70
1
  0
APPID
  2
DXFWRITE
 70
0
  0
ENDTAB
  0
TABLE
  2
VPORT
 70
0
  0
ENDTAB
  0
TABLE
  2
UCS
 70
0
  0
ENDTAB
  0
ENDSEC
  0
SECTION
  2
BLOCKS
  0
ENDSEC
  0
SECTION
  2
ENTITIES
  0
VIEWPORT
  8
VIEWPORTS
 67
1
 10
0.0
 20
0.0
 30
0.0
 40
1.0
 41
1.0
 68
1
 69
1
1001
ACAD
1000
MVIEW
1002
{
1070
16
1010
0.0
1020
0.0
1030
0.0
1010
0.0
1020
0.0
1030
0.0
1040
0.0
1040
1.0
1040
0.0
1040
0.0
1040
50.0
1040
0.0
1040
0.0
1070
0
1070
100
1070
1
1070
3
1070
0
1070
0
1070
0
1070
0
1040
0.0
1040
0.0
1040
0.0
1040
0.1
1040
0.1
1040
0.1
1040
0.1
1070
0
1002
{
1002
}
1002
}
  0
ARC
 62
7
  8
0
 10
11.0
 20
9.0
 30
0.0
 40
1.0
 50
90.0
 51
180.0
  0
LINE
 62
7
  8
0
 10
11.0
 20
10.0
 30
0.0
 11
17.0
 21
10.0
 31
0.0
  0
ARC
 62
7
  8
0
 10
17.0
 20
9.0
 30
0.0
 40
1.0
 50
0.0
 51
90.0
  0
LINE
 62
7
  8
0
 10
18.0
 20
9.0
 30
0.0
 11
18.0
 21
6.0
 31
0.0
  0
ARC
 62
7
  8
0
 10
17.0
 20
6.0
 30
0.0
 40
1.0
 50
270.0
 51
0.0
  0
LINE
 62
7
  8
0
 10
17.0
 20
5.0
 30
0.0
 11
11.0
 21
5.0
 31
0.0
  0
ARC
 62
7
  8
0
 10
11.0
 20
6.0
 30
0.0
 40
1.0
 50
180.0
 51
270.0
  0
LINE
 62
7
  8
0
 10
10.0
 20
6.0
 30
0.0
 11
10.0
 21
9.0
 31
0.0
  0
ARC
 62
7
  8
0
 10
23.0
 20
9.0
 30
0.0
 40
1.0
 50
90.0
 51
180.0
  0
LINE
 62
7
  8
0
 10
23.0
 20
10.0
 30
0.0
 11
29.0
 21
10.0
 31
0.0
  0
ARC
 62
7
  8
0
 10
29.0
 20
9.0
 30
0.0
 40
1.0
 50
0.0
 51
90.0
  0
LINE
 62
7
  8
0
 10
30.0
 20
9.0
 30
0.0
 11
30.0
 21
6.0
 31
0.0
  0
ARC
 62
7
  8
0
 10
29.0
 20
6.0
 30
0.0
 40
1.0
 50
270.0
 51
0.0
  0
LINE
 62
7
  8
0
 10
29.0
 20
5.0
 30
0.0
 11
23.0
 21
5.0
 31
0.0
  0
ARC
 62
7
  8
0
 10
23.0
 20
6.0
 30
0.0
 40
1.0
 50
180.0
 51
270.0
  0
LINE
 62
7
  8
0
 10
22.0
 20
6.0
 30
0.0
 11
22.0
 21
9.0
 31
0.0
  0
ARC
 62
7
  8
0
 10
35.0
 20
9.0
 30
0.0
 40
1.0
 50
90.0
 51
180.0
  0
LINE
 62
7
  8
0
 10
35.0
 20
10.0
 30
0.0
 11
41.0
 21
10.0
 31
0.0
  0
ARC
 62
7
  8
0
 10
41.0
 20
9.0
 30
0.0
 40
1.0
 50
0.0
 51
90.0
  0
LINE
 62
7
  8
0
 10
42.0
 20
9.0
 30
0.0
 11
42.0
 21
6.0
 31
0.0
  0
ARC
 62
7
  8
0
 10
41.0
 20
6.0
 30
0.0
 40
1.0
 50
270.0
 51
0.0
  0
LINE
 62
7
  8
0
 10
41.0
 20
5.0
 30
0.0
 11
35.0
 21
5.0
 31
0.0
  0
ARC
 62
7
  8
0
 10
35.0
 20
6.0
 30
0.0
 40
1.0
 50
180.0
 51
270.0
  0
LINE
 62
7
  8
0
 10
34.0
 20
6.0
 30
0.0
 11
34.0
 21
9.0
 31
0.0
  0
ARC
 62
7
  8
0
 10
47.0
 20
9.0
 30
0.0
 40
1.0
 50
90.0
 51
180.0
  0
LINE
 62
7
  8
0
 10
47.0
 20
10.0
 30
0.0
 11
53.0
 21
10.0
 31
0.0
  0
ARC
 62
7
  8
0
 10
53.0
 20
9.0
 30
0.0
 40
1.0
 50
0.0
 51
90.0
  0
LINE
 62
7
  8
0
 10
54.0
 20
9.0
 30
0.0
 11
54.0
 21
6.0
 31
0.0
  0
ARC
 62
7
  8
0
 10
53.0
 20
6.0
 30
0.0
 40
1.0
 50
270.0
 51
0.0
  0
LINE
 62
7
  8
0
 10
53.0
 20
5.0
 30
0.0
 11
47.0
 21
5.0
 31
0.0
  0
ARC
 62
7
  8
0
 10
47.0
 20
6.0
 30
0.0
 40
1.0
 50
180.0
 51
270.0
  0
LINE
 62
7
  8
0
 10
46.0
 20
6.0
 30
0.0
 11
46.0
 21
9.0
 31
0.0
  0
ARC
 62
7
  8
0
 10
59.0
 20
9.0
 30
0.0
 40
1.0
 50
90.0
 51
180.0
  0
LINE
 62
7
  8
0
 10
59.0
 20
10.0
 30
0.0
 11
65.0
 21
10.0
 31
0.0
  0
ARC
 62
7
  8
0
 10
65.0
 20
9.0
 30
0.0
 40
1.0
 50
0.0
 51
90.0
  0
LINE
 62
7
  8
0
 10
66.0
 20
9.0
 30
0.0
 11
66.0
 21
6.0
 31
0.0
  0
ARC
 62
7
  8
0
 10
65.0
 20
6.0
 30
0.0
 40
1.0
 50
270.0
 51
0.0
  0
LINE
 62
7
  8
0
 10
65.0
 20
5.0
 30
0.0
 11
59.0
 21
5.0
 31
0.0
  0
ARC
 62
7
  8
0
 10
59.0
 20
6.0
 30
0.0
 40
1.0
 50
180.0
 51
270.0
  0
LINE
 62
7
  8
0
 10
58.0
 20
6.0
 30
0.0
 11
58.0
 21
9.0
 31
0.0
  0
ARC
 62
7
  8
0
 10
71.0
 20
9.0
 30
0.0
 40
1.0
 50
90.0
 51
180.0
  0
LINE
 62
7
  8
0
 10
71.0
 20
10.0
 30
0.0
 11
77.0
 21
10.0
 31
0.0
  0
ARC
 62
7
  8
0
 10
77.0
 20
9.0
 30
0.0
 40
1.0
 50
0.0
 51
90.0
  0
LINE
 62
7
  8
0
 10
78.0
 20
9.0
 30
0.0
 11
78.0
 21
6.0
 31
0.0
  0
ARC
 62
7
  8
0
 10
77.0
 20
6.0
 30
0.0
 40
1.0
 50
270.0
 51
0.0
  0
LINE
 62
7
  8
0
 10
77.0
 20
5.0
 30
0.0
 11
71.0
 21
5.0
 31
0.0
  0
ARC
 62
7
  8
0
 10
71.0
 20
6.0
 30
0.0
 40
1.0
 50
180.0
 51
270.0
  0
LINE
 62
7
  8
0
 10
70.0
 20
6.0
 30
0.0
 11
70.0
 21
9.0
 31
0.0
  0
ARC
 62
7
  8
0
 10
83.0
 20
9.0
 30
0.0
 40
1.0
 50
90.0
 51
180.0
  0
LINE
 62
7
  8
0
 10
83.0
 20
10.0
 30
0.0
 11
89.0
 21
10.0
 31
0.0
  0
ARC
 62
7
  8
0
 10
89.0
 20
9.0
 30
0.0
 40
1.0
 50
0.0
 51
90.0
  0
LINE
 62
7
  8
0
 10
90.0
 20
9.0
 30
0.0
 11
90.0
 21
6.0
 31
0.0
  0
ARC
 62
7
  8
0
 10
89.0
 20
6.0
 30
0.0
 40
1.0
 50
270.0
 51
0.0
  0
LINE
 62
7
  8
0
 10
89.0
 20
5.0
 30
0.0
 11
83.0
 21
5.0
 31
0.0
  0
ARC
 62
7
  8
0
 10
83.0
 20
6.0
 30
0.0
 40
1.0
 50
180.0
 51
270.0
  0
LINE
 62
7
  8
0
 10
82.0
 20
6.0
 30
0.0
 11
82.0
 21
9.0
 31
0.0
  0
ARC
 62
7
  8
0
 10
95.0
 20
9.0
 30
0.0
 40
1.0
 50
90.0
 51
180.0
  0
LINE
 62
7
  8
0
 10
95.0
 20
10.0
 30
0.0
 11
101.0
 21
10.0
 31
0.0
  0
ARC
 62
7
  8
0
 10
101.0
 20
9.0
 30
0.0
 40
1.0
 50
0.0
 51
90.0
  0
LINE
 62
7
  8
0
 10
102.0
 20
9.0
 30
0.0
 11
102.0
 21
6.0
 31
0.0
  0
ARC
 62
7
  8
0
 10
101.0
 20
6.0
 30
0.0
 40
1.0
 50
270.0
 51
0.0
  0
LINE
 62
7
  8
0
 10
101.0
 20
5.0
 30
0.0
 11
95.0
 21
5.0
 31
0.0
  0
ARC
 62
7
  8
0
 10
95.0
 20
6.0
 30
0.0
 40
1.0
 50
180.0
 51
270.0
  0
LINE
 62
7
  8
0
 10
94.0
 20
6.0
 30
0.0
 11
94.0
 21
9.0
 31
0.0
  0
ARC
 62
7
  8
0
 10
11.0
 20
2.0
 30
0.0
 40
1.0
 50
90.0
 51
180.0
  0
LINE
 62
7
  8
0
 10
11.0
 20
3.0
 30
0.0
 11
17.0
 21
3.0
 31
0.0
  0
ARC
 62
7
  8
0
 10
17.0
 20
2.0
 30
0.0
 40
1.0
 50
0.0
 51
90.0
  0
LINE
 62
7
  8
0
 10
18.0
 20
2.0
 30
0.0
 11
18.0
 21
-1.0
 31
0.0
  0
ARC
 62
7
  8
0
 10
17.0
 20
-1.0
 30
0.0
 40
1.0
 50
270.0
 51
0.0
  0
LINE
 62
7
  8
0
 10
17.0
 20
-2.0
 30
0.0
 11
11.0
 21
-2.0
 31
0.0
  0
ARC
 62
7
  8
0
 10
11.0
 20
-1.0
 30
0.0
 40
1.0
 50
180.0
 51
270.0
  0
LINE
 62
7
  8
0
 10
10.0
 20
-1.0
 30
0.0
 11
10.0
 21
2.0
 31
0.0
  0
ARC
 62
7
  8
0
 10
23.0
 20
2.0
 30
0.0
 40
1.0
 50
90.0
 51
180.0
  0
LINE
 62
7
  8
0
 10
23.0
 20
3.0
 30
0.0
 11
29.0
 21
3.0
 31
0.0
  0
ARC
 62
7
  8
0
 10
29.0
 20
2.0
 30
0.0
 40
1.0
 50
0.0
 51
90.0
  0
LINE
 62
7
  8
0
 10
30.0
 20
2.0
 30
0.0
 11
30.0
 21
-1.0
 31
0.0
  0
ARC
 62
7
  8
0
 10
29.0
 20
-1.0
 30
0.0
 40
1.0
 50
270.0
 51
0.0
  0
LINE
 62
7
  8
0
 10
29.0
 20
-2.0
 30
0.0
 11
23.0
 21
-2.0
 31
0.0
  0
ARC
 62
7
  8
0
 10
23.0
 20
-1.0
 30
0.0
 40
1.0
 50
180.0
 51
270.0
  0
LINE
 62
7
  8
0
 10
22.0
 20
-1.0
 30
0.0
 11
22.0
 21
2.0
 31
0.0
  0
ARC
 62
7
  8
0
 10
35.0
 20
2.0
 30
0.0
 40
1.0
 50
90.0
 51
180.0
  0
LINE
 62
7
  8
0
 10
35.0
 20
3.0
 30
0.0
 11
41.0
 21
3.0
 31
0.0
  0
ARC
 62
7
  8
0
 10
41.0
 20
2.0
 30
0.0
 40
1.0
 50
0.0
 51
90.0
  0
LINE
 62
7
  8
0
 10
42.0
 20
2.0
 30
0.0
 11
42.0
 21
-1.0
 31
0.0
  0
ARC
 62
7
  8
0
 10
41.0
 20
-1.0
 30
0.0
 40
1.0
 50
270.0
 51
0.0
  0
LINE
 62
7
  8
0
 10
41.0
 20
-2.0
 30
0.0
 11
35.0
 21
-2.0
 31
0.0
  0
ARC
 62
7
  8
0
 10
35.0
 20
-1.0
 30
0.0
 40
1.0
 50
180.0
 51
270.0
  0
LINE
 62
7
  8
0
 10
34.0
 20
-1.0
 30
0.0
 11
34.0
 21
2.0
 31
0.0
  0
ARC
 62
7
  8
0
 10
47.0
 20
2.0
 30
0.0
 40
1.0
 50
90.0
 51
180.0
  0
LINE
 62
7
  8
0
 10
47.0
 20
3.0
 30
0.0
 11
53.0
 21
3.0
 31
0.0
  0
ARC
 62
7
  8
0
 10
53.0
 20
2.0
 30
0.0
 40
1.0
 50
0.0
 51
90.0
  0
LINE
 62
7
  8
0
 10
54.0
 20
2.0
 30
0.0
 11
54.0
 21
-1.0
 31
0.0
  0
ARC
 62
7
  8
0
 10
53.0
 20
-1.0
 30
0.0
 40
1.0
 50
270.0
 51
0.0
  0
LINE
 62
7
  8
0
 10
53.0
 20
-2.0
 30
0.0
 11
47.0
 21
-2.0
 31
0.0
  0
ARC
 62
7
  8
0
 10
47.0
 20
-1.0
 30
0.0
 40
1.0
 50
180.0
 51
270.0
  0
LINE
 62
7
  8
0
 10
46.0
 20
-1.0
 30
0.0
 11
46.0
 21
2.0
 31
0.0
  0
ARC
 62
7
  8
0
 10
59.0
 20
2.0
 30
0.0
 40
1.0
 50
90.0
 51
180.0
  0
LINE
 62
7
  8
0
 10
59.0
 20
3.0
 30
0.0
 11
65.0
 21
3.0
 31
0.0
  0
ARC
 62
7
  8
0
 10
65.0
 20
2.0
 30
0.0
 40
1.0
 50
0.0
 51
90.0
  0
LINE
 62
7
  8
0
 10
66.0
 20
2.0
 30
0.0
 11
66.0
 21
-1.0
 31
0.0
  0
ARC
 62
7
  8
0
 10
65.0
 20
-1.0
 30
0.0
 40
1.0
 50
270.0
 51
0.0
  0
LINE
 62
7
  8
0
 10
65.0
 20
-2.0
 30
0.0
 11
59.0
 21
-2.0
 31
0.0
  0
ARC
 62
7
  8
0
 10
59.0
 20
-1.0
 30
0.0
 40
1.0
 50
180.0
 51
270.0
  0
LINE
 62
7
  8
0
 10
58.0
 20
-1.0
 30
0.0
 11
58.0
 21
2.0
 31
0.0
  0
ARC
 62
7
  8
0
 10
71.0
 20
2.0
 30
0.0
 40
1.0
 50
90.0
 51
180.0
  0
LINE
 62
7
  8
0
 10
71.0
 20
3.0
 30
0.0
 11
77.0
 21
3.0
 31
0.0
  0
ARC
 62
7
  8
0
 10
77.0
 20
2.0
 30
0.0
 40
1.0
 50
0.0
 51
90.0
  0
LINE
 62
7
  8
0
 10
78.0
 20
2.0
 30
0.0
 11
78.0
 21
-1.0
 31
0.0
  0
ARC
 62
7
  8
0
 10
77.0
 20
-1.0
 30
0.0
 40
1.0
 50
270.0
 51
0.0
  0
LINE
 62
7
  8
0
 10
77.0
 20
-2.0
 30
0.0
 11
71.0
 21
-2.0
 31
0.0
  0
ARC
 62
7
  8
0
 10
71.0
 20
-1.0
 30
0.0
 40
1.0
 50
180.0
 51
270.0
  0
LINE
 62
7
  8
0
 10
70.0
 20
-1.0
 30
0.0
 11
70.0
 21
2.0
 31
0.0
  0
ARC
 62
7
  8
0
 10
83.0
 20
2.0
 30
0.0
 40
1.0
 50
90.0
 51
180.0
  0
LINE
 62
7
  8
0
 10
83.0
 20
3.0
 30
0.0
 11
89.0
 21
3.0
 31
0.0
  0
ARC
 62
7
  8
0
 10
89.0
 20
2.0
 30
0.0
 40
1.0
 50
0.0
 51
90.0
  0
LINE
 62
7
  8
0
 10
90.0
 20
2.0
 30
0.0
 11
90.0
 21
-1.0
 31
0.0
  0
ARC
 62
7
  8
0
 10
89.0
 20
-1.0
 30
0.0
 40
1.0
 50
270.0
 51
0.0
  0
LINE
 62
7
  8
0
 10
89.0
 20
-2.0
 30
0.0
 11
83.0
 21
-2.0
 31
0.0
  0
ARC
 62
7
  8
0
 10
83.0
 20
-1.0
 30
0.0
 40
1.0
 50
180.0
 51
270.0
  0
LINE
 62
7
  8
0
 10
82.0
 20
-1.0
 30
0.0
 11
82.0
 21
2.0
 31
0.0
  0
ARC
 62
7
  8
0
 10
95.0
 20
2.0
 30
0.0
 40
1.0
 50
90.0
 51
180.0
  0
LINE
 62
7
  8
0
 10
95.0
 20
3.0
 30
0.0
 11
101.0
 21
3.0
 31
0.0
  0
ARC
 62
7
  8
0
 10
101.0
 20
2.0
 30
0.0
 40
1.0
 50
0.0
 51
90.0
  0
LINE
 62
7
  8
0
 10
102.0
 20
2.0
 30
0.0
 11
102.0
 21
-1.0
 31
0.0
  0
ARC
 62
7
  8
0
 10
101.0
 20
-1.0
 30
0.0
 40
1.0
 50
270.0
 51
0.0
  0
LINE
 62
7
  8
0
 10
101.0
 20
-2.0
 30
0.0
 11
95.0
 21
-2.0
 31
0.0
  0
ARC
 62
7
  8
0
 10
95.0
 20
-1.0
 30
0.0
 40
1.0
 50
180.0
 51
270.0
  0
LINE
 62
7
  8
0
 10
94.0
 20
-1.0
 30
0.0
 11
94.0
 21
2.0
 31
0.0
  0
ARC
 62
7
  8
0
 10
11.0
 20
-5.0
 30
0.0
 40
1.0
 50
90.0
 51
180.0
  0
LINE
 62
7
  8
0
 10
11.0
 20
-4.0
 30
0.0
 11
17.0
 21
-4.0
 31
0.0
  0
ARC
 62
7
  8
0
 10
17.0
 20
-5.0
 30
0.0
 40
1.0
 50
0.0
 51
90.0
  0
LINE
 62
7
  8
0
 10
18.0
 20
-5.0
 30
0.0
 11
18.0
 21
-8.0
 31
0.0
  0
ARC
 62
7
  8
0
 10
17.0
 20
-8.0
 30
0.0
 40
1.0
 50
270.0
 51
0.0
  0
LINE
 62
7
  8
0
 10
17.0
 20
-9.0
 30
0.0
 11
11.0
 21
-9.0
 31
0.0
  0
ARC
 62
7
  8
0
 10
11.0
 20
-8.0
 30
0.0
 40
1.0
 50
180.0
 51
270.0
  0
LINE
 62
7
  8
0
 10
10.0
 20
-8.0
 30
0.0
 11
10.0
 21
-5.0
 31
0.0
  0
ARC
 62
7
  8
0
 10
23.0
 20
-5.0
 30
0.0
 40
1.0
 50
90.0
 51
180.0
  0
LINE
 62
7
  8
0
 10
23.0
 20
-4.0
 30
0.0
 11
29.0
 21
-4.0
 31
0.0
  0
ARC
 62
7
  8
0
 10
29.0
 20
-5.0
 30
0.0
 40
1.0
 50
0.0
 51
90.0
  0
LINE
 62
7
  8
0
 10
30.0
 20
-5.0
 30
0.0
 11
30.0
 21
-8.0
 31
0.0
  0
ARC
 62
7
  8
0
 10
29.0
 20
-8.0
 30
0.0
 40
1.0
 50
270.0
 51
0.0
  0
LINE
 62
7
  8
0
 10
29.0
 20
-9.0
 30
0.0
 11
23.0
 21
-9.0
 31
0.0
  0
ARC
 62
7
  8
0
 10
23.0
 20
-8.0
 30
0.0
 40
1.0
 50
180.0
 51
270.0
  0
LINE
 62
7
  8
0
 10
22.0
 20
-8.0
 30
0.0
 11
22.0
 21
-5.0
 31
0.0
  0
ARC
 62
7
  8
0
 10
35.0
 20
-5.0
 30
0.0
 40
1.0
 50
90.0
 51
180.0
  0
LINE
 62
7
  8
0
 10
35.0
 20
-4.0
 30
0.0
 11
41.0
 21
-4.0
 31
0.0
  0
ARC
 62
7
  8
0
 10
41.0
 20
-5.0
 30
0.0
 40
1.0
 50
0.0
 51
90.0
  0
LINE
 62
7
  8
0
 10
42.0
 20
-5.0
 30
0.0
 11
42.0
 21
-8.0
 31
0.0
  0
ARC
 62
7
  8
0
 10
41.0
 20
-8.0
 30
0.0
 40
1.0
 50
270.0
 51
0.0
  0
LINE
 62
7
  8
0
 10
41.0
 20
-9.0
 30
0.0
 11
35.0
 21
-9.0
 31
0.0
  0
ARC
 62
7
  8
0
 10
35.0
 20
-8.0
 30
0.0
 40
1.0
 50
180.0
 51
270.0
  0
LINE
 62
7
  8
0
 10
34.0
 20
-8.0
 30
0.0
 11
34.0
 21
-5.0
 31
0.0
  0
ARC
 62
7
  8
0
 10
47.0
 20
-5.0
 30
0.0
 40
1.0
 50
90.0
 51
180.0
  0
LINE
 62
7
  8
0
 10
47.0
 20
-4.0
 30
0.0
 11
53.0
 21
-4.0
 31
0.0
  0
ARC
 62
7
  8
0
 10
53.0
 20
-5.0
 30
0.0
 40
1.0
 50
0.0
 51
90.0
  0
LINE
 62
7
  8
0
 10
54.0
 20
-5.0
 30
0.0
 11
54.0
 21
-8.0
 31
0.0
  0
ARC
 62
7
  8
0
 10
53.0
 20
-8.0
 30
0.0
 40
1.0
 50
270.0
 51
0.0
  0
LINE
 62
7
  8
0
 10
53.0
 20
-9.0
 30
0.0
 11
47.0
 21
-9.0
 31
0.0
  0
ARC
 62
7
  8
0
 10
47.0
 20
-8.0
 30
0.0
 40
1.0
 50
180.0
 51
270.0
  0
LINE
 62
7
  8
0
 10
46.0
 20
-8.0
 30
0.0
 11
46.0
 21
-5.0
 31
0.0
  0
ARC
 62
7
  8
0
 10
59.0
 20
-5.0
 30
0.0
 40
1.0
 50
90.0
 51
180.0
  0
LINE
 62
7
  8
0
 10
59.0
 20
-4.0
 30
0.0
 11
65.0
 21
-4.0
 31
0.0
  0
ARC
 62
7
  8
0
 10
65.0
 20
-5.0
 30
0.0
 40
1.0
 50
0.0
 51
90.0
  0
LINE
 62
7
  8
0
 10
66.0
 20
-5.0
 30
0.0
 11
66.0
 21
-8.0
 31
0.0
  0
ARC
 62
7
  8
0
 10
65.0
 20
-8.0
 30
0.0
 40
1.0
 50
270.0
 51
0.0
  0
LINE
 62
7
  8
0
 10
65.0
 20
-9.0
 30
0.0
 11
59.0
 21
-9.0
 31
0.0
  0
ARC
 62
7
  8
0
 10
59.0
 20
-8.0
 30
0.0
 40
1.0
 50
180.0
 51
270.0
  0
LINE
 62
7
  8
0
 10
58.0
 20
-8.0
 30
0.0
 11
58.0
 21
-5.0
 31
0.0
  0
ARC
 62
7
  8
0
 10
71.0
 20
-5.0
 30
0.0
 40
1.0
 50
90.0
 51
180.0
  0
LINE
 62
7
  8
0
 10
71.0
 20
-4.0
 30
0.0
 11
77.0
 21
-4.0
 31
0.0
  0
ARC
 62
7
  8
0
 10
77.0
 20
-5.0
 30
0.0
 40
1.0
 50
0.0
 51
90.0
  0
LINE
 62
7
  8
0
 10
78.0
 20
-5.0
 30
0.0
 11
78.0
 21
-8.0
 31
0.0
  0
ARC
 62
7
  8
0
 10
77.0
 20
-8.0
 30
0.0
 40
1.0
 50
270.0
 51
0.0
  0
LINE
 62
7
  8
0
 10
77.0
 20
-9.0
 30
0.0
 11
71.0
 21
-9.0
 31
0.0
  0
ARC
 62
7
  8
0
 10
71.0
 20
-8.0
 30
0.0
 40
1.0
 50
180.0
 51
270.0
  0
LINE
 62
7
  8
0
 10
70.0
 20
-8.0
 30
0.0
 11
70.0
 21
-5.0
 31
0.0
  0
ARC
 62
7
  8
0
 10
83.0
 20
-5.0
 30
0.0
 40
1.0
 50
90.0
 51
180.0
  0
LINE
 62
7
  8
0
 10
83.0
 20
-4.0
 30
0.0
 11
89.0
 21
-4.0
 31
0.0
  0
ARC
 62
7
  8
0
 10
89.0
 20
-5.0
 30
0.0
 40
1.0
 50
0.0
 51
90.0
  0
LINE
 62
7
  8
0
 10
90.0
 20
-5.0
 30
0.0
 11
90.0
 21
-8.0
 31
0.0
  0
ARC
 62
7
  8
0
 10
89.0
 20
-8.0
 30
0.0
 40
1.0
 50
270.0
 51
0.0
  0
LINE
 62
7
  8
0
 10
89.0
 20
-9.0
 30
0.0
 11
83.0
 21
-9.0
 31
0.0
  0
ARC
 62
7
  8
0
 10
83.0
 20
-8.0
 30
0.0
 40
1.0
 50
180.0
 51
270.0
  0
LINE
 62
7
  8
0
 10
82.0
 20
-8.0
 30
0.0
 11
82.0
 21
-5.0
 31
0.0
  0
ARC
 62
7
  8
0
 10
95.0
 20
-5.0
 30
0.0
 40
1.0
 50
90.0
 51
180.0
  0
LINE
 62
7
  8
0
 10
95.0
 20
-4.0
 30
0.0
 11
101.0
 21
-4.0
 31
0.0
  0
ARC
 62
7
  8
0
 10
101.0
 20
-5.0
 30
0.0
 40
1.0
 50
0.0
 51
90.0
  0
LINE
 62
7
  8
0
 10
102.0
 20
-5.0
 30
0.0
 11
102.0
 21
-8.0
 31
0.0
  0
ARC
 62
7
  8
0
 10
101.0
 20
-8.0
 30
0.0
 40
1.0
 50
270.0
 51
0.0
  0
LINE
 62
7
  8
0
 10
101.0
 20
-9.0
 30
0.0
 11
95.0
 21
-9.0
 31
0.0
  0
ARC
 62
7
  8
0
 10
95.0
 20
-8.0
 30
0.0
 40
1.0
 50
180.0
 51
270.0
  0
LINE
 62
7
  8
0
 10
94.0
 20
-8.0
 30
0.0
 11
94.0
 21
-5.0
 31
0.0
  0
ARC
 62
7
  8
0
 10
11.0
 20
-12.0
 30
0.0
 40
1.0
 50
90.0
 51
180.0
  0
LINE
 62
7
  8
0
 10
11.0
 20
-11.0
 30
0.0
 11
17.0
 21
-11.0
 31
0.0
  0
ARC
 62
7
  8
0
 10
17.0
 20
-12.0
 30
0.0
 40
1.0
 50
0.0
 51
90.0
  0
LINE
 62
7
  8
0
 10
18.0
 20
-12.0
 30
0.0
 11
18.0
 21
-15.0
 31
0.0
  0
ARC
 62
7
  8
0
 10
17.0
 20
-15.0
 30
0.0
 40
1.0
 50
270.0
 51
0.0
  0
LINE
 62
7
  8
0
 10
17.0
 20
-16.0
 30
0.0
 11
11.0
 21
-16.0
 31
0.0
  0
ARC
 62
7
  8
0
 10
11.0
 20
-15.0
 30
0.0
 40
1.0
 50
180.0
 51
270.0
  0
LINE
 62
7
  8
0
 10
10.0
 20
-15.0
 30
0.0
 11
10.0
 21
-12.0
 31
0.0
  0
ARC
 62
7
  8
0
 10
23.0
 20
-12.0
 30
0.0
 40
1.0
 50
90.0
 51
180.0
  0
LINE
 62
7
  8
0
 10
23.0
 20
-11.0
 30
0.0
 11
29.0
 21
-11.0
 31
0.0
  0
ARC
 62
7
  8
0
 10
29.0
 20
-12.0
 30
0.0
 40
1.0
 50
0.0
 51
90.0
  0
LINE
 62
7
  8
0
 10
30.0
 20
-12.0
 30
0.0
 11
30.0
 21
-15.0
 31
0.0
  0
ARC
 62
7
  8
0
 10
29.0
 20
-15.0
 30
0.0
 40
1.0
 50
270.0
 51
0.0
  0
LINE
 62
7
  8
0
 10
29.0
 20
-16.0
 30
0.0
 11
23.0
 21
-16.0
 31
0.0
  0
ARC
 62
7
  8
0
 10
23.0
 20
-15.0
 30
0.0
 40
1.0
 50
180.0
 51
270.0
  0
LINE
 62
7
  8
0
 10
22.0
 20
-15.0
 30
0.0
 11
22.0
 21
-12.0
 31
0.0
  0
ARC
 62
7
  8
0
 10
35.0
 20
-12.0
 30
0.0
 40
1.0
 50
90.0
 51
180.0
  0
LINE
 62
7
  8
0
 10
35.0
 20
-11.0
 30
0.0
 11
41.0
 21
-11.0
 31
0.0
  0
ARC
 62
7
  8
0
 10
41.0
 20
-12.0
 30
0.0
 40
1.0
 50
0.0
 51
90.0
  0
LINE
 62
7
  8
0
 10
42.0
 20
-12.0
 30
0.0
 11
42.0
 21
-15.0
 31
0.0
  0
ARC
 62
7
  8
0
 10
41.0
 20
-15.0
 30
0.0
 40
1.0
 50
270.0
 51
0.0
  0
LINE
 62
7
  8
0
 10
41.0
 20
-16.0
 30
0.0
 11
35.0
 21
-16.0
 31
0.0
  0
ARC
 62
7
  8
0
 10
35.0
 20
-15.0
 30
0.0
 40
1.0
 50
180.0
 51
270.0
  0
LINE
 62
7
  8
0
 10
34.0
 20
-15.0
 30
0.0
 11
34.0
 21
-12.0
 31
0.0
  0
ARC
 62
7
  8
0
 10
47.0
 20
-12.0
 30
0.0
 40
1.0
 50
90.0
 51
180.0
  0
LINE
 62
7
  8
0
 10
47.0
 20
-11.0
 30
0.0
 11
53.0
 21
-11.0
 31
0.0
  0
ARC
 62
7
  8
0
 10
53.0
 20
-12.0
 30
0.0
 40
1.0
 50
0.0
 51
90.0
  0
LINE
 62
7
  8
0
 10
54.0
 20
-12.0
 30
0.0
 11
54.0
 21
-15.0
 31
0.0
  0
ARC
 62
7
  8
0
 10
53.0
 20
-15.0
 30
0.0
 40
1.0
 50
270.0
 51
0.0
  0
LINE
 62
7
  8
0
 10
53.0
 20
-16.0
 30
0.0
 11
47.0
 21
-16.0
 31
0.0
  0
ARC
 62
7
  8
0
 10
47.0
 20
-15.0
 30
0.0
 40
1.0
 50
180.0
 51
270.0
  0
LINE
 62
7
  8
0
 10
46.0
 20
-15.0
 30
0.0
 11
46.0
 21
-12.0
 31
0.0
  0
ARC
 62
7
  8
0
 10
59.0
 20
-12.0
 30
0.0
 40
1.0
 50
90.0
 51
180.0
  0
LINE
 62
7
  8
0
 10
59.0
 20
-11.0
 30
0.0
 11
65.0
 21
-11.0
 31
0.0
  0
ARC
 62
7
  8
0
 10
65.0
 20
-12.0
 30
0.0
 40
1.0
 50
0.0
 51
90.0
  0
LINE
 62
7
  8
0
 10
66.0
 20
-12.0
 30
0.0
 11
66.0
 21
-15.0
 31
0.0
  0
ARC
 62
7
  8
0
 10
65.0
 20
-15.0
 30
0.0
 40
1.0
 50
270.0
 51
0.0
  0
LINE
 62
7
  8
0
 10
65.0
 20
-16.0
 30
0.0
 11
59.0
 21
-16.0
 31
0.0
  0
ARC
 62
7
  8
0
 10
59.0
 20
-15.0
 30
0.0
 40
1.0
 50
180.0
 51
270.0
  0
LINE
 62
7
  8
0
 10
58.0
 20
-15.0
 30
0.0
 11
58.0
 21
-12.0
 31
0.0
  0
ARC
 62
7
  8
0
 10
71.0
 20
-12.0
 30
0.0
 40
1.0
 50
90.0
 51
180.0
  0
LINE
 62
7
  8
0
 10
71.0
 20
-11.0
 30
0.0
 11
77.0
 21
-11.0
 31
0.0
  0
ARC
 62
7
  8
0
 10
77.0
 20
-12.0
 30
0.0
 40
1.0
 50
0.0
 51
90.0
  0
LINE
 62
7
  8
0
 10
78.0
 20
-12.0
 30
0.0
 11
78.0
 21
-15.0
 31
0.0
  0
ARC
 62
7
  8
0
 10
77.0
 20
-15.0
 30
0.0
 40
1.0
 50
270.0
 51
0.0
  0
LINE
 62
7
  8
0
 10
77.0
 20
-16.0
 30
0.0
 11
71.0
 21
-16.0
 31
0.0
  0
ARC
 62
7
  8
0
 10
71.0
 20
-15.0
 30
0.0
 40
1.0
 50
180.0
 51
270.0
  0
LINE
 62
7
  8
0
 10
70.0
 20
-15.0
 30
0.0
 11
70.0
 21
-12.0
 31
0.0
  0
ARC
 62
7
  8
0
 10
83.0
 20
-12.0
 30
0.0
 40
1.0
 50
90.0
 51
180.0
  0
LINE
 62
7
  8
0
 10
83.0
 20
-11.0
 30
0.0
 11
89.0
 21
-11.0
 31
0.0
  0
ARC
 62
7
  8
0
 10
89.0
 20
-12.0
 30
0.0
 40
1.0
 50
0.0
 51
90.0
  0
LINE
 62
7
  8
0
 10
90.0
 20
-12.0
 30
0.0
 11
90.0
 21
-15.0
 31
0.0
  0
ARC
 62
7
  8
0
 10
89.0
 20
-15.0
 30
0.0
 40
1.0
 50
270.0
 51
0.0
  0
LINE
 62
7
  8
0
 10
89.0
 20
-16.0
 30
0.0
 11
83.0
 21
-16.0
 31
0.0
  0
ARC
 62
7
  8
0
 10
83.0
 20
-15.0
 30
0.0
 40
1.0
 50
180.0
 51
270.0
  0
LINE
 62
7
  8
0
 10
82.0
 20
-15.0
 30
0.0
 11
82.0
 21
-12.0
 31
0.0
  0
ARC
 62
7
  8
0
 10
95.0
 20
-12.0
 30
0.0
 40
1.0
 50
90.0
 51
180.0
  0
LINE
 62
7
  8
0
 10
95.0
 20
-11.0
 30
0.0
 11
101.0
 21
-11.0
 31
0.0
  0
ARC
 62
7
  8
0
 10
101.0
 20
-12.0
 30
0.0
 40
1.0
 50
0.0
 51
90.0
  0
LINE
 62
7
  8
0
 10
102.0
 20
-12.0
 30
0.0
 11
102.0
 21
-15.0
 31
0.0
  0
ARC
 62
7
  8
0
 10
101.0
 20
-15.0
 30
0.0
 40
1.0
 50
270.0
 51
0.0
  0
LINE
 62
7
  8
0
 10
101.0
 20
-16.0
 30
0.0
 11
95.0
 21
-16.0
 31
0.0
  0
ARC
 62
7
  8
0
 10
95.0
 20
-15.0
 30
0.0
 40
1.0
 50
180.0
 51
270.0
  0
LINE
 62
7
  8
0
 10
94.0
 20
-15.0
 30
0.0
 11
94.0
 21
-12.0
 31
0.0
  0
ARC
 62
7
  8
0
 10
11.0
 20
-19.0
 30
0.0
 40
1.0
 50
90.0
 51
180.0
  0
LINE
 62
7
  8
0
 10
11.0
 20
-18.0
 30
0.0
 11
17.0
 21
-18.0
 31
0.0
  0
ARC
 62
7
  8
0
 10
17.0
 20
-19.0
 30
0.0
 40
1.0
 50
0.0
 51
90.0
  0
LINE
 62
7
  8
0
 10
18.0
 20
-19.0
 30
0.0
 11
18.0
 21
-22.0
 31
0.0
  0
ARC
 62
7
  8
0
 10
17.0
 20
-22.0
 30
0.0
 40
1.0
 50
270.0
 51
0.0
  0
LINE
 62
7
  8
0
 10
17.0
 20
-23.0
 30
0.0
 11
11.0
 21
-23.0
 31
0.0
  0
ARC
 62
7
  8
0
 10
11.0
 20
-22.0
 30
0.0
 40
1.0
 50
180.0
 51
270.0
  0
LINE
 62
7
  8
0
 10
10.0
 20
-22.0
 30
0.0
 11
10.0
 21
-19.0
 31
0.0
  0
ARC
 62
7
  8
0
 10
23.0
 20
-19.0
 30
0.0
 40
1.0
 50
90.0
 51
180.0
  0
LINE
 62
7
  8
0
 10
23.0
 20
-18.0
 30
0.0
 11
29.0
 21
-18.0
 31
0.0
  0
ARC
 62
7
  8
0
 10
29.0
 20
-19.0
 30
0.0
 40
1.0
 50
0.0
 51
90.0
  0
LINE
 62
7
  8
0
 10
30.0
 20
-19.0
 30
0.0
 11
30.0
 21
-22.0
 31
0.0
  0
ARC
 62
7
  8
0
 10
29.0
 20
-22.0
 30
0.0
 40
1.0
 50
270.0
 51
0.0
  0
LINE
 62
7
  8
0
 10
29.0
 20
-23.0
 30
0.0
 11
23.0
 21
-23.0
 31
0.0
  0
ARC
 62
7
  8
0
 10
23.0
 20
-22.0
 30
0.0
 40
1.0
 50
180.0
 51
270.0
  0
LINE
 62
7
  8
0
 10
22.0
 20
-22.0
 30
0.0
 11
22.0
 21
-19.0
 31
0.0
  0
ARC
 62
7
  8
0
 10
35.0
 20
-19.0
 30
0.0
 40
1.0
 50
90.0
 51
180.0
  0
LINE
 62
7
  8
0
 10
35.0
 20
-18.0
 30
0.0
 11
41.0
 21
-18.0
 31
0.0
  0
ARC
 62
7
  8
0
 10
41.0
 20
-19.0
 30
0.0
 40
1.0
 50
0.0
 51
90.0
  0
LINE
 62
7
  8
0
 10
42.0
 20
-19.0
 30
0.0
 11
42.0
 21
-22.0
 31
0.0
  0
ARC
 62
7
  8
0
 10
41.0
 20
-22.0
 30
0.0
 40
1.0
 50
270.0
 51
0.0
  0
LINE
 62
7
  8
0
 10
41.0
 20
-23.0
 30
0.0
 11
35.0
 21
-23.0
 31
0.0
  0
ARC
 62
7
  8
0
 10
35.0
 20
-22.0
 30
0.0
 40
1.0
 50
180.0
 51
270.0
  0
LINE
 62
7
  8
0
 10
34.0
 20
-22.0
 30
0.0
 11
34.0
 21
-19.0
 31
0.0
  0
ARC
 62
7
  8
0
 10
47.0
 20
-19.0
 30
0.0
 40
1.0
 50
90.0
 51
180.0
  0
LINE
 62
7
  8
0
 10
47.0
 20
-18.0
 30
0.0
 11
53.0
 21
-18.0
 31
0.0
  0
ARC
 62
7
  8
0
 10
53.0
 20
-19.0
 30
0.0
 40
1.0
 50
0.0
 51
90.0
  0
LINE
 62
7
  8
0
 10
54.0
 20
-19.0
 30
0.0
 11
54.0
 21
-22.0
 31
0.0
  0
ARC
 62
7
  8
0
 10
53.0
 20
-22.0
 30
0.0
 40
1.0
 50
270.0
 51
0.0
  0
LINE
 62
7
  8
0
 10
53.0
 20
-23.0
 30
0.0
 11
47.0
 21
-23.0
 31
0.0
  0
ARC
 62
7
  8
0
 10
47.0
 20
-22.0
 30
0.0
 40
1.0
 50
180.0
 51
270.0
  0
LINE
 62
7
  8
0
 10
46.0
 20
-22.0
 30
0.0
 11
46.0
 21
-19.0
 31
0.0
  0
ARC
 62
7
  8
0
 10
59.0
 20
-19.0
 30
0.0
 40
1.0
 50
90.0
 51
180.0
  0
LINE
 62
7
  8
0
 10
59.0
 20
-18.0
 30
0.0
 11
65.0
 21
-18.0
 31
0.0
  0
ARC
 62
7
  8
0
 10
65.0
 20
-19.0
 30
0.0
 40
1.0
 50
0.0
 51
90.0
  0
LINE
 62
7
  8
0
 10
66.0
 20
-19.0
 30
0.0
 11
66.0
 21
-22.0
 31
0.0
  0
ARC
 62
7
  8
0
 10
65.0
 20
-22.0
 30
0.0
 40
1.0
 50
270.0
 51
0.0
  0
LINE
 62
7
  8
0
 10
65.0
 20
-23.0
 30
0.0
 11
59.0
 21
-23.0
 31
0.0
  0
ARC
 62
7
  8
0
 10
59.0
 20
-22.0
 30
0.0
 40
1.0
 50
180.0
 51
270.0
  0
LINE
 62
7
  8
0
 10
58.0
 20
-22.0
 30
0.0
 11
58.0
 21
-19.0
 31
0.0
  0
ARC
 62
7
  8
0
 10
71.0
 20
-19.0
 30
0.0
 40
1.0
 50
90.0
 51
180.0
  0
LINE
 62
7
  8
0
 10
71.0
 20
-18.0
 30
0.0
 11
77.0
 21
-18.0
 31
0.0
  0
ARC
 62
7
  8
0
 10
77.0
 20
-19.0
 30
0.0
 40
1.0
 50
0.0
 51
90.0
  0
LINE
 62
7
  8
0
 10
78.0
 20
-19.0
 30
0.0
 11
78.0
 21
-22.0
 31
0.0
  0
ARC
 62
7
  8
0
 10
77.0
 20
-22.0
 30
0.0
 40
1.0
 50
270.0
 51
0.0
  0
LINE
 62
7
  8
0
 10
77.0
 20
-23.0
 30
0.0
 11
71.0
 21
-23.0
 31
0.0
  0
ARC
 62
7
  8
0
 10
71.0
 20
-22.0
 30
0.0
 40
1.0
 50
180.0
 51
270.0
  0
LINE
 62
7
  8
0
 10
70.0
 20
-22.0
 30
0.0
 11
70.0
 21
-19.0
 31
0.0
  0
ARC
 62
7
  8
0
 10
83.0
 20
-19.0
 30
0.0
 40
1.0
 50
90.0
 51
180.0
  0
LINE
 62
7
  8
0
 10
83.0
 20
-18.0
 30
0.0
 11
89.0
 21
-18.0
 31
0.0
  0
ARC
 62
7
  8
0
 10
89.0
 20
-19.0
 30
0.0
 40
1.0
 50
0.0
 51
90.0
  0
LINE
 62
7
  8
0
 10
90.0
 20
-19.0
 30
0.0
 11
90.0
 21
-22.0
 31
0.0
  0
ARC
 62
7
  8
0
 10
89.0
 20
-22.0
 30
0.0
 40
1.0
 50
270.0
 51
0.0
  0
LINE
 62
7
  8
0
 10
89.0
 20
-23.0
 30
0.0
 11
83.0
 21
-23.0
 31
0.0
  0
ARC
 62
7
  8
0
 10
83.0
 20
-22.0
 30
0.0
 40
1.0
 50
180.0
 51
270.0
  0
LINE
 62
7
  8
0
 10
82.0
 20
-22.0
 30
0.0
 11
82.0
 21
-19.0
 31
0.0
  0
ARC
 62
7
  8
0
 10
95.0
 20
-19.0
 30
0.0
 40
1.0
 50
90.0
 51
180.0
  0
LINE
 62
7
  8
0
 10
95.0
 20
-18.0
 30
0.0
 11
101.0
 21
-18.0
 31
0.0
  0
ARC
 62
7
  8
0
 10
101.0
 20
-19.0
 30
0.0
 40
1.0
 50
0.0
 51
90.0
  0
LINE
 62
7
  8
0
 10
102.0
 20
-19.0
 30
0.0
 11
102.0
 21
-22.0
 31
0.0
  0
ARC
 62
7
  8
0
 10
101.0
 20
-22.0
 30
0.0
 40
1.0
 50
270.0
 51
0.0
  0
LINE
 62
7
  8
0
 10
101.0
 20
-23.0
 30
0.0
 11
95.0
 21
-23.0
 31
0.0
  0
ARC
 62
7
  8
0
 10
95.0
 20
-22.0
 30
0.0
 40
1.0
 50
180.0
 51
270.0
  0
LINE
 62
7
  8
0
 10
94.0
 20
-22.0
 30
0.0
 11
94.0
 21
-19.0
 31
0.0
  0
ARC
 62
7
  8
0
 10
11.0
 20
-26.0
 30
0.0
 40
1.0
 50
90.0
 51
180.0
  0
LINE
 62
7
  8
0
 10
11.0
 20
-25.0
 30
0.0
 11
13.0
 21
-25.0
 31
0.0
  0
ARC
 62
7
  8
0
 10
14.0
 20
-25.0
 30
0.0
 40
1.0
 50
180.0
 51
270.0
  0
LINE
 62
7
  8
0
 10
14.0
 20
-26.0
 30
0.0
 11
17.0
 21
-26.0
 31
0.0
  0
ARC
 62
7
  8
0
 10
17.0
 20
-25.0
 30
0.0
 40
1.0
 50
270.0
 51
0.0
  0
LINE
 62
7
  8
0
 10
18.0
 20
-25.0
 30
0.0
 11
57.0
 21
-25.0
 31
0.0
  0
ARC
 62
7
  8
0
 10
57.0
 20
-26.0
 30
0.0
 40
1.0
 50
0.0
 51
90.0
  0
LINE
 62
7
  8
0
 10
58.0
 20
-26.0
 30
0.0
 11
58.0
 21
-34.0
 31
0.0
  0
ARC
 62
7
  8
0
 10
57.0
 20
-34.0
 30
0.0
 40
1.0
 50
270.0
 51
0.0
  0
LINE
 62
7
  8
0
 10
57.0
 20
-35.0
 30
0.0
 11
18.0
 21
-35.0
 31
0.0
  0
ARC
 62
7
  8
0
 10
17.0
 20
-35.0
 30
0.0
 40
1.0
 50
270.0
 51
0.0
  0
LINE
 62
7
  8
0
 10
17.0
 20
-36.0
 30
0.0
 11
14.0
 21
-36.0
 31
0.0
  0
ARC
 62
7
  8
0
 10
14.0
 20
-35.0
 30
0.0
 40
1.0
 50
180.0
 51
270.0
  0
LINE
 62
7
  8
0
 10
13.0
 20
-35.0
 30
0.0
 11
11.0
 21
-35.0
 31
0.0
  0
ARC
 62
7
  8
0
 10
11.0
 20
-34.0
 30
0.0
 40
1.0
 50
180.0
 51
270.0
  0
LINE
 62
7
  8
0
 10
10.0
 20
-34.0
 30
0.0
 11
10.0
 21
-26.0
 31
0.0
  0
ARC
 62
7
  8
0
 10
63.0
 20
-26.0
 30
0.0
 40
1.0
 50
90.0
 51
180.0
  0
LINE
 62
7
  8
0
 10
63.0
 20
-25.0
 30
0.0
 11
65.0
 21
-25.0
 31
0.0
  0
ARC
 62
7
  8
0
 10
66.0
 20
-25.0
 30
0.0
 40
1.0
 50
180.0
 51
270.0
  0
LINE
 62
7
  8
0
 10
66.0
 20
-26.0
 30
0.0
 11
69.0
 21
-26.0
 31
0.0
  0
ARC
 62
7
  8
0
 10
69.0
 20
-25.0
 30
0.0
 40
1.0
 50
270.0
 51
0.0
  0
LINE
 62
7
  8
0
 10
70.0
 20
-25.0
 30
0.0
 11
109.0
 21
-25.0
 31
0.0
  0
ARC
 62
7
  8
0
 10
109.0
 20
-26.0
 30
0.0
 40
1.0
 50
0.0
 51
90.0
  0
LINE
 62
7
  8
0
 10
110.0
 20
-26.0
 30
0.0
 11
110.0
 21
-34.0
 31
0.0
  0
ARC
 62
7
  8
0
 10
109.0
 20
-34.0
 30
0.0
 40
1.0
 50
270.0
 51
0.0
  0
LINE
 62
7
  8
0
 10
109.0
 20
-35.0
 30
0.0
 11
70.0
 21
-35.0
 31
0.0
  0
ARC
 62
7
  8
0
 10
69.0
 20
-35.0
 30
0.0
 40
1.0
 50
270.0
 51
0.0
  0
LINE
 62
7
  8
0
 10
69.0
 20
-36.0
 30
0.0
 11
66.0
 21
-36.0
 31
0.0
  0
ARC
 62
7
  8
0
 10
66.0
 20
-35.0
 30
0.0
 40
1.0
 50
180.0
 51
270.0
  0
LINE
 62
7
  8
0
 10
65.0
 20
-35.0
 30
0.0
 11
63.0
 21
-35.0
 31
0.0
  0
ARC
 62
7
  8
0
 10
63.0
 20
-34.0
 30
0.0
 40
1.0
 50
180.0
 51
270.0
  0
LINE
 62
7
  8
0
 10
62.0
 20
-34.0
 30
0.0
 11
62.0
 21
-26.0
 31
0.0
  0
ARC
 62
7
  8
0
 10
11.0
 20
-39.0
 30
0.0
 40
1.0
 50
90.0
 51
180.0
  0
LINE
 62
7
  8
0
 10
11.0
 20
-38.0
 30
0.0
 11
13.0
 21
-38.0
 31
0.0
  0
ARC
 62
7
  8
0
 10
14.0
 20
-38.0
 30
0.0
 40
1.0
 50
180.0
 51
270.0
  0
LINE
 62
7
  8
0
 10
14.0
 20
-39.0
 30
0.0
 11
17.0
 21
-39.0
 31
0.0
  0
ARC
 62
7
  8
0
 10
17.0
 20
-38.0
 30
0.0
 40
1.0
 50
270.0
 51
0.0
  0
LINE
 62
7
  8
0
 10
18.0
 20
-38.0
 30
0.0
 11
57.0
 21
-38.0
 31
0.0
  0
ARC
 62
7
  8
0
 10
57.0
 20
-39.0
 30
0.0
 40
1.0
 50
0.0
 51
90.0
  0
LINE
 62
7
  8
0
 10
58.0
 20
-39.0
 30
0.0
 11
58.0
 21
-47.0
 31
0.0
  0
ARC
 62
7
  8
0
 10
57.0
 20
-47.0
 30
0.0
 40
1.0
 50
270.0
 51
0.0
  0
LINE
 62
7
  8
0
 10
57.0
 20
-48.0
 30
0.0
 11
18.0
 21
-48.0
 31
0.0
  0
ARC
 62
7
  8
0
 10
17.0
 20
-48.0
 30
0.0
 40
1.0
 50
270.0
 51
0.0
  0
LINE
 62
7
  8
0
 10
17.0
 20
-49.0
 30
0.0
 11
14.0
 21
-49.0
 31
0.0
  0
ARC
 62
7
  8
0
 10
14.0
 20
-48.0
 30
0.0
 40
1.0
 50
180.0
 51
270.0
  0
LINE
 62
7
  8
0
 10
13.0
 20
-48.0
 30
0.0
 11
11.0
 21
-48.0
 31
0.0
  0
ARC
 62
7
  8
0
 10
11.0
 20
-47.0
 30
0.0
 40
1.0
 50
180.0
 51
270.0
  0
LINE
 62
7
  8
0
 10
10.0
 20
-47.0
 30
0.0
 11
10.0
 21
-39.0
 31
0.0
  0
ARC
 62
7
  8
0
 10
63.0
 20
-39.0
 30
0.0
 40
1.0
 50
90.0
 51
180.0
  0
LINE
 62
7
  8
0
 10
63.0
 20
-38.0
 30
0.0
 11
65.0
 21
-38.0
 31
0.0
  0
ARC
 62
7
  8
0
 10
66.0
 20
-38.0
 30
0.0
 40
1.0
 50
180.0
 51
270.0
  0
LINE
 62
7
  8
0
 10
66.0
 20
-39.0
 30
0.0
 11
69.0
 21
-39.0
 31
0.0
  0
ARC
 62
7
  8
0
 10
69.0
 20
-38.0
 30
0.0
 40
1.0
 50
270.0
 51
0.0
  0
LINE
 62
7
  8
0
 10
70.0
 20
-38.0
 30
0.0
 11
109.0
 21
-38.0
 31
0.0
  0
ARC
 62
7
  8
0
 10
109.0
 20
-39.0
 30
0.0
 40
1.0
 50
0.0
 51
90.0
  0
LINE
 62
7
  8
0
 10
110.0
 20
-39.0
 30
0.0
 11
110.0
 21
-47.0
 31
0.0
  0
ARC
 62
7
  8
0
 10
109.0
 20
-47.0
 30
0.0
 40
1.0
 50
270.0
 51
0.0
  0
LINE
 62
7
  8
0
 10
109.0
 20
-48.0
 30
0.0
 11
70.0
 21
-48.0
 31
0.0
  0
ARC
 62
7
  8
0
 10
69.0
 20
-48.0
 30
0.0
 40
1.0
 50
270.0
 51
0.0
  0
LINE
 62
7
  8
0
 10
69.0
 20
-49.0
 30
0.0
 11
66.0
 21
-49.0
 31
0.0
  0
ARC
 62
7
  8
0
 10
66.0
 20
-48.0
 30
0.0
 40
1.0
 50
180.0
 51
270.0
  0
LINE
 62
7
  8
0
 10
65.0
 20
-48.0
 30
0.0
 11
63.0
 21
-48.0
 31
0.0
  0
ARC
 62
7
  8
0
 10
63.0
 20
-47.0
 30
0.0
 40
1.0
 50
180.0
 51
270.0
  0
LINE
 62
7
  8
0
 10
62.0
 20
-47.0
 30
0.0
 11
62.0
 21
-39.0
 31
0.0
  0
ARC
 62
7
  8
0
 10
11.0
 20
-52.0
 30
0.0
 40
1.0
 50
90.0
 51
180.0
  0
LINE
 62
7
  8
0
 10
11.0
 20
-51.0
 30
0.0
 11
13.0
 21
-51.0
 31
0.0
  0
ARC
 62
7
  8
0
 10
14.0
 20
-51.0
 30
0.0
 40
1.0
 50
180.0
 51
270.0
  0
LINE
 62
7
  8
0
 10
14.0
 20
-52.0
 30
0.0
 11
17.0
 21
-52.0
 31
0.0
  0
ARC
 62
7
  8
0
 10
17.0
 20
-51.0
 30
0.0
 40
1.0
 50
270.0
 51
0.0
  0
LINE
 62
7
  8
0
 10
18.0
 20
-51.0
 30
0.0
 11
57.0
 21
-51.0
 31
0.0
  0
ARC
 62
7
  8
0
 10
57.0
 20
-52.0
 30
0.0
 40
1.0
 50
0.0
 51
90.0
  0
LINE
 62
7
  8
0
 10
58.0
 20
-52.0
 30
0.0
 11
58.0
 21
-60.0
 31
0.0
  0
ARC
 62
7
  8
0
 10
57.0
 20
-60.0
 30
0.0
 40
1.0
 50
270.0
 51
0.0
  0
LINE
 62
7
  8
0
 10
57.0
 20
-61.0
 30
0.0
 11
18.0
 21
-61.0
 31
0.0
  0
ARC
 62
7
  8
0
 10
17.0
 20
-61.0
 30
0.0
 40
1.0
 50
270.0
 51
0.0
  0
LINE
 62
7
  8
0
 10
17.0
 20
-62.0
 30
0.0
 11
14.0
 21
-62.0
 31
0.0
  0
ARC
 62
7
  8
0
 10
14.0
 20
-61.0
 30
0.0
 40
1.0
 50
180.0
 51
270.0
  0
LINE
 62
7
  8
0
 10
13.0
 20
-61.0
 30
0.0
 11
11.0
 21
-61.0
 31
0.0
  0
ARC
 62
7
  8
0
 10
11.0
 20
-60.0
 30
0.0
 40
1.0
 50
180.0
 51
270.0
  0
LINE
 62
7
  8
0
 10
10.0
 20
-60.0
 30
0.0
 11
10.0
 21
-52.0
 31
0.0
  0
ARC
 62
7
  8
0
 10
63.0
 20
-52.0
 30
0.0
 40
1.0
 50
90.0
 51
180.0
  0
LINE
 62
7
  8
0
 10
63.0
 20
-51.0
 30
0.0
 11
65.0
 21
-51.0
 31
0.0
  0
ARC
 62
7
  8
0
 10
66.0
 20
-51.0
 30
0.0
 40
1.0
 50
180.0
 51
270.0
  0
LINE
 62
7
  8
0
 10
66.0
 20
-52.0
 30
0.0
 11
69.0
 21
-52.0
 31
0.0
  0
ARC
 62
7
  8
0
 10
69.0
 20
-51.0
 30
0.0
 40
1.0
 50
270.0
 51
0.0
  0
LINE
 62
7
  8
0
 10
70.0
 20
-51.0
 30
0.0
 11
109.0
 21
-51.0
 31
0.0
  0
ARC
 62
7
  8
0
 10
109.0
 20
-52.0
 30
0.0
 40
1.0
 50
0.0
 51
90.0
  0
LINE
 62
7
  8
0
 10
110.0
 20
-52.0
 30
0.0
 11
110.0
 21
-60.0
 31
0.0
  0
ARC
 62
7
  8
0
 10
109.0
 20
-60.0
 30
0.0
 40
1.0
 50
270.0
 51
0.0
  0
LINE
 62
7
  8
0
 10
109.0
 20
-61.0
 30
0.0
 11
70.0
 21
-61.0
 31
0.0
  0
ARC
 62
7
  8
0
 10
69.0
 20
-61.0
 30
0.0
 40
1.0
 50
270.0
 51
0.0
  0
LINE
 62
7
  8
0
 10
69.0
 20
-62.0
 30
0.0
 11
66.0
 21
-62.0
 31
0.0
  0
ARC
 62
7
  8
0
 10
66.0
 20
-61.0
 30
0.0
 40
1.0
 50
180.0
 51
270.0
  0
LINE
 62
7
  8
0
 10
65.0
 20
-61.0
 30
0.0
 11
63.0
 21
-61.0
 31
0.0
  0
ARC
 62
7
  8
0
 10
63.0
 20
-60.0
 30
0.0
 40
1.0
 50
180.0
 51
270.0
  0
LINE
 62
7
  8
0
 10
62.0
 20
-60.0
 30
0.0
 11
62.0
 21
-52.0
 31
0.0
  0
ARC
 62
7
  8
0
 10
11.0
 20
-65.0
 30
0.0
 40
1.0
 50
90.0
 51
180.0
  0
LINE
 62
7
  8
0
 10
11.0
 20
-64.0
 30
0.0
 11
13.0
 21
-64.0
 31
0.0
  0
ARC
 62
7
  8
0
 10
14.0
 20
-64.0
 30
0.0
 40
1.0
 50
180.0
 51
270.0
  0
LINE
 62
7
  8
0
 10
14.0
 20
-65.0
 30
0.0
 11
17.0
 21
-65.0
 31
0.0
  0
ARC
 62
7
  8
0
 10
17.0
 20
-64.0
 30
0.0
 40
1.0
 50
270.0
 51
0.0
  0
LINE
 62
7
  8
0
 10
18.0
 20
-64.0
 30
0.0
 11
57.0
 21
-64.0
 31
0.0
  0
ARC
 62
7
  8
0
 10
57.0
 20
-65.0
 30
0.0
 40
1.0
 50
0.0
 51
90.0
  0
LINE
 62
7
  8
0
 10
58.0
 20
-65.0
 30
0.0
 11
58.0
 21
-73.0
 31
0.0
  0
ARC
 62
7
  8
0
 10
57.0
 20
-73.0
 30
0.0
 40
1.0
 50
270.0
 51
0.0
  0
LINE
 62
7
  8
0
 10
57.0
 20
-74.0
 30
0.0
 11
18.0
 21
-74.0
 31
0.0
  0
ARC
 62
7
  8
0
 10
17.0
 20
-74.0
 30
0.0
 40
1.0
 50
270.0
 51
0.0
  0
LINE
 62
7
  8
0
 10
17.0
 20
-75.0
 30
0.0
 11
14.0
 21
-75.0
 31
0.0
  0
ARC
 62
7
  8
0
 10
14.0
 20
-74.0
 30
0.0
 40
1.0
 50
180.0
 51
270.0
  0
LINE
 62
7
  8
0
 10
13.0
 20
-74.0
 30
0.0
 11
11.0
 21
-74.0
 31
0.0
  0
ARC
 62
7
  8
0
 10
11.0
 20
-73.0
 30
0.0
 40
1.0
 50
180.0
 51
270.0
  0
LINE
 62
7
  8
0
 10
10.0
 20
-73.0
 30
0.0
 11
10.0
 21
-65.0
 31
0.0
  0
ARC
 62
7
  8
0
 10
63.0
 20
-65.0
 30
0.0
 40
1.0
 50
90.0
 51
180.0
  0
LINE
 62
7
  8
0
 10
63.0
 20
-64.0
 30
0.0
 11
65.0
 21
-64.0
 31
0.0
  0
ARC
 62
7
  8
0
 10
66.0
 20
-64.0
 30
0.0
 40
1.0
 50
180.0
 51
270.0
  0
LINE
 62
7
  8
0
 10
66.0
 20
-65.0
 30
0.0
 11
69.0
 21
-65.0
 31
0.0
  0
ARC
 62
7
  8
0
 10
69.0
 20
-64.0
 30
0.0
 40
1.0
 50
270.0
 51
0.0
  0
LINE
 62
7
  8
0
 10
70.0
 20
-64.0
 30
0.0
 11
109.0
 21
-64.0
 31
0.0
  0
ARC
 62
7
  8
0
 10
109.0
 20
-65.0
 30
0.0
 40
1.0
 50
0.0
 51
90.0
  0
LINE
 62
7
  8
0
 10
110.0
 20
-65.0
 30
0.0
 11
110.0
 21
-73.0
 31
0.0
  0
ARC
 62
7
  8
0
 10
109.0
 20
-73.0
 30
0.0
 40
1.0
 50
270.0
 51
0.0
  0
LINE
 62
7
  8
0
 10
109.0
 20
-74.0
 30
0.0
 11
70.0
 21
-74.0
 31
0.0
  0
ARC
 62
7
  8
0
 10
69.0
 20
-74.0
 30
0.0
 40
1.0
 50
270.0
 51
0.0
  0
LINE
 62
7
  8
0
 10
69.0
 20
-75.0
 30
0.0
 11
66.0
 21
-75.0
 31
0.0
  0
ARC
 62
7
  8
0
 10
66.0
 20
-74.0
 30
0.0
 40
1.0
 50
180.0
 51
270.0
  0
LINE
 62
7
  8
0
 10
65.0
 20
-74.0
 30
0.0
 11
63.0
 21
-74.0
 31
0.0
  0
ARC
 62
7
  8
0
 10
63.0
 20
-73.0
 30
0.0
 40
1.0
 50
180.0
 51
270.0
  0
LINE
 62
7
  8
0
 10
62.0
 20
-73.0
 30
0.0
 11
62.0
 21
-65.0
 31
0.0
  0
ARC
 62
7
  8
0
 10
11.0
 20
-78.0
 30
0.0
 40
1.0
 50
90.0
 51
180.0
  0
LINE
 62
7
  8
0
 10
11.0
 20
-77.0
 30
0.0
 11
13.0
 21
-77.0
 31
0.0
  0
ARC
 62
7
  8
0
 10
14.0
 20
-77.0
 30
0.0
 40
1.0
 50
180.0
 51
270.0
  0
LINE
 62
7
  8
0
 10
14.0
 20
-78.0
 30
0.0
 11
17.0
 21
-78.0
 31
0.0
  0
ARC
 62
7
  8
0
 10
17.0
 20
-77.0
 30
0.0
 40
1.0
 50
270.0
 51
0.0
  0
LINE
 62
7
  8
0
 10
18.0
 20
-77.0
 30
0.0
 11
57.0
 21
-77.0
 31
0.0
  0
ARC
 62
7
  8
0
 10
57.0
 20
-78.0
 30
0.0
 40
1.0
 50
0.0
 51
90.0
  0
LINE
 62
7
  8
0
 10
58.0
 20
-78.0
 30
0.0
 11
58.0
 21
-86.0
 31
0.0
  0
ARC
 62
7
  8
0
 10
57.0
 20
-86.0
 30
0.0
 40
1.0
 50
270.0
 51
0.0
  0
LINE
 62
7
  8
0
 10
57.0
 20
-87.0
 30
0.0
 11
18.0
 21
-87.0
 31
0.0
  0
ARC
 62
7
  8
0
 10
17.0
 20
-87.0
 30
0.0
 40
1.0
 50
270.0
 51
0.0
  0
LINE
 62
7
  8
0
 10
17.0
 20
-88.0
 30
0.0
 11
14.0
 21
-88.0
 31
0.0
  0
ARC
 62
7
  8
0
 10
14.0
 20
-87.0
 30
0.0
 40
1.0
 50
180.0
 51
270.0
  0
LINE
 62
7
  8
0
 10
13.0
 20
-87.0
 30
0.0
 11
11.0
 21
-87.0
 31
0.0
  0
ARC
 62
7
  8
0
 10
11.0
 20
-86.0
 30
0.0
 40
1.0
 50
180.0
 51
270.0
  0
LINE
 62
7
  8
0
 10
10.0
 20
-86.0
 30
0.0
 11
10.0
 21
-78.0
 31
0.0
  0
ARC
 62
7
  8
0
 10
63.0
 20
-78.0
 30
0.0
 40
1.0
 50
90.0
 51
180.0
  0
LINE
 62
7
  8
0
 10
63.0
 20
-77.0
 30
0.0
 11
65.0
 21
-77.0
 31
0.0
  0
ARC
 62
7
  8
0
 10
66.0
 20
-77.0
 30
0.0
 40
1.0
 50
180.0
 51
270.0
  0
LINE
 62
7
  8
0
 10
66.0
 20
-78.0
 30
0.0
 11
69.0
 21
-78.0
 31
0.0
  0
ARC
 62
7
  8
0
 10
69.0
 20
-77.0
 30
0.0
 40
1.0
 50
270.0
 51
0.0
  0
LINE
 62
7
  8
0
 10
70.0
 20
-77.0
 30
0.0
 11
109.0
 21
-77.0
 31
0.0
  0
ARC
 62
7
  8
0
 10
109.0
 20
-78.0
 30
0.0
 40
1.0
 50
0.0
 51
90.0
  0
LINE
 62
7
  8
0
 10
110.0
 20
-78.0
 30
0.0
 11
110.0
 21
-86.0
 31
0.0
  0
ARC
 62
7
  8
0
 10
109.0
 20
-86.0
 30
0.0
 40
1.0
 50
270.0
 51
0.0
  0
LINE
 62
7
  8
0
 10
109.0
 20
-87.0
 30
0.0
 11
70.0
 21
-87.0
 31
0.0
  0
ARC
 62
7
  8
0
 10
69.0
 20
-87.0
 30
0.0
 40
1.0
 50
270.0
 51
0.0
  0
LINE
 62
7
  8
0
 10
69.0
 20
-88.0
 30
0.0
 11
66.0
 21
-88.0
 31
0.0
  0
ARC
 62
7
  8
0
 10
66.0
 20
-87.0
 30
0.0
 40
1.0
 50
180.0
 51
270.0
  0
LINE
 62
7
  8
0
 10
65.0
 20
-87.0
 30
0.0
 11
63.0
 21
-87.0
 31
0.0
  0
ARC
 62
7
  8
0
 10
63.0
 20
-86.0
 30
0.0
 40
1.0
 50
180.0
 51
270.0
  0
LINE
 62
7
  8
0
 10
62.0
 20
-86.0
 30
0.0
 11
62.0
 21
-78.0
 31
0.0
  0
ENDSEC
  0
EOF
